<?xml version="1.0" encoding="utf-8" standalone="no"?>
<!DOCTYPE svg PUBLIC "-//W3C//DTD SVG 1.1//EN"
  "http://www.w3.org/Graphics/SVG/1.1/DTD/svg11.dtd">
<svg xmlns:xlink="http://www.w3.org/1999/xlink" width="725.67125pt" height="579.878125pt" viewBox="0 0 725.67125 579.878125" xmlns="http://www.w3.org/2000/svg" version="1.1">
 <metadata>
  <rdf:RDF xmlns:dc="http://purl.org/dc/elements/1.1/" xmlns:cc="http://creativecommons.org/ns#" xmlns:rdf="http://www.w3.org/1999/02/22-rdf-syntax-ns#">
   <cc:Work>
    <dc:type rdf:resource="http://purl.org/dc/dcmitype/StillImage"/>
    <dc:date>2025-10-16T15:02:23.495691</dc:date>
    <dc:format>image/svg+xml</dc:format>
    <dc:creator>
     <cc:Agent>
      <dc:title>Matplotlib v3.10.7, https://matplotlib.org/</dc:title>
     </cc:Agent>
    </dc:creator>
   </cc:Work>
  </rdf:RDF>
 </metadata>
 <defs>
  <style type="text/css">*{stroke-linejoin: round; stroke-linecap: butt}</style>
 </defs>
 <g id="figure_1">
  <g id="patch_1">
   <path d="M 0 579.878125 
L 725.67125 579.878125 
L 725.67125 0 
L 0 0 
z
" style="fill: #ffffff"/>
  </g>
  <g id="axes_1">
   <g id="patch_2">
    <path d="M 73.18125 526.836875 
L 571.420739 526.836875 
L 571.420739 28.396875 
L 73.18125 28.396875 
z
" style="fill: #ffffff"/>
   </g>
   <g id="FillBetweenPolyCollection_1">
    <defs>
     <path id="mf35ea3f151" d="M 83.78209 -87.53778 
L 83.78209 -127.582012 
L 104.983771 -197.800612 
L 131.485871 -260.750137 
L 184.490072 -381.00088 
L 237.494273 -433.860377 
L 290.498474 -450.912236 
L 343.502675 -463.529127 
L 396.506876 -475.262073 
L 449.511077 -481.388623 
L 502.515278 -489.428516 
L 555.519479 -488.408887 
L 567.922462 -492.008473 
L 567.922462 -483.132276 
L 567.922462 -483.132276 
L 555.519479 -479.609581 
L 502.515278 -479.770614 
L 449.511077 -469.001165 
L 396.506876 -464.619358 
L 343.502675 -449.67617 
L 290.498474 -431.270444 
L 237.494273 -413.617828 
L 184.490072 -350.091165 
L 131.485871 -222.909681 
L 104.983771 -158.87424 
L 83.78209 -87.53778 
z
" style="stroke: #1f77b4; stroke-opacity: 0.2"/>
    </defs>
    <g clip-path="url(#pa3ad40eb96)">
     <use xlink:href="#mf35ea3f151" x="0" y="579.878125" style="fill: #1f77b4; fill-opacity: 0.2; stroke: #1f77b4; stroke-opacity: 0.2"/>
    </g>
   </g>
   <g id="FillBetweenPolyCollection_2">
    <defs>
     <path id="md101fa8074" d="M 83.78209 -101.388271 
L 83.78209 -139.510784 
L 104.983771 -143.228373 
L 131.485871 -150.981409 
L 184.490072 -119.352418 
L 237.494273 -134.665137 
L 290.498474 -129.880526 
L 343.502675 -149.998694 
L 396.506876 -155.823495 
L 449.511077 -142.796546 
L 502.515278 -114.779839 
L 555.519479 -148.587735 
L 567.922462 -169.393074 
L 567.922462 -130.51368 
L 567.922462 -130.51368 
L 555.519479 -109.005221 
L 502.515278 -77.847017 
L 449.511077 -104.629045 
L 396.506876 -120.054154 
L 343.502675 -111.172371 
L 290.498474 -87.308103 
L 237.494273 -92.014689 
L 184.490072 -80.627966 
L 131.485871 -113.91902 
L 104.983771 -103.603634 
L 83.78209 -101.388271 
z
" style="stroke: #ff7f0e; stroke-opacity: 0.2"/>
    </defs>
    <g clip-path="url(#pa3ad40eb96)">
     <use xlink:href="#md101fa8074" x="0" y="579.878125" style="fill: #ff7f0e; fill-opacity: 0.2; stroke: #ff7f0e; stroke-opacity: 0.2"/>
    </g>
   </g>
   <g id="FillBetweenPolyCollection_3">
    <defs>
     <path id="mcdce88d8c0" d="M 83.78209 -75.527677 
L 83.78209 -115.478549 
L 104.983771 -176.572045 
L 131.485871 -119.30341 
L 184.490072 -159.371515 
L 237.494273 -161.900913 
L 290.498474 -153.950611 
L 343.502675 -131.508653 
L 396.506876 -156.164077 
L 449.511077 -165.20106 
L 502.515278 -143.72486 
L 555.519479 -153.211068 
L 567.922462 -159.055625 
L 567.922462 -121.770518 
L 567.922462 -121.770518 
L 555.519479 -114.50063 
L 502.515278 -104.949735 
L 449.511077 -129.139622 
L 396.506876 -119.837999 
L 343.502675 -92.230703 
L 290.498474 -115.347114 
L 237.494273 -124.511164 
L 184.490072 -120.480236 
L 131.485871 -80.280212 
L 104.983771 -138.41813 
L 83.78209 -75.527677 
z
" style="stroke: #2ca02c; stroke-opacity: 0.2"/>
    </defs>
    <g clip-path="url(#pa3ad40eb96)">
     <use xlink:href="#mcdce88d8c0" x="0" y="579.878125" style="fill: #2ca02c; fill-opacity: 0.2; stroke: #2ca02c; stroke-opacity: 0.2"/>
    </g>
   </g>
   <g id="FillBetweenPolyCollection_4">
    <defs>
     <path id="m0484032d09" d="M 83.78209 -186.787403 
L 83.78209 -228.145611 
L 104.983771 -348.01234 
L 131.485871 -378.731267 
L 184.490072 -427.87496 
L 237.494273 -411.148013 
L 290.498474 -422.879776 
L 343.502675 -421.033011 
L 396.506876 -425.604395 
L 449.511077 -423.825015 
L 502.515278 -420.713257 
L 555.519479 -423.862412 
L 567.922462 -421.422414 
L 567.922462 -408.003774 
L 567.922462 -408.003774 
L 555.519479 -407.581244 
L 502.515278 -404.724219 
L 449.511077 -409.071317 
L 396.506876 -410.170744 
L 343.502675 -403.174501 
L 290.498474 -404.431543 
L 237.494273 -393.11592 
L 184.490072 -408.279121 
L 131.485871 -350.557146 
L 104.983771 -313.481582 
L 83.78209 -186.787403 
z
" style="stroke: #d62728; stroke-opacity: 0.2"/>
    </defs>
    <g clip-path="url(#pa3ad40eb96)">
     <use xlink:href="#m0484032d09" x="0" y="579.878125" style="fill: #d62728; fill-opacity: 0.2; stroke: #d62728; stroke-opacity: 0.2"/>
    </g>
   </g>
   <g id="FillBetweenPolyCollection_5">
    <defs>
     <path id="me4a749e538" d="M 83.78209 -112.169659 
L 83.78209 -151.227413 
L 104.983771 -219.383623 
L 131.485871 -281.953138 
L 184.490072 -268.189092 
L 237.494273 -288.165872 
L 290.498474 -298.401019 
L 343.502675 -299.850973 
L 396.506876 -319.563206 
L 449.511077 -302.960564 
L 502.515278 -312.225983 
L 555.519479 -303.433472 
L 567.922462 -330.226361 
L 567.922462 -298.286778 
L 567.922462 -298.286778 
L 555.519479 -270.842358 
L 502.515278 -278.729014 
L 449.511077 -268.342084 
L 396.506876 -285.479242 
L 343.502675 -265.593988 
L 290.498474 -263.524669 
L 237.494273 -254.784318 
L 184.490072 -232.089838 
L 131.485871 -246.710326 
L 104.983771 -181.492337 
L 83.78209 -112.169659 
z
" style="stroke: #9467bd; stroke-opacity: 0.2"/>
    </defs>
    <g clip-path="url(#pa3ad40eb96)">
     <use xlink:href="#me4a749e538" x="0" y="579.878125" style="fill: #9467bd; fill-opacity: 0.2; stroke: #9467bd; stroke-opacity: 0.2"/>
    </g>
   </g>
   <g id="matplotlib.axis_1">
    <g id="xtick_1">
     <g id="line2d_1">
      <defs>
       <path id="me1b2c51375" d="M 0 0 
L 0 3.5 
" style="stroke: #000000; stroke-width: 0.8"/>
      </defs>
      <g>
       <use xlink:href="#me1b2c51375" x="78.48167" y="526.836875" style="stroke: #000000; stroke-width: 0.8"/>
      </g>
     </g>
     <g id="text_1">
      <!-- 0 -->
      <g transform="translate(73.39167 545.994375) scale(0.16 -0.16)">
       <defs>
        <path id="DejaVuSans-30" d="M 2034 4250 
Q 1547 4250 1301 3770 
Q 1056 3291 1056 2328 
Q 1056 1369 1301 889 
Q 1547 409 2034 409 
Q 2525 409 2770 889 
Q 3016 1369 3016 2328 
Q 3016 3291 2770 3770 
Q 2525 4250 2034 4250 
z
M 2034 4750 
Q 2819 4750 3233 4129 
Q 3647 3509 3647 2328 
Q 3647 1150 3233 529 
Q 2819 -91 2034 -91 
Q 1250 -91 836 529 
Q 422 1150 422 2328 
Q 422 3509 836 4129 
Q 1250 4750 2034 4750 
z
" transform="scale(0.015625)"/>
       </defs>
       <use xlink:href="#DejaVuSans-30"/>
      </g>
     </g>
    </g>
    <g id="xtick_2">
     <g id="line2d_2">
      <g>
       <use xlink:href="#me1b2c51375" x="184.490072" y="526.836875" style="stroke: #000000; stroke-width: 0.8"/>
      </g>
     </g>
     <g id="text_2">
      <!-- 2000 -->
      <g transform="translate(164.130072 545.994375) scale(0.16 -0.16)">
       <defs>
        <path id="DejaVuSans-32" d="M 1228 531 
L 3431 531 
L 3431 0 
L 469 0 
L 469 531 
Q 828 903 1448 1529 
Q 2069 2156 2228 2338 
Q 2531 2678 2651 2914 
Q 2772 3150 2772 3378 
Q 2772 3750 2511 3984 
Q 2250 4219 1831 4219 
Q 1534 4219 1204 4116 
Q 875 4013 500 3803 
L 500 4441 
Q 881 4594 1212 4672 
Q 1544 4750 1819 4750 
Q 2544 4750 2975 4387 
Q 3406 4025 3406 3419 
Q 3406 3131 3298 2873 
Q 3191 2616 2906 2266 
Q 2828 2175 2409 1742 
Q 1991 1309 1228 531 
z
" transform="scale(0.015625)"/>
       </defs>
       <use xlink:href="#DejaVuSans-32"/>
       <use xlink:href="#DejaVuSans-30" transform="translate(63.623047 0)"/>
       <use xlink:href="#DejaVuSans-30" transform="translate(127.246094 0)"/>
       <use xlink:href="#DejaVuSans-30" transform="translate(190.869141 0)"/>
      </g>
     </g>
    </g>
    <g id="xtick_3">
     <g id="line2d_3">
      <g>
       <use xlink:href="#me1b2c51375" x="290.498474" y="526.836875" style="stroke: #000000; stroke-width: 0.8"/>
      </g>
     </g>
     <g id="text_3">
      <!-- 4000 -->
      <g transform="translate(270.138474 545.994375) scale(0.16 -0.16)">
       <defs>
        <path id="DejaVuSans-34" d="M 2419 4116 
L 825 1625 
L 2419 1625 
L 2419 4116 
z
M 2253 4666 
L 3047 4666 
L 3047 1625 
L 3713 1625 
L 3713 1100 
L 3047 1100 
L 3047 0 
L 2419 0 
L 2419 1100 
L 313 1100 
L 313 1709 
L 2253 4666 
z
" transform="scale(0.015625)"/>
       </defs>
       <use xlink:href="#DejaVuSans-34"/>
       <use xlink:href="#DejaVuSans-30" transform="translate(63.623047 0)"/>
       <use xlink:href="#DejaVuSans-30" transform="translate(127.246094 0)"/>
       <use xlink:href="#DejaVuSans-30" transform="translate(190.869141 0)"/>
      </g>
     </g>
    </g>
    <g id="xtick_4">
     <g id="line2d_4">
      <g>
       <use xlink:href="#me1b2c51375" x="396.506876" y="526.836875" style="stroke: #000000; stroke-width: 0.8"/>
      </g>
     </g>
     <g id="text_4">
      <!-- 6000 -->
      <g transform="translate(376.146876 545.994375) scale(0.16 -0.16)">
       <defs>
        <path id="DejaVuSans-36" d="M 2113 2584 
Q 1688 2584 1439 2293 
Q 1191 2003 1191 1497 
Q 1191 994 1439 701 
Q 1688 409 2113 409 
Q 2538 409 2786 701 
Q 3034 994 3034 1497 
Q 3034 2003 2786 2293 
Q 2538 2584 2113 2584 
z
M 3366 4563 
L 3366 3988 
Q 3128 4100 2886 4159 
Q 2644 4219 2406 4219 
Q 1781 4219 1451 3797 
Q 1122 3375 1075 2522 
Q 1259 2794 1537 2939 
Q 1816 3084 2150 3084 
Q 2853 3084 3261 2657 
Q 3669 2231 3669 1497 
Q 3669 778 3244 343 
Q 2819 -91 2113 -91 
Q 1303 -91 875 529 
Q 447 1150 447 2328 
Q 447 3434 972 4092 
Q 1497 4750 2381 4750 
Q 2619 4750 2861 4703 
Q 3103 4656 3366 4563 
z
" transform="scale(0.015625)"/>
       </defs>
       <use xlink:href="#DejaVuSans-36"/>
       <use xlink:href="#DejaVuSans-30" transform="translate(63.623047 0)"/>
       <use xlink:href="#DejaVuSans-30" transform="translate(127.246094 0)"/>
       <use xlink:href="#DejaVuSans-30" transform="translate(190.869141 0)"/>
      </g>
     </g>
    </g>
    <g id="xtick_5">
     <g id="line2d_5">
      <g>
       <use xlink:href="#me1b2c51375" x="502.515278" y="526.836875" style="stroke: #000000; stroke-width: 0.8"/>
      </g>
     </g>
     <g id="text_5">
      <!-- 8000 -->
      <g transform="translate(482.155278 545.994375) scale(0.16 -0.16)">
       <defs>
        <path id="DejaVuSans-38" d="M 2034 2216 
Q 1584 2216 1326 1975 
Q 1069 1734 1069 1313 
Q 1069 891 1326 650 
Q 1584 409 2034 409 
Q 2484 409 2743 651 
Q 3003 894 3003 1313 
Q 3003 1734 2745 1975 
Q 2488 2216 2034 2216 
z
M 1403 2484 
Q 997 2584 770 2862 
Q 544 3141 544 3541 
Q 544 4100 942 4425 
Q 1341 4750 2034 4750 
Q 2731 4750 3128 4425 
Q 3525 4100 3525 3541 
Q 3525 3141 3298 2862 
Q 3072 2584 2669 2484 
Q 3125 2378 3379 2068 
Q 3634 1759 3634 1313 
Q 3634 634 3220 271 
Q 2806 -91 2034 -91 
Q 1263 -91 848 271 
Q 434 634 434 1313 
Q 434 1759 690 2068 
Q 947 2378 1403 2484 
z
M 1172 3481 
Q 1172 3119 1398 2916 
Q 1625 2713 2034 2713 
Q 2441 2713 2670 2916 
Q 2900 3119 2900 3481 
Q 2900 3844 2670 4047 
Q 2441 4250 2034 4250 
Q 1625 4250 1398 4047 
Q 1172 3844 1172 3481 
z
" transform="scale(0.015625)"/>
       </defs>
       <use xlink:href="#DejaVuSans-38"/>
       <use xlink:href="#DejaVuSans-30" transform="translate(63.623047 0)"/>
       <use xlink:href="#DejaVuSans-30" transform="translate(127.246094 0)"/>
       <use xlink:href="#DejaVuSans-30" transform="translate(190.869141 0)"/>
      </g>
     </g>
    </g>
    <g id="xtick_6">
     <g id="line2d_6">
      <g>
       <use xlink:href="#me1b2c51375" x="567.922462" y="526.836875" style="stroke: #000000; stroke-width: 0.8"/>
      </g>
     </g>
     <g id="text_6">
      <!-- 9234 -->
      <g transform="translate(547.562462 545.994375) scale(0.16 -0.16)">
       <defs>
        <path id="DejaVuSans-39" d="M 703 97 
L 703 672 
Q 941 559 1184 500 
Q 1428 441 1663 441 
Q 2288 441 2617 861 
Q 2947 1281 2994 2138 
Q 2813 1869 2534 1725 
Q 2256 1581 1919 1581 
Q 1219 1581 811 2004 
Q 403 2428 403 3163 
Q 403 3881 828 4315 
Q 1253 4750 1959 4750 
Q 2769 4750 3195 4129 
Q 3622 3509 3622 2328 
Q 3622 1225 3098 567 
Q 2575 -91 1691 -91 
Q 1453 -91 1209 -44 
Q 966 3 703 97 
z
M 1959 2075 
Q 2384 2075 2632 2365 
Q 2881 2656 2881 3163 
Q 2881 3666 2632 3958 
Q 2384 4250 1959 4250 
Q 1534 4250 1286 3958 
Q 1038 3666 1038 3163 
Q 1038 2656 1286 2365 
Q 1534 2075 1959 2075 
z
" transform="scale(0.015625)"/>
        <path id="DejaVuSans-33" d="M 2597 2516 
Q 3050 2419 3304 2112 
Q 3559 1806 3559 1356 
Q 3559 666 3084 287 
Q 2609 -91 1734 -91 
Q 1441 -91 1130 -33 
Q 819 25 488 141 
L 488 750 
Q 750 597 1062 519 
Q 1375 441 1716 441 
Q 2309 441 2620 675 
Q 2931 909 2931 1356 
Q 2931 1769 2642 2001 
Q 2353 2234 1838 2234 
L 1294 2234 
L 1294 2753 
L 1863 2753 
Q 2328 2753 2575 2939 
Q 2822 3125 2822 3475 
Q 2822 3834 2567 4026 
Q 2313 4219 1838 4219 
Q 1578 4219 1281 4162 
Q 984 4106 628 3988 
L 628 4550 
Q 988 4650 1302 4700 
Q 1616 4750 1894 4750 
Q 2613 4750 3031 4423 
Q 3450 4097 3450 3541 
Q 3450 3153 3228 2886 
Q 3006 2619 2597 2516 
z
" transform="scale(0.015625)"/>
       </defs>
       <use xlink:href="#DejaVuSans-39"/>
       <use xlink:href="#DejaVuSans-32" transform="translate(63.623047 0)"/>
       <use xlink:href="#DejaVuSans-33" transform="translate(127.246094 0)"/>
       <use xlink:href="#DejaVuSans-34" transform="translate(190.869141 0)"/>
      </g>
     </g>
    </g>
    <g id="text_7">
     <!-- Number of stimuli-response pairs observed (N) -->
     <g transform="translate(87.813495 568.51875) scale(0.2 -0.2)">
      <defs>
       <path id="DejaVuSans-4e" d="M 628 4666 
L 1478 4666 
L 3547 763 
L 3547 4666 
L 4159 4666 
L 4159 0 
L 3309 0 
L 1241 3903 
L 1241 0 
L 628 0 
L 628 4666 
z
" transform="scale(0.015625)"/>
       <path id="DejaVuSans-75" d="M 544 1381 
L 544 3500 
L 1119 3500 
L 1119 1403 
Q 1119 906 1312 657 
Q 1506 409 1894 409 
Q 2359 409 2629 706 
Q 2900 1003 2900 1516 
L 2900 3500 
L 3475 3500 
L 3475 0 
L 2900 0 
L 2900 538 
Q 2691 219 2414 64 
Q 2138 -91 1772 -91 
Q 1169 -91 856 284 
Q 544 659 544 1381 
z
M 1991 3584 
L 1991 3584 
z
" transform="scale(0.015625)"/>
       <path id="DejaVuSans-6d" d="M 3328 2828 
Q 3544 3216 3844 3400 
Q 4144 3584 4550 3584 
Q 5097 3584 5394 3201 
Q 5691 2819 5691 2113 
L 5691 0 
L 5113 0 
L 5113 2094 
Q 5113 2597 4934 2840 
Q 4756 3084 4391 3084 
Q 3944 3084 3684 2787 
Q 3425 2491 3425 1978 
L 3425 0 
L 2847 0 
L 2847 2094 
Q 2847 2600 2669 2842 
Q 2491 3084 2119 3084 
Q 1678 3084 1418 2786 
Q 1159 2488 1159 1978 
L 1159 0 
L 581 0 
L 581 3500 
L 1159 3500 
L 1159 2956 
Q 1356 3278 1631 3431 
Q 1906 3584 2284 3584 
Q 2666 3584 2933 3390 
Q 3200 3197 3328 2828 
z
" transform="scale(0.015625)"/>
       <path id="DejaVuSans-62" d="M 3116 1747 
Q 3116 2381 2855 2742 
Q 2594 3103 2138 3103 
Q 1681 3103 1420 2742 
Q 1159 2381 1159 1747 
Q 1159 1113 1420 752 
Q 1681 391 2138 391 
Q 2594 391 2855 752 
Q 3116 1113 3116 1747 
z
M 1159 2969 
Q 1341 3281 1617 3432 
Q 1894 3584 2278 3584 
Q 2916 3584 3314 3078 
Q 3713 2572 3713 1747 
Q 3713 922 3314 415 
Q 2916 -91 2278 -91 
Q 1894 -91 1617 61 
Q 1341 213 1159 525 
L 1159 0 
L 581 0 
L 581 4863 
L 1159 4863 
L 1159 2969 
z
" transform="scale(0.015625)"/>
       <path id="DejaVuSans-65" d="M 3597 1894 
L 3597 1613 
L 953 1613 
Q 991 1019 1311 708 
Q 1631 397 2203 397 
Q 2534 397 2845 478 
Q 3156 559 3463 722 
L 3463 178 
Q 3153 47 2828 -22 
Q 2503 -91 2169 -91 
Q 1331 -91 842 396 
Q 353 884 353 1716 
Q 353 2575 817 3079 
Q 1281 3584 2069 3584 
Q 2775 3584 3186 3129 
Q 3597 2675 3597 1894 
z
M 3022 2063 
Q 3016 2534 2758 2815 
Q 2500 3097 2075 3097 
Q 1594 3097 1305 2825 
Q 1016 2553 972 2059 
L 3022 2063 
z
" transform="scale(0.015625)"/>
       <path id="DejaVuSans-72" d="M 2631 2963 
Q 2534 3019 2420 3045 
Q 2306 3072 2169 3072 
Q 1681 3072 1420 2755 
Q 1159 2438 1159 1844 
L 1159 0 
L 581 0 
L 581 3500 
L 1159 3500 
L 1159 2956 
Q 1341 3275 1631 3429 
Q 1922 3584 2338 3584 
Q 2397 3584 2469 3576 
Q 2541 3569 2628 3553 
L 2631 2963 
z
" transform="scale(0.015625)"/>
       <path id="DejaVuSans-20" transform="scale(0.015625)"/>
       <path id="DejaVuSans-6f" d="M 1959 3097 
Q 1497 3097 1228 2736 
Q 959 2375 959 1747 
Q 959 1119 1226 758 
Q 1494 397 1959 397 
Q 2419 397 2687 759 
Q 2956 1122 2956 1747 
Q 2956 2369 2687 2733 
Q 2419 3097 1959 3097 
z
M 1959 3584 
Q 2709 3584 3137 3096 
Q 3566 2609 3566 1747 
Q 3566 888 3137 398 
Q 2709 -91 1959 -91 
Q 1206 -91 779 398 
Q 353 888 353 1747 
Q 353 2609 779 3096 
Q 1206 3584 1959 3584 
z
" transform="scale(0.015625)"/>
       <path id="DejaVuSans-66" d="M 2375 4863 
L 2375 4384 
L 1825 4384 
Q 1516 4384 1395 4259 
Q 1275 4134 1275 3809 
L 1275 3500 
L 2222 3500 
L 2222 3053 
L 1275 3053 
L 1275 0 
L 697 0 
L 697 3053 
L 147 3053 
L 147 3500 
L 697 3500 
L 697 3744 
Q 697 4328 969 4595 
Q 1241 4863 1831 4863 
L 2375 4863 
z
" transform="scale(0.015625)"/>
       <path id="DejaVuSans-73" d="M 2834 3397 
L 2834 2853 
Q 2591 2978 2328 3040 
Q 2066 3103 1784 3103 
Q 1356 3103 1142 2972 
Q 928 2841 928 2578 
Q 928 2378 1081 2264 
Q 1234 2150 1697 2047 
L 1894 2003 
Q 2506 1872 2764 1633 
Q 3022 1394 3022 966 
Q 3022 478 2636 193 
Q 2250 -91 1575 -91 
Q 1294 -91 989 -36 
Q 684 19 347 128 
L 347 722 
Q 666 556 975 473 
Q 1284 391 1588 391 
Q 1994 391 2212 530 
Q 2431 669 2431 922 
Q 2431 1156 2273 1281 
Q 2116 1406 1581 1522 
L 1381 1569 
Q 847 1681 609 1914 
Q 372 2147 372 2553 
Q 372 3047 722 3315 
Q 1072 3584 1716 3584 
Q 2034 3584 2315 3537 
Q 2597 3491 2834 3397 
z
" transform="scale(0.015625)"/>
       <path id="DejaVuSans-74" d="M 1172 4494 
L 1172 3500 
L 2356 3500 
L 2356 3053 
L 1172 3053 
L 1172 1153 
Q 1172 725 1289 603 
Q 1406 481 1766 481 
L 2356 481 
L 2356 0 
L 1766 0 
Q 1100 0 847 248 
Q 594 497 594 1153 
L 594 3053 
L 172 3053 
L 172 3500 
L 594 3500 
L 594 4494 
L 1172 4494 
z
" transform="scale(0.015625)"/>
       <path id="DejaVuSans-69" d="M 603 3500 
L 1178 3500 
L 1178 0 
L 603 0 
L 603 3500 
z
M 603 4863 
L 1178 4863 
L 1178 4134 
L 603 4134 
L 603 4863 
z
" transform="scale(0.015625)"/>
       <path id="DejaVuSans-6c" d="M 603 4863 
L 1178 4863 
L 1178 0 
L 603 0 
L 603 4863 
z
" transform="scale(0.015625)"/>
       <path id="DejaVuSans-2d" d="M 313 2009 
L 1997 2009 
L 1997 1497 
L 313 1497 
L 313 2009 
z
" transform="scale(0.015625)"/>
       <path id="DejaVuSans-70" d="M 1159 525 
L 1159 -1331 
L 581 -1331 
L 581 3500 
L 1159 3500 
L 1159 2969 
Q 1341 3281 1617 3432 
Q 1894 3584 2278 3584 
Q 2916 3584 3314 3078 
Q 3713 2572 3713 1747 
Q 3713 922 3314 415 
Q 2916 -91 2278 -91 
Q 1894 -91 1617 61 
Q 1341 213 1159 525 
z
M 3116 1747 
Q 3116 2381 2855 2742 
Q 2594 3103 2138 3103 
Q 1681 3103 1420 2742 
Q 1159 2381 1159 1747 
Q 1159 1113 1420 752 
Q 1681 391 2138 391 
Q 2594 391 2855 752 
Q 3116 1113 3116 1747 
z
" transform="scale(0.015625)"/>
       <path id="DejaVuSans-6e" d="M 3513 2113 
L 3513 0 
L 2938 0 
L 2938 2094 
Q 2938 2591 2744 2837 
Q 2550 3084 2163 3084 
Q 1697 3084 1428 2787 
Q 1159 2491 1159 1978 
L 1159 0 
L 581 0 
L 581 3500 
L 1159 3500 
L 1159 2956 
Q 1366 3272 1645 3428 
Q 1925 3584 2291 3584 
Q 2894 3584 3203 3211 
Q 3513 2838 3513 2113 
z
" transform="scale(0.015625)"/>
       <path id="DejaVuSans-61" d="M 2194 1759 
Q 1497 1759 1228 1600 
Q 959 1441 959 1056 
Q 959 750 1161 570 
Q 1363 391 1709 391 
Q 2188 391 2477 730 
Q 2766 1069 2766 1631 
L 2766 1759 
L 2194 1759 
z
M 3341 1997 
L 3341 0 
L 2766 0 
L 2766 531 
Q 2569 213 2275 61 
Q 1981 -91 1556 -91 
Q 1019 -91 701 211 
Q 384 513 384 1019 
Q 384 1609 779 1909 
Q 1175 2209 1959 2209 
L 2766 2209 
L 2766 2266 
Q 2766 2663 2505 2880 
Q 2244 3097 1772 3097 
Q 1472 3097 1187 3025 
Q 903 2953 641 2809 
L 641 3341 
Q 956 3463 1253 3523 
Q 1550 3584 1831 3584 
Q 2591 3584 2966 3190 
Q 3341 2797 3341 1997 
z
" transform="scale(0.015625)"/>
       <path id="DejaVuSans-76" d="M 191 3500 
L 800 3500 
L 1894 563 
L 2988 3500 
L 3597 3500 
L 2284 0 
L 1503 0 
L 191 3500 
z
" transform="scale(0.015625)"/>
       <path id="DejaVuSans-64" d="M 2906 2969 
L 2906 4863 
L 3481 4863 
L 3481 0 
L 2906 0 
L 2906 525 
Q 2725 213 2448 61 
Q 2172 -91 1784 -91 
Q 1150 -91 751 415 
Q 353 922 353 1747 
Q 353 2572 751 3078 
Q 1150 3584 1784 3584 
Q 2172 3584 2448 3432 
Q 2725 3281 2906 2969 
z
M 947 1747 
Q 947 1113 1208 752 
Q 1469 391 1925 391 
Q 2381 391 2643 752 
Q 2906 1113 2906 1747 
Q 2906 2381 2643 2742 
Q 2381 3103 1925 3103 
Q 1469 3103 1208 2742 
Q 947 2381 947 1747 
z
" transform="scale(0.015625)"/>
       <path id="DejaVuSans-28" d="M 1984 4856 
Q 1566 4138 1362 3434 
Q 1159 2731 1159 2009 
Q 1159 1288 1364 580 
Q 1569 -128 1984 -844 
L 1484 -844 
Q 1016 -109 783 600 
Q 550 1309 550 2009 
Q 550 2706 781 3412 
Q 1013 4119 1484 4856 
L 1984 4856 
z
" transform="scale(0.015625)"/>
       <path id="DejaVuSans-29" d="M 513 4856 
L 1013 4856 
Q 1481 4119 1714 3412 
Q 1947 2706 1947 2009 
Q 1947 1309 1714 600 
Q 1481 -109 1013 -844 
L 513 -844 
Q 928 -128 1133 580 
Q 1338 1288 1338 2009 
Q 1338 2731 1133 3434 
Q 928 4138 513 4856 
z
" transform="scale(0.015625)"/>
      </defs>
      <use xlink:href="#DejaVuSans-4e"/>
      <use xlink:href="#DejaVuSans-75" transform="translate(74.804688 0)"/>
      <use xlink:href="#DejaVuSans-6d" transform="translate(138.183594 0)"/>
      <use xlink:href="#DejaVuSans-62" transform="translate(235.595703 0)"/>
      <use xlink:href="#DejaVuSans-65" transform="translate(299.072266 0)"/>
      <use xlink:href="#DejaVuSans-72" transform="translate(360.595703 0)"/>
      <use xlink:href="#DejaVuSans-20" transform="translate(401.708984 0)"/>
      <use xlink:href="#DejaVuSans-6f" transform="translate(433.496094 0)"/>
      <use xlink:href="#DejaVuSans-66" transform="translate(494.677734 0)"/>
      <use xlink:href="#DejaVuSans-20" transform="translate(529.882812 0)"/>
      <use xlink:href="#DejaVuSans-73" transform="translate(561.669922 0)"/>
      <use xlink:href="#DejaVuSans-74" transform="translate(613.769531 0)"/>
      <use xlink:href="#DejaVuSans-69" transform="translate(652.978516 0)"/>
      <use xlink:href="#DejaVuSans-6d" transform="translate(680.761719 0)"/>
      <use xlink:href="#DejaVuSans-75" transform="translate(778.173828 0)"/>
      <use xlink:href="#DejaVuSans-6c" transform="translate(841.552734 0)"/>
      <use xlink:href="#DejaVuSans-69" transform="translate(869.335938 0)"/>
      <use xlink:href="#DejaVuSans-2d" transform="translate(897.119141 0)"/>
      <use xlink:href="#DejaVuSans-72" transform="translate(933.203125 0)"/>
      <use xlink:href="#DejaVuSans-65" transform="translate(972.066406 0)"/>
      <use xlink:href="#DejaVuSans-73" transform="translate(1033.589844 0)"/>
      <use xlink:href="#DejaVuSans-70" transform="translate(1085.689453 0)"/>
      <use xlink:href="#DejaVuSans-6f" transform="translate(1149.166016 0)"/>
      <use xlink:href="#DejaVuSans-6e" transform="translate(1210.347656 0)"/>
      <use xlink:href="#DejaVuSans-73" transform="translate(1273.726562 0)"/>
      <use xlink:href="#DejaVuSans-65" transform="translate(1325.826172 0)"/>
      <use xlink:href="#DejaVuSans-20" transform="translate(1387.349609 0)"/>
      <use xlink:href="#DejaVuSans-70" transform="translate(1419.136719 0)"/>
      <use xlink:href="#DejaVuSans-61" transform="translate(1482.613281 0)"/>
      <use xlink:href="#DejaVuSans-69" transform="translate(1543.892578 0)"/>
      <use xlink:href="#DejaVuSans-72" transform="translate(1571.675781 0)"/>
      <use xlink:href="#DejaVuSans-73" transform="translate(1612.789062 0)"/>
      <use xlink:href="#DejaVuSans-20" transform="translate(1664.888672 0)"/>
      <use xlink:href="#DejaVuSans-6f" transform="translate(1696.675781 0)"/>
      <use xlink:href="#DejaVuSans-62" transform="translate(1757.857422 0)"/>
      <use xlink:href="#DejaVuSans-73" transform="translate(1821.333984 0)"/>
      <use xlink:href="#DejaVuSans-65" transform="translate(1873.433594 0)"/>
      <use xlink:href="#DejaVuSans-72" transform="translate(1934.957031 0)"/>
      <use xlink:href="#DejaVuSans-76" transform="translate(1976.070312 0)"/>
      <use xlink:href="#DejaVuSans-65" transform="translate(2035.25 0)"/>
      <use xlink:href="#DejaVuSans-64" transform="translate(2096.773438 0)"/>
      <use xlink:href="#DejaVuSans-20" transform="translate(2160.25 0)"/>
      <use xlink:href="#DejaVuSans-28" transform="translate(2192.037109 0)"/>
      <use xlink:href="#DejaVuSans-4e" transform="translate(2231.050781 0)"/>
      <use xlink:href="#DejaVuSans-29" transform="translate(2305.855469 0)"/>
     </g>
    </g>
   </g>
   <g id="matplotlib.axis_2">
    <g id="ytick_1">
     <g id="line2d_7">
      <defs>
       <path id="mc17ccb3e87" d="M 0 0 
L -3.5 0 
" style="stroke: #000000; stroke-width: 0.8"/>
      </defs>
      <g>
       <use xlink:href="#mc17ccb3e87" x="73.18125" y="37.801403" style="stroke: #000000; stroke-width: 0.8"/>
      </g>
     </g>
     <g id="text_8">
      <!-- 0.0 -->
      <g transform="translate(40.73625 43.880153) scale(0.16 -0.16)">
       <defs>
        <path id="DejaVuSans-2e" d="M 684 794 
L 1344 794 
L 1344 0 
L 684 0 
L 684 794 
z
" transform="scale(0.015625)"/>
       </defs>
       <use xlink:href="#DejaVuSans-30"/>
       <use xlink:href="#DejaVuSans-2e" transform="translate(63.623047 0)"/>
       <use xlink:href="#DejaVuSans-30" transform="translate(95.410156 0)"/>
      </g>
     </g>
    </g>
    <g id="ytick_2">
     <g id="line2d_8">
      <g>
       <use xlink:href="#mc17ccb3e87" x="73.18125" y="92.30775" style="stroke: #000000; stroke-width: 0.8"/>
      </g>
     </g>
     <g id="text_9">
      <!-- 2.9 -->
      <g transform="translate(40.73625 98.3865) scale(0.16 -0.16)">
       <use xlink:href="#DejaVuSans-32"/>
       <use xlink:href="#DejaVuSans-2e" transform="translate(63.623047 0)"/>
       <use xlink:href="#DejaVuSans-39" transform="translate(95.410156 0)"/>
      </g>
     </g>
    </g>
    <g id="ytick_3">
     <g id="line2d_9">
      <g>
       <use xlink:href="#mc17ccb3e87" x="73.18125" y="131.846686" style="stroke: #000000; stroke-width: 0.8"/>
      </g>
     </g>
     <g id="text_10">
      <!-- 5.0 -->
      <g transform="translate(40.73625 137.925436) scale(0.16 -0.16)">
       <defs>
        <path id="DejaVuSans-35" d="M 691 4666 
L 3169 4666 
L 3169 4134 
L 1269 4134 
L 1269 2991 
Q 1406 3038 1543 3061 
Q 1681 3084 1819 3084 
Q 2600 3084 3056 2656 
Q 3513 2228 3513 1497 
Q 3513 744 3044 326 
Q 2575 -91 1722 -91 
Q 1428 -91 1123 -41 
Q 819 9 494 109 
L 494 744 
Q 775 591 1075 516 
Q 1375 441 1709 441 
Q 2250 441 2565 725 
Q 2881 1009 2881 1497 
Q 2881 1984 2565 2268 
Q 2250 2553 1709 2553 
Q 1456 2553 1204 2497 
Q 953 2441 691 2322 
L 691 4666 
z
" transform="scale(0.015625)"/>
       </defs>
       <use xlink:href="#DejaVuSans-35"/>
       <use xlink:href="#DejaVuSans-2e" transform="translate(63.623047 0)"/>
       <use xlink:href="#DejaVuSans-30" transform="translate(95.410156 0)"/>
      </g>
     </g>
    </g>
    <g id="ytick_4">
     <g id="line2d_10">
      <g>
       <use xlink:href="#mc17ccb3e87" x="73.18125" y="225.891969" style="stroke: #000000; stroke-width: 0.8"/>
      </g>
     </g>
     <g id="text_11">
      <!-- 10.0 -->
      <g transform="translate(30.55625 231.970719) scale(0.16 -0.16)">
       <defs>
        <path id="DejaVuSans-31" d="M 794 531 
L 1825 531 
L 1825 4091 
L 703 3866 
L 703 4441 
L 1819 4666 
L 2450 4666 
L 2450 531 
L 3481 531 
L 3481 0 
L 794 0 
L 794 531 
z
" transform="scale(0.015625)"/>
       </defs>
       <use xlink:href="#DejaVuSans-31"/>
       <use xlink:href="#DejaVuSans-30" transform="translate(63.623047 0)"/>
       <use xlink:href="#DejaVuSans-2e" transform="translate(127.246094 0)"/>
       <use xlink:href="#DejaVuSans-30" transform="translate(159.033203 0)"/>
      </g>
     </g>
    </g>
    <g id="ytick_5">
     <g id="line2d_11">
      <g>
       <use xlink:href="#mc17ccb3e87" x="73.18125" y="319.937252" style="stroke: #000000; stroke-width: 0.8"/>
      </g>
     </g>
     <g id="text_12">
      <!-- 15.0 -->
      <g transform="translate(30.55625 326.016002) scale(0.16 -0.16)">
       <use xlink:href="#DejaVuSans-31"/>
       <use xlink:href="#DejaVuSans-35" transform="translate(63.623047 0)"/>
       <use xlink:href="#DejaVuSans-2e" transform="translate(127.246094 0)"/>
       <use xlink:href="#DejaVuSans-30" transform="translate(159.033203 0)"/>
      </g>
     </g>
    </g>
    <g id="ytick_6">
     <g id="line2d_12">
      <g>
       <use xlink:href="#mc17ccb3e87" x="73.18125" y="413.982535" style="stroke: #000000; stroke-width: 0.8"/>
      </g>
     </g>
     <g id="text_13">
      <!-- 20.0 -->
      <g transform="translate(30.55625 420.061285) scale(0.16 -0.16)">
       <use xlink:href="#DejaVuSans-32"/>
       <use xlink:href="#DejaVuSans-30" transform="translate(63.623047 0)"/>
       <use xlink:href="#DejaVuSans-2e" transform="translate(127.246094 0)"/>
       <use xlink:href="#DejaVuSans-30" transform="translate(159.033203 0)"/>
      </g>
     </g>
    </g>
    <g id="ytick_7">
     <g id="line2d_13">
      <g>
       <use xlink:href="#mc17ccb3e87" x="73.18125" y="508.027818" style="stroke: #000000; stroke-width: 0.8"/>
      </g>
     </g>
     <g id="text_14">
      <!-- 25.0 -->
      <g transform="translate(30.55625 514.106568) scale(0.16 -0.16)">
       <use xlink:href="#DejaVuSans-32"/>
       <use xlink:href="#DejaVuSans-35" transform="translate(63.623047 0)"/>
       <use xlink:href="#DejaVuSans-2e" transform="translate(127.246094 0)"/>
       <use xlink:href="#DejaVuSans-30" transform="translate(159.033203 0)"/>
      </g>
     </g>
    </g>
    <g id="text_15">
     <!-- Euclidean at Top Rank -->
     <g transform="translate(22.396875 387.7325) rotate(-90) scale(0.2 -0.2)">
      <defs>
       <path id="DejaVuSans-45" d="M 628 4666 
L 3578 4666 
L 3578 4134 
L 1259 4134 
L 1259 2753 
L 3481 2753 
L 3481 2222 
L 1259 2222 
L 1259 531 
L 3634 531 
L 3634 0 
L 628 0 
L 628 4666 
z
" transform="scale(0.015625)"/>
       <path id="DejaVuSans-63" d="M 3122 3366 
L 3122 2828 
Q 2878 2963 2633 3030 
Q 2388 3097 2138 3097 
Q 1578 3097 1268 2742 
Q 959 2388 959 1747 
Q 959 1106 1268 751 
Q 1578 397 2138 397 
Q 2388 397 2633 464 
Q 2878 531 3122 666 
L 3122 134 
Q 2881 22 2623 -34 
Q 2366 -91 2075 -91 
Q 1284 -91 818 406 
Q 353 903 353 1747 
Q 353 2603 823 3093 
Q 1294 3584 2113 3584 
Q 2378 3584 2631 3529 
Q 2884 3475 3122 3366 
z
" transform="scale(0.015625)"/>
       <path id="DejaVuSans-54" d="M -19 4666 
L 3928 4666 
L 3928 4134 
L 2272 4134 
L 2272 0 
L 1638 0 
L 1638 4134 
L -19 4134 
L -19 4666 
z
" transform="scale(0.015625)"/>
       <path id="DejaVuSans-52" d="M 2841 2188 
Q 3044 2119 3236 1894 
Q 3428 1669 3622 1275 
L 4263 0 
L 3584 0 
L 2988 1197 
Q 2756 1666 2539 1819 
Q 2322 1972 1947 1972 
L 1259 1972 
L 1259 0 
L 628 0 
L 628 4666 
L 2053 4666 
Q 2853 4666 3247 4331 
Q 3641 3997 3641 3322 
Q 3641 2881 3436 2590 
Q 3231 2300 2841 2188 
z
M 1259 4147 
L 1259 2491 
L 2053 2491 
Q 2509 2491 2742 2702 
Q 2975 2913 2975 3322 
Q 2975 3731 2742 3939 
Q 2509 4147 2053 4147 
L 1259 4147 
z
" transform="scale(0.015625)"/>
       <path id="DejaVuSans-6b" d="M 581 4863 
L 1159 4863 
L 1159 1991 
L 2875 3500 
L 3609 3500 
L 1753 1863 
L 3688 0 
L 2938 0 
L 1159 1709 
L 1159 0 
L 581 0 
L 581 4863 
z
" transform="scale(0.015625)"/>
      </defs>
      <use xlink:href="#DejaVuSans-45"/>
      <use xlink:href="#DejaVuSans-75" transform="translate(63.183594 0)"/>
      <use xlink:href="#DejaVuSans-63" transform="translate(126.5625 0)"/>
      <use xlink:href="#DejaVuSans-6c" transform="translate(181.542969 0)"/>
      <use xlink:href="#DejaVuSans-69" transform="translate(209.326172 0)"/>
      <use xlink:href="#DejaVuSans-64" transform="translate(237.109375 0)"/>
      <use xlink:href="#DejaVuSans-65" transform="translate(300.585938 0)"/>
      <use xlink:href="#DejaVuSans-61" transform="translate(362.109375 0)"/>
      <use xlink:href="#DejaVuSans-6e" transform="translate(423.388672 0)"/>
      <use xlink:href="#DejaVuSans-20" transform="translate(486.767578 0)"/>
      <use xlink:href="#DejaVuSans-61" transform="translate(518.554688 0)"/>
      <use xlink:href="#DejaVuSans-74" transform="translate(579.833984 0)"/>
      <use xlink:href="#DejaVuSans-20" transform="translate(619.042969 0)"/>
      <use xlink:href="#DejaVuSans-54" transform="translate(650.830078 0)"/>
      <use xlink:href="#DejaVuSans-6f" transform="translate(694.914062 0)"/>
      <use xlink:href="#DejaVuSans-70" transform="translate(756.095703 0)"/>
      <use xlink:href="#DejaVuSans-20" transform="translate(819.572266 0)"/>
      <use xlink:href="#DejaVuSans-52" transform="translate(851.359375 0)"/>
      <use xlink:href="#DejaVuSans-61" transform="translate(918.591797 0)"/>
      <use xlink:href="#DejaVuSans-6e" transform="translate(979.871094 0)"/>
      <use xlink:href="#DejaVuSans-6b" transform="translate(1043.25 0)"/>
     </g>
    </g>
   </g>
   <g id="line2d_14">
    <path d="M 83.78209 472.318229 
L 104.983771 401.540699 
L 131.485871 338.048216 
L 184.490072 214.332102 
L 237.494273 156.139023 
L 290.498474 138.786785 
L 343.502675 123.275477 
L 396.506876 109.937409 
L 449.511077 104.683231 
L 502.515278 95.27856 
L 555.519479 95.868891 
L 567.922462 92.30775 
" clip-path="url(#pa3ad40eb96)" style="fill: none; stroke: #1f77b4; stroke-width: 1.5; stroke-linecap: square"/>
   </g>
   <g id="line2d_15">
    <path d="M 83.78209 459.428598 
L 104.983771 456.462122 
L 131.485871 447.42791 
L 184.490072 479.887933 
L 237.494273 466.538212 
L 290.498474 471.283811 
L 343.502675 449.292593 
L 396.506876 441.939301 
L 449.511077 456.16533 
L 502.515278 483.564697 
L 555.519479 451.081647 
L 567.922462 429.924748 
" clip-path="url(#pa3ad40eb96)" style="fill: none; stroke: #ff7f0e; stroke-width: 1.5; stroke-linecap: square"/>
   </g>
   <g id="line2d_16">
    <path d="M 83.78209 484.375012 
L 104.983771 422.383037 
L 131.485871 480.086314 
L 184.490072 439.952249 
L 237.494273 436.672086 
L 290.498474 445.229263 
L 343.502675 468.008447 
L 396.506876 441.877087 
L 449.511077 432.707784 
L 502.515278 455.540827 
L 555.519479 446.022276 
L 567.922462 439.465053 
" clip-path="url(#pa3ad40eb96)" style="fill: none; stroke: #2ca02c; stroke-width: 1.5; stroke-linecap: square"/>
   </g>
   <g id="line2d_17">
    <path d="M 83.78209 372.411618 
L 104.983771 249.131164 
L 131.485871 215.233919 
L 184.490072 161.801084 
L 237.494273 177.746159 
L 290.498474 166.222466 
L 343.502675 167.774369 
L 396.506876 161.990555 
L 449.511077 163.429959 
L 502.515278 167.159387 
L 555.519479 164.156297 
L 567.922462 165.165031 
" clip-path="url(#pa3ad40eb96)" style="fill: none; stroke: #d62728; stroke-width: 1.5; stroke-linecap: square"/>
   </g>
   <g id="line2d_18">
    <path d="M 83.78209 448.179589 
L 104.983771 379.440145 
L 131.485871 315.546393 
L 184.490072 329.73866 
L 237.494273 308.40303 
L 290.498474 298.915281 
L 343.502675 297.155644 
L 396.506876 277.356901 
L 449.511077 294.226801 
L 502.515278 284.400627 
L 555.519479 292.74021 
L 567.922462 265.621555 
" clip-path="url(#pa3ad40eb96)" style="fill: none; stroke: #9467bd; stroke-width: 1.5; stroke-linecap: square"/>
   </g>
   <g id="line2d_19"/>
   <g id="line2d_20"/>
   <g id="line2d_21"/>
   <g id="line2d_22"/>
   <g id="line2d_23"/>
   <g id="line2d_24">
    <path d="M 73.18125 471.91443 
L 571.420739 471.91443 
" clip-path="url(#pa3ad40eb96)" style="fill: none; stroke-dasharray: 5.55,2.4; stroke-dashoffset: 0; stroke: #ff0000; stroke-opacity: 0.5; stroke-width: 1.5"/>
   </g>
   <g id="line2d_25">
    <path d="M 73.18125 92.30775 
L 571.420739 92.30775 
" clip-path="url(#pa3ad40eb96)" style="fill: none; stroke-dasharray: 5.55,2.4; stroke-dashoffset: 0; stroke: #000000; stroke-opacity: 0.5; stroke-width: 1.5"/>
   </g>
   <g id="patch_3">
    <path d="M 73.18125 526.836875 
L 73.18125 28.396875 
" style="fill: none; stroke: #000000; stroke-width: 0.8; stroke-linejoin: miter; stroke-linecap: square"/>
   </g>
   <g id="patch_4">
    <path d="M 571.420739 526.836875 
L 571.420739 28.396875 
" style="fill: none; stroke: #000000; stroke-width: 0.8; stroke-linejoin: miter; stroke-linecap: square"/>
   </g>
   <g id="patch_5">
    <path d="M 73.18125 526.836875 
L 571.420739 526.836875 
" style="fill: none; stroke: #000000; stroke-width: 0.8; stroke-linejoin: miter; stroke-linecap: square"/>
   </g>
   <g id="patch_6">
    <path d="M 73.18125 28.396875 
L 571.420739 28.396875 
" style="fill: none; stroke: #000000; stroke-width: 0.8; stroke-linejoin: miter; stroke-linecap: square"/>
   </g>
   <g id="text_16">
    <!-- N vs Euclidean at Top Rank (±ste) -->
    <g transform="translate(152.575995 22.396875) scale(0.2 -0.2)">
     <defs>
      <path id="DejaVuSans-b1" d="M 2944 4013 
L 2944 2803 
L 4684 2803 
L 4684 2272 
L 2944 2272 
L 2944 1063 
L 2419 1063 
L 2419 2272 
L 678 2272 
L 678 2803 
L 2419 2803 
L 2419 4013 
L 2944 4013 
z
M 678 531 
L 4684 531 
L 4684 0 
L 678 0 
L 678 531 
z
" transform="scale(0.015625)"/>
     </defs>
     <use xlink:href="#DejaVuSans-4e"/>
     <use xlink:href="#DejaVuSans-20" transform="translate(74.804688 0)"/>
     <use xlink:href="#DejaVuSans-76" transform="translate(106.591797 0)"/>
     <use xlink:href="#DejaVuSans-73" transform="translate(165.771484 0)"/>
     <use xlink:href="#DejaVuSans-20" transform="translate(217.871094 0)"/>
     <use xlink:href="#DejaVuSans-45" transform="translate(249.658203 0)"/>
     <use xlink:href="#DejaVuSans-75" transform="translate(312.841797 0)"/>
     <use xlink:href="#DejaVuSans-63" transform="translate(376.220703 0)"/>
     <use xlink:href="#DejaVuSans-6c" transform="translate(431.201172 0)"/>
     <use xlink:href="#DejaVuSans-69" transform="translate(458.984375 0)"/>
     <use xlink:href="#DejaVuSans-64" transform="translate(486.767578 0)"/>
     <use xlink:href="#DejaVuSans-65" transform="translate(550.244141 0)"/>
     <use xlink:href="#DejaVuSans-61" transform="translate(611.767578 0)"/>
     <use xlink:href="#DejaVuSans-6e" transform="translate(673.046875 0)"/>
     <use xlink:href="#DejaVuSans-20" transform="translate(736.425781 0)"/>
     <use xlink:href="#DejaVuSans-61" transform="translate(768.212891 0)"/>
     <use xlink:href="#DejaVuSans-74" transform="translate(829.492188 0)"/>
     <use xlink:href="#DejaVuSans-20" transform="translate(868.701172 0)"/>
     <use xlink:href="#DejaVuSans-54" transform="translate(900.488281 0)"/>
     <use xlink:href="#DejaVuSans-6f" transform="translate(944.572266 0)"/>
     <use xlink:href="#DejaVuSans-70" transform="translate(1005.753906 0)"/>
     <use xlink:href="#DejaVuSans-20" transform="translate(1069.230469 0)"/>
     <use xlink:href="#DejaVuSans-52" transform="translate(1101.017578 0)"/>
     <use xlink:href="#DejaVuSans-61" transform="translate(1168.25 0)"/>
     <use xlink:href="#DejaVuSans-6e" transform="translate(1229.529297 0)"/>
     <use xlink:href="#DejaVuSans-6b" transform="translate(1292.908203 0)"/>
     <use xlink:href="#DejaVuSans-20" transform="translate(1350.818359 0)"/>
     <use xlink:href="#DejaVuSans-28" transform="translate(1382.605469 0)"/>
     <use xlink:href="#DejaVuSans-b1" transform="translate(1421.619141 0)"/>
     <use xlink:href="#DejaVuSans-73" transform="translate(1505.408203 0)"/>
     <use xlink:href="#DejaVuSans-74" transform="translate(1557.507812 0)"/>
     <use xlink:href="#DejaVuSans-65" transform="translate(1596.716797 0)"/>
     <use xlink:href="#DejaVuSans-29" transform="translate(1658.240234 0)"/>
    </g>
   </g>
   <g id="legend_1">
    <g id="patch_7">
     <path d="M 271.000824 341.365 
L 523.073012 341.365 
Q 525.873012 341.365 525.873012 338.565 
L 525.873012 216.66875 
Q 525.873012 213.86875 523.073012 213.86875 
L 271.000824 213.86875 
Q 268.200824 213.86875 268.200824 216.66875 
L 268.200824 338.565 
Q 268.200824 341.365 271.000824 341.365 
z
" style="fill: #ffffff; opacity: 0.8; stroke: #cccccc; stroke-linejoin: miter"/>
    </g>
    <g id="line2d_26">
     <path d="M 273.800824 225.206563 
L 287.800824 225.206563 
L 301.800824 225.206563 
" style="fill: none; stroke: #1f77b4; stroke-width: 1.5; stroke-linecap: square"/>
    </g>
    <g id="text_17">
     <!-- Linear Regression -->
     <g transform="translate(313.000824 230.106563) scale(0.14 -0.14)">
      <defs>
       <path id="DejaVuSans-4c" d="M 628 4666 
L 1259 4666 
L 1259 531 
L 3531 531 
L 3531 0 
L 628 0 
L 628 4666 
z
" transform="scale(0.015625)"/>
       <path id="DejaVuSans-67" d="M 2906 1791 
Q 2906 2416 2648 2759 
Q 2391 3103 1925 3103 
Q 1463 3103 1205 2759 
Q 947 2416 947 1791 
Q 947 1169 1205 825 
Q 1463 481 1925 481 
Q 2391 481 2648 825 
Q 2906 1169 2906 1791 
z
M 3481 434 
Q 3481 -459 3084 -895 
Q 2688 -1331 1869 -1331 
Q 1566 -1331 1297 -1286 
Q 1028 -1241 775 -1147 
L 775 -588 
Q 1028 -725 1275 -790 
Q 1522 -856 1778 -856 
Q 2344 -856 2625 -561 
Q 2906 -266 2906 331 
L 2906 616 
Q 2728 306 2450 153 
Q 2172 0 1784 0 
Q 1141 0 747 490 
Q 353 981 353 1791 
Q 353 2603 747 3093 
Q 1141 3584 1784 3584 
Q 2172 3584 2450 3431 
Q 2728 3278 2906 2969 
L 2906 3500 
L 3481 3500 
L 3481 434 
z
" transform="scale(0.015625)"/>
      </defs>
      <use xlink:href="#DejaVuSans-4c"/>
      <use xlink:href="#DejaVuSans-69" transform="translate(55.712891 0)"/>
      <use xlink:href="#DejaVuSans-6e" transform="translate(83.496094 0)"/>
      <use xlink:href="#DejaVuSans-65" transform="translate(146.875 0)"/>
      <use xlink:href="#DejaVuSans-61" transform="translate(208.398438 0)"/>
      <use xlink:href="#DejaVuSans-72" transform="translate(269.677734 0)"/>
      <use xlink:href="#DejaVuSans-20" transform="translate(310.791016 0)"/>
      <use xlink:href="#DejaVuSans-52" transform="translate(342.578125 0)"/>
      <use xlink:href="#DejaVuSans-65" transform="translate(407.560547 0)"/>
      <use xlink:href="#DejaVuSans-67" transform="translate(469.083984 0)"/>
      <use xlink:href="#DejaVuSans-72" transform="translate(532.560547 0)"/>
      <use xlink:href="#DejaVuSans-65" transform="translate(571.423828 0)"/>
      <use xlink:href="#DejaVuSans-73" transform="translate(632.947266 0)"/>
      <use xlink:href="#DejaVuSans-73" transform="translate(685.046875 0)"/>
      <use xlink:href="#DejaVuSans-69" transform="translate(737.146484 0)"/>
      <use xlink:href="#DejaVuSans-6f" transform="translate(764.929688 0)"/>
      <use xlink:href="#DejaVuSans-6e" transform="translate(826.111328 0)"/>
     </g>
    </g>
    <g id="line2d_27">
     <path d="M 273.800824 245.755938 
L 287.800824 245.755938 
L 301.800824 245.755938 
" style="fill: none; stroke: #ff7f0e; stroke-width: 1.5; stroke-linecap: square"/>
    </g>
    <g id="text_18">
     <!-- Shuffle Linear Regression -->
     <g transform="translate(313.000824 250.655938) scale(0.14 -0.14)">
      <defs>
       <path id="DejaVuSans-53" d="M 3425 4513 
L 3425 3897 
Q 3066 4069 2747 4153 
Q 2428 4238 2131 4238 
Q 1616 4238 1336 4038 
Q 1056 3838 1056 3469 
Q 1056 3159 1242 3001 
Q 1428 2844 1947 2747 
L 2328 2669 
Q 3034 2534 3370 2195 
Q 3706 1856 3706 1288 
Q 3706 609 3251 259 
Q 2797 -91 1919 -91 
Q 1588 -91 1214 -16 
Q 841 59 441 206 
L 441 856 
Q 825 641 1194 531 
Q 1563 422 1919 422 
Q 2459 422 2753 634 
Q 3047 847 3047 1241 
Q 3047 1584 2836 1778 
Q 2625 1972 2144 2069 
L 1759 2144 
Q 1053 2284 737 2584 
Q 422 2884 422 3419 
Q 422 4038 858 4394 
Q 1294 4750 2059 4750 
Q 2388 4750 2728 4690 
Q 3069 4631 3425 4513 
z
" transform="scale(0.015625)"/>
       <path id="DejaVuSans-68" d="M 3513 2113 
L 3513 0 
L 2938 0 
L 2938 2094 
Q 2938 2591 2744 2837 
Q 2550 3084 2163 3084 
Q 1697 3084 1428 2787 
Q 1159 2491 1159 1978 
L 1159 0 
L 581 0 
L 581 4863 
L 1159 4863 
L 1159 2956 
Q 1366 3272 1645 3428 
Q 1925 3584 2291 3584 
Q 2894 3584 3203 3211 
Q 3513 2838 3513 2113 
z
" transform="scale(0.015625)"/>
      </defs>
      <use xlink:href="#DejaVuSans-53"/>
      <use xlink:href="#DejaVuSans-68" transform="translate(63.476562 0)"/>
      <use xlink:href="#DejaVuSans-75" transform="translate(126.855469 0)"/>
      <use xlink:href="#DejaVuSans-66" transform="translate(190.234375 0)"/>
      <use xlink:href="#DejaVuSans-66" transform="translate(225.439453 0)"/>
      <use xlink:href="#DejaVuSans-6c" transform="translate(260.644531 0)"/>
      <use xlink:href="#DejaVuSans-65" transform="translate(288.427734 0)"/>
      <use xlink:href="#DejaVuSans-20" transform="translate(349.951172 0)"/>
      <use xlink:href="#DejaVuSans-4c" transform="translate(381.738281 0)"/>
      <use xlink:href="#DejaVuSans-69" transform="translate(437.451172 0)"/>
      <use xlink:href="#DejaVuSans-6e" transform="translate(465.234375 0)"/>
      <use xlink:href="#DejaVuSans-65" transform="translate(528.613281 0)"/>
      <use xlink:href="#DejaVuSans-61" transform="translate(590.136719 0)"/>
      <use xlink:href="#DejaVuSans-72" transform="translate(651.416016 0)"/>
      <use xlink:href="#DejaVuSans-20" transform="translate(692.529297 0)"/>
      <use xlink:href="#DejaVuSans-52" transform="translate(724.316406 0)"/>
      <use xlink:href="#DejaVuSans-65" transform="translate(789.298828 0)"/>
      <use xlink:href="#DejaVuSans-67" transform="translate(850.822266 0)"/>
      <use xlink:href="#DejaVuSans-72" transform="translate(914.298828 0)"/>
      <use xlink:href="#DejaVuSans-65" transform="translate(953.162109 0)"/>
      <use xlink:href="#DejaVuSans-73" transform="translate(1014.685547 0)"/>
      <use xlink:href="#DejaVuSans-73" transform="translate(1066.785156 0)"/>
      <use xlink:href="#DejaVuSans-69" transform="translate(1118.884766 0)"/>
      <use xlink:href="#DejaVuSans-6f" transform="translate(1146.667969 0)"/>
      <use xlink:href="#DejaVuSans-6e" transform="translate(1207.849609 0)"/>
     </g>
    </g>
    <g id="line2d_28">
     <path d="M 273.800824 266.305313 
L 287.800824 266.305313 
L 301.800824 266.305313 
" style="fill: none; stroke: #2ca02c; stroke-width: 1.5; stroke-linecap: square"/>
    </g>
    <g id="text_19">
     <!-- Mean Dummy Regressor -->
     <g transform="translate(313.000824 271.205313) scale(0.14 -0.14)">
      <defs>
       <path id="DejaVuSans-4d" d="M 628 4666 
L 1569 4666 
L 2759 1491 
L 3956 4666 
L 4897 4666 
L 4897 0 
L 4281 0 
L 4281 4097 
L 3078 897 
L 2444 897 
L 1241 4097 
L 1241 0 
L 628 0 
L 628 4666 
z
" transform="scale(0.015625)"/>
       <path id="DejaVuSans-44" d="M 1259 4147 
L 1259 519 
L 2022 519 
Q 2988 519 3436 956 
Q 3884 1394 3884 2338 
Q 3884 3275 3436 3711 
Q 2988 4147 2022 4147 
L 1259 4147 
z
M 628 4666 
L 1925 4666 
Q 3281 4666 3915 4102 
Q 4550 3538 4550 2338 
Q 4550 1131 3912 565 
Q 3275 0 1925 0 
L 628 0 
L 628 4666 
z
" transform="scale(0.015625)"/>
       <path id="DejaVuSans-79" d="M 2059 -325 
Q 1816 -950 1584 -1140 
Q 1353 -1331 966 -1331 
L 506 -1331 
L 506 -850 
L 844 -850 
Q 1081 -850 1212 -737 
Q 1344 -625 1503 -206 
L 1606 56 
L 191 3500 
L 800 3500 
L 1894 763 
L 2988 3500 
L 3597 3500 
L 2059 -325 
z
" transform="scale(0.015625)"/>
      </defs>
      <use xlink:href="#DejaVuSans-4d"/>
      <use xlink:href="#DejaVuSans-65" transform="translate(86.279297 0)"/>
      <use xlink:href="#DejaVuSans-61" transform="translate(147.802734 0)"/>
      <use xlink:href="#DejaVuSans-6e" transform="translate(209.082031 0)"/>
      <use xlink:href="#DejaVuSans-20" transform="translate(272.460938 0)"/>
      <use xlink:href="#DejaVuSans-44" transform="translate(304.248047 0)"/>
      <use xlink:href="#DejaVuSans-75" transform="translate(381.25 0)"/>
      <use xlink:href="#DejaVuSans-6d" transform="translate(444.628906 0)"/>
      <use xlink:href="#DejaVuSans-6d" transform="translate(542.041016 0)"/>
      <use xlink:href="#DejaVuSans-79" transform="translate(639.453125 0)"/>
      <use xlink:href="#DejaVuSans-20" transform="translate(698.632812 0)"/>
      <use xlink:href="#DejaVuSans-52" transform="translate(730.419922 0)"/>
      <use xlink:href="#DejaVuSans-65" transform="translate(795.402344 0)"/>
      <use xlink:href="#DejaVuSans-67" transform="translate(856.925781 0)"/>
      <use xlink:href="#DejaVuSans-72" transform="translate(920.402344 0)"/>
      <use xlink:href="#DejaVuSans-65" transform="translate(959.265625 0)"/>
      <use xlink:href="#DejaVuSans-73" transform="translate(1020.789062 0)"/>
      <use xlink:href="#DejaVuSans-73" transform="translate(1072.888672 0)"/>
      <use xlink:href="#DejaVuSans-6f" transform="translate(1124.988281 0)"/>
      <use xlink:href="#DejaVuSans-72" transform="translate(1186.169922 0)"/>
     </g>
    </g>
    <g id="line2d_29">
     <path d="M 273.800824 286.854688 
L 287.800824 286.854688 
L 301.800824 286.854688 
" style="fill: none; stroke: #d62728; stroke-width: 1.5; stroke-linecap: square"/>
    </g>
    <g id="text_20">
     <!-- SVR -->
     <g transform="translate(313.000824 291.754688) scale(0.14 -0.14)">
      <defs>
       <path id="DejaVuSans-56" d="M 1831 0 
L 50 4666 
L 709 4666 
L 2188 738 
L 3669 4666 
L 4325 4666 
L 2547 0 
L 1831 0 
z
" transform="scale(0.015625)"/>
      </defs>
      <use xlink:href="#DejaVuSans-53"/>
      <use xlink:href="#DejaVuSans-56" transform="translate(63.476562 0)"/>
      <use xlink:href="#DejaVuSans-52" transform="translate(131.884766 0)"/>
     </g>
    </g>
    <g id="line2d_30">
     <path d="M 273.800824 307.404063 
L 287.800824 307.404063 
L 301.800824 307.404063 
" style="fill: none; stroke: #9467bd; stroke-width: 1.5; stroke-linecap: square"/>
    </g>
    <g id="text_21">
     <!-- MLP -->
     <g transform="translate(313.000824 312.304063) scale(0.14 -0.14)">
      <defs>
       <path id="DejaVuSans-50" d="M 1259 4147 
L 1259 2394 
L 2053 2394 
Q 2494 2394 2734 2622 
Q 2975 2850 2975 3272 
Q 2975 3691 2734 3919 
Q 2494 4147 2053 4147 
L 1259 4147 
z
M 628 4666 
L 2053 4666 
Q 2838 4666 3239 4311 
Q 3641 3956 3641 3272 
Q 3641 2581 3239 2228 
Q 2838 1875 2053 1875 
L 1259 1875 
L 1259 0 
L 628 0 
L 628 4666 
z
" transform="scale(0.015625)"/>
      </defs>
      <use xlink:href="#DejaVuSans-4d"/>
      <use xlink:href="#DejaVuSans-4c" transform="translate(86.279297 0)"/>
      <use xlink:href="#DejaVuSans-50" transform="translate(141.992188 0)"/>
     </g>
    </g>
    <g id="line2d_31">
     <path d="M 273.800824 327.953438 
L 287.800824 327.953438 
L 301.800824 327.953438 
" style="fill: none; stroke-dasharray: 5.55,2.4; stroke-dashoffset: 0; stroke: #ff0000; stroke-opacity: 0.5; stroke-width: 1.5"/>
    </g>
    <g id="text_22">
     <!-- Theoretical Random Retrieval -->
     <g transform="translate(313.000824 332.853438) scale(0.14 -0.14)">
      <use xlink:href="#DejaVuSans-54"/>
      <use xlink:href="#DejaVuSans-68" transform="translate(61.083984 0)"/>
      <use xlink:href="#DejaVuSans-65" transform="translate(124.462891 0)"/>
      <use xlink:href="#DejaVuSans-6f" transform="translate(185.986328 0)"/>
      <use xlink:href="#DejaVuSans-72" transform="translate(247.167969 0)"/>
      <use xlink:href="#DejaVuSans-65" transform="translate(286.03125 0)"/>
      <use xlink:href="#DejaVuSans-74" transform="translate(347.554688 0)"/>
      <use xlink:href="#DejaVuSans-69" transform="translate(386.763672 0)"/>
      <use xlink:href="#DejaVuSans-63" transform="translate(414.546875 0)"/>
      <use xlink:href="#DejaVuSans-61" transform="translate(469.527344 0)"/>
      <use xlink:href="#DejaVuSans-6c" transform="translate(530.806641 0)"/>
      <use xlink:href="#DejaVuSans-20" transform="translate(558.589844 0)"/>
      <use xlink:href="#DejaVuSans-52" transform="translate(590.376953 0)"/>
      <use xlink:href="#DejaVuSans-61" transform="translate(657.609375 0)"/>
      <use xlink:href="#DejaVuSans-6e" transform="translate(718.888672 0)"/>
      <use xlink:href="#DejaVuSans-64" transform="translate(782.267578 0)"/>
      <use xlink:href="#DejaVuSans-6f" transform="translate(845.744141 0)"/>
      <use xlink:href="#DejaVuSans-6d" transform="translate(906.925781 0)"/>
      <use xlink:href="#DejaVuSans-20" transform="translate(1004.337891 0)"/>
      <use xlink:href="#DejaVuSans-52" transform="translate(1036.125 0)"/>
      <use xlink:href="#DejaVuSans-65" transform="translate(1101.107422 0)"/>
      <use xlink:href="#DejaVuSans-74" transform="translate(1162.630859 0)"/>
      <use xlink:href="#DejaVuSans-72" transform="translate(1201.839844 0)"/>
      <use xlink:href="#DejaVuSans-69" transform="translate(1242.953125 0)"/>
      <use xlink:href="#DejaVuSans-65" transform="translate(1270.736328 0)"/>
      <use xlink:href="#DejaVuSans-76" transform="translate(1332.259766 0)"/>
      <use xlink:href="#DejaVuSans-61" transform="translate(1391.439453 0)"/>
      <use xlink:href="#DejaVuSans-6c" transform="translate(1452.71875 0)"/>
     </g>
    </g>
   </g>
  </g>
  <g id="axes_2">
   <g id="patch_8">
    <path d="M 593.911378 526.836875 
L 718.47125 526.836875 
L 718.47125 28.396875 
L 593.911378 28.396875 
z
" style="fill: #ffffff"/>
   </g>
   <g id="matplotlib.axis_3">
    <g id="xtick_7"/>
    <g id="xtick_8"/>
    <g id="xtick_9"/>
    <g id="xtick_10"/>
    <g id="xtick_11"/>
   </g>
   <g id="matplotlib.axis_4">
    <g id="ytick_8"/>
    <g id="ytick_9"/>
    <g id="ytick_10"/>
    <g id="ytick_11"/>
    <g id="ytick_12"/>
    <g id="ytick_13"/>
   </g>
   <g id="line2d_32">
    <defs>
     <path id="ma2066cdf5c" d="M 0 3.383948 
C 0.897434 3.383948 1.758231 3.027394 2.392813 2.392813 
C 3.027394 1.758231 3.383948 0.897434 3.383948 0 
C 3.383948 -0.897434 3.027394 -1.758231 2.392813 -2.392813 
C 1.758231 -3.027394 0.897434 -3.383948 0 -3.383948 
C -0.897434 -3.383948 -1.758231 -3.027394 -2.392813 -2.392813 
C -3.027394 -1.758231 -3.383948 -0.897434 -3.383948 0 
C -3.383948 0.897434 -3.027394 1.758231 -2.392813 2.392813 
C -1.758231 3.027394 -0.897434 3.383948 0 3.383948 
z
" style="stroke: #1f77b4; stroke-width: 2.025"/>
    </defs>
    <g clip-path="url(#p853872256f)">
     <use xlink:href="#ma2066cdf5c" x="606.367365" y="95.868891" style="fill: #1f77b4; stroke: #1f77b4; stroke-width: 2.025"/>
    </g>
   </g>
   <g id="line2d_33">
    <path d="M 600.139371 38.504433 
L 612.595359 38.504433 
M 606.367365 38.504433 
L 606.367365 153.233349 
M 600.139371 153.233349 
L 612.595359 153.233349 
" clip-path="url(#p853872256f)" style="fill: none; stroke: #1f77b4; stroke-width: 2.7; stroke-linecap: square"/>
   </g>
   <g id="line2d_34">
    <path clip-path="url(#p853872256f)" style="fill: none; stroke: #1f77b4; stroke-width: 2.7; stroke-linecap: square"/>
   </g>
   <g id="line2d_35">
    <path clip-path="url(#p853872256f)" style="fill: none; stroke: #1f77b4; stroke-width: 2.7; stroke-linecap: square"/>
   </g>
   <g id="line2d_36">
    <path clip-path="url(#p853872256f)" style="fill: none; stroke: #1f77b4; stroke-width: 2.7; stroke-linecap: square"/>
   </g>
   <g id="line2d_37">
    <path clip-path="url(#p853872256f)" style="fill: none; stroke: #1f77b4; stroke-width: 2.7; stroke-linecap: square"/>
   </g>
   <g id="line2d_38">
    <defs>
     <path id="mc8026965d8" d="M 0 3.383948 
C 0.897434 3.383948 1.758231 3.027394 2.392813 2.392813 
C 3.027394 1.758231 3.383948 0.897434 3.383948 0 
C 3.383948 -0.897434 3.027394 -1.758231 2.392813 -2.392813 
C 1.758231 -3.027394 0.897434 -3.383948 0 -3.383948 
C -0.897434 -3.383948 -1.758231 -3.027394 -2.392813 -2.392813 
C -3.027394 -1.758231 -3.383948 -0.897434 -3.383948 0 
C -3.383948 0.897434 -3.027394 1.758231 -2.392813 2.392813 
C -1.758231 3.027394 -0.897434 3.383948 0 3.383948 
z
" style="stroke: #ff7f0e; stroke-width: 2.025"/>
    </defs>
    <g clip-path="url(#p853872256f)">
     <use xlink:href="#mc8026965d8" x="631.279339" y="451.081647" style="fill: #ff7f0e; stroke: #ff7f0e; stroke-width: 2.025"/>
    </g>
   </g>
   <g id="line2d_39">
    <path clip-path="url(#p853872256f)" style="fill: none; stroke: #ff7f0e; stroke-width: 2.7; stroke-linecap: square"/>
   </g>
   <g id="line2d_40">
    <path d="M 625.051346 193.035227 
L 637.507333 193.035227 
M 631.279339 193.035227 
L 631.279339 580.878125 
" clip-path="url(#p853872256f)" style="fill: none; stroke: #ff7f0e; stroke-width: 2.7; stroke-linecap: square"/>
   </g>
   <g id="line2d_41">
    <path clip-path="url(#p853872256f)" style="fill: none; stroke: #ff7f0e; stroke-width: 2.7; stroke-linecap: square"/>
   </g>
   <g id="line2d_42">
    <path clip-path="url(#p853872256f)" style="fill: none; stroke: #ff7f0e; stroke-width: 2.7; stroke-linecap: square"/>
   </g>
   <g id="line2d_43">
    <path clip-path="url(#p853872256f)" style="fill: none; stroke: #ff7f0e; stroke-width: 2.7; stroke-linecap: square"/>
   </g>
   <g id="line2d_44">
    <defs>
     <path id="mc258d76003" d="M 0 3.383948 
C 0.897434 3.383948 1.758231 3.027394 2.392813 2.392813 
C 3.027394 1.758231 3.383948 0.897434 3.383948 0 
C 3.383948 -0.897434 3.027394 -1.758231 2.392813 -2.392813 
C 1.758231 -3.027394 0.897434 -3.383948 0 -3.383948 
C -0.897434 -3.383948 -1.758231 -3.027394 -2.392813 -2.392813 
C -3.027394 -1.758231 -3.383948 -0.897434 -3.383948 0 
C -3.383948 0.897434 -3.027394 1.758231 -2.392813 2.392813 
C -1.758231 3.027394 -0.897434 3.383948 0 3.383948 
z
" style="stroke: #2ca02c; stroke-width: 2.025"/>
    </defs>
    <g clip-path="url(#p853872256f)">
     <use xlink:href="#mc258d76003" x="656.191314" y="446.022276" style="fill: #2ca02c; stroke: #2ca02c; stroke-width: 2.025"/>
    </g>
   </g>
   <g id="line2d_45">
    <path clip-path="url(#p853872256f)" style="fill: none; stroke: #2ca02c; stroke-width: 2.7; stroke-linecap: square"/>
   </g>
   <g id="line2d_46">
    <path clip-path="url(#p853872256f)" style="fill: none; stroke: #2ca02c; stroke-width: 2.7; stroke-linecap: square"/>
   </g>
   <g id="line2d_47">
    <path d="M 649.96332 193.661095 
L 662.419307 193.661095 
M 656.191314 193.661095 
L 656.191314 580.878125 
" clip-path="url(#p853872256f)" style="fill: none; stroke: #2ca02c; stroke-width: 2.7; stroke-linecap: square"/>
   </g>
   <g id="line2d_48">
    <path clip-path="url(#p853872256f)" style="fill: none; stroke: #2ca02c; stroke-width: 2.7; stroke-linecap: square"/>
   </g>
   <g id="line2d_49">
    <path clip-path="url(#p853872256f)" style="fill: none; stroke: #2ca02c; stroke-width: 2.7; stroke-linecap: square"/>
   </g>
   <g id="line2d_50">
    <defs>
     <path id="mc4ccc1c9e6" d="M 0 3.383948 
C 0.897434 3.383948 1.758231 3.027394 2.392813 2.392813 
C 3.027394 1.758231 3.383948 0.897434 3.383948 0 
C 3.383948 -0.897434 3.027394 -1.758231 2.392813 -2.392813 
C 1.758231 -3.027394 0.897434 -3.383948 0 -3.383948 
C -0.897434 -3.383948 -1.758231 -3.027394 -2.392813 -2.392813 
C -3.027394 -1.758231 -3.383948 -0.897434 -3.383948 0 
C -3.383948 0.897434 -3.027394 1.758231 -2.392813 2.392813 
C -1.758231 3.027394 -0.897434 3.383948 0 3.383948 
z
" style="stroke: #d62728; stroke-width: 2.025"/>
    </defs>
    <g clip-path="url(#p853872256f)">
     <use xlink:href="#mc4ccc1c9e6" x="681.103288" y="164.156297" style="fill: #d62728; stroke: #d62728; stroke-width: 2.025"/>
    </g>
   </g>
   <g id="line2d_51">
    <path clip-path="url(#p853872256f)" style="fill: none; stroke: #d62728; stroke-width: 2.7; stroke-linecap: square"/>
   </g>
   <g id="line2d_52">
    <path clip-path="url(#p853872256f)" style="fill: none; stroke: #d62728; stroke-width: 2.7; stroke-linecap: square"/>
   </g>
   <g id="line2d_53">
    <path clip-path="url(#p853872256f)" style="fill: none; stroke: #d62728; stroke-width: 2.7; stroke-linecap: square"/>
   </g>
   <g id="line2d_54">
    <path d="M 674.875295 63.134302 
L 687.331282 63.134302 
M 681.103288 63.134302 
L 681.103288 265.178292 
M 674.875295 265.178292 
L 687.331282 265.178292 
" clip-path="url(#p853872256f)" style="fill: none; stroke: #d62728; stroke-width: 2.7; stroke-linecap: square"/>
   </g>
   <g id="line2d_55">
    <path clip-path="url(#p853872256f)" style="fill: none; stroke: #d62728; stroke-width: 2.7; stroke-linecap: square"/>
   </g>
   <g id="line2d_56">
    <defs>
     <path id="m22915f7c89" d="M 0 3.383948 
C 0.897434 3.383948 1.758231 3.027394 2.392813 2.392813 
C 3.027394 1.758231 3.383948 0.897434 3.383948 0 
C 3.383948 -0.897434 3.027394 -1.758231 2.392813 -2.392813 
C 1.758231 -3.027394 0.897434 -3.383948 0 -3.383948 
C -0.897434 -3.383948 -1.758231 -3.027394 -2.392813 -2.392813 
C -3.027394 -1.758231 -3.383948 -0.897434 -3.383948 0 
C -3.383948 0.897434 -3.027394 1.758231 -2.392813 2.392813 
C -1.758231 3.027394 -0.897434 3.383948 0 3.383948 
z
" style="stroke: #9467bd; stroke-width: 2.025"/>
    </defs>
    <g clip-path="url(#p853872256f)">
     <use xlink:href="#m22915f7c89" x="706.015263" y="292.74021" style="fill: #9467bd; stroke: #9467bd; stroke-width: 2.025"/>
    </g>
   </g>
   <g id="line2d_57">
    <path clip-path="url(#p853872256f)" style="fill: none; stroke: #9467bd; stroke-width: 2.7; stroke-linecap: square"/>
   </g>
   <g id="line2d_58">
    <path clip-path="url(#p853872256f)" style="fill: none; stroke: #9467bd; stroke-width: 2.7; stroke-linecap: square"/>
   </g>
   <g id="line2d_59">
    <path clip-path="url(#p853872256f)" style="fill: none; stroke: #9467bd; stroke-width: 2.7; stroke-linecap: square"/>
   </g>
   <g id="line2d_60">
    <path clip-path="url(#p853872256f)" style="fill: none; stroke: #9467bd; stroke-width: 2.7; stroke-linecap: square"/>
   </g>
   <g id="line2d_61">
    <path d="M 699.787269 80.272145 
L 712.243256 80.272145 
M 706.015263 80.272145 
L 706.015263 505.208275 
M 699.787269 505.208275 
L 712.243256 505.208275 
" clip-path="url(#p853872256f)" style="fill: none; stroke: #9467bd; stroke-width: 2.7; stroke-linecap: square"/>
   </g>
   <g id="patch_9">
    <path d="M 593.911378 526.836875 
L 593.911378 28.396875 
" style="fill: none; stroke: #000000; stroke-width: 0.8; stroke-linejoin: miter; stroke-linecap: square"/>
   </g>
   <g id="patch_10">
    <path d="M 718.47125 526.836875 
L 718.47125 28.396875 
" style="fill: none; stroke: #000000; stroke-width: 0.8; stroke-linejoin: miter; stroke-linecap: square"/>
   </g>
   <g id="patch_11">
    <path d="M 593.911378 526.836875 
L 718.47125 526.836875 
" style="fill: none; stroke: #000000; stroke-width: 0.8; stroke-linejoin: miter; stroke-linecap: square"/>
   </g>
   <g id="patch_12">
    <path d="M 593.911378 28.396875 
L 718.47125 28.396875 
" style="fill: none; stroke: #000000; stroke-width: 0.8; stroke-linejoin: miter; stroke-linecap: square"/>
   </g>
   <g id="text_23">
    <!-- (±std) -->
    <g transform="translate(624.530376 22.396875) scale(0.2 -0.2)">
     <use xlink:href="#DejaVuSans-28"/>
     <use xlink:href="#DejaVuSans-b1" transform="translate(39.013672 0)"/>
     <use xlink:href="#DejaVuSans-73" transform="translate(122.802734 0)"/>
     <use xlink:href="#DejaVuSans-74" transform="translate(174.902344 0)"/>
     <use xlink:href="#DejaVuSans-64" transform="translate(214.111328 0)"/>
     <use xlink:href="#DejaVuSans-29" transform="translate(277.587891 0)"/>
    </g>
   </g>
  </g>
 </g>
 <defs>
  <clipPath id="pa3ad40eb96">
   <rect x="73.18125" y="28.396875" width="498.239489" height="498.44"/>
  </clipPath>
  <clipPath id="p853872256f">
   <rect x="593.911378" y="28.396875" width="124.559872" height="498.44"/>
  </clipPath>
 </defs>
</svg>
