<?xml version="1.0" encoding="utf-8" standalone="no"?>
<!DOCTYPE svg PUBLIC "-//W3C//DTD SVG 1.1//EN"
  "http://www.w3.org/Graphics/SVG/1.1/DTD/svg11.dtd">
<svg xmlns:xlink="http://www.w3.org/1999/xlink" width="640.8925pt" height="572.758125pt" viewBox="0 0 640.8925 572.758125" xmlns="http://www.w3.org/2000/svg" version="1.1">
 <metadata>
  <rdf:RDF xmlns:dc="http://purl.org/dc/elements/1.1/" xmlns:cc="http://creativecommons.org/ns#" xmlns:rdf="http://www.w3.org/1999/02/22-rdf-syntax-ns#">
   <cc:Work>
    <dc:type rdf:resource="http://purl.org/dc/dcmitype/StillImage"/>
    <dc:date>2025-10-16T15:15:13.112499</dc:date>
    <dc:format>image/svg+xml</dc:format>
    <dc:creator>
     <cc:Agent>
      <dc:title>Matplotlib v3.10.7, https://matplotlib.org/</dc:title>
     </cc:Agent>
    </dc:creator>
   </cc:Work>
  </rdf:RDF>
 </metadata>
 <defs>
  <style type="text/css">*{stroke-linejoin: round; stroke-linecap: butt}</style>
 </defs>
 <g id="figure_1">
  <g id="patch_1">
   <path d="M 0 572.758125 
L 640.8925 572.758125 
L 640.8925 0 
L 0 0 
z
" style="fill: #ffffff"/>
  </g>
  <g id="axes_1">
   <g id="patch_2">
    <path d="M 83.36125 519.716875 
L 577.89125 519.716875 
L 577.89125 28.396875 
L 83.36125 28.396875 
z
" style="fill: #ffffff"/>
   </g>
   <g id="PathCollection_1">
    <defs>
     <path id="m35aab25c8c" d="M 0 7.071068 
C 1.875269 7.071068 3.673985 6.326016 5 5 
C 6.326016 3.673985 7.071068 1.875269 7.071068 0 
C 7.071068 -1.875269 6.326016 -3.673985 5 -5 
C 3.673985 -6.326016 1.875269 -7.071068 0 -7.071068 
C -1.875269 -7.071068 -3.673985 -6.326016 -5 -5 
C -6.326016 -3.673985 -7.071068 -1.875269 -7.071068 0 
C -7.071068 1.875269 -6.326016 3.673985 -5 5 
C -3.673985 6.326016 -1.875269 7.071068 0 7.071068 
z
" style="stroke: #1f77b4; stroke-opacity: 0.8"/>
    </defs>
    <g clip-path="url(#p1ed2cd69a6)">
     <use xlink:href="#m35aab25c8c" x="103.14245" y="39.991064" style="fill: #1f77b4; fill-opacity: 0.8; stroke: #1f77b4; stroke-opacity: 0.8"/>
     <use xlink:href="#m35aab25c8c" x="105.380437" y="90.742947" style="fill: #1f77b4; fill-opacity: 0.8; stroke: #1f77b4; stroke-opacity: 0.8"/>
     <use xlink:href="#m35aab25c8c" x="107.618425" y="10.7077" style="fill: #1f77b4; fill-opacity: 0.8; stroke: #1f77b4; stroke-opacity: 0.8"/>
     <use xlink:href="#m35aab25c8c" x="107.947962" y="-1" style="fill: #1f77b4; fill-opacity: 0.8; stroke: #1f77b4; stroke-opacity: 0.8"/>
     <use xlink:href="#m35aab25c8c" x="111.499644" y="-1" style="fill: #1f77b4; fill-opacity: 0.8; stroke: #1f77b4; stroke-opacity: 0.8"/>
     <use xlink:href="#m35aab25c8c" x="112.094399" y="23.540681" style="fill: #1f77b4; fill-opacity: 0.8; stroke: #1f77b4; stroke-opacity: 0.8"/>
     <use xlink:href="#m35aab25c8c" x="114.332387" y="70.481912" style="fill: #1f77b4; fill-opacity: 0.8; stroke: #1f77b4; stroke-opacity: 0.8"/>
     <use xlink:href="#m35aab25c8c" x="116.570374" y="12.750423" style="fill: #1f77b4; fill-opacity: 0.8; stroke: #1f77b4; stroke-opacity: 0.8"/>
     <use xlink:href="#m35aab25c8c" x="118.808361" y="91.661556" style="fill: #1f77b4; fill-opacity: 0.8; stroke: #1f77b4; stroke-opacity: 0.8"/>
     <use xlink:href="#m35aab25c8c" x="121.046348" y="91.568497" style="fill: #1f77b4; fill-opacity: 0.8; stroke: #1f77b4; stroke-opacity: 0.8"/>
     <use xlink:href="#m35aab25c8c" x="122.376521" y="-1" style="fill: #1f77b4; fill-opacity: 0.8; stroke: #1f77b4; stroke-opacity: 0.8"/>
     <use xlink:href="#m35aab25c8c" x="123.856895" y="-1" style="fill: #1f77b4; fill-opacity: 0.8; stroke: #1f77b4; stroke-opacity: 0.8"/>
     <use xlink:href="#m35aab25c8c" x="125.522323" y="182.762756" style="fill: #1f77b4; fill-opacity: 0.8; stroke: #1f77b4; stroke-opacity: 0.8"/>
     <use xlink:href="#m35aab25c8c" x="129.998298" y="148.497546" style="fill: #1f77b4; fill-opacity: 0.8; stroke: #1f77b4; stroke-opacity: 0.8"/>
     <use xlink:href="#m35aab25c8c" x="134.474272" y="134.912159" style="fill: #1f77b4; fill-opacity: 0.8; stroke: #1f77b4; stroke-opacity: 0.8"/>
     <use xlink:href="#m35aab25c8c" x="138.950247" y="62.698536" style="fill: #1f77b4; fill-opacity: 0.8; stroke: #1f77b4; stroke-opacity: 0.8"/>
     <use xlink:href="#m35aab25c8c" x="141.756628" y="-1" style="fill: #1f77b4; fill-opacity: 0.8; stroke: #1f77b4; stroke-opacity: 0.8"/>
     <use xlink:href="#m35aab25c8c" x="148.469158" y="-1" style="fill: #1f77b4; fill-opacity: 0.8; stroke: #1f77b4; stroke-opacity: 0.8"/>
     <use xlink:href="#m35aab25c8c" x="152.378171" y="103.362084" style="fill: #1f77b4; fill-opacity: 0.8; stroke: #1f77b4; stroke-opacity: 0.8"/>
     <use xlink:href="#m35aab25c8c" x="156.854145" y="148.085468" style="fill: #1f77b4; fill-opacity: 0.8; stroke: #1f77b4; stroke-opacity: 0.8"/>
     <use xlink:href="#m35aab25c8c" x="161.33012" y="349.740933" style="fill: #1f77b4; fill-opacity: 0.8; stroke: #1f77b4; stroke-opacity: 0.8"/>
     <use xlink:href="#m35aab25c8c" x="165.806095" y="170.181497" style="fill: #1f77b4; fill-opacity: 0.8; stroke: #1f77b4; stroke-opacity: 0.8"/>
     <use xlink:href="#m35aab25c8c" x="170.282069" y="53.855058" style="fill: #1f77b4; fill-opacity: 0.8; stroke: #1f77b4; stroke-opacity: 0.8"/>
     <use xlink:href="#m35aab25c8c" x="176.996031" y="200.964095" style="fill: #1f77b4; fill-opacity: 0.8; stroke: #1f77b4; stroke-opacity: 0.8"/>
     <use xlink:href="#m35aab25c8c" x="183.709993" y="120.566463" style="fill: #1f77b4; fill-opacity: 0.8; stroke: #1f77b4; stroke-opacity: 0.8"/>
     <use xlink:href="#m35aab25c8c" x="190.423955" y="217.879468" style="fill: #1f77b4; fill-opacity: 0.8; stroke: #1f77b4; stroke-opacity: 0.8"/>
     <use xlink:href="#m35aab25c8c" x="197.137917" y="278.46234" style="fill: #1f77b4; fill-opacity: 0.8; stroke: #1f77b4; stroke-opacity: 0.8"/>
     <use xlink:href="#m35aab25c8c" x="203.851879" y="131.179803" style="fill: #1f77b4; fill-opacity: 0.8; stroke: #1f77b4; stroke-opacity: 0.8"/>
     <use xlink:href="#m35aab25c8c" x="210.565841" y="117.951713" style="fill: #1f77b4; fill-opacity: 0.8; stroke: #1f77b4; stroke-opacity: 0.8"/>
     <use xlink:href="#m35aab25c8c" x="217.279803" y="224.755188" style="fill: #1f77b4; fill-opacity: 0.8; stroke: #1f77b4; stroke-opacity: 0.8"/>
     <use xlink:href="#m35aab25c8c" x="223.993765" y="73.112262" style="fill: #1f77b4; fill-opacity: 0.8; stroke: #1f77b4; stroke-opacity: 0.8"/>
     <use xlink:href="#m35aab25c8c" x="230.707726" y="304.608921" style="fill: #1f77b4; fill-opacity: 0.8; stroke: #1f77b4; stroke-opacity: 0.8"/>
     <use xlink:href="#m35aab25c8c" x="237.421688" y="121.526234" style="fill: #1f77b4; fill-opacity: 0.8; stroke: #1f77b4; stroke-opacity: 0.8"/>
     <use xlink:href="#m35aab25c8c" x="246.373638" y="257.415599" style="fill: #1f77b4; fill-opacity: 0.8; stroke: #1f77b4; stroke-opacity: 0.8"/>
     <use xlink:href="#m35aab25c8c" x="255.325587" y="138.659543" style="fill: #1f77b4; fill-opacity: 0.8; stroke: #1f77b4; stroke-opacity: 0.8"/>
     <use xlink:href="#m35aab25c8c" x="264.277536" y="190.088497" style="fill: #1f77b4; fill-opacity: 0.8; stroke: #1f77b4; stroke-opacity: 0.8"/>
     <use xlink:href="#m35aab25c8c" x="273.229485" y="270.05757" style="fill: #1f77b4; fill-opacity: 0.8; stroke: #1f77b4; stroke-opacity: 0.8"/>
     <use xlink:href="#m35aab25c8c" x="282.181434" y="279.034533" style="fill: #1f77b4; fill-opacity: 0.8; stroke: #1f77b4; stroke-opacity: 0.8"/>
     <use xlink:href="#m35aab25c8c" x="291.133384" y="205.539644" style="fill: #1f77b4; fill-opacity: 0.8; stroke: #1f77b4; stroke-opacity: 0.8"/>
     <use xlink:href="#m35aab25c8c" x="300.085333" y="341.421249" style="fill: #1f77b4; fill-opacity: 0.8; stroke: #1f77b4; stroke-opacity: 0.8"/>
     <use xlink:href="#m35aab25c8c" x="309.037282" y="372.427334" style="fill: #1f77b4; fill-opacity: 0.8; stroke: #1f77b4; stroke-opacity: 0.8"/>
     <use xlink:href="#m35aab25c8c" x="317.989231" y="312.352079" style="fill: #1f77b4; fill-opacity: 0.8; stroke: #1f77b4; stroke-opacity: 0.8"/>
     <use xlink:href="#m35aab25c8c" x="326.941181" y="385.172784" style="fill: #1f77b4; fill-opacity: 0.8; stroke: #1f77b4; stroke-opacity: 0.8"/>
     <use xlink:href="#m35aab25c8c" x="338.131117" y="288.069178" style="fill: #1f77b4; fill-opacity: 0.8; stroke: #1f77b4; stroke-opacity: 0.8"/>
     <use xlink:href="#m35aab25c8c" x="349.321054" y="350.304675" style="fill: #1f77b4; fill-opacity: 0.8; stroke: #1f77b4; stroke-opacity: 0.8"/>
     <use xlink:href="#m35aab25c8c" x="360.51099" y="363.721822" style="fill: #1f77b4; fill-opacity: 0.8; stroke: #1f77b4; stroke-opacity: 0.8"/>
     <use xlink:href="#m35aab25c8c" x="371.700927" y="322.687842" style="fill: #1f77b4; fill-opacity: 0.8; stroke: #1f77b4; stroke-opacity: 0.8"/>
     <use xlink:href="#m35aab25c8c" x="382.890863" y="267.220575" style="fill: #1f77b4; fill-opacity: 0.8; stroke: #1f77b4; stroke-opacity: 0.8"/>
     <use xlink:href="#m35aab25c8c" x="394.0808" y="427.201299" style="fill: #1f77b4; fill-opacity: 0.8; stroke: #1f77b4; stroke-opacity: 0.8"/>
     <use xlink:href="#m35aab25c8c" x="405.270736" y="530.151231" style="fill: #1f77b4; fill-opacity: 0.8; stroke: #1f77b4; stroke-opacity: 0.8"/>
     <use xlink:href="#m35aab25c8c" x="416.460673" y="384.396002" style="fill: #1f77b4; fill-opacity: 0.8; stroke: #1f77b4; stroke-opacity: 0.8"/>
     <use xlink:href="#m35aab25c8c" x="427.650609" y="365.779382" style="fill: #1f77b4; fill-opacity: 0.8; stroke: #1f77b4; stroke-opacity: 0.8"/>
     <use xlink:href="#m35aab25c8c" x="438.840546" y="336.243215" style="fill: #1f77b4; fill-opacity: 0.8; stroke: #1f77b4; stroke-opacity: 0.8"/>
     <use xlink:href="#m35aab25c8c" x="452.26847" y="419.755458" style="fill: #1f77b4; fill-opacity: 0.8; stroke: #1f77b4; stroke-opacity: 0.8"/>
     <use xlink:href="#m35aab25c8c" x="465.696394" y="307.658599" style="fill: #1f77b4; fill-opacity: 0.8; stroke: #1f77b4; stroke-opacity: 0.8"/>
     <use xlink:href="#m35aab25c8c" x="479.124317" y="381.376862" style="fill: #1f77b4; fill-opacity: 0.8; stroke: #1f77b4; stroke-opacity: 0.8"/>
     <use xlink:href="#m35aab25c8c" x="492.552241" y="292.188729" style="fill: #1f77b4; fill-opacity: 0.8; stroke: #1f77b4; stroke-opacity: 0.8"/>
     <use xlink:href="#m35aab25c8c" x="505.980165" y="344.191451" style="fill: #1f77b4; fill-opacity: 0.8; stroke: #1f77b4; stroke-opacity: 0.8"/>
     <use xlink:href="#m35aab25c8c" x="519.408089" y="266.17268" style="fill: #1f77b4; fill-opacity: 0.8; stroke: #1f77b4; stroke-opacity: 0.8"/>
     <use xlink:href="#m35aab25c8c" x="532.836013" y="475.305672" style="fill: #1f77b4; fill-opacity: 0.8; stroke: #1f77b4; stroke-opacity: 0.8"/>
     <use xlink:href="#m35aab25c8c" x="546.263937" y="399.4009" style="fill: #1f77b4; fill-opacity: 0.8; stroke: #1f77b4; stroke-opacity: 0.8"/>
     <use xlink:href="#m35aab25c8c" x="559.69186" y="434.097693" style="fill: #1f77b4; fill-opacity: 0.8; stroke: #1f77b4; stroke-opacity: 0.8"/>
    </g>
   </g>
   <g id="FillBetweenPolyCollection_1">
    <path d="M 103.14245 39.539719 
L 103.14245 112.13517 
L 107.75406 115.437854 
L 112.36567 119.023673 
L 116.977281 122.547004 
L 121.588891 125.600792 
L 126.200501 128.654579 
L 130.812111 131.708367 
L 135.423721 134.762154 
L 140.035332 138.03975 
L 144.646942 141.606966 
L 149.258552 145.174181 
L 153.870162 148.815701 
L 158.481772 152.479472 
L 163.093383 155.86322 
L 167.704993 159.427974 
L 172.316603 163.26988 
L 176.928213 166.77975 
L 181.539823 170.164976 
L 186.151434 173.682606 
L 190.763044 177.240126 
L 195.374654 180.796647 
L 199.986264 184.355167 
L 204.597875 187.855019 
L 209.209485 191.217209 
L 213.821095 194.579398 
L 218.432705 198.296321 
L 223.044315 201.812272 
L 227.655926 205.728236 
L 232.267536 209.529488 
L 236.879146 213.396471 
L 241.490756 217.579994 
L 246.102366 221.113768 
L 250.713977 224.890935 
L 255.325587 228.831121 
L 259.937197 232.460382 
L 264.548807 236.153797 
L 269.160417 240.376415 
L 273.772028 244.541327 
L 278.383638 248.677175 
L 282.995248 252.969582 
L 287.606858 257.183497 
L 292.218468 261.292939 
L 296.830079 265.474431 
L 301.441689 269.295967 
L 306.053299 273.613111 
L 310.664909 278.204245 
L 315.276519 282.757589 
L 319.88813 287.13495 
L 324.49974 291.52376 
L 329.11135 295.778912 
L 333.72296 300.038821 
L 338.33457 304.246433 
L 342.946181 308.385825 
L 347.557791 312.815611 
L 352.169401 317.079372 
L 356.781011 321.253772 
L 361.392622 325.391934 
L 366.004232 329.852475 
L 370.615842 334.438527 
L 375.227452 338.544122 
L 379.839062 343.32195 
L 384.450673 348.13552 
L 389.062283 351.957209 
L 393.673893 356.840034 
L 398.285503 361.375955 
L 402.897113 365.783025 
L 407.508724 370.810138 
L 412.120334 375.708317 
L 416.731944 380.318393 
L 421.343554 385.121784 
L 425.955164 389.82282 
L 430.566775 394.482028 
L 435.178385 399.105136 
L 439.789995 403.843194 
L 444.401605 408.339722 
L 449.013215 412.964059 
L 453.624826 417.588396 
L 458.236436 422.212732 
L 462.848046 426.837069 
L 467.459656 431.461406 
L 472.071266 436.140563 
L 476.682877 441.022192 
L 481.294487 445.930905 
L 485.906097 450.837167 
L 490.517707 455.737801 
L 495.129317 460.638436 
L 499.740928 465.539071 
L 504.352538 470.439705 
L 508.964148 475.066424 
L 513.575758 479.613295 
L 518.187368 484.160166 
L 522.798979 488.707037 
L 527.410589 493.600019 
L 532.022199 498.50183 
L 536.633809 503.399912 
L 541.24542 508.297993 
L 545.85703 513.196075 
L 550.46864 518.094157 
L 555.08025 522.921407 
L 559.69186 527.558777 
L 559.69186 426.481497 
L 559.69186 426.481497 
L 555.08025 423.244543 
L 550.46864 419.891842 
L 545.85703 416.411967 
L 541.24542 412.793626 
L 536.633809 409.181242 
L 532.022199 405.817461 
L 527.410589 402.866014 
L 522.798979 399.266654 
L 518.187368 395.991819 
L 513.575758 392.774203 
L 508.964148 389.556588 
L 504.352538 386.185608 
L 499.740928 382.808354 
L 495.129317 379.291942 
L 490.517707 375.67557 
L 485.906097 372.066104 
L 481.294487 368.458066 
L 476.682877 364.850028 
L 472.071266 361.24199 
L 467.459656 357.633952 
L 462.848046 354.025914 
L 458.236436 350.417876 
L 453.624826 346.811302 
L 449.013215 343.364968 
L 444.401605 340.070563 
L 439.789995 336.781999 
L 435.178385 333.225489 
L 430.566775 330.122848 
L 425.955164 326.258405 
L 421.343554 322.748114 
L 416.731944 319.147612 
L 412.120334 315.186713 
L 407.508724 311.093004 
L 402.897113 307.225961 
L 398.285503 303.995327 
L 393.673893 300.764693 
L 389.062283 297.230244 
L 384.450673 293.83681 
L 379.839062 289.94858 
L 375.227452 286.290184 
L 370.615842 282.449805 
L 366.004232 278.602086 
L 361.392622 274.895178 
L 356.781011 271.00723 
L 352.169401 267.253844 
L 347.557791 263.566396 
L 342.946181 259.934275 
L 338.33457 255.991449 
L 333.72296 251.769857 
L 329.11135 247.861513 
L 324.49974 243.993504 
L 319.88813 240.292029 
L 315.276519 236.369991 
L 310.664909 232.45287 
L 306.053299 228.535647 
L 301.441689 224.605625 
L 296.830079 220.82413 
L 292.218468 216.899671 
L 287.606858 212.975211 
L 282.995248 209.046281 
L 278.383638 205.273609 
L 273.772028 201.589837 
L 269.160417 197.648416 
L 264.548807 193.595262 
L 259.937197 189.478387 
L 255.325587 185.428589 
L 250.713977 181.345847 
L 246.102366 177.260056 
L 241.490756 173.17509 
L 236.879146 169.090465 
L 232.267536 165.009922 
L 227.655926 160.92265 
L 223.044315 156.77384 
L 218.432705 152.404118 
L 213.821095 148.304517 
L 209.209485 143.834577 
L 204.597875 139.447821 
L 199.986264 134.944985 
L 195.374654 130.631685 
L 190.763044 126.103154 
L 186.151434 121.621797 
L 181.539823 117.011761 
L 176.928213 112.711791 
L 172.316603 108.085351 
L 167.704993 103.642353 
L 163.093383 99.068769 
L 158.481772 94.647728 
L 153.870162 90.069185 
L 149.258552 85.492015 
L 144.646942 80.95263 
L 140.035332 76.419368 
L 135.423721 71.441475 
L 130.812111 66.676758 
L 126.200501 62.454542 
L 121.588891 58.078475 
L 116.977281 53.27322 
L 112.36567 48.44916 
L 107.75406 44.167691 
L 103.14245 39.539719 
z
" clip-path="url(#p1ed2cd69a6)" style="fill: #1f77b4; fill-opacity: 0.15"/>
   </g>
   <g id="matplotlib.axis_1">
    <g id="xtick_1">
     <g id="line2d_1">
      <defs>
       <path id="mf1240b8594" d="M 0 0 
L 0 3.5 
" style="stroke: #000000; stroke-width: 0.8"/>
      </defs>
      <g>
       <use xlink:href="#mf1240b8594" x="103.14245" y="519.716875" style="stroke: #000000; stroke-width: 0.8"/>
      </g>
     </g>
     <g id="text_1">
      <!-- 0 -->
      <g transform="translate(98.05245 538.874375) scale(0.16 -0.16)">
       <defs>
        <path id="DejaVuSans-30" d="M 2034 4250 
Q 1547 4250 1301 3770 
Q 1056 3291 1056 2328 
Q 1056 1369 1301 889 
Q 1547 409 2034 409 
Q 2525 409 2770 889 
Q 3016 1369 3016 2328 
Q 3016 3291 2770 3770 
Q 2525 4250 2034 4250 
z
M 2034 4750 
Q 2819 4750 3233 4129 
Q 3647 3509 3647 2328 
Q 3647 1150 3233 529 
Q 2819 -91 2034 -91 
Q 1250 -91 836 529 
Q 422 1150 422 2328 
Q 422 3509 836 4129 
Q 1250 4750 2034 4750 
z
" transform="scale(0.015625)"/>
       </defs>
       <use xlink:href="#DejaVuSans-30"/>
      </g>
     </g>
    </g>
    <g id="xtick_2">
     <g id="line2d_2">
      <g>
       <use xlink:href="#mf1240b8594" x="202.04845" y="519.716875" style="stroke: #000000; stroke-width: 0.8"/>
      </g>
     </g>
     <g id="text_2">
      <!-- 10 -->
      <g transform="translate(191.86845 538.874375) scale(0.16 -0.16)">
       <defs>
        <path id="DejaVuSans-31" d="M 794 531 
L 1825 531 
L 1825 4091 
L 703 3866 
L 703 4441 
L 1819 4666 
L 2450 4666 
L 2450 531 
L 3481 531 
L 3481 0 
L 794 0 
L 794 531 
z
" transform="scale(0.015625)"/>
       </defs>
       <use xlink:href="#DejaVuSans-31"/>
       <use xlink:href="#DejaVuSans-30" transform="translate(63.623047 0)"/>
      </g>
     </g>
    </g>
    <g id="xtick_3">
     <g id="line2d_3">
      <g>
       <use xlink:href="#mf1240b8594" x="300.95445" y="519.716875" style="stroke: #000000; stroke-width: 0.8"/>
      </g>
     </g>
     <g id="text_3">
      <!-- 20 -->
      <g transform="translate(290.77445 538.874375) scale(0.16 -0.16)">
       <defs>
        <path id="DejaVuSans-32" d="M 1228 531 
L 3431 531 
L 3431 0 
L 469 0 
L 469 531 
Q 828 903 1448 1529 
Q 2069 2156 2228 2338 
Q 2531 2678 2651 2914 
Q 2772 3150 2772 3378 
Q 2772 3750 2511 3984 
Q 2250 4219 1831 4219 
Q 1534 4219 1204 4116 
Q 875 4013 500 3803 
L 500 4441 
Q 881 4594 1212 4672 
Q 1544 4750 1819 4750 
Q 2544 4750 2975 4387 
Q 3406 4025 3406 3419 
Q 3406 3131 3298 2873 
Q 3191 2616 2906 2266 
Q 2828 2175 2409 1742 
Q 1991 1309 1228 531 
z
" transform="scale(0.015625)"/>
       </defs>
       <use xlink:href="#DejaVuSans-32"/>
       <use xlink:href="#DejaVuSans-30" transform="translate(63.623047 0)"/>
      </g>
     </g>
    </g>
    <g id="xtick_4">
     <g id="line2d_4">
      <g>
       <use xlink:href="#mf1240b8594" x="399.86045" y="519.716875" style="stroke: #000000; stroke-width: 0.8"/>
      </g>
     </g>
     <g id="text_4">
      <!-- 30 -->
      <g transform="translate(389.68045 538.874375) scale(0.16 -0.16)">
       <defs>
        <path id="DejaVuSans-33" d="M 2597 2516 
Q 3050 2419 3304 2112 
Q 3559 1806 3559 1356 
Q 3559 666 3084 287 
Q 2609 -91 1734 -91 
Q 1441 -91 1130 -33 
Q 819 25 488 141 
L 488 750 
Q 750 597 1062 519 
Q 1375 441 1716 441 
Q 2309 441 2620 675 
Q 2931 909 2931 1356 
Q 2931 1769 2642 2001 
Q 2353 2234 1838 2234 
L 1294 2234 
L 1294 2753 
L 1863 2753 
Q 2328 2753 2575 2939 
Q 2822 3125 2822 3475 
Q 2822 3834 2567 4026 
Q 2313 4219 1838 4219 
Q 1578 4219 1281 4162 
Q 984 4106 628 3988 
L 628 4550 
Q 988 4650 1302 4700 
Q 1616 4750 1894 4750 
Q 2613 4750 3031 4423 
Q 3450 4097 3450 3541 
Q 3450 3153 3228 2886 
Q 3006 2619 2597 2516 
z
" transform="scale(0.015625)"/>
       </defs>
       <use xlink:href="#DejaVuSans-33"/>
       <use xlink:href="#DejaVuSans-30" transform="translate(63.623047 0)"/>
      </g>
     </g>
    </g>
    <g id="xtick_5">
     <g id="line2d_5">
      <g>
       <use xlink:href="#mf1240b8594" x="498.76645" y="519.716875" style="stroke: #000000; stroke-width: 0.8"/>
      </g>
     </g>
     <g id="text_5">
      <!-- 40 -->
      <g transform="translate(488.58645 538.874375) scale(0.16 -0.16)">
       <defs>
        <path id="DejaVuSans-34" d="M 2419 4116 
L 825 1625 
L 2419 1625 
L 2419 4116 
z
M 2253 4666 
L 3047 4666 
L 3047 1625 
L 3713 1625 
L 3713 1100 
L 3047 1100 
L 3047 0 
L 2419 0 
L 2419 1100 
L 313 1100 
L 313 1709 
L 2253 4666 
z
" transform="scale(0.015625)"/>
       </defs>
       <use xlink:href="#DejaVuSans-34"/>
       <use xlink:href="#DejaVuSans-30" transform="translate(63.623047 0)"/>
      </g>
     </g>
    </g>
    <g id="text_6">
     <!-- Distance to target face -->
     <g transform="translate(215.621562 561.39875) scale(0.2 -0.2)">
      <defs>
       <path id="DejaVuSans-44" d="M 1259 4147 
L 1259 519 
L 2022 519 
Q 2988 519 3436 956 
Q 3884 1394 3884 2338 
Q 3884 3275 3436 3711 
Q 2988 4147 2022 4147 
L 1259 4147 
z
M 628 4666 
L 1925 4666 
Q 3281 4666 3915 4102 
Q 4550 3538 4550 2338 
Q 4550 1131 3912 565 
Q 3275 0 1925 0 
L 628 0 
L 628 4666 
z
" transform="scale(0.015625)"/>
       <path id="DejaVuSans-69" d="M 603 3500 
L 1178 3500 
L 1178 0 
L 603 0 
L 603 3500 
z
M 603 4863 
L 1178 4863 
L 1178 4134 
L 603 4134 
L 603 4863 
z
" transform="scale(0.015625)"/>
       <path id="DejaVuSans-73" d="M 2834 3397 
L 2834 2853 
Q 2591 2978 2328 3040 
Q 2066 3103 1784 3103 
Q 1356 3103 1142 2972 
Q 928 2841 928 2578 
Q 928 2378 1081 2264 
Q 1234 2150 1697 2047 
L 1894 2003 
Q 2506 1872 2764 1633 
Q 3022 1394 3022 966 
Q 3022 478 2636 193 
Q 2250 -91 1575 -91 
Q 1294 -91 989 -36 
Q 684 19 347 128 
L 347 722 
Q 666 556 975 473 
Q 1284 391 1588 391 
Q 1994 391 2212 530 
Q 2431 669 2431 922 
Q 2431 1156 2273 1281 
Q 2116 1406 1581 1522 
L 1381 1569 
Q 847 1681 609 1914 
Q 372 2147 372 2553 
Q 372 3047 722 3315 
Q 1072 3584 1716 3584 
Q 2034 3584 2315 3537 
Q 2597 3491 2834 3397 
z
" transform="scale(0.015625)"/>
       <path id="DejaVuSans-74" d="M 1172 4494 
L 1172 3500 
L 2356 3500 
L 2356 3053 
L 1172 3053 
L 1172 1153 
Q 1172 725 1289 603 
Q 1406 481 1766 481 
L 2356 481 
L 2356 0 
L 1766 0 
Q 1100 0 847 248 
Q 594 497 594 1153 
L 594 3053 
L 172 3053 
L 172 3500 
L 594 3500 
L 594 4494 
L 1172 4494 
z
" transform="scale(0.015625)"/>
       <path id="DejaVuSans-61" d="M 2194 1759 
Q 1497 1759 1228 1600 
Q 959 1441 959 1056 
Q 959 750 1161 570 
Q 1363 391 1709 391 
Q 2188 391 2477 730 
Q 2766 1069 2766 1631 
L 2766 1759 
L 2194 1759 
z
M 3341 1997 
L 3341 0 
L 2766 0 
L 2766 531 
Q 2569 213 2275 61 
Q 1981 -91 1556 -91 
Q 1019 -91 701 211 
Q 384 513 384 1019 
Q 384 1609 779 1909 
Q 1175 2209 1959 2209 
L 2766 2209 
L 2766 2266 
Q 2766 2663 2505 2880 
Q 2244 3097 1772 3097 
Q 1472 3097 1187 3025 
Q 903 2953 641 2809 
L 641 3341 
Q 956 3463 1253 3523 
Q 1550 3584 1831 3584 
Q 2591 3584 2966 3190 
Q 3341 2797 3341 1997 
z
" transform="scale(0.015625)"/>
       <path id="DejaVuSans-6e" d="M 3513 2113 
L 3513 0 
L 2938 0 
L 2938 2094 
Q 2938 2591 2744 2837 
Q 2550 3084 2163 3084 
Q 1697 3084 1428 2787 
Q 1159 2491 1159 1978 
L 1159 0 
L 581 0 
L 581 3500 
L 1159 3500 
L 1159 2956 
Q 1366 3272 1645 3428 
Q 1925 3584 2291 3584 
Q 2894 3584 3203 3211 
Q 3513 2838 3513 2113 
z
" transform="scale(0.015625)"/>
       <path id="DejaVuSans-63" d="M 3122 3366 
L 3122 2828 
Q 2878 2963 2633 3030 
Q 2388 3097 2138 3097 
Q 1578 3097 1268 2742 
Q 959 2388 959 1747 
Q 959 1106 1268 751 
Q 1578 397 2138 397 
Q 2388 397 2633 464 
Q 2878 531 3122 666 
L 3122 134 
Q 2881 22 2623 -34 
Q 2366 -91 2075 -91 
Q 1284 -91 818 406 
Q 353 903 353 1747 
Q 353 2603 823 3093 
Q 1294 3584 2113 3584 
Q 2378 3584 2631 3529 
Q 2884 3475 3122 3366 
z
" transform="scale(0.015625)"/>
       <path id="DejaVuSans-65" d="M 3597 1894 
L 3597 1613 
L 953 1613 
Q 991 1019 1311 708 
Q 1631 397 2203 397 
Q 2534 397 2845 478 
Q 3156 559 3463 722 
L 3463 178 
Q 3153 47 2828 -22 
Q 2503 -91 2169 -91 
Q 1331 -91 842 396 
Q 353 884 353 1716 
Q 353 2575 817 3079 
Q 1281 3584 2069 3584 
Q 2775 3584 3186 3129 
Q 3597 2675 3597 1894 
z
M 3022 2063 
Q 3016 2534 2758 2815 
Q 2500 3097 2075 3097 
Q 1594 3097 1305 2825 
Q 1016 2553 972 2059 
L 3022 2063 
z
" transform="scale(0.015625)"/>
       <path id="DejaVuSans-20" transform="scale(0.015625)"/>
       <path id="DejaVuSans-6f" d="M 1959 3097 
Q 1497 3097 1228 2736 
Q 959 2375 959 1747 
Q 959 1119 1226 758 
Q 1494 397 1959 397 
Q 2419 397 2687 759 
Q 2956 1122 2956 1747 
Q 2956 2369 2687 2733 
Q 2419 3097 1959 3097 
z
M 1959 3584 
Q 2709 3584 3137 3096 
Q 3566 2609 3566 1747 
Q 3566 888 3137 398 
Q 2709 -91 1959 -91 
Q 1206 -91 779 398 
Q 353 888 353 1747 
Q 353 2609 779 3096 
Q 1206 3584 1959 3584 
z
" transform="scale(0.015625)"/>
       <path id="DejaVuSans-72" d="M 2631 2963 
Q 2534 3019 2420 3045 
Q 2306 3072 2169 3072 
Q 1681 3072 1420 2755 
Q 1159 2438 1159 1844 
L 1159 0 
L 581 0 
L 581 3500 
L 1159 3500 
L 1159 2956 
Q 1341 3275 1631 3429 
Q 1922 3584 2338 3584 
Q 2397 3584 2469 3576 
Q 2541 3569 2628 3553 
L 2631 2963 
z
" transform="scale(0.015625)"/>
       <path id="DejaVuSans-67" d="M 2906 1791 
Q 2906 2416 2648 2759 
Q 2391 3103 1925 3103 
Q 1463 3103 1205 2759 
Q 947 2416 947 1791 
Q 947 1169 1205 825 
Q 1463 481 1925 481 
Q 2391 481 2648 825 
Q 2906 1169 2906 1791 
z
M 3481 434 
Q 3481 -459 3084 -895 
Q 2688 -1331 1869 -1331 
Q 1566 -1331 1297 -1286 
Q 1028 -1241 775 -1147 
L 775 -588 
Q 1028 -725 1275 -790 
Q 1522 -856 1778 -856 
Q 2344 -856 2625 -561 
Q 2906 -266 2906 331 
L 2906 616 
Q 2728 306 2450 153 
Q 2172 0 1784 0 
Q 1141 0 747 490 
Q 353 981 353 1791 
Q 353 2603 747 3093 
Q 1141 3584 1784 3584 
Q 2172 3584 2450 3431 
Q 2728 3278 2906 2969 
L 2906 3500 
L 3481 3500 
L 3481 434 
z
" transform="scale(0.015625)"/>
       <path id="DejaVuSans-66" d="M 2375 4863 
L 2375 4384 
L 1825 4384 
Q 1516 4384 1395 4259 
Q 1275 4134 1275 3809 
L 1275 3500 
L 2222 3500 
L 2222 3053 
L 1275 3053 
L 1275 0 
L 697 0 
L 697 3053 
L 147 3053 
L 147 3500 
L 697 3500 
L 697 3744 
Q 697 4328 969 4595 
Q 1241 4863 1831 4863 
L 2375 4863 
z
" transform="scale(0.015625)"/>
      </defs>
      <use xlink:href="#DejaVuSans-44"/>
      <use xlink:href="#DejaVuSans-69" transform="translate(77.001953 0)"/>
      <use xlink:href="#DejaVuSans-73" transform="translate(104.785156 0)"/>
      <use xlink:href="#DejaVuSans-74" transform="translate(156.884766 0)"/>
      <use xlink:href="#DejaVuSans-61" transform="translate(196.09375 0)"/>
      <use xlink:href="#DejaVuSans-6e" transform="translate(257.373047 0)"/>
      <use xlink:href="#DejaVuSans-63" transform="translate(320.751953 0)"/>
      <use xlink:href="#DejaVuSans-65" transform="translate(375.732422 0)"/>
      <use xlink:href="#DejaVuSans-20" transform="translate(437.255859 0)"/>
      <use xlink:href="#DejaVuSans-74" transform="translate(469.042969 0)"/>
      <use xlink:href="#DejaVuSans-6f" transform="translate(508.251953 0)"/>
      <use xlink:href="#DejaVuSans-20" transform="translate(569.433594 0)"/>
      <use xlink:href="#DejaVuSans-74" transform="translate(601.220703 0)"/>
      <use xlink:href="#DejaVuSans-61" transform="translate(640.429688 0)"/>
      <use xlink:href="#DejaVuSans-72" transform="translate(701.708984 0)"/>
      <use xlink:href="#DejaVuSans-67" transform="translate(741.072266 0)"/>
      <use xlink:href="#DejaVuSans-65" transform="translate(804.548828 0)"/>
      <use xlink:href="#DejaVuSans-74" transform="translate(866.072266 0)"/>
      <use xlink:href="#DejaVuSans-20" transform="translate(905.28125 0)"/>
      <use xlink:href="#DejaVuSans-66" transform="translate(937.068359 0)"/>
      <use xlink:href="#DejaVuSans-61" transform="translate(972.273438 0)"/>
      <use xlink:href="#DejaVuSans-63" transform="translate(1033.552734 0)"/>
      <use xlink:href="#DejaVuSans-65" transform="translate(1088.533203 0)"/>
     </g>
    </g>
   </g>
   <g id="matplotlib.axis_2">
    <g id="ytick_1">
     <g id="line2d_6">
      <defs>
       <path id="m9d19f6914a" d="M 0 0 
L -3.5 0 
" style="stroke: #1f77b4; stroke-width: 0.8"/>
      </defs>
      <g>
       <use xlink:href="#m9d19f6914a" x="83.36125" y="454.207542" style="fill: #1f77b4; stroke: #1f77b4; stroke-width: 0.8"/>
      </g>
     </g>
     <g id="text_7">
      <!-- 1.080 -->
      <g style="fill: #1f77b4" transform="translate(30.55625 460.286292) scale(0.16 -0.16)">
       <defs>
        <path id="DejaVuSans-2e" d="M 684 794 
L 1344 794 
L 1344 0 
L 684 0 
L 684 794 
z
" transform="scale(0.015625)"/>
        <path id="DejaVuSans-38" d="M 2034 2216 
Q 1584 2216 1326 1975 
Q 1069 1734 1069 1313 
Q 1069 891 1326 650 
Q 1584 409 2034 409 
Q 2484 409 2743 651 
Q 3003 894 3003 1313 
Q 3003 1734 2745 1975 
Q 2488 2216 2034 2216 
z
M 1403 2484 
Q 997 2584 770 2862 
Q 544 3141 544 3541 
Q 544 4100 942 4425 
Q 1341 4750 2034 4750 
Q 2731 4750 3128 4425 
Q 3525 4100 3525 3541 
Q 3525 3141 3298 2862 
Q 3072 2584 2669 2484 
Q 3125 2378 3379 2068 
Q 3634 1759 3634 1313 
Q 3634 634 3220 271 
Q 2806 -91 2034 -91 
Q 1263 -91 848 271 
Q 434 634 434 1313 
Q 434 1759 690 2068 
Q 947 2378 1403 2484 
z
M 1172 3481 
Q 1172 3119 1398 2916 
Q 1625 2713 2034 2713 
Q 2441 2713 2670 2916 
Q 2900 3119 2900 3481 
Q 2900 3844 2670 4047 
Q 2441 4250 2034 4250 
Q 1625 4250 1398 4047 
Q 1172 3844 1172 3481 
z
" transform="scale(0.015625)"/>
       </defs>
       <use xlink:href="#DejaVuSans-31"/>
       <use xlink:href="#DejaVuSans-2e" transform="translate(63.623047 0)"/>
       <use xlink:href="#DejaVuSans-30" transform="translate(95.410156 0)"/>
       <use xlink:href="#DejaVuSans-38" transform="translate(159.033203 0)"/>
       <use xlink:href="#DejaVuSans-30" transform="translate(222.65625 0)"/>
      </g>
     </g>
    </g>
    <g id="ytick_2">
     <g id="line2d_7">
      <g>
       <use xlink:href="#m9d19f6914a" x="83.36125" y="372.320875" style="fill: #1f77b4; stroke: #1f77b4; stroke-width: 0.8"/>
      </g>
     </g>
     <g id="text_8">
      <!-- 1.085 -->
      <g style="fill: #1f77b4" transform="translate(30.55625 378.399625) scale(0.16 -0.16)">
       <defs>
        <path id="DejaVuSans-35" d="M 691 4666 
L 3169 4666 
L 3169 4134 
L 1269 4134 
L 1269 2991 
Q 1406 3038 1543 3061 
Q 1681 3084 1819 3084 
Q 2600 3084 3056 2656 
Q 3513 2228 3513 1497 
Q 3513 744 3044 326 
Q 2575 -91 1722 -91 
Q 1428 -91 1123 -41 
Q 819 9 494 109 
L 494 744 
Q 775 591 1075 516 
Q 1375 441 1709 441 
Q 2250 441 2565 725 
Q 2881 1009 2881 1497 
Q 2881 1984 2565 2268 
Q 2250 2553 1709 2553 
Q 1456 2553 1204 2497 
Q 953 2441 691 2322 
L 691 4666 
z
" transform="scale(0.015625)"/>
       </defs>
       <use xlink:href="#DejaVuSans-31"/>
       <use xlink:href="#DejaVuSans-2e" transform="translate(63.623047 0)"/>
       <use xlink:href="#DejaVuSans-30" transform="translate(95.410156 0)"/>
       <use xlink:href="#DejaVuSans-38" transform="translate(159.033203 0)"/>
       <use xlink:href="#DejaVuSans-35" transform="translate(222.65625 0)"/>
      </g>
     </g>
    </g>
    <g id="ytick_3">
     <g id="line2d_8">
      <g>
       <use xlink:href="#m9d19f6914a" x="83.36125" y="290.434208" style="fill: #1f77b4; stroke: #1f77b4; stroke-width: 0.8"/>
      </g>
     </g>
     <g id="text_9">
      <!-- 1.090 -->
      <g style="fill: #1f77b4" transform="translate(30.55625 296.512958) scale(0.16 -0.16)">
       <defs>
        <path id="DejaVuSans-39" d="M 703 97 
L 703 672 
Q 941 559 1184 500 
Q 1428 441 1663 441 
Q 2288 441 2617 861 
Q 2947 1281 2994 2138 
Q 2813 1869 2534 1725 
Q 2256 1581 1919 1581 
Q 1219 1581 811 2004 
Q 403 2428 403 3163 
Q 403 3881 828 4315 
Q 1253 4750 1959 4750 
Q 2769 4750 3195 4129 
Q 3622 3509 3622 2328 
Q 3622 1225 3098 567 
Q 2575 -91 1691 -91 
Q 1453 -91 1209 -44 
Q 966 3 703 97 
z
M 1959 2075 
Q 2384 2075 2632 2365 
Q 2881 2656 2881 3163 
Q 2881 3666 2632 3958 
Q 2384 4250 1959 4250 
Q 1534 4250 1286 3958 
Q 1038 3666 1038 3163 
Q 1038 2656 1286 2365 
Q 1534 2075 1959 2075 
z
" transform="scale(0.015625)"/>
       </defs>
       <use xlink:href="#DejaVuSans-31"/>
       <use xlink:href="#DejaVuSans-2e" transform="translate(63.623047 0)"/>
       <use xlink:href="#DejaVuSans-30" transform="translate(95.410156 0)"/>
       <use xlink:href="#DejaVuSans-39" transform="translate(159.033203 0)"/>
       <use xlink:href="#DejaVuSans-30" transform="translate(222.65625 0)"/>
      </g>
     </g>
    </g>
    <g id="ytick_4">
     <g id="line2d_9">
      <g>
       <use xlink:href="#m9d19f6914a" x="83.36125" y="208.547542" style="fill: #1f77b4; stroke: #1f77b4; stroke-width: 0.8"/>
      </g>
     </g>
     <g id="text_10">
      <!-- 1.095 -->
      <g style="fill: #1f77b4" transform="translate(30.55625 214.626292) scale(0.16 -0.16)">
       <use xlink:href="#DejaVuSans-31"/>
       <use xlink:href="#DejaVuSans-2e" transform="translate(63.623047 0)"/>
       <use xlink:href="#DejaVuSans-30" transform="translate(95.410156 0)"/>
       <use xlink:href="#DejaVuSans-39" transform="translate(159.033203 0)"/>
       <use xlink:href="#DejaVuSans-35" transform="translate(222.65625 0)"/>
      </g>
     </g>
    </g>
    <g id="ytick_5">
     <g id="line2d_10">
      <g>
       <use xlink:href="#m9d19f6914a" x="83.36125" y="126.660875" style="fill: #1f77b4; stroke: #1f77b4; stroke-width: 0.8"/>
      </g>
     </g>
     <g id="text_11">
      <!-- 1.100 -->
      <g style="fill: #1f77b4" transform="translate(30.55625 132.739625) scale(0.16 -0.16)">
       <use xlink:href="#DejaVuSans-31"/>
       <use xlink:href="#DejaVuSans-2e" transform="translate(63.623047 0)"/>
       <use xlink:href="#DejaVuSans-31" transform="translate(95.410156 0)"/>
       <use xlink:href="#DejaVuSans-30" transform="translate(159.033203 0)"/>
       <use xlink:href="#DejaVuSans-30" transform="translate(222.65625 0)"/>
      </g>
     </g>
    </g>
    <g id="ytick_6">
     <g id="line2d_11">
      <g>
       <use xlink:href="#m9d19f6914a" x="83.36125" y="44.774208" style="fill: #1f77b4; stroke: #1f77b4; stroke-width: 0.8"/>
      </g>
     </g>
     <g id="text_12">
      <!-- 1.105 -->
      <g style="fill: #1f77b4" transform="translate(30.55625 50.852958) scale(0.16 -0.16)">
       <use xlink:href="#DejaVuSans-31"/>
       <use xlink:href="#DejaVuSans-2e" transform="translate(63.623047 0)"/>
       <use xlink:href="#DejaVuSans-31" transform="translate(95.410156 0)"/>
       <use xlink:href="#DejaVuSans-30" transform="translate(159.033203 0)"/>
       <use xlink:href="#DejaVuSans-35" transform="translate(222.65625 0)"/>
      </g>
     </g>
    </g>
    <g id="text_13">
     <!-- Algorithm Score -->
     <g style="fill: #1f77b4" transform="translate(22.396875 354.213125) rotate(-90) scale(0.2 -0.2)">
      <defs>
       <path id="DejaVuSans-41" d="M 2188 4044 
L 1331 1722 
L 3047 1722 
L 2188 4044 
z
M 1831 4666 
L 2547 4666 
L 4325 0 
L 3669 0 
L 3244 1197 
L 1141 1197 
L 716 0 
L 50 0 
L 1831 4666 
z
" transform="scale(0.015625)"/>
       <path id="DejaVuSans-6c" d="M 603 4863 
L 1178 4863 
L 1178 0 
L 603 0 
L 603 4863 
z
" transform="scale(0.015625)"/>
       <path id="DejaVuSans-68" d="M 3513 2113 
L 3513 0 
L 2938 0 
L 2938 2094 
Q 2938 2591 2744 2837 
Q 2550 3084 2163 3084 
Q 1697 3084 1428 2787 
Q 1159 2491 1159 1978 
L 1159 0 
L 581 0 
L 581 4863 
L 1159 4863 
L 1159 2956 
Q 1366 3272 1645 3428 
Q 1925 3584 2291 3584 
Q 2894 3584 3203 3211 
Q 3513 2838 3513 2113 
z
" transform="scale(0.015625)"/>
       <path id="DejaVuSans-6d" d="M 3328 2828 
Q 3544 3216 3844 3400 
Q 4144 3584 4550 3584 
Q 5097 3584 5394 3201 
Q 5691 2819 5691 2113 
L 5691 0 
L 5113 0 
L 5113 2094 
Q 5113 2597 4934 2840 
Q 4756 3084 4391 3084 
Q 3944 3084 3684 2787 
Q 3425 2491 3425 1978 
L 3425 0 
L 2847 0 
L 2847 2094 
Q 2847 2600 2669 2842 
Q 2491 3084 2119 3084 
Q 1678 3084 1418 2786 
Q 1159 2488 1159 1978 
L 1159 0 
L 581 0 
L 581 3500 
L 1159 3500 
L 1159 2956 
Q 1356 3278 1631 3431 
Q 1906 3584 2284 3584 
Q 2666 3584 2933 3390 
Q 3200 3197 3328 2828 
z
" transform="scale(0.015625)"/>
       <path id="DejaVuSans-53" d="M 3425 4513 
L 3425 3897 
Q 3066 4069 2747 4153 
Q 2428 4238 2131 4238 
Q 1616 4238 1336 4038 
Q 1056 3838 1056 3469 
Q 1056 3159 1242 3001 
Q 1428 2844 1947 2747 
L 2328 2669 
Q 3034 2534 3370 2195 
Q 3706 1856 3706 1288 
Q 3706 609 3251 259 
Q 2797 -91 1919 -91 
Q 1588 -91 1214 -16 
Q 841 59 441 206 
L 441 856 
Q 825 641 1194 531 
Q 1563 422 1919 422 
Q 2459 422 2753 634 
Q 3047 847 3047 1241 
Q 3047 1584 2836 1778 
Q 2625 1972 2144 2069 
L 1759 2144 
Q 1053 2284 737 2584 
Q 422 2884 422 3419 
Q 422 4038 858 4394 
Q 1294 4750 2059 4750 
Q 2388 4750 2728 4690 
Q 3069 4631 3425 4513 
z
" transform="scale(0.015625)"/>
      </defs>
      <use xlink:href="#DejaVuSans-41"/>
      <use xlink:href="#DejaVuSans-6c" transform="translate(68.408203 0)"/>
      <use xlink:href="#DejaVuSans-67" transform="translate(96.191406 0)"/>
      <use xlink:href="#DejaVuSans-6f" transform="translate(159.667969 0)"/>
      <use xlink:href="#DejaVuSans-72" transform="translate(220.849609 0)"/>
      <use xlink:href="#DejaVuSans-69" transform="translate(261.962891 0)"/>
      <use xlink:href="#DejaVuSans-74" transform="translate(289.746094 0)"/>
      <use xlink:href="#DejaVuSans-68" transform="translate(328.955078 0)"/>
      <use xlink:href="#DejaVuSans-6d" transform="translate(392.333984 0)"/>
      <use xlink:href="#DejaVuSans-20" transform="translate(489.746094 0)"/>
      <use xlink:href="#DejaVuSans-53" transform="translate(521.533203 0)"/>
      <use xlink:href="#DejaVuSans-63" transform="translate(585.009766 0)"/>
      <use xlink:href="#DejaVuSans-6f" transform="translate(639.990234 0)"/>
      <use xlink:href="#DejaVuSans-72" transform="translate(701.171875 0)"/>
      <use xlink:href="#DejaVuSans-65" transform="translate(740.035156 0)"/>
     </g>
    </g>
   </g>
   <g id="line2d_12">
    <path d="M 103.14245 73.227644 
L 107.75406 77.262153 
L 112.36567 81.296661 
L 116.977281 85.33117 
L 121.588891 89.365679 
L 126.200501 93.400188 
L 130.812111 97.434696 
L 135.423721 101.469205 
L 140.035332 105.503714 
L 144.646942 109.538223 
L 149.258552 113.572731 
L 153.870162 117.60724 
L 158.481772 121.641749 
L 163.093383 125.676258 
L 167.704993 129.710766 
L 172.316603 133.745275 
L 176.928213 137.779784 
L 181.539823 141.814293 
L 186.151434 145.848801 
L 190.763044 149.88331 
L 195.374654 153.917819 
L 199.986264 157.952328 
L 204.597875 161.986836 
L 209.209485 166.021345 
L 213.821095 170.055854 
L 218.432705 174.090362 
L 223.044315 178.124871 
L 227.655926 182.15938 
L 232.267536 186.193889 
L 236.879146 190.228397 
L 241.490756 194.262906 
L 246.102366 198.297415 
L 250.713977 202.331924 
L 255.325587 206.366432 
L 259.937197 210.400941 
L 264.548807 214.43545 
L 269.160417 218.469959 
L 273.772028 222.504467 
L 278.383638 226.538976 
L 282.995248 230.573485 
L 287.606858 234.607994 
L 292.218468 238.642502 
L 296.830079 242.677011 
L 301.441689 246.71152 
L 306.053299 250.746029 
L 310.664909 254.780537 
L 315.276519 258.815046 
L 319.88813 262.849555 
L 324.49974 266.884064 
L 329.11135 270.918572 
L 333.72296 274.953081 
L 338.33457 278.98759 
L 342.946181 283.022099 
L 347.557791 287.056607 
L 352.169401 291.091116 
L 356.781011 295.125625 
L 361.392622 299.160134 
L 366.004232 303.194642 
L 370.615842 307.229151 
L 375.227452 311.26366 
L 379.839062 315.298169 
L 384.450673 319.332677 
L 389.062283 323.367186 
L 393.673893 327.401695 
L 398.285503 331.436204 
L 402.897113 335.470712 
L 407.508724 339.505221 
L 412.120334 343.53973 
L 416.731944 347.574239 
L 421.343554 351.608747 
L 425.955164 355.643256 
L 430.566775 359.677765 
L 435.178385 363.712274 
L 439.789995 367.746782 
L 444.401605 371.781291 
L 449.013215 375.8158 
L 453.624826 379.850309 
L 458.236436 383.884817 
L 462.848046 387.919326 
L 467.459656 391.953835 
L 472.071266 395.988344 
L 476.682877 400.022852 
L 481.294487 404.057361 
L 485.906097 408.09187 
L 490.517707 412.126379 
L 495.129317 416.160887 
L 499.740928 420.195396 
L 504.352538 424.229905 
L 508.964148 428.264414 
L 513.575758 432.298922 
L 518.187368 436.333431 
L 522.798979 440.36794 
L 527.410589 444.402449 
L 532.022199 448.436957 
L 536.633809 452.471466 
L 541.24542 456.505975 
L 545.85703 460.540484 
L 550.46864 464.574992 
L 555.08025 468.609501 
L 559.69186 472.64401 
" clip-path="url(#p1ed2cd69a6)" style="fill: none; stroke: #1f77b4; stroke-width: 2.25; stroke-linecap: square"/>
   </g>
   <g id="patch_3">
    <path d="M 83.36125 519.716875 
L 83.36125 28.396875 
" style="fill: none; stroke: #1f77b4; stroke-width: 2.5; stroke-linejoin: miter; stroke-linecap: square"/>
   </g>
   <g id="patch_4">
    <path d="M 577.89125 519.716875 
L 577.89125 28.396875 
" style="fill: none; stroke: #000000; stroke-width: 0.8; stroke-linejoin: miter; stroke-linecap: square"/>
   </g>
   <g id="patch_5">
    <path d="M 83.36125 519.716875 
L 577.89125 519.716875 
" style="fill: none; stroke: #000000; stroke-width: 0.8; stroke-linejoin: miter; stroke-linecap: square"/>
   </g>
   <g id="patch_6">
    <path d="M 83.36125 28.396875 
L 577.89125 28.396875 
" style="fill: none; stroke: #000000; stroke-width: 0.8; stroke-linejoin: miter; stroke-linecap: square"/>
   </g>
   <g id="text_14">
    <!-- Algorithm -->
    <g style="fill: #1f77b4" transform="translate(108.08775 338.38575) scale(0.2 -0.2)">
     <use xlink:href="#DejaVuSans-41"/>
     <use xlink:href="#DejaVuSans-6c" transform="translate(68.408203 0)"/>
     <use xlink:href="#DejaVuSans-67" transform="translate(96.191406 0)"/>
     <use xlink:href="#DejaVuSans-6f" transform="translate(159.667969 0)"/>
     <use xlink:href="#DejaVuSans-72" transform="translate(220.849609 0)"/>
     <use xlink:href="#DejaVuSans-69" transform="translate(261.962891 0)"/>
     <use xlink:href="#DejaVuSans-74" transform="translate(289.746094 0)"/>
     <use xlink:href="#DejaVuSans-68" transform="translate(328.955078 0)"/>
     <use xlink:href="#DejaVuSans-6d" transform="translate(392.333984 0)"/>
    </g>
    <!-- r = -0.82,  -->
    <g style="fill: #1f77b4" transform="translate(108.08775 360.781375) scale(0.2 -0.2)">
     <defs>
      <path id="DejaVuSans-3d" d="M 678 2906 
L 4684 2906 
L 4684 2381 
L 678 2381 
L 678 2906 
z
M 678 1631 
L 4684 1631 
L 4684 1100 
L 678 1100 
L 678 1631 
z
" transform="scale(0.015625)"/>
      <path id="DejaVuSans-2d" d="M 313 2009 
L 1997 2009 
L 1997 1497 
L 313 1497 
L 313 2009 
z
" transform="scale(0.015625)"/>
      <path id="DejaVuSans-2c" d="M 750 794 
L 1409 794 
L 1409 256 
L 897 -744 
L 494 -744 
L 750 256 
L 750 794 
z
" transform="scale(0.015625)"/>
     </defs>
     <use xlink:href="#DejaVuSans-72"/>
     <use xlink:href="#DejaVuSans-20" transform="translate(41.113281 0)"/>
     <use xlink:href="#DejaVuSans-3d" transform="translate(72.900391 0)"/>
     <use xlink:href="#DejaVuSans-20" transform="translate(156.689453 0)"/>
     <use xlink:href="#DejaVuSans-2d" transform="translate(188.476562 0)"/>
     <use xlink:href="#DejaVuSans-30" transform="translate(224.560547 0)"/>
     <use xlink:href="#DejaVuSans-2e" transform="translate(288.183594 0)"/>
     <use xlink:href="#DejaVuSans-38" transform="translate(319.970703 0)"/>
     <use xlink:href="#DejaVuSans-32" transform="translate(383.59375 0)"/>
     <use xlink:href="#DejaVuSans-2c" transform="translate(447.216797 0)"/>
     <use xlink:href="#DejaVuSans-20" transform="translate(479.003906 0)"/>
    </g>
    <!-- p = 7.6e-16 -->
    <g style="fill: #1f77b4" transform="translate(108.08775 383.177) scale(0.2 -0.2)">
     <defs>
      <path id="DejaVuSans-70" d="M 1159 525 
L 1159 -1331 
L 581 -1331 
L 581 3500 
L 1159 3500 
L 1159 2969 
Q 1341 3281 1617 3432 
Q 1894 3584 2278 3584 
Q 2916 3584 3314 3078 
Q 3713 2572 3713 1747 
Q 3713 922 3314 415 
Q 2916 -91 2278 -91 
Q 1894 -91 1617 61 
Q 1341 213 1159 525 
z
M 3116 1747 
Q 3116 2381 2855 2742 
Q 2594 3103 2138 3103 
Q 1681 3103 1420 2742 
Q 1159 2381 1159 1747 
Q 1159 1113 1420 752 
Q 1681 391 2138 391 
Q 2594 391 2855 752 
Q 3116 1113 3116 1747 
z
" transform="scale(0.015625)"/>
      <path id="DejaVuSans-37" d="M 525 4666 
L 3525 4666 
L 3525 4397 
L 1831 0 
L 1172 0 
L 2766 4134 
L 525 4134 
L 525 4666 
z
" transform="scale(0.015625)"/>
      <path id="DejaVuSans-36" d="M 2113 2584 
Q 1688 2584 1439 2293 
Q 1191 2003 1191 1497 
Q 1191 994 1439 701 
Q 1688 409 2113 409 
Q 2538 409 2786 701 
Q 3034 994 3034 1497 
Q 3034 2003 2786 2293 
Q 2538 2584 2113 2584 
z
M 3366 4563 
L 3366 3988 
Q 3128 4100 2886 4159 
Q 2644 4219 2406 4219 
Q 1781 4219 1451 3797 
Q 1122 3375 1075 2522 
Q 1259 2794 1537 2939 
Q 1816 3084 2150 3084 
Q 2853 3084 3261 2657 
Q 3669 2231 3669 1497 
Q 3669 778 3244 343 
Q 2819 -91 2113 -91 
Q 1303 -91 875 529 
Q 447 1150 447 2328 
Q 447 3434 972 4092 
Q 1497 4750 2381 4750 
Q 2619 4750 2861 4703 
Q 3103 4656 3366 4563 
z
" transform="scale(0.015625)"/>
     </defs>
     <use xlink:href="#DejaVuSans-70"/>
     <use xlink:href="#DejaVuSans-20" transform="translate(63.476562 0)"/>
     <use xlink:href="#DejaVuSans-3d" transform="translate(95.263672 0)"/>
     <use xlink:href="#DejaVuSans-20" transform="translate(179.052734 0)"/>
     <use xlink:href="#DejaVuSans-37" transform="translate(210.839844 0)"/>
     <use xlink:href="#DejaVuSans-2e" transform="translate(274.462891 0)"/>
     <use xlink:href="#DejaVuSans-36" transform="translate(306.25 0)"/>
     <use xlink:href="#DejaVuSans-65" transform="translate(369.873047 0)"/>
     <use xlink:href="#DejaVuSans-2d" transform="translate(431.396484 0)"/>
     <use xlink:href="#DejaVuSans-31" transform="translate(467.480469 0)"/>
     <use xlink:href="#DejaVuSans-36" transform="translate(531.103516 0)"/>
    </g>
   </g>
   <g id="text_15">
    <!-- Score vs distance to target face -->
    <g transform="translate(171.484062 22.396875) scale(0.2 -0.2)">
     <defs>
      <path id="DejaVuSans-76" d="M 191 3500 
L 800 3500 
L 1894 563 
L 2988 3500 
L 3597 3500 
L 2284 0 
L 1503 0 
L 191 3500 
z
" transform="scale(0.015625)"/>
      <path id="DejaVuSans-64" d="M 2906 2969 
L 2906 4863 
L 3481 4863 
L 3481 0 
L 2906 0 
L 2906 525 
Q 2725 213 2448 61 
Q 2172 -91 1784 -91 
Q 1150 -91 751 415 
Q 353 922 353 1747 
Q 353 2572 751 3078 
Q 1150 3584 1784 3584 
Q 2172 3584 2448 3432 
Q 2725 3281 2906 2969 
z
M 947 1747 
Q 947 1113 1208 752 
Q 1469 391 1925 391 
Q 2381 391 2643 752 
Q 2906 1113 2906 1747 
Q 2906 2381 2643 2742 
Q 2381 3103 1925 3103 
Q 1469 3103 1208 2742 
Q 947 2381 947 1747 
z
" transform="scale(0.015625)"/>
     </defs>
     <use xlink:href="#DejaVuSans-53"/>
     <use xlink:href="#DejaVuSans-63" transform="translate(63.476562 0)"/>
     <use xlink:href="#DejaVuSans-6f" transform="translate(118.457031 0)"/>
     <use xlink:href="#DejaVuSans-72" transform="translate(179.638672 0)"/>
     <use xlink:href="#DejaVuSans-65" transform="translate(218.501953 0)"/>
     <use xlink:href="#DejaVuSans-20" transform="translate(280.025391 0)"/>
     <use xlink:href="#DejaVuSans-76" transform="translate(311.8125 0)"/>
     <use xlink:href="#DejaVuSans-73" transform="translate(370.992188 0)"/>
     <use xlink:href="#DejaVuSans-20" transform="translate(423.091797 0)"/>
     <use xlink:href="#DejaVuSans-64" transform="translate(454.878906 0)"/>
     <use xlink:href="#DejaVuSans-69" transform="translate(518.355469 0)"/>
     <use xlink:href="#DejaVuSans-73" transform="translate(546.138672 0)"/>
     <use xlink:href="#DejaVuSans-74" transform="translate(598.238281 0)"/>
     <use xlink:href="#DejaVuSans-61" transform="translate(637.447266 0)"/>
     <use xlink:href="#DejaVuSans-6e" transform="translate(698.726562 0)"/>
     <use xlink:href="#DejaVuSans-63" transform="translate(762.105469 0)"/>
     <use xlink:href="#DejaVuSans-65" transform="translate(817.085938 0)"/>
     <use xlink:href="#DejaVuSans-20" transform="translate(878.609375 0)"/>
     <use xlink:href="#DejaVuSans-74" transform="translate(910.396484 0)"/>
     <use xlink:href="#DejaVuSans-6f" transform="translate(949.605469 0)"/>
     <use xlink:href="#DejaVuSans-20" transform="translate(1010.787109 0)"/>
     <use xlink:href="#DejaVuSans-74" transform="translate(1042.574219 0)"/>
     <use xlink:href="#DejaVuSans-61" transform="translate(1081.783203 0)"/>
     <use xlink:href="#DejaVuSans-72" transform="translate(1143.0625 0)"/>
     <use xlink:href="#DejaVuSans-67" transform="translate(1182.425781 0)"/>
     <use xlink:href="#DejaVuSans-65" transform="translate(1245.902344 0)"/>
     <use xlink:href="#DejaVuSans-74" transform="translate(1307.425781 0)"/>
     <use xlink:href="#DejaVuSans-20" transform="translate(1346.634766 0)"/>
     <use xlink:href="#DejaVuSans-66" transform="translate(1378.421875 0)"/>
     <use xlink:href="#DejaVuSans-61" transform="translate(1413.626953 0)"/>
     <use xlink:href="#DejaVuSans-63" transform="translate(1474.90625 0)"/>
     <use xlink:href="#DejaVuSans-65" transform="translate(1529.886719 0)"/>
    </g>
   </g>
  </g>
  <g id="axes_2">
   <g id="PathCollection_2">
    <defs>
     <path id="m803dfe8a14" d="M 0 -7.071068 
L -7.071068 7.071068 
L 7.071068 7.071068 
z
" style="stroke: #ff7f0e; stroke-opacity: 0.8"/>
    </defs>
    <g clip-path="url(#p1ed2cd69a6)">
     <use xlink:href="#m803dfe8a14" x="103.14245" y="50.729602" style="fill: #ff7f0e; fill-opacity: 0.8; stroke: #ff7f0e; stroke-opacity: 0.8"/>
     <use xlink:href="#m803dfe8a14" x="118.802095" y="70.497586" style="fill: #ff7f0e; fill-opacity: 0.8; stroke: #ff7f0e; stroke-opacity: 0.8"/>
     <use xlink:href="#m803dfe8a14" x="138.935924" y="90.26557" style="fill: #ff7f0e; fill-opacity: 0.8; stroke: #ff7f0e; stroke-opacity: 0.8"/>
     <use xlink:href="#m803dfe8a14" x="170.255213" y="110.033553" style="fill: #ff7f0e; fill-opacity: 0.8; stroke: #ff7f0e; stroke-opacity: 0.8"/>
     <use xlink:href="#m803dfe8a14" x="210.522871" y="129.801537" style="fill: #ff7f0e; fill-opacity: 0.8; stroke: #ff7f0e; stroke-opacity: 0.8"/>
     <use xlink:href="#m803dfe8a14" x="264.258737" y="208.873471" style="fill: #ff7f0e; fill-opacity: 0.8; stroke: #ff7f0e; stroke-opacity: 0.8"/>
     <use xlink:href="#m803dfe8a14" x="317.948948" y="287.945406" style="fill: #ff7f0e; fill-opacity: 0.8; stroke: #ff7f0e; stroke-opacity: 0.8"/>
     <use xlink:href="#m803dfe8a14" x="394.055734" y="339.342163" style="fill: #ff7f0e; fill-opacity: 0.8; stroke: #ff7f0e; stroke-opacity: 0.8"/>
     <use xlink:href="#m803dfe8a14" x="465.688337" y="378.878131" style="fill: #ff7f0e; fill-opacity: 0.8; stroke: #ff7f0e; stroke-opacity: 0.8"/>
     <use xlink:href="#m803dfe8a14" x="559.69186" y="446.089275" style="fill: #ff7f0e; fill-opacity: 0.8; stroke: #ff7f0e; stroke-opacity: 0.8"/>
     <use xlink:href="#m803dfe8a14" x="103.14245" y="50.729602" style="fill: #ff7f0e; fill-opacity: 0.8; stroke: #ff7f0e; stroke-opacity: 0.8"/>
     <use xlink:href="#m803dfe8a14" x="118.802095" y="70.497586" style="fill: #ff7f0e; fill-opacity: 0.8; stroke: #ff7f0e; stroke-opacity: 0.8"/>
     <use xlink:href="#m803dfe8a14" x="138.935924" y="90.26557" style="fill: #ff7f0e; fill-opacity: 0.8; stroke: #ff7f0e; stroke-opacity: 0.8"/>
     <use xlink:href="#m803dfe8a14" x="170.255213" y="129.801537" style="fill: #ff7f0e; fill-opacity: 0.8; stroke: #ff7f0e; stroke-opacity: 0.8"/>
     <use xlink:href="#m803dfe8a14" x="210.522871" y="149.56952" style="fill: #ff7f0e; fill-opacity: 0.8; stroke: #ff7f0e; stroke-opacity: 0.8"/>
     <use xlink:href="#m803dfe8a14" x="264.258737" y="244.455842" style="fill: #ff7f0e; fill-opacity: 0.8; stroke: #ff7f0e; stroke-opacity: 0.8"/>
     <use xlink:href="#m803dfe8a14" x="317.948948" y="287.945406" style="fill: #ff7f0e; fill-opacity: 0.8; stroke: #ff7f0e; stroke-opacity: 0.8"/>
     <use xlink:href="#m803dfe8a14" x="394.055734" y="327.481373" style="fill: #ff7f0e; fill-opacity: 0.8; stroke: #ff7f0e; stroke-opacity: 0.8"/>
     <use xlink:href="#m803dfe8a14" x="465.688337" y="406.553308" style="fill: #ff7f0e; fill-opacity: 0.8; stroke: #ff7f0e; stroke-opacity: 0.8"/>
     <use xlink:href="#m803dfe8a14" x="559.69186" y="446.089275" style="fill: #ff7f0e; fill-opacity: 0.8; stroke: #ff7f0e; stroke-opacity: 0.8"/>
     <use xlink:href="#m803dfe8a14" x="103.14245" y="50.729602" style="fill: #ff7f0e; fill-opacity: 0.8; stroke: #ff7f0e; stroke-opacity: 0.8"/>
     <use xlink:href="#m803dfe8a14" x="118.802095" y="70.497586" style="fill: #ff7f0e; fill-opacity: 0.8; stroke: #ff7f0e; stroke-opacity: 0.8"/>
     <use xlink:href="#m803dfe8a14" x="138.935924" y="90.26557" style="fill: #ff7f0e; fill-opacity: 0.8; stroke: #ff7f0e; stroke-opacity: 0.8"/>
     <use xlink:href="#m803dfe8a14" x="170.255213" y="110.033553" style="fill: #ff7f0e; fill-opacity: 0.8; stroke: #ff7f0e; stroke-opacity: 0.8"/>
     <use xlink:href="#m803dfe8a14" x="210.522871" y="129.801537" style="fill: #ff7f0e; fill-opacity: 0.8; stroke: #ff7f0e; stroke-opacity: 0.8"/>
     <use xlink:href="#m803dfe8a14" x="264.258737" y="248.409439" style="fill: #ff7f0e; fill-opacity: 0.8; stroke: #ff7f0e; stroke-opacity: 0.8"/>
     <use xlink:href="#m803dfe8a14" x="317.948948" y="299.806196" style="fill: #ff7f0e; fill-opacity: 0.8; stroke: #ff7f0e; stroke-opacity: 0.8"/>
     <use xlink:href="#m803dfe8a14" x="394.055734" y="339.342163" style="fill: #ff7f0e; fill-opacity: 0.8; stroke: #ff7f0e; stroke-opacity: 0.8"/>
     <use xlink:href="#m803dfe8a14" x="465.688337" y="394.692518" style="fill: #ff7f0e; fill-opacity: 0.8; stroke: #ff7f0e; stroke-opacity: 0.8"/>
     <use xlink:href="#m803dfe8a14" x="559.69186" y="446.089275" style="fill: #ff7f0e; fill-opacity: 0.8; stroke: #ff7f0e; stroke-opacity: 0.8"/>
     <use xlink:href="#m803dfe8a14" x="103.14245" y="50.729602" style="fill: #ff7f0e; fill-opacity: 0.8; stroke: #ff7f0e; stroke-opacity: 0.8"/>
     <use xlink:href="#m803dfe8a14" x="118.802095" y="70.497586" style="fill: #ff7f0e; fill-opacity: 0.8; stroke: #ff7f0e; stroke-opacity: 0.8"/>
     <use xlink:href="#m803dfe8a14" x="138.935924" y="90.26557" style="fill: #ff7f0e; fill-opacity: 0.8; stroke: #ff7f0e; stroke-opacity: 0.8"/>
     <use xlink:href="#m803dfe8a14" x="170.255213" y="110.033553" style="fill: #ff7f0e; fill-opacity: 0.8; stroke: #ff7f0e; stroke-opacity: 0.8"/>
     <use xlink:href="#m803dfe8a14" x="210.522871" y="129.801537" style="fill: #ff7f0e; fill-opacity: 0.8; stroke: #ff7f0e; stroke-opacity: 0.8"/>
     <use xlink:href="#m803dfe8a14" x="264.258737" y="208.873471" style="fill: #ff7f0e; fill-opacity: 0.8; stroke: #ff7f0e; stroke-opacity: 0.8"/>
     <use xlink:href="#m803dfe8a14" x="317.948948" y="307.71339" style="fill: #ff7f0e; fill-opacity: 0.8; stroke: #ff7f0e; stroke-opacity: 0.8"/>
     <use xlink:href="#m803dfe8a14" x="394.055734" y="367.01734" style="fill: #ff7f0e; fill-opacity: 0.8; stroke: #ff7f0e; stroke-opacity: 0.8"/>
     <use xlink:href="#m803dfe8a14" x="465.688337" y="406.553308" style="fill: #ff7f0e; fill-opacity: 0.8; stroke: #ff7f0e; stroke-opacity: 0.8"/>
     <use xlink:href="#m803dfe8a14" x="559.69186" y="446.089275" style="fill: #ff7f0e; fill-opacity: 0.8; stroke: #ff7f0e; stroke-opacity: 0.8"/>
     <use xlink:href="#m803dfe8a14" x="103.14245" y="50.729602" style="fill: #ff7f0e; fill-opacity: 0.8; stroke: #ff7f0e; stroke-opacity: 0.8"/>
     <use xlink:href="#m803dfe8a14" x="118.802095" y="70.497586" style="fill: #ff7f0e; fill-opacity: 0.8; stroke: #ff7f0e; stroke-opacity: 0.8"/>
     <use xlink:href="#m803dfe8a14" x="138.935924" y="90.26557" style="fill: #ff7f0e; fill-opacity: 0.8; stroke: #ff7f0e; stroke-opacity: 0.8"/>
     <use xlink:href="#m803dfe8a14" x="170.255213" y="110.033553" style="fill: #ff7f0e; fill-opacity: 0.8; stroke: #ff7f0e; stroke-opacity: 0.8"/>
     <use xlink:href="#m803dfe8a14" x="210.522871" y="129.801537" style="fill: #ff7f0e; fill-opacity: 0.8; stroke: #ff7f0e; stroke-opacity: 0.8"/>
     <use xlink:href="#m803dfe8a14" x="264.258737" y="228.641455" style="fill: #ff7f0e; fill-opacity: 0.8; stroke: #ff7f0e; stroke-opacity: 0.8"/>
     <use xlink:href="#m803dfe8a14" x="317.948948" y="315.620583" style="fill: #ff7f0e; fill-opacity: 0.8; stroke: #ff7f0e; stroke-opacity: 0.8"/>
     <use xlink:href="#m803dfe8a14" x="465.688337" y="367.01734" style="fill: #ff7f0e; fill-opacity: 0.8; stroke: #ff7f0e; stroke-opacity: 0.8"/>
     <use xlink:href="#m803dfe8a14" x="394.055734" y="406.553308" style="fill: #ff7f0e; fill-opacity: 0.8; stroke: #ff7f0e; stroke-opacity: 0.8"/>
     <use xlink:href="#m803dfe8a14" x="559.69186" y="446.089275" style="fill: #ff7f0e; fill-opacity: 0.8; stroke: #ff7f0e; stroke-opacity: 0.8"/>
     <use xlink:href="#m803dfe8a14" x="103.14245" y="50.729602" style="fill: #ff7f0e; fill-opacity: 0.8; stroke: #ff7f0e; stroke-opacity: 0.8"/>
     <use xlink:href="#m803dfe8a14" x="138.935924" y="70.497586" style="fill: #ff7f0e; fill-opacity: 0.8; stroke: #ff7f0e; stroke-opacity: 0.8"/>
     <use xlink:href="#m803dfe8a14" x="118.802095" y="90.26557" style="fill: #ff7f0e; fill-opacity: 0.8; stroke: #ff7f0e; stroke-opacity: 0.8"/>
     <use xlink:href="#m803dfe8a14" x="170.255213" y="110.033553" style="fill: #ff7f0e; fill-opacity: 0.8; stroke: #ff7f0e; stroke-opacity: 0.8"/>
     <use xlink:href="#m803dfe8a14" x="210.522871" y="248.409439" style="fill: #ff7f0e; fill-opacity: 0.8; stroke: #ff7f0e; stroke-opacity: 0.8"/>
     <use xlink:href="#m803dfe8a14" x="264.258737" y="287.945406" style="fill: #ff7f0e; fill-opacity: 0.8; stroke: #ff7f0e; stroke-opacity: 0.8"/>
     <use xlink:href="#m803dfe8a14" x="317.948948" y="327.481373" style="fill: #ff7f0e; fill-opacity: 0.8; stroke: #ff7f0e; stroke-opacity: 0.8"/>
     <use xlink:href="#m803dfe8a14" x="394.055734" y="367.01734" style="fill: #ff7f0e; fill-opacity: 0.8; stroke: #ff7f0e; stroke-opacity: 0.8"/>
     <use xlink:href="#m803dfe8a14" x="465.688337" y="406.553308" style="fill: #ff7f0e; fill-opacity: 0.8; stroke: #ff7f0e; stroke-opacity: 0.8"/>
     <use xlink:href="#m803dfe8a14" x="559.69186" y="446.089275" style="fill: #ff7f0e; fill-opacity: 0.8; stroke: #ff7f0e; stroke-opacity: 0.8"/>
     <use xlink:href="#m803dfe8a14" x="103.14245" y="50.729602" style="fill: #ff7f0e; fill-opacity: 0.8; stroke: #ff7f0e; stroke-opacity: 0.8"/>
     <use xlink:href="#m803dfe8a14" x="138.935924" y="62.590392" style="fill: #ff7f0e; fill-opacity: 0.8; stroke: #ff7f0e; stroke-opacity: 0.8"/>
     <use xlink:href="#m803dfe8a14" x="118.802095" y="78.404779" style="fill: #ff7f0e; fill-opacity: 0.8; stroke: #ff7f0e; stroke-opacity: 0.8"/>
     <use xlink:href="#m803dfe8a14" x="170.255213" y="90.26557" style="fill: #ff7f0e; fill-opacity: 0.8; stroke: #ff7f0e; stroke-opacity: 0.8"/>
     <use xlink:href="#m803dfe8a14" x="210.522871" y="129.801537" style="fill: #ff7f0e; fill-opacity: 0.8; stroke: #ff7f0e; stroke-opacity: 0.8"/>
     <use xlink:href="#m803dfe8a14" x="264.258737" y="208.873471" style="fill: #ff7f0e; fill-opacity: 0.8; stroke: #ff7f0e; stroke-opacity: 0.8"/>
     <use xlink:href="#m803dfe8a14" x="317.948948" y="287.945406" style="fill: #ff7f0e; fill-opacity: 0.8; stroke: #ff7f0e; stroke-opacity: 0.8"/>
     <use xlink:href="#m803dfe8a14" x="394.055734" y="367.01734" style="fill: #ff7f0e; fill-opacity: 0.8; stroke: #ff7f0e; stroke-opacity: 0.8"/>
     <use xlink:href="#m803dfe8a14" x="465.688337" y="406.553308" style="fill: #ff7f0e; fill-opacity: 0.8; stroke: #ff7f0e; stroke-opacity: 0.8"/>
     <use xlink:href="#m803dfe8a14" x="559.69186" y="446.089275" style="fill: #ff7f0e; fill-opacity: 0.8; stroke: #ff7f0e; stroke-opacity: 0.8"/>
     <use xlink:href="#m803dfe8a14" x="103.14245" y="50.729602" style="fill: #ff7f0e; fill-opacity: 0.8; stroke: #ff7f0e; stroke-opacity: 0.8"/>
     <use xlink:href="#m803dfe8a14" x="118.802095" y="62.590392" style="fill: #ff7f0e; fill-opacity: 0.8; stroke: #ff7f0e; stroke-opacity: 0.8"/>
     <use xlink:href="#m803dfe8a14" x="138.935924" y="90.26557" style="fill: #ff7f0e; fill-opacity: 0.8; stroke: #ff7f0e; stroke-opacity: 0.8"/>
     <use xlink:href="#m803dfe8a14" x="170.255213" y="129.801537" style="fill: #ff7f0e; fill-opacity: 0.8; stroke: #ff7f0e; stroke-opacity: 0.8"/>
     <use xlink:href="#m803dfe8a14" x="210.522871" y="169.337504" style="fill: #ff7f0e; fill-opacity: 0.8; stroke: #ff7f0e; stroke-opacity: 0.8"/>
     <use xlink:href="#m803dfe8a14" x="264.258737" y="248.409439" style="fill: #ff7f0e; fill-opacity: 0.8; stroke: #ff7f0e; stroke-opacity: 0.8"/>
     <use xlink:href="#m803dfe8a14" x="317.948948" y="299.806196" style="fill: #ff7f0e; fill-opacity: 0.8; stroke: #ff7f0e; stroke-opacity: 0.8"/>
     <use xlink:href="#m803dfe8a14" x="394.055734" y="339.342163" style="fill: #ff7f0e; fill-opacity: 0.8; stroke: #ff7f0e; stroke-opacity: 0.8"/>
     <use xlink:href="#m803dfe8a14" x="465.688337" y="406.553308" style="fill: #ff7f0e; fill-opacity: 0.8; stroke: #ff7f0e; stroke-opacity: 0.8"/>
     <use xlink:href="#m803dfe8a14" x="559.69186" y="446.089275" style="fill: #ff7f0e; fill-opacity: 0.8; stroke: #ff7f0e; stroke-opacity: 0.8"/>
     <use xlink:href="#m803dfe8a14" x="103.14245" y="50.729602" style="fill: #ff7f0e; fill-opacity: 0.8; stroke: #ff7f0e; stroke-opacity: 0.8"/>
     <use xlink:href="#m803dfe8a14" x="118.802095" y="70.497586" style="fill: #ff7f0e; fill-opacity: 0.8; stroke: #ff7f0e; stroke-opacity: 0.8"/>
     <use xlink:href="#m803dfe8a14" x="138.935924" y="90.26557" style="fill: #ff7f0e; fill-opacity: 0.8; stroke: #ff7f0e; stroke-opacity: 0.8"/>
     <use xlink:href="#m803dfe8a14" x="170.255213" y="110.033553" style="fill: #ff7f0e; fill-opacity: 0.8; stroke: #ff7f0e; stroke-opacity: 0.8"/>
     <use xlink:href="#m803dfe8a14" x="210.522871" y="129.801537" style="fill: #ff7f0e; fill-opacity: 0.8; stroke: #ff7f0e; stroke-opacity: 0.8"/>
     <use xlink:href="#m803dfe8a14" x="264.258737" y="248.409439" style="fill: #ff7f0e; fill-opacity: 0.8; stroke: #ff7f0e; stroke-opacity: 0.8"/>
     <use xlink:href="#m803dfe8a14" x="317.948948" y="307.71339" style="fill: #ff7f0e; fill-opacity: 0.8; stroke: #ff7f0e; stroke-opacity: 0.8"/>
     <use xlink:href="#m803dfe8a14" x="394.055734" y="367.01734" style="fill: #ff7f0e; fill-opacity: 0.8; stroke: #ff7f0e; stroke-opacity: 0.8"/>
     <use xlink:href="#m803dfe8a14" x="465.688337" y="406.553308" style="fill: #ff7f0e; fill-opacity: 0.8; stroke: #ff7f0e; stroke-opacity: 0.8"/>
     <use xlink:href="#m803dfe8a14" x="559.69186" y="446.089275" style="fill: #ff7f0e; fill-opacity: 0.8; stroke: #ff7f0e; stroke-opacity: 0.8"/>
     <use xlink:href="#m803dfe8a14" x="103.14245" y="50.729602" style="fill: #ff7f0e; fill-opacity: 0.8; stroke: #ff7f0e; stroke-opacity: 0.8"/>
     <use xlink:href="#m803dfe8a14" x="118.802095" y="70.497586" style="fill: #ff7f0e; fill-opacity: 0.8; stroke: #ff7f0e; stroke-opacity: 0.8"/>
     <use xlink:href="#m803dfe8a14" x="138.935924" y="90.26557" style="fill: #ff7f0e; fill-opacity: 0.8; stroke: #ff7f0e; stroke-opacity: 0.8"/>
     <use xlink:href="#m803dfe8a14" x="170.255213" y="110.033553" style="fill: #ff7f0e; fill-opacity: 0.8; stroke: #ff7f0e; stroke-opacity: 0.8"/>
     <use xlink:href="#m803dfe8a14" x="210.522871" y="208.873471" style="fill: #ff7f0e; fill-opacity: 0.8; stroke: #ff7f0e; stroke-opacity: 0.8"/>
     <use xlink:href="#m803dfe8a14" x="264.258737" y="287.945406" style="fill: #ff7f0e; fill-opacity: 0.8; stroke: #ff7f0e; stroke-opacity: 0.8"/>
     <use xlink:href="#m803dfe8a14" x="317.948948" y="327.481373" style="fill: #ff7f0e; fill-opacity: 0.8; stroke: #ff7f0e; stroke-opacity: 0.8"/>
     <use xlink:href="#m803dfe8a14" x="394.055734" y="367.01734" style="fill: #ff7f0e; fill-opacity: 0.8; stroke: #ff7f0e; stroke-opacity: 0.8"/>
     <use xlink:href="#m803dfe8a14" x="465.688337" y="406.553308" style="fill: #ff7f0e; fill-opacity: 0.8; stroke: #ff7f0e; stroke-opacity: 0.8"/>
     <use xlink:href="#m803dfe8a14" x="559.69186" y="446.089275" style="fill: #ff7f0e; fill-opacity: 0.8; stroke: #ff7f0e; stroke-opacity: 0.8"/>
     <use xlink:href="#m803dfe8a14" x="103.14245" y="50.729602" style="fill: #ff7f0e; fill-opacity: 0.8; stroke: #ff7f0e; stroke-opacity: 0.8"/>
     <use xlink:href="#m803dfe8a14" x="118.802095" y="62.590392" style="fill: #ff7f0e; fill-opacity: 0.8; stroke: #ff7f0e; stroke-opacity: 0.8"/>
     <use xlink:href="#m803dfe8a14" x="138.935924" y="70.497586" style="fill: #ff7f0e; fill-opacity: 0.8; stroke: #ff7f0e; stroke-opacity: 0.8"/>
     <use xlink:href="#m803dfe8a14" x="170.255213" y="110.033553" style="fill: #ff7f0e; fill-opacity: 0.8; stroke: #ff7f0e; stroke-opacity: 0.8"/>
     <use xlink:href="#m803dfe8a14" x="210.522871" y="129.801537" style="fill: #ff7f0e; fill-opacity: 0.8; stroke: #ff7f0e; stroke-opacity: 0.8"/>
     <use xlink:href="#m803dfe8a14" x="264.258737" y="248.409439" style="fill: #ff7f0e; fill-opacity: 0.8; stroke: #ff7f0e; stroke-opacity: 0.8"/>
     <use xlink:href="#m803dfe8a14" x="317.948948" y="307.71339" style="fill: #ff7f0e; fill-opacity: 0.8; stroke: #ff7f0e; stroke-opacity: 0.8"/>
     <use xlink:href="#m803dfe8a14" x="394.055734" y="367.01734" style="fill: #ff7f0e; fill-opacity: 0.8; stroke: #ff7f0e; stroke-opacity: 0.8"/>
     <use xlink:href="#m803dfe8a14" x="465.688337" y="406.553308" style="fill: #ff7f0e; fill-opacity: 0.8; stroke: #ff7f0e; stroke-opacity: 0.8"/>
     <use xlink:href="#m803dfe8a14" x="559.69186" y="446.089275" style="fill: #ff7f0e; fill-opacity: 0.8; stroke: #ff7f0e; stroke-opacity: 0.8"/>
     <use xlink:href="#m803dfe8a14" x="103.14245" y="50.729602" style="fill: #ff7f0e; fill-opacity: 0.8; stroke: #ff7f0e; stroke-opacity: 0.8"/>
     <use xlink:href="#m803dfe8a14" x="118.802095" y="70.497586" style="fill: #ff7f0e; fill-opacity: 0.8; stroke: #ff7f0e; stroke-opacity: 0.8"/>
     <use xlink:href="#m803dfe8a14" x="138.935924" y="90.26557" style="fill: #ff7f0e; fill-opacity: 0.8; stroke: #ff7f0e; stroke-opacity: 0.8"/>
     <use xlink:href="#m803dfe8a14" x="170.255213" y="110.033553" style="fill: #ff7f0e; fill-opacity: 0.8; stroke: #ff7f0e; stroke-opacity: 0.8"/>
     <use xlink:href="#m803dfe8a14" x="210.522871" y="129.801537" style="fill: #ff7f0e; fill-opacity: 0.8; stroke: #ff7f0e; stroke-opacity: 0.8"/>
     <use xlink:href="#m803dfe8a14" x="264.258737" y="248.409439" style="fill: #ff7f0e; fill-opacity: 0.8; stroke: #ff7f0e; stroke-opacity: 0.8"/>
     <use xlink:href="#m803dfe8a14" x="317.948948" y="287.945406" style="fill: #ff7f0e; fill-opacity: 0.8; stroke: #ff7f0e; stroke-opacity: 0.8"/>
     <use xlink:href="#m803dfe8a14" x="465.688337" y="327.481373" style="fill: #ff7f0e; fill-opacity: 0.8; stroke: #ff7f0e; stroke-opacity: 0.8"/>
     <use xlink:href="#m803dfe8a14" x="394.055734" y="367.01734" style="fill: #ff7f0e; fill-opacity: 0.8; stroke: #ff7f0e; stroke-opacity: 0.8"/>
     <use xlink:href="#m803dfe8a14" x="559.69186" y="446.089275" style="fill: #ff7f0e; fill-opacity: 0.8; stroke: #ff7f0e; stroke-opacity: 0.8"/>
     <use xlink:href="#m803dfe8a14" x="103.14245" y="50.729602" style="fill: #ff7f0e; fill-opacity: 0.8; stroke: #ff7f0e; stroke-opacity: 0.8"/>
     <use xlink:href="#m803dfe8a14" x="118.802095" y="70.497586" style="fill: #ff7f0e; fill-opacity: 0.8; stroke: #ff7f0e; stroke-opacity: 0.8"/>
     <use xlink:href="#m803dfe8a14" x="138.935924" y="90.26557" style="fill: #ff7f0e; fill-opacity: 0.8; stroke: #ff7f0e; stroke-opacity: 0.8"/>
     <use xlink:href="#m803dfe8a14" x="170.255213" y="110.033553" style="fill: #ff7f0e; fill-opacity: 0.8; stroke: #ff7f0e; stroke-opacity: 0.8"/>
     <use xlink:href="#m803dfe8a14" x="210.522871" y="129.801537" style="fill: #ff7f0e; fill-opacity: 0.8; stroke: #ff7f0e; stroke-opacity: 0.8"/>
     <use xlink:href="#m803dfe8a14" x="264.258737" y="248.409439" style="fill: #ff7f0e; fill-opacity: 0.8; stroke: #ff7f0e; stroke-opacity: 0.8"/>
     <use xlink:href="#m803dfe8a14" x="317.948948" y="287.945406" style="fill: #ff7f0e; fill-opacity: 0.8; stroke: #ff7f0e; stroke-opacity: 0.8"/>
     <use xlink:href="#m803dfe8a14" x="394.055734" y="327.481373" style="fill: #ff7f0e; fill-opacity: 0.8; stroke: #ff7f0e; stroke-opacity: 0.8"/>
     <use xlink:href="#m803dfe8a14" x="465.688337" y="367.01734" style="fill: #ff7f0e; fill-opacity: 0.8; stroke: #ff7f0e; stroke-opacity: 0.8"/>
     <use xlink:href="#m803dfe8a14" x="559.69186" y="446.089275" style="fill: #ff7f0e; fill-opacity: 0.8; stroke: #ff7f0e; stroke-opacity: 0.8"/>
     <use xlink:href="#m803dfe8a14" x="103.14245" y="50.729602" style="fill: #ff7f0e; fill-opacity: 0.8; stroke: #ff7f0e; stroke-opacity: 0.8"/>
     <use xlink:href="#m803dfe8a14" x="118.802095" y="70.497586" style="fill: #ff7f0e; fill-opacity: 0.8; stroke: #ff7f0e; stroke-opacity: 0.8"/>
     <use xlink:href="#m803dfe8a14" x="138.935924" y="90.26557" style="fill: #ff7f0e; fill-opacity: 0.8; stroke: #ff7f0e; stroke-opacity: 0.8"/>
     <use xlink:href="#m803dfe8a14" x="170.255213" y="129.801537" style="fill: #ff7f0e; fill-opacity: 0.8; stroke: #ff7f0e; stroke-opacity: 0.8"/>
     <use xlink:href="#m803dfe8a14" x="210.522871" y="208.873471" style="fill: #ff7f0e; fill-opacity: 0.8; stroke: #ff7f0e; stroke-opacity: 0.8"/>
     <use xlink:href="#m803dfe8a14" x="264.258737" y="287.945406" style="fill: #ff7f0e; fill-opacity: 0.8; stroke: #ff7f0e; stroke-opacity: 0.8"/>
     <use xlink:href="#m803dfe8a14" x="317.948948" y="327.481373" style="fill: #ff7f0e; fill-opacity: 0.8; stroke: #ff7f0e; stroke-opacity: 0.8"/>
     <use xlink:href="#m803dfe8a14" x="394.055734" y="367.01734" style="fill: #ff7f0e; fill-opacity: 0.8; stroke: #ff7f0e; stroke-opacity: 0.8"/>
     <use xlink:href="#m803dfe8a14" x="465.688337" y="406.553308" style="fill: #ff7f0e; fill-opacity: 0.8; stroke: #ff7f0e; stroke-opacity: 0.8"/>
     <use xlink:href="#m803dfe8a14" x="559.69186" y="446.089275" style="fill: #ff7f0e; fill-opacity: 0.8; stroke: #ff7f0e; stroke-opacity: 0.8"/>
     <use xlink:href="#m803dfe8a14" x="103.14245" y="50.729602" style="fill: #ff7f0e; fill-opacity: 0.8; stroke: #ff7f0e; stroke-opacity: 0.8"/>
     <use xlink:href="#m803dfe8a14" x="118.802095" y="62.590392" style="fill: #ff7f0e; fill-opacity: 0.8; stroke: #ff7f0e; stroke-opacity: 0.8"/>
     <use xlink:href="#m803dfe8a14" x="138.935924" y="70.497586" style="fill: #ff7f0e; fill-opacity: 0.8; stroke: #ff7f0e; stroke-opacity: 0.8"/>
     <use xlink:href="#m803dfe8a14" x="210.522871" y="90.26557" style="fill: #ff7f0e; fill-opacity: 0.8; stroke: #ff7f0e; stroke-opacity: 0.8"/>
     <use xlink:href="#m803dfe8a14" x="170.255213" y="90.26557" style="fill: #ff7f0e; fill-opacity: 0.8; stroke: #ff7f0e; stroke-opacity: 0.8"/>
     <use xlink:href="#m803dfe8a14" x="317.948948" y="248.409439" style="fill: #ff7f0e; fill-opacity: 0.8; stroke: #ff7f0e; stroke-opacity: 0.8"/>
     <use xlink:href="#m803dfe8a14" x="264.258737" y="287.945406" style="fill: #ff7f0e; fill-opacity: 0.8; stroke: #ff7f0e; stroke-opacity: 0.8"/>
     <use xlink:href="#m803dfe8a14" x="394.055734" y="327.481373" style="fill: #ff7f0e; fill-opacity: 0.8; stroke: #ff7f0e; stroke-opacity: 0.8"/>
     <use xlink:href="#m803dfe8a14" x="465.688337" y="378.878131" style="fill: #ff7f0e; fill-opacity: 0.8; stroke: #ff7f0e; stroke-opacity: 0.8"/>
     <use xlink:href="#m803dfe8a14" x="559.69186" y="446.089275" style="fill: #ff7f0e; fill-opacity: 0.8; stroke: #ff7f0e; stroke-opacity: 0.8"/>
     <use xlink:href="#m803dfe8a14" x="103.14245" y="50.729602" style="fill: #ff7f0e; fill-opacity: 0.8; stroke: #ff7f0e; stroke-opacity: 0.8"/>
     <use xlink:href="#m803dfe8a14" x="118.802095" y="62.590392" style="fill: #ff7f0e; fill-opacity: 0.8; stroke: #ff7f0e; stroke-opacity: 0.8"/>
     <use xlink:href="#m803dfe8a14" x="138.935924" y="90.26557" style="fill: #ff7f0e; fill-opacity: 0.8; stroke: #ff7f0e; stroke-opacity: 0.8"/>
     <use xlink:href="#m803dfe8a14" x="170.255213" y="129.801537" style="fill: #ff7f0e; fill-opacity: 0.8; stroke: #ff7f0e; stroke-opacity: 0.8"/>
     <use xlink:href="#m803dfe8a14" x="210.522871" y="248.409439" style="fill: #ff7f0e; fill-opacity: 0.8; stroke: #ff7f0e; stroke-opacity: 0.8"/>
     <use xlink:href="#m803dfe8a14" x="264.258737" y="287.945406" style="fill: #ff7f0e; fill-opacity: 0.8; stroke: #ff7f0e; stroke-opacity: 0.8"/>
     <use xlink:href="#m803dfe8a14" x="317.948948" y="327.481373" style="fill: #ff7f0e; fill-opacity: 0.8; stroke: #ff7f0e; stroke-opacity: 0.8"/>
     <use xlink:href="#m803dfe8a14" x="394.055734" y="367.01734" style="fill: #ff7f0e; fill-opacity: 0.8; stroke: #ff7f0e; stroke-opacity: 0.8"/>
     <use xlink:href="#m803dfe8a14" x="465.688337" y="406.553308" style="fill: #ff7f0e; fill-opacity: 0.8; stroke: #ff7f0e; stroke-opacity: 0.8"/>
     <use xlink:href="#m803dfe8a14" x="559.69186" y="446.089275" style="fill: #ff7f0e; fill-opacity: 0.8; stroke: #ff7f0e; stroke-opacity: 0.8"/>
    </g>
   </g>
   <g id="FillBetweenPolyCollection_2">
    <path d="M 103.14245 59.196994 
L 103.14245 71.340239 
L 107.75406 75.466289 
L 112.36567 79.620447 
L 116.977281 83.759149 
L 121.588891 87.966985 
L 126.200501 92.122526 
L 130.812111 96.257434 
L 135.423721 100.392108 
L 140.035332 104.526127 
L 144.646942 108.657653 
L 149.258552 112.792651 
L 153.870162 116.954658 
L 158.481772 121.215703 
L 163.093383 125.427643 
L 167.704993 129.655543 
L 172.316603 133.873471 
L 176.928213 138.046692 
L 181.539823 142.221129 
L 186.151434 146.393893 
L 190.763044 150.544362 
L 195.374654 154.730321 
L 199.986264 158.917408 
L 204.597875 163.105303 
L 209.209485 167.309223 
L 213.821095 171.59253 
L 218.432705 175.816802 
L 223.044315 180.054774 
L 227.655926 184.314493 
L 232.267536 188.58959 
L 236.879146 192.813987 
L 241.490756 197.187518 
L 246.102366 201.47622 
L 250.713977 205.718453 
L 255.325587 209.938022 
L 259.937197 214.248961 
L 264.548807 218.509371 
L 269.160417 222.79937 
L 273.772028 227.06182 
L 278.383638 231.337018 
L 282.995248 235.770948 
L 287.606858 240.217229 
L 292.218468 244.544949 
L 296.830079 248.917137 
L 301.441689 253.198851 
L 306.053299 257.525363 
L 310.664909 261.85068 
L 315.276519 266.155866 
L 319.88813 270.420814 
L 324.49974 274.685462 
L 329.11135 279.067734 
L 333.72296 283.484952 
L 338.33457 287.863416 
L 342.946181 292.241116 
L 347.557791 296.566504 
L 352.169401 300.970383 
L 356.781011 305.338288 
L 361.392622 309.662025 
L 366.004232 313.985087 
L 370.615842 318.30551 
L 375.227452 322.625855 
L 379.839062 326.945107 
L 384.450673 331.260023 
L 389.062283 335.574939 
L 393.673893 339.907626 
L 398.285503 344.252904 
L 402.897113 348.577896 
L 407.508724 352.902889 
L 412.120334 357.227881 
L 416.731944 361.570209 
L 421.343554 366.015562 
L 425.955164 370.460914 
L 430.566775 374.861786 
L 435.178385 379.234254 
L 439.789995 383.606722 
L 444.401605 387.97919 
L 449.013215 392.382076 
L 453.624826 396.793568 
L 458.236436 401.205061 
L 462.848046 405.57801 
L 467.459656 409.959592 
L 472.071266 414.311474 
L 476.682877 418.630234 
L 481.294487 422.948994 
L 485.906097 427.325201 
L 490.517707 431.714614 
L 495.129317 436.104027 
L 499.740928 440.49344 
L 504.352538 444.882853 
L 508.964148 449.270815 
L 513.575758 453.65845 
L 518.187368 458.046085 
L 522.798979 462.433721 
L 527.410589 466.821356 
L 532.022199 471.208992 
L 536.633809 475.596627 
L 541.24542 479.943306 
L 545.85703 484.28219 
L 550.46864 488.621074 
L 555.08025 492.986757 
L 559.69186 497.384148 
L 559.69186 474.441235 
L 559.69186 474.441235 
L 555.08025 470.28364 
L 550.46864 466.126046 
L 545.85703 461.968452 
L 541.24542 457.810858 
L 536.633809 453.653264 
L 532.022199 449.49567 
L 527.410589 445.332448 
L 522.798979 441.164052 
L 518.187368 436.996426 
L 513.575758 432.829266 
L 508.964148 428.662105 
L 504.352538 424.494945 
L 499.740928 420.327784 
L 495.129317 416.154613 
L 490.517707 412.04758 
L 485.906097 407.936152 
L 481.294487 403.779627 
L 476.682877 399.623853 
L 472.071266 395.469153 
L 467.459656 391.340108 
L 462.848046 387.162614 
L 458.236436 383.030523 
L 453.624826 378.902818 
L 449.013215 374.776486 
L 444.401605 370.643527 
L 439.789995 366.521849 
L 435.178385 362.394075 
L 430.566775 358.267444 
L 425.955164 354.140814 
L 421.343554 349.992687 
L 416.731944 345.856096 
L 412.120334 341.742017 
L 407.508724 337.630976 
L 402.897113 333.519992 
L 398.285503 329.379188 
L 393.673893 325.25059 
L 389.062283 321.050379 
L 384.450673 316.81758 
L 379.839062 312.584781 
L 375.227452 308.378602 
L 370.615842 304.187383 
L 366.004232 300.039436 
L 361.392622 295.927944 
L 356.781011 291.816451 
L 352.169401 287.704958 
L 347.557791 283.593551 
L 342.946181 279.482442 
L 338.33457 275.296424 
L 333.72296 271.167753 
L 329.11135 266.994742 
L 324.49974 262.873808 
L 319.88813 258.691176 
L 315.276519 254.47903 
L 310.664909 250.279387 
L 306.053299 246.094529 
L 301.441689 241.896322 
L 296.830079 237.698114 
L 292.218468 233.499907 
L 287.606858 229.280541 
L 282.995248 225.102622 
L 278.383638 220.895685 
L 273.772028 216.688397 
L 269.160417 212.509429 
L 264.548807 208.296453 
L 259.937197 204.082045 
L 255.325587 199.914729 
L 250.713977 195.717652 
L 246.102366 191.545026 
L 241.490756 187.348932 
L 236.879146 183.1702 
L 232.267536 178.925098 
L 227.655926 174.726158 
L 223.044315 170.548244 
L 218.432705 166.314305 
L 213.821095 162.060489 
L 209.209485 157.862707 
L 204.597875 153.666488 
L 199.986264 149.423861 
L 195.374654 145.17891 
L 190.763044 140.929844 
L 186.151434 136.62517 
L 181.539823 132.356804 
L 176.928213 128.103069 
L 172.316603 123.852197 
L 167.704993 119.577825 
L 163.093383 115.315192 
L 158.481772 111.07646 
L 153.870162 106.850824 
L 149.258552 102.55985 
L 144.646942 98.223834 
L 140.035332 93.929078 
L 135.423721 89.587113 
L 130.812111 85.33998 
L 126.200501 81.117514 
L 121.588891 76.645765 
L 116.977281 72.264175 
L 112.36567 67.953413 
L 107.75406 63.59693 
L 103.14245 59.196994 
z
" clip-path="url(#p1ed2cd69a6)" style="fill: #ff7f0e; fill-opacity: 0.15"/>
   </g>
   <g id="matplotlib.axis_3">
    <g id="ytick_7">
     <g id="line2d_13">
      <defs>
       <path id="med4e51d04f" d="M 0 0 
L 3.5 0 
" style="stroke: #ff7f0e; stroke-width: 0.8"/>
      </defs>
      <g>
       <use xlink:href="#med4e51d04f" x="577.89125" y="446.089275" style="fill: #ff7f0e; stroke: #ff7f0e; stroke-width: 0.8"/>
      </g>
     </g>
     <g id="text_16">
      <!-- 0.0 -->
      <g style="fill: #ff7f0e" transform="translate(584.89125 452.168025) scale(0.16 -0.16)">
       <use xlink:href="#DejaVuSans-30"/>
       <use xlink:href="#DejaVuSans-2e" transform="translate(63.623047 0)"/>
       <use xlink:href="#DejaVuSans-30" transform="translate(95.410156 0)"/>
      </g>
     </g>
    </g>
    <g id="ytick_8">
     <g id="line2d_14">
      <g>
       <use xlink:href="#med4e51d04f" x="577.89125" y="367.01734" style="fill: #ff7f0e; stroke: #ff7f0e; stroke-width: 0.8"/>
      </g>
     </g>
     <g id="text_17">
      <!-- 0.2 -->
      <g style="fill: #ff7f0e" transform="translate(584.89125 373.09609) scale(0.16 -0.16)">
       <use xlink:href="#DejaVuSans-30"/>
       <use xlink:href="#DejaVuSans-2e" transform="translate(63.623047 0)"/>
       <use xlink:href="#DejaVuSans-32" transform="translate(95.410156 0)"/>
      </g>
     </g>
    </g>
    <g id="ytick_9">
     <g id="line2d_15">
      <g>
       <use xlink:href="#med4e51d04f" x="577.89125" y="287.945406" style="fill: #ff7f0e; stroke: #ff7f0e; stroke-width: 0.8"/>
      </g>
     </g>
     <g id="text_18">
      <!-- 0.4 -->
      <g style="fill: #ff7f0e" transform="translate(584.89125 294.024156) scale(0.16 -0.16)">
       <use xlink:href="#DejaVuSans-30"/>
       <use xlink:href="#DejaVuSans-2e" transform="translate(63.623047 0)"/>
       <use xlink:href="#DejaVuSans-34" transform="translate(95.410156 0)"/>
      </g>
     </g>
    </g>
    <g id="ytick_10">
     <g id="line2d_16">
      <g>
       <use xlink:href="#med4e51d04f" x="577.89125" y="208.873471" style="fill: #ff7f0e; stroke: #ff7f0e; stroke-width: 0.8"/>
      </g>
     </g>
     <g id="text_19">
      <!-- 0.6 -->
      <g style="fill: #ff7f0e" transform="translate(584.89125 214.952221) scale(0.16 -0.16)">
       <use xlink:href="#DejaVuSans-30"/>
       <use xlink:href="#DejaVuSans-2e" transform="translate(63.623047 0)"/>
       <use xlink:href="#DejaVuSans-36" transform="translate(95.410156 0)"/>
      </g>
     </g>
    </g>
    <g id="ytick_11">
     <g id="line2d_17">
      <g>
       <use xlink:href="#med4e51d04f" x="577.89125" y="129.801537" style="fill: #ff7f0e; stroke: #ff7f0e; stroke-width: 0.8"/>
      </g>
     </g>
     <g id="text_20">
      <!-- 0.8 -->
      <g style="fill: #ff7f0e" transform="translate(584.89125 135.880287) scale(0.16 -0.16)">
       <use xlink:href="#DejaVuSans-30"/>
       <use xlink:href="#DejaVuSans-2e" transform="translate(63.623047 0)"/>
       <use xlink:href="#DejaVuSans-38" transform="translate(95.410156 0)"/>
      </g>
     </g>
    </g>
    <g id="ytick_12">
     <g id="line2d_18">
      <g>
       <use xlink:href="#med4e51d04f" x="577.89125" y="50.729602" style="fill: #ff7f0e; stroke: #ff7f0e; stroke-width: 0.8"/>
      </g>
     </g>
     <g id="text_21">
      <!-- 1.0 -->
      <g style="fill: #ff7f0e" transform="translate(584.89125 56.808352) scale(0.16 -0.16)">
       <use xlink:href="#DejaVuSans-31"/>
       <use xlink:href="#DejaVuSans-2e" transform="translate(63.623047 0)"/>
       <use xlink:href="#DejaVuSans-30" transform="translate(95.410156 0)"/>
      </g>
     </g>
    </g>
    <g id="text_22">
     <!-- Human Score -->
     <g style="fill: #ff7f0e" transform="translate(629.533125 341.30375) rotate(-90) scale(0.2 -0.2)">
      <defs>
       <path id="DejaVuSans-48" d="M 628 4666 
L 1259 4666 
L 1259 2753 
L 3553 2753 
L 3553 4666 
L 4184 4666 
L 4184 0 
L 3553 0 
L 3553 2222 
L 1259 2222 
L 1259 0 
L 628 0 
L 628 4666 
z
" transform="scale(0.015625)"/>
       <path id="DejaVuSans-75" d="M 544 1381 
L 544 3500 
L 1119 3500 
L 1119 1403 
Q 1119 906 1312 657 
Q 1506 409 1894 409 
Q 2359 409 2629 706 
Q 2900 1003 2900 1516 
L 2900 3500 
L 3475 3500 
L 3475 0 
L 2900 0 
L 2900 538 
Q 2691 219 2414 64 
Q 2138 -91 1772 -91 
Q 1169 -91 856 284 
Q 544 659 544 1381 
z
M 1991 3584 
L 1991 3584 
z
" transform="scale(0.015625)"/>
      </defs>
      <use xlink:href="#DejaVuSans-48"/>
      <use xlink:href="#DejaVuSans-75" transform="translate(75.195312 0)"/>
      <use xlink:href="#DejaVuSans-6d" transform="translate(138.574219 0)"/>
      <use xlink:href="#DejaVuSans-61" transform="translate(235.986328 0)"/>
      <use xlink:href="#DejaVuSans-6e" transform="translate(297.265625 0)"/>
      <use xlink:href="#DejaVuSans-20" transform="translate(360.644531 0)"/>
      <use xlink:href="#DejaVuSans-53" transform="translate(392.431641 0)"/>
      <use xlink:href="#DejaVuSans-63" transform="translate(455.908203 0)"/>
      <use xlink:href="#DejaVuSans-6f" transform="translate(510.888672 0)"/>
      <use xlink:href="#DejaVuSans-72" transform="translate(572.070312 0)"/>
      <use xlink:href="#DejaVuSans-65" transform="translate(610.933594 0)"/>
     </g>
    </g>
   </g>
   <g id="line2d_19">
    <path d="M 103.14245 65.177285 
L 107.75406 69.411752 
L 112.36567 73.64622 
L 116.977281 77.880687 
L 121.588891 82.115155 
L 126.200501 86.349622 
L 130.812111 90.584089 
L 135.423721 94.818557 
L 140.035332 99.053024 
L 144.646942 103.287492 
L 149.258552 107.521959 
L 153.870162 111.756427 
L 158.481772 115.990894 
L 163.093383 120.225362 
L 167.704993 124.459829 
L 172.316603 128.694296 
L 176.928213 132.928764 
L 181.539823 137.163231 
L 186.151434 141.397699 
L 190.763044 145.632166 
L 195.374654 149.866634 
L 199.986264 154.101101 
L 204.597875 158.335569 
L 209.209485 162.570036 
L 213.821095 166.804503 
L 218.432705 171.038971 
L 223.044315 175.273438 
L 227.655926 179.507906 
L 232.267536 183.742373 
L 236.879146 187.976841 
L 241.490756 192.211308 
L 246.102366 196.445776 
L 250.713977 200.680243 
L 255.325587 204.91471 
L 259.937197 209.149178 
L 264.548807 213.383645 
L 269.160417 217.618113 
L 273.772028 221.85258 
L 278.383638 226.087048 
L 282.995248 230.321515 
L 287.606858 234.555983 
L 292.218468 238.79045 
L 296.830079 243.024917 
L 301.441689 247.259385 
L 306.053299 251.493852 
L 310.664909 255.72832 
L 315.276519 259.962787 
L 319.88813 264.197255 
L 324.49974 268.431722 
L 329.11135 272.66619 
L 333.72296 276.900657 
L 338.33457 281.135124 
L 342.946181 285.369592 
L 347.557791 289.604059 
L 352.169401 293.838527 
L 356.781011 298.072994 
L 361.392622 302.307462 
L 366.004232 306.541929 
L 370.615842 310.776397 
L 375.227452 315.010864 
L 379.839062 319.245331 
L 384.450673 323.479799 
L 389.062283 327.714266 
L 393.673893 331.948734 
L 398.285503 336.183201 
L 402.897113 340.417669 
L 407.508724 344.652136 
L 412.120334 348.886604 
L 416.731944 353.121071 
L 421.343554 357.355538 
L 425.955164 361.590006 
L 430.566775 365.824473 
L 435.178385 370.058941 
L 439.789995 374.293408 
L 444.401605 378.527876 
L 449.013215 382.762343 
L 453.624826 386.996811 
L 458.236436 391.231278 
L 462.848046 395.465745 
L 467.459656 399.700213 
L 472.071266 403.93468 
L 476.682877 408.169148 
L 481.294487 412.403615 
L 485.906097 416.638083 
L 490.517707 420.87255 
L 495.129317 425.107018 
L 499.740928 429.341485 
L 504.352538 433.575952 
L 508.964148 437.81042 
L 513.575758 442.044887 
L 518.187368 446.279355 
L 522.798979 450.513822 
L 527.410589 454.74829 
L 532.022199 458.982757 
L 536.633809 463.217225 
L 541.24542 467.451692 
L 545.85703 471.686159 
L 550.46864 475.920627 
L 555.08025 480.155094 
L 559.69186 484.389562 
" clip-path="url(#p1ed2cd69a6)" style="fill: none; stroke: #ff7f0e; stroke-width: 2.25; stroke-linecap: square"/>
   </g>
   <g id="patch_7">
    <path d="M 83.36125 519.716875 
L 83.36125 28.396875 
" style="fill: none; stroke: #000000; stroke-width: 0.8; stroke-linejoin: miter; stroke-linecap: square"/>
   </g>
   <g id="patch_8">
    <path d="M 577.89125 519.716875 
L 577.89125 28.396875 
" style="fill: none; stroke: #ff7f0e; stroke-width: 2.5; stroke-linejoin: miter; stroke-linecap: square"/>
   </g>
   <g id="patch_9">
    <path d="M 83.36125 519.716875 
L 577.89125 519.716875 
" style="fill: none; stroke: #000000; stroke-width: 0.8; stroke-linejoin: miter; stroke-linecap: square"/>
   </g>
   <g id="patch_10">
    <path d="M 83.36125 28.396875 
L 577.89125 28.396875 
" style="fill: none; stroke: #000000; stroke-width: 0.8; stroke-linejoin: miter; stroke-linecap: square"/>
   </g>
   <g id="text_23">
    <!-- Human -->
    <g style="fill: #ff7f0e" transform="translate(256.44675 151.68415) scale(0.2 -0.2)">
     <use xlink:href="#DejaVuSans-48"/>
     <use xlink:href="#DejaVuSans-75" transform="translate(75.195312 0)"/>
     <use xlink:href="#DejaVuSans-6d" transform="translate(138.574219 0)"/>
     <use xlink:href="#DejaVuSans-61" transform="translate(235.986328 0)"/>
     <use xlink:href="#DejaVuSans-6e" transform="translate(297.265625 0)"/>
    </g>
    <!-- r = -0.97,  -->
    <g style="fill: #ff7f0e" transform="translate(256.44675 174.079775) scale(0.2 -0.2)">
     <use xlink:href="#DejaVuSans-72"/>
     <use xlink:href="#DejaVuSans-20" transform="translate(41.113281 0)"/>
     <use xlink:href="#DejaVuSans-3d" transform="translate(72.900391 0)"/>
     <use xlink:href="#DejaVuSans-20" transform="translate(156.689453 0)"/>
     <use xlink:href="#DejaVuSans-2d" transform="translate(188.476562 0)"/>
     <use xlink:href="#DejaVuSans-30" transform="translate(224.560547 0)"/>
     <use xlink:href="#DejaVuSans-2e" transform="translate(288.183594 0)"/>
     <use xlink:href="#DejaVuSans-39" transform="translate(319.970703 0)"/>
     <use xlink:href="#DejaVuSans-37" transform="translate(383.59375 0)"/>
     <use xlink:href="#DejaVuSans-2c" transform="translate(447.216797 0)"/>
     <use xlink:href="#DejaVuSans-20" transform="translate(479.003906 0)"/>
    </g>
    <!-- p = 1.1e-102 -->
    <g style="fill: #ff7f0e" transform="translate(256.44675 196.4754) scale(0.2 -0.2)">
     <use xlink:href="#DejaVuSans-70"/>
     <use xlink:href="#DejaVuSans-20" transform="translate(63.476562 0)"/>
     <use xlink:href="#DejaVuSans-3d" transform="translate(95.263672 0)"/>
     <use xlink:href="#DejaVuSans-20" transform="translate(179.052734 0)"/>
     <use xlink:href="#DejaVuSans-31" transform="translate(210.839844 0)"/>
     <use xlink:href="#DejaVuSans-2e" transform="translate(274.462891 0)"/>
     <use xlink:href="#DejaVuSans-31" transform="translate(306.25 0)"/>
     <use xlink:href="#DejaVuSans-65" transform="translate(369.873047 0)"/>
     <use xlink:href="#DejaVuSans-2d" transform="translate(431.396484 0)"/>
     <use xlink:href="#DejaVuSans-31" transform="translate(467.480469 0)"/>
     <use xlink:href="#DejaVuSans-30" transform="translate(531.103516 0)"/>
     <use xlink:href="#DejaVuSans-32" transform="translate(594.726562 0)"/>
    </g>
   </g>
  </g>
 </g>
 <defs>
  <clipPath id="p1ed2cd69a6">
   <rect x="83.36125" y="28.396875" width="494.53" height="491.32"/>
  </clipPath>
 </defs>
</svg>
