<?xml version="1.0" encoding="utf-8" standalone="no"?>
<!DOCTYPE svg PUBLIC "-//W3C//DTD SVG 1.1//EN"
  "http://www.w3.org/Graphics/SVG/1.1/DTD/svg11.dtd">
<svg xmlns:xlink="http://www.w3.org/1999/xlink" width="568.380937pt" height="568.474375pt" viewBox="0 0 568.380937 568.474375" xmlns="http://www.w3.org/2000/svg" version="1.1">
 <metadata>
  <rdf:RDF xmlns:dc="http://purl.org/dc/elements/1.1/" xmlns:cc="http://creativecommons.org/ns#" xmlns:rdf="http://www.w3.org/1999/02/22-rdf-syntax-ns#">
   <cc:Work>
    <dc:type rdf:resource="http://purl.org/dc/dcmitype/StillImage"/>
    <dc:date>2025-10-16T15:18:26.518963</dc:date>
    <dc:format>image/svg+xml</dc:format>
    <dc:creator>
     <cc:Agent>
      <dc:title>Matplotlib v3.10.7, https://matplotlib.org/</dc:title>
     </cc:Agent>
    </dc:creator>
   </cc:Work>
  </rdf:RDF>
 </metadata>
 <defs>
  <style type="text/css">*{stroke-linejoin: round; stroke-linecap: butt}</style>
 </defs>
 <g id="figure_1">
  <g id="patch_1">
   <path d="M 0 568.474375 
L 568.380937 568.474375 
L 568.380937 0 
L 0 0 
z
" style="fill: #ffffff"/>
  </g>
  <g id="axes_1">
   <g id="patch_2">
    <path d="M 52.160938 530.918125 
L 561.180937 530.918125 
L 561.180937 22.318125 
L 52.160938 22.318125 
z
" style="fill: #ffffff"/>
   </g>
   <g id="PathCollection_1">
    <defs>
     <path id="C0_0_0f11c3a49d" d="M 0 3.535534 
C 0.937635 3.535534 1.836992 3.163008 2.5 2.5 
C 3.163008 1.836992 3.535534 0.937635 3.535534 -0 
C 3.535534 -0.937635 3.163008 -1.836992 2.5 -2.5 
C 1.836992 -3.163008 0.937635 -3.535534 0 -3.535534 
C -0.937635 -3.535534 -1.836992 -3.163008 -2.5 -2.5 
C -3.163008 -1.836992 -3.535534 -0.937635 -3.535534 0 
C -3.535534 0.937635 -3.163008 1.836992 -2.5 2.5 
C -1.836992 3.163008 -0.937635 3.535534 0 3.535534 
z
"/>
    </defs>
    <g clip-path="url(#pc498b811d2)">
     <use xlink:href="#C0_0_0f11c3a49d" x="83.410667" y="50.45965" style="fill: #1f77b4; stroke: #ffffff; stroke-width: 0.565685"/>
    </g>
    <g clip-path="url(#pc498b811d2)">
     <use xlink:href="#C0_0_0f11c3a49d" x="102.687342" y="223.831512" style="fill: #ff7f0e; stroke: #ffffff; stroke-width: 0.565685"/>
    </g>
    <g clip-path="url(#pc498b811d2)">
     <use xlink:href="#C0_0_0f11c3a49d" x="190.100241" y="445.715296" style="fill: #2ca02c; stroke: #ffffff; stroke-width: 0.565685"/>
    </g>
    <g clip-path="url(#pc498b811d2)">
     <use xlink:href="#C0_0_0f11c3a49d" x="84.005909" y="68.478054" style="fill: #d62728; stroke: #ffffff; stroke-width: 0.565685"/>
    </g>
    <g clip-path="url(#pc498b811d2)">
     <use xlink:href="#C0_0_0f11c3a49d" x="526.048447" y="289.589491" style="fill: #9467bd; stroke: #ffffff; stroke-width: 0.565685"/>
    </g>
    <g clip-path="url(#pc498b811d2)">
     <use xlink:href="#C0_0_0f11c3a49d" x="123.271871" y="107.353137" style="fill: #8c564b; stroke: #ffffff; stroke-width: 0.565685"/>
    </g>
    <g clip-path="url(#pc498b811d2)">
     <use xlink:href="#C0_0_0f11c3a49d" x="205.64564" y="439.478163" style="fill: #e377c2; stroke: #ffffff; stroke-width: 0.565685"/>
    </g>
   </g>
   <g id="matplotlib.axis_1">
    <g id="xtick_1">
     <g id="line2d_1">
      <defs>
       <path id="mb8b5e80954" d="M 0 0 
L 0 3.5 
" style="stroke: #000000; stroke-width: 0.8"/>
      </defs>
      <g>
       <use xlink:href="#mb8b5e80954" x="61.226596" y="530.918125" style="stroke: #000000; stroke-width: 0.8"/>
      </g>
     </g>
     <g id="text_1">
      <!-- 0.90 -->
      <g transform="translate(50.093783 545.516562) scale(0.1 -0.1)">
       <defs>
        <path id="DejaVuSans-30" d="M 2034 4250 
Q 1547 4250 1301 3770 
Q 1056 3291 1056 2328 
Q 1056 1369 1301 889 
Q 1547 409 2034 409 
Q 2525 409 2770 889 
Q 3016 1369 3016 2328 
Q 3016 3291 2770 3770 
Q 2525 4250 2034 4250 
z
M 2034 4750 
Q 2819 4750 3233 4129 
Q 3647 3509 3647 2328 
Q 3647 1150 3233 529 
Q 2819 -91 2034 -91 
Q 1250 -91 836 529 
Q 422 1150 422 2328 
Q 422 3509 836 4129 
Q 1250 4750 2034 4750 
z
" transform="scale(0.015625)"/>
        <path id="DejaVuSans-2e" d="M 684 794 
L 1344 794 
L 1344 0 
L 684 0 
L 684 794 
z
" transform="scale(0.015625)"/>
        <path id="DejaVuSans-39" d="M 703 97 
L 703 672 
Q 941 559 1184 500 
Q 1428 441 1663 441 
Q 2288 441 2617 861 
Q 2947 1281 2994 2138 
Q 2813 1869 2534 1725 
Q 2256 1581 1919 1581 
Q 1219 1581 811 2004 
Q 403 2428 403 3163 
Q 403 3881 828 4315 
Q 1253 4750 1959 4750 
Q 2769 4750 3195 4129 
Q 3622 3509 3622 2328 
Q 3622 1225 3098 567 
Q 2575 -91 1691 -91 
Q 1453 -91 1209 -44 
Q 966 3 703 97 
z
M 1959 2075 
Q 2384 2075 2632 2365 
Q 2881 2656 2881 3163 
Q 2881 3666 2632 3958 
Q 2384 4250 1959 4250 
Q 1534 4250 1286 3958 
Q 1038 3666 1038 3163 
Q 1038 2656 1286 2365 
Q 1534 2075 1959 2075 
z
" transform="scale(0.015625)"/>
       </defs>
       <use xlink:href="#DejaVuSans-30"/>
       <use xlink:href="#DejaVuSans-2e" transform="translate(63.623047 0)"/>
       <use xlink:href="#DejaVuSans-39" transform="translate(95.410156 0)"/>
       <use xlink:href="#DejaVuSans-30" transform="translate(159.033203 0)"/>
      </g>
     </g>
    </g>
    <g id="xtick_2">
     <g id="line2d_2">
      <g>
       <use xlink:href="#mb8b5e80954" x="125.604322" y="530.918125" style="stroke: #000000; stroke-width: 0.8"/>
      </g>
     </g>
     <g id="text_2">
      <!-- 0.95 -->
      <g transform="translate(114.471509 545.516562) scale(0.1 -0.1)">
       <defs>
        <path id="DejaVuSans-35" d="M 691 4666 
L 3169 4666 
L 3169 4134 
L 1269 4134 
L 1269 2991 
Q 1406 3038 1543 3061 
Q 1681 3084 1819 3084 
Q 2600 3084 3056 2656 
Q 3513 2228 3513 1497 
Q 3513 744 3044 326 
Q 2575 -91 1722 -91 
Q 1428 -91 1123 -41 
Q 819 9 494 109 
L 494 744 
Q 775 591 1075 516 
Q 1375 441 1709 441 
Q 2250 441 2565 725 
Q 2881 1009 2881 1497 
Q 2881 1984 2565 2268 
Q 2250 2553 1709 2553 
Q 1456 2553 1204 2497 
Q 953 2441 691 2322 
L 691 4666 
z
" transform="scale(0.015625)"/>
       </defs>
       <use xlink:href="#DejaVuSans-30"/>
       <use xlink:href="#DejaVuSans-2e" transform="translate(63.623047 0)"/>
       <use xlink:href="#DejaVuSans-39" transform="translate(95.410156 0)"/>
       <use xlink:href="#DejaVuSans-35" transform="translate(159.033203 0)"/>
      </g>
     </g>
    </g>
    <g id="xtick_3">
     <g id="line2d_3">
      <g>
       <use xlink:href="#mb8b5e80954" x="189.982048" y="530.918125" style="stroke: #000000; stroke-width: 0.8"/>
      </g>
     </g>
     <g id="text_3">
      <!-- 1.00 -->
      <g transform="translate(178.849235 545.516562) scale(0.1 -0.1)">
       <defs>
        <path id="DejaVuSans-31" d="M 794 531 
L 1825 531 
L 1825 4091 
L 703 3866 
L 703 4441 
L 1819 4666 
L 2450 4666 
L 2450 531 
L 3481 531 
L 3481 0 
L 794 0 
L 794 531 
z
" transform="scale(0.015625)"/>
       </defs>
       <use xlink:href="#DejaVuSans-31"/>
       <use xlink:href="#DejaVuSans-2e" transform="translate(63.623047 0)"/>
       <use xlink:href="#DejaVuSans-30" transform="translate(95.410156 0)"/>
       <use xlink:href="#DejaVuSans-30" transform="translate(159.033203 0)"/>
      </g>
     </g>
    </g>
    <g id="xtick_4">
     <g id="line2d_4">
      <g>
       <use xlink:href="#mb8b5e80954" x="254.359774" y="530.918125" style="stroke: #000000; stroke-width: 0.8"/>
      </g>
     </g>
     <g id="text_4">
      <!-- 1.05 -->
      <g transform="translate(243.226961 545.516562) scale(0.1 -0.1)">
       <use xlink:href="#DejaVuSans-31"/>
       <use xlink:href="#DejaVuSans-2e" transform="translate(63.623047 0)"/>
       <use xlink:href="#DejaVuSans-30" transform="translate(95.410156 0)"/>
       <use xlink:href="#DejaVuSans-35" transform="translate(159.033203 0)"/>
      </g>
     </g>
    </g>
    <g id="xtick_5">
     <g id="line2d_5">
      <g>
       <use xlink:href="#mb8b5e80954" x="318.7375" y="530.918125" style="stroke: #000000; stroke-width: 0.8"/>
      </g>
     </g>
     <g id="text_5">
      <!-- 1.10 -->
      <g transform="translate(307.604687 545.516562) scale(0.1 -0.1)">
       <use xlink:href="#DejaVuSans-31"/>
       <use xlink:href="#DejaVuSans-2e" transform="translate(63.623047 0)"/>
       <use xlink:href="#DejaVuSans-31" transform="translate(95.410156 0)"/>
       <use xlink:href="#DejaVuSans-30" transform="translate(159.033203 0)"/>
      </g>
     </g>
    </g>
    <g id="xtick_6">
     <g id="line2d_6">
      <g>
       <use xlink:href="#mb8b5e80954" x="383.115226" y="530.918125" style="stroke: #000000; stroke-width: 0.8"/>
      </g>
     </g>
     <g id="text_6">
      <!-- 1.15 -->
      <g transform="translate(371.982413 545.516562) scale(0.1 -0.1)">
       <use xlink:href="#DejaVuSans-31"/>
       <use xlink:href="#DejaVuSans-2e" transform="translate(63.623047 0)"/>
       <use xlink:href="#DejaVuSans-31" transform="translate(95.410156 0)"/>
       <use xlink:href="#DejaVuSans-35" transform="translate(159.033203 0)"/>
      </g>
     </g>
    </g>
    <g id="xtick_7">
     <g id="line2d_7">
      <g>
       <use xlink:href="#mb8b5e80954" x="447.492951" y="530.918125" style="stroke: #000000; stroke-width: 0.8"/>
      </g>
     </g>
     <g id="text_7">
      <!-- 1.20 -->
      <g transform="translate(436.360139 545.516562) scale(0.1 -0.1)">
       <defs>
        <path id="DejaVuSans-32" d="M 1228 531 
L 3431 531 
L 3431 0 
L 469 0 
L 469 531 
Q 828 903 1448 1529 
Q 2069 2156 2228 2338 
Q 2531 2678 2651 2914 
Q 2772 3150 2772 3378 
Q 2772 3750 2511 3984 
Q 2250 4219 1831 4219 
Q 1534 4219 1204 4116 
Q 875 4013 500 3803 
L 500 4441 
Q 881 4594 1212 4672 
Q 1544 4750 1819 4750 
Q 2544 4750 2975 4387 
Q 3406 4025 3406 3419 
Q 3406 3131 3298 2873 
Q 3191 2616 2906 2266 
Q 2828 2175 2409 1742 
Q 1991 1309 1228 531 
z
" transform="scale(0.015625)"/>
       </defs>
       <use xlink:href="#DejaVuSans-31"/>
       <use xlink:href="#DejaVuSans-2e" transform="translate(63.623047 0)"/>
       <use xlink:href="#DejaVuSans-32" transform="translate(95.410156 0)"/>
       <use xlink:href="#DejaVuSans-30" transform="translate(159.033203 0)"/>
      </g>
     </g>
    </g>
    <g id="xtick_8">
     <g id="line2d_8">
      <g>
       <use xlink:href="#mb8b5e80954" x="511.870677" y="530.918125" style="stroke: #000000; stroke-width: 0.8"/>
      </g>
     </g>
     <g id="text_8">
      <!-- 1.25 -->
      <g transform="translate(500.737865 545.516562) scale(0.1 -0.1)">
       <use xlink:href="#DejaVuSans-31"/>
       <use xlink:href="#DejaVuSans-2e" transform="translate(63.623047 0)"/>
       <use xlink:href="#DejaVuSans-32" transform="translate(95.410156 0)"/>
       <use xlink:href="#DejaVuSans-35" transform="translate(159.033203 0)"/>
      </g>
     </g>
    </g>
    <g id="text_9">
     <!-- RMSE -->
     <g transform="translate(292.549062 559.194687) scale(0.1 -0.1)">
      <defs>
       <path id="DejaVuSans-52" d="M 2841 2188 
Q 3044 2119 3236 1894 
Q 3428 1669 3622 1275 
L 4263 0 
L 3584 0 
L 2988 1197 
Q 2756 1666 2539 1819 
Q 2322 1972 1947 1972 
L 1259 1972 
L 1259 0 
L 628 0 
L 628 4666 
L 2053 4666 
Q 2853 4666 3247 4331 
Q 3641 3997 3641 3322 
Q 3641 2881 3436 2590 
Q 3231 2300 2841 2188 
z
M 1259 4147 
L 1259 2491 
L 2053 2491 
Q 2509 2491 2742 2702 
Q 2975 2913 2975 3322 
Q 2975 3731 2742 3939 
Q 2509 4147 2053 4147 
L 1259 4147 
z
" transform="scale(0.015625)"/>
       <path id="DejaVuSans-4d" d="M 628 4666 
L 1569 4666 
L 2759 1491 
L 3956 4666 
L 4897 4666 
L 4897 0 
L 4281 0 
L 4281 4097 
L 3078 897 
L 2444 897 
L 1241 4097 
L 1241 0 
L 628 0 
L 628 4666 
z
" transform="scale(0.015625)"/>
       <path id="DejaVuSans-53" d="M 3425 4513 
L 3425 3897 
Q 3066 4069 2747 4153 
Q 2428 4238 2131 4238 
Q 1616 4238 1336 4038 
Q 1056 3838 1056 3469 
Q 1056 3159 1242 3001 
Q 1428 2844 1947 2747 
L 2328 2669 
Q 3034 2534 3370 2195 
Q 3706 1856 3706 1288 
Q 3706 609 3251 259 
Q 2797 -91 1919 -91 
Q 1588 -91 1214 -16 
Q 841 59 441 206 
L 441 856 
Q 825 641 1194 531 
Q 1563 422 1919 422 
Q 2459 422 2753 634 
Q 3047 847 3047 1241 
Q 3047 1584 2836 1778 
Q 2625 1972 2144 2069 
L 1759 2144 
Q 1053 2284 737 2584 
Q 422 2884 422 3419 
Q 422 4038 858 4394 
Q 1294 4750 2059 4750 
Q 2388 4750 2728 4690 
Q 3069 4631 3425 4513 
z
" transform="scale(0.015625)"/>
       <path id="DejaVuSans-45" d="M 628 4666 
L 3578 4666 
L 3578 4134 
L 1259 4134 
L 1259 2753 
L 3481 2753 
L 3481 2222 
L 1259 2222 
L 1259 531 
L 3634 531 
L 3634 0 
L 628 0 
L 628 4666 
z
" transform="scale(0.015625)"/>
      </defs>
      <use xlink:href="#DejaVuSans-52"/>
      <use xlink:href="#DejaVuSans-4d" transform="translate(69.482422 0)"/>
      <use xlink:href="#DejaVuSans-53" transform="translate(155.761719 0)"/>
      <use xlink:href="#DejaVuSans-45" transform="translate(219.238281 0)"/>
     </g>
    </g>
   </g>
   <g id="matplotlib.axis_2">
    <g id="ytick_1">
     <g id="line2d_9">
      <defs>
       <path id="ma0887f0162" d="M 0 0 
L -3.5 0 
" style="stroke: #000000; stroke-width: 0.8"/>
      </defs>
      <g>
       <use xlink:href="#ma0887f0162" x="52.160938" y="55.333485" style="stroke: #000000; stroke-width: 0.8"/>
      </g>
     </g>
     <g id="text_10">
      <!-- −0.8 -->
      <g transform="translate(20.878125 59.132703) scale(0.1 -0.1)">
       <defs>
        <path id="DejaVuSans-2212" d="M 678 2272 
L 4684 2272 
L 4684 1741 
L 678 1741 
L 678 2272 
z
" transform="scale(0.015625)"/>
        <path id="DejaVuSans-38" d="M 2034 2216 
Q 1584 2216 1326 1975 
Q 1069 1734 1069 1313 
Q 1069 891 1326 650 
Q 1584 409 2034 409 
Q 2484 409 2743 651 
Q 3003 894 3003 1313 
Q 3003 1734 2745 1975 
Q 2488 2216 2034 2216 
z
M 1403 2484 
Q 997 2584 770 2862 
Q 544 3141 544 3541 
Q 544 4100 942 4425 
Q 1341 4750 2034 4750 
Q 2731 4750 3128 4425 
Q 3525 4100 3525 3541 
Q 3525 3141 3298 2862 
Q 3072 2584 2669 2484 
Q 3125 2378 3379 2068 
Q 3634 1759 3634 1313 
Q 3634 634 3220 271 
Q 2806 -91 2034 -91 
Q 1263 -91 848 271 
Q 434 634 434 1313 
Q 434 1759 690 2068 
Q 947 2378 1403 2484 
z
M 1172 3481 
Q 1172 3119 1398 2916 
Q 1625 2713 2034 2713 
Q 2441 2713 2670 2916 
Q 2900 3119 2900 3481 
Q 2900 3844 2670 4047 
Q 2441 4250 2034 4250 
Q 1625 4250 1398 4047 
Q 1172 3844 1172 3481 
z
" transform="scale(0.015625)"/>
       </defs>
       <use xlink:href="#DejaVuSans-2212"/>
       <use xlink:href="#DejaVuSans-30" transform="translate(83.789062 0)"/>
       <use xlink:href="#DejaVuSans-2e" transform="translate(147.412109 0)"/>
       <use xlink:href="#DejaVuSans-38" transform="translate(179.199219 0)"/>
      </g>
     </g>
    </g>
    <g id="ytick_2">
     <g id="line2d_10">
      <g>
       <use xlink:href="#ma0887f0162" x="52.160938" y="152.703638" style="stroke: #000000; stroke-width: 0.8"/>
      </g>
     </g>
     <g id="text_11">
      <!-- −0.6 -->
      <g transform="translate(20.878125 156.502857) scale(0.1 -0.1)">
       <defs>
        <path id="DejaVuSans-36" d="M 2113 2584 
Q 1688 2584 1439 2293 
Q 1191 2003 1191 1497 
Q 1191 994 1439 701 
Q 1688 409 2113 409 
Q 2538 409 2786 701 
Q 3034 994 3034 1497 
Q 3034 2003 2786 2293 
Q 2538 2584 2113 2584 
z
M 3366 4563 
L 3366 3988 
Q 3128 4100 2886 4159 
Q 2644 4219 2406 4219 
Q 1781 4219 1451 3797 
Q 1122 3375 1075 2522 
Q 1259 2794 1537 2939 
Q 1816 3084 2150 3084 
Q 2853 3084 3261 2657 
Q 3669 2231 3669 1497 
Q 3669 778 3244 343 
Q 2819 -91 2113 -91 
Q 1303 -91 875 529 
Q 447 1150 447 2328 
Q 447 3434 972 4092 
Q 1497 4750 2381 4750 
Q 2619 4750 2861 4703 
Q 3103 4656 3366 4563 
z
" transform="scale(0.015625)"/>
       </defs>
       <use xlink:href="#DejaVuSans-2212"/>
       <use xlink:href="#DejaVuSans-30" transform="translate(83.789062 0)"/>
       <use xlink:href="#DejaVuSans-2e" transform="translate(147.412109 0)"/>
       <use xlink:href="#DejaVuSans-36" transform="translate(179.199219 0)"/>
      </g>
     </g>
    </g>
    <g id="ytick_3">
     <g id="line2d_11">
      <g>
       <use xlink:href="#ma0887f0162" x="52.160938" y="250.073792" style="stroke: #000000; stroke-width: 0.8"/>
      </g>
     </g>
     <g id="text_12">
      <!-- −0.4 -->
      <g transform="translate(20.878125 253.87301) scale(0.1 -0.1)">
       <defs>
        <path id="DejaVuSans-34" d="M 2419 4116 
L 825 1625 
L 2419 1625 
L 2419 4116 
z
M 2253 4666 
L 3047 4666 
L 3047 1625 
L 3713 1625 
L 3713 1100 
L 3047 1100 
L 3047 0 
L 2419 0 
L 2419 1100 
L 313 1100 
L 313 1709 
L 2253 4666 
z
" transform="scale(0.015625)"/>
       </defs>
       <use xlink:href="#DejaVuSans-2212"/>
       <use xlink:href="#DejaVuSans-30" transform="translate(83.789062 0)"/>
       <use xlink:href="#DejaVuSans-2e" transform="translate(147.412109 0)"/>
       <use xlink:href="#DejaVuSans-34" transform="translate(179.199219 0)"/>
      </g>
     </g>
    </g>
    <g id="ytick_4">
     <g id="line2d_12">
      <g>
       <use xlink:href="#ma0887f0162" x="52.160938" y="347.443945" style="stroke: #000000; stroke-width: 0.8"/>
      </g>
     </g>
     <g id="text_13">
      <!-- −0.2 -->
      <g transform="translate(20.878125 351.243164) scale(0.1 -0.1)">
       <use xlink:href="#DejaVuSans-2212"/>
       <use xlink:href="#DejaVuSans-30" transform="translate(83.789062 0)"/>
       <use xlink:href="#DejaVuSans-2e" transform="translate(147.412109 0)"/>
       <use xlink:href="#DejaVuSans-32" transform="translate(179.199219 0)"/>
      </g>
     </g>
    </g>
    <g id="ytick_5">
     <g id="line2d_13">
      <g>
       <use xlink:href="#ma0887f0162" x="52.160938" y="444.814099" style="stroke: #000000; stroke-width: 0.8"/>
      </g>
     </g>
     <g id="text_14">
      <!-- 0.0 -->
      <g transform="translate(29.257813 448.613317) scale(0.1 -0.1)">
       <use xlink:href="#DejaVuSans-30"/>
       <use xlink:href="#DejaVuSans-2e" transform="translate(63.623047 0)"/>
       <use xlink:href="#DejaVuSans-30" transform="translate(95.410156 0)"/>
      </g>
     </g>
    </g>
    <g id="text_15">
     <!-- Pearson Correlation -->
     <g transform="translate(14.798438 325.638437) rotate(-90) scale(0.1 -0.1)">
      <defs>
       <path id="DejaVuSans-50" d="M 1259 4147 
L 1259 2394 
L 2053 2394 
Q 2494 2394 2734 2622 
Q 2975 2850 2975 3272 
Q 2975 3691 2734 3919 
Q 2494 4147 2053 4147 
L 1259 4147 
z
M 628 4666 
L 2053 4666 
Q 2838 4666 3239 4311 
Q 3641 3956 3641 3272 
Q 3641 2581 3239 2228 
Q 2838 1875 2053 1875 
L 1259 1875 
L 1259 0 
L 628 0 
L 628 4666 
z
" transform="scale(0.015625)"/>
       <path id="DejaVuSans-65" d="M 3597 1894 
L 3597 1613 
L 953 1613 
Q 991 1019 1311 708 
Q 1631 397 2203 397 
Q 2534 397 2845 478 
Q 3156 559 3463 722 
L 3463 178 
Q 3153 47 2828 -22 
Q 2503 -91 2169 -91 
Q 1331 -91 842 396 
Q 353 884 353 1716 
Q 353 2575 817 3079 
Q 1281 3584 2069 3584 
Q 2775 3584 3186 3129 
Q 3597 2675 3597 1894 
z
M 3022 2063 
Q 3016 2534 2758 2815 
Q 2500 3097 2075 3097 
Q 1594 3097 1305 2825 
Q 1016 2553 972 2059 
L 3022 2063 
z
" transform="scale(0.015625)"/>
       <path id="DejaVuSans-61" d="M 2194 1759 
Q 1497 1759 1228 1600 
Q 959 1441 959 1056 
Q 959 750 1161 570 
Q 1363 391 1709 391 
Q 2188 391 2477 730 
Q 2766 1069 2766 1631 
L 2766 1759 
L 2194 1759 
z
M 3341 1997 
L 3341 0 
L 2766 0 
L 2766 531 
Q 2569 213 2275 61 
Q 1981 -91 1556 -91 
Q 1019 -91 701 211 
Q 384 513 384 1019 
Q 384 1609 779 1909 
Q 1175 2209 1959 2209 
L 2766 2209 
L 2766 2266 
Q 2766 2663 2505 2880 
Q 2244 3097 1772 3097 
Q 1472 3097 1187 3025 
Q 903 2953 641 2809 
L 641 3341 
Q 956 3463 1253 3523 
Q 1550 3584 1831 3584 
Q 2591 3584 2966 3190 
Q 3341 2797 3341 1997 
z
" transform="scale(0.015625)"/>
       <path id="DejaVuSans-72" d="M 2631 2963 
Q 2534 3019 2420 3045 
Q 2306 3072 2169 3072 
Q 1681 3072 1420 2755 
Q 1159 2438 1159 1844 
L 1159 0 
L 581 0 
L 581 3500 
L 1159 3500 
L 1159 2956 
Q 1341 3275 1631 3429 
Q 1922 3584 2338 3584 
Q 2397 3584 2469 3576 
Q 2541 3569 2628 3553 
L 2631 2963 
z
" transform="scale(0.015625)"/>
       <path id="DejaVuSans-73" d="M 2834 3397 
L 2834 2853 
Q 2591 2978 2328 3040 
Q 2066 3103 1784 3103 
Q 1356 3103 1142 2972 
Q 928 2841 928 2578 
Q 928 2378 1081 2264 
Q 1234 2150 1697 2047 
L 1894 2003 
Q 2506 1872 2764 1633 
Q 3022 1394 3022 966 
Q 3022 478 2636 193 
Q 2250 -91 1575 -91 
Q 1294 -91 989 -36 
Q 684 19 347 128 
L 347 722 
Q 666 556 975 473 
Q 1284 391 1588 391 
Q 1994 391 2212 530 
Q 2431 669 2431 922 
Q 2431 1156 2273 1281 
Q 2116 1406 1581 1522 
L 1381 1569 
Q 847 1681 609 1914 
Q 372 2147 372 2553 
Q 372 3047 722 3315 
Q 1072 3584 1716 3584 
Q 2034 3584 2315 3537 
Q 2597 3491 2834 3397 
z
" transform="scale(0.015625)"/>
       <path id="DejaVuSans-6f" d="M 1959 3097 
Q 1497 3097 1228 2736 
Q 959 2375 959 1747 
Q 959 1119 1226 758 
Q 1494 397 1959 397 
Q 2419 397 2687 759 
Q 2956 1122 2956 1747 
Q 2956 2369 2687 2733 
Q 2419 3097 1959 3097 
z
M 1959 3584 
Q 2709 3584 3137 3096 
Q 3566 2609 3566 1747 
Q 3566 888 3137 398 
Q 2709 -91 1959 -91 
Q 1206 -91 779 398 
Q 353 888 353 1747 
Q 353 2609 779 3096 
Q 1206 3584 1959 3584 
z
" transform="scale(0.015625)"/>
       <path id="DejaVuSans-6e" d="M 3513 2113 
L 3513 0 
L 2938 0 
L 2938 2094 
Q 2938 2591 2744 2837 
Q 2550 3084 2163 3084 
Q 1697 3084 1428 2787 
Q 1159 2491 1159 1978 
L 1159 0 
L 581 0 
L 581 3500 
L 1159 3500 
L 1159 2956 
Q 1366 3272 1645 3428 
Q 1925 3584 2291 3584 
Q 2894 3584 3203 3211 
Q 3513 2838 3513 2113 
z
" transform="scale(0.015625)"/>
       <path id="DejaVuSans-20" transform="scale(0.015625)"/>
       <path id="DejaVuSans-43" d="M 4122 4306 
L 4122 3641 
Q 3803 3938 3442 4084 
Q 3081 4231 2675 4231 
Q 1875 4231 1450 3742 
Q 1025 3253 1025 2328 
Q 1025 1406 1450 917 
Q 1875 428 2675 428 
Q 3081 428 3442 575 
Q 3803 722 4122 1019 
L 4122 359 
Q 3791 134 3420 21 
Q 3050 -91 2638 -91 
Q 1578 -91 968 557 
Q 359 1206 359 2328 
Q 359 3453 968 4101 
Q 1578 4750 2638 4750 
Q 3056 4750 3426 4639 
Q 3797 4528 4122 4306 
z
" transform="scale(0.015625)"/>
       <path id="DejaVuSans-6c" d="M 603 4863 
L 1178 4863 
L 1178 0 
L 603 0 
L 603 4863 
z
" transform="scale(0.015625)"/>
       <path id="DejaVuSans-74" d="M 1172 4494 
L 1172 3500 
L 2356 3500 
L 2356 3053 
L 1172 3053 
L 1172 1153 
Q 1172 725 1289 603 
Q 1406 481 1766 481 
L 2356 481 
L 2356 0 
L 1766 0 
Q 1100 0 847 248 
Q 594 497 594 1153 
L 594 3053 
L 172 3053 
L 172 3500 
L 594 3500 
L 594 4494 
L 1172 4494 
z
" transform="scale(0.015625)"/>
       <path id="DejaVuSans-69" d="M 603 3500 
L 1178 3500 
L 1178 0 
L 603 0 
L 603 3500 
z
M 603 4863 
L 1178 4863 
L 1178 4134 
L 603 4134 
L 603 4863 
z
" transform="scale(0.015625)"/>
      </defs>
      <use xlink:href="#DejaVuSans-50"/>
      <use xlink:href="#DejaVuSans-65" transform="translate(56.677734 0)"/>
      <use xlink:href="#DejaVuSans-61" transform="translate(118.201172 0)"/>
      <use xlink:href="#DejaVuSans-72" transform="translate(179.480469 0)"/>
      <use xlink:href="#DejaVuSans-73" transform="translate(220.59375 0)"/>
      <use xlink:href="#DejaVuSans-6f" transform="translate(272.693359 0)"/>
      <use xlink:href="#DejaVuSans-6e" transform="translate(333.875 0)"/>
      <use xlink:href="#DejaVuSans-20" transform="translate(397.253906 0)"/>
      <use xlink:href="#DejaVuSans-43" transform="translate(429.041016 0)"/>
      <use xlink:href="#DejaVuSans-6f" transform="translate(498.865234 0)"/>
      <use xlink:href="#DejaVuSans-72" transform="translate(560.046875 0)"/>
      <use xlink:href="#DejaVuSans-72" transform="translate(599.410156 0)"/>
      <use xlink:href="#DejaVuSans-65" transform="translate(638.273438 0)"/>
      <use xlink:href="#DejaVuSans-6c" transform="translate(699.796875 0)"/>
      <use xlink:href="#DejaVuSans-61" transform="translate(727.580078 0)"/>
      <use xlink:href="#DejaVuSans-74" transform="translate(788.859375 0)"/>
      <use xlink:href="#DejaVuSans-69" transform="translate(828.068359 0)"/>
      <use xlink:href="#DejaVuSans-6f" transform="translate(855.851562 0)"/>
      <use xlink:href="#DejaVuSans-6e" transform="translate(917.033203 0)"/>
     </g>
    </g>
   </g>
   <g id="line2d_14"/>
   <g id="line2d_15"/>
   <g id="line2d_16"/>
   <g id="line2d_17"/>
   <g id="line2d_18"/>
   <g id="line2d_19"/>
   <g id="line2d_20"/>
   <g id="LineCollection_1">
    <path d="M 75.29821 50.45965 
L 91.523124 50.45965 
" clip-path="url(#pc498b811d2)" style="fill: none; stroke: #1f77b4; stroke-opacity: 0.5; stroke-width: 2"/>
   </g>
   <g id="LineCollection_2">
    <path d="M 83.410667 49.276836 
L 83.410667 51.642464 
" clip-path="url(#pc498b811d2)" style="fill: none; stroke: #1f77b4; stroke-opacity: 0.5; stroke-width: 2"/>
   </g>
   <g id="line2d_21">
    <defs>
     <path id="me8b81dbff3" d="M 0 5 
L 0 -5 
" style="stroke: #1f77b4; stroke-opacity: 0.5; stroke-width: 2"/>
    </defs>
    <g clip-path="url(#pc498b811d2)">
     <use xlink:href="#me8b81dbff3" x="75.29821" y="50.45965" style="fill: #1f77b4; fill-opacity: 0.5; stroke: #1f77b4; stroke-opacity: 0.5; stroke-width: 2"/>
    </g>
   </g>
   <g id="line2d_22">
    <g clip-path="url(#pc498b811d2)">
     <use xlink:href="#me8b81dbff3" x="91.523124" y="50.45965" style="fill: #1f77b4; fill-opacity: 0.5; stroke: #1f77b4; stroke-opacity: 0.5; stroke-width: 2"/>
    </g>
   </g>
   <g id="line2d_23">
    <defs>
     <path id="mbda72f16e9" d="M 5 0 
L -5 -0 
" style="stroke: #1f77b4; stroke-opacity: 0.5; stroke-width: 2"/>
    </defs>
    <g clip-path="url(#pc498b811d2)">
     <use xlink:href="#mbda72f16e9" x="83.410667" y="49.276836" style="fill: #1f77b4; fill-opacity: 0.5; stroke: #1f77b4; stroke-opacity: 0.5; stroke-width: 2"/>
    </g>
   </g>
   <g id="line2d_24">
    <g clip-path="url(#pc498b811d2)">
     <use xlink:href="#mbda72f16e9" x="83.410667" y="51.642464" style="fill: #1f77b4; fill-opacity: 0.5; stroke: #1f77b4; stroke-opacity: 0.5; stroke-width: 2"/>
    </g>
   </g>
   <g id="LineCollection_3">
    <path d="M 94.842624 223.831512 
L 110.532059 223.831512 
" clip-path="url(#pc498b811d2)" style="fill: none; stroke: #ff7f0e; stroke-opacity: 0.5; stroke-width: 2"/>
   </g>
   <g id="LineCollection_4">
    <path d="M 102.687342 168.953421 
L 102.687342 278.709602 
" clip-path="url(#pc498b811d2)" style="fill: none; stroke: #ff7f0e; stroke-opacity: 0.5; stroke-width: 2"/>
   </g>
   <g id="line2d_25">
    <defs>
     <path id="m797e6dcac2" d="M 0 5 
L 0 -5 
" style="stroke: #ff7f0e; stroke-opacity: 0.5; stroke-width: 2"/>
    </defs>
    <g clip-path="url(#pc498b811d2)">
     <use xlink:href="#m797e6dcac2" x="94.842624" y="223.831512" style="fill: #1f77b4; fill-opacity: 0.5; stroke: #ff7f0e; stroke-opacity: 0.5; stroke-width: 2"/>
    </g>
   </g>
   <g id="line2d_26">
    <g clip-path="url(#pc498b811d2)">
     <use xlink:href="#m797e6dcac2" x="110.532059" y="223.831512" style="fill: #1f77b4; fill-opacity: 0.5; stroke: #ff7f0e; stroke-opacity: 0.5; stroke-width: 2"/>
    </g>
   </g>
   <g id="line2d_27">
    <defs>
     <path id="m5162ac5b5b" d="M 5 0 
L -5 -0 
" style="stroke: #ff7f0e; stroke-opacity: 0.5; stroke-width: 2"/>
    </defs>
    <g clip-path="url(#pc498b811d2)">
     <use xlink:href="#m5162ac5b5b" x="102.687342" y="168.953421" style="fill: #1f77b4; fill-opacity: 0.5; stroke: #ff7f0e; stroke-opacity: 0.5; stroke-width: 2"/>
    </g>
   </g>
   <g id="line2d_28">
    <g clip-path="url(#pc498b811d2)">
     <use xlink:href="#m5162ac5b5b" x="102.687342" y="278.709602" style="fill: #1f77b4; fill-opacity: 0.5; stroke: #ff7f0e; stroke-opacity: 0.5; stroke-width: 2"/>
    </g>
   </g>
   <g id="LineCollection_5">
    <path d="M 184.006028 445.715296 
L 196.194454 445.715296 
" clip-path="url(#pc498b811d2)" style="fill: none; stroke: #2ca02c; stroke-opacity: 0.5; stroke-width: 2"/>
   </g>
   <g id="LineCollection_6">
    <path d="M 190.100241 383.630648 
L 190.100241 507.799943 
" clip-path="url(#pc498b811d2)" style="fill: none; stroke: #2ca02c; stroke-opacity: 0.5; stroke-width: 2"/>
   </g>
   <g id="line2d_29">
    <defs>
     <path id="m3747d944d5" d="M 0 5 
L 0 -5 
" style="stroke: #2ca02c; stroke-opacity: 0.5; stroke-width: 2"/>
    </defs>
    <g clip-path="url(#pc498b811d2)">
     <use xlink:href="#m3747d944d5" x="184.006028" y="445.715296" style="fill: #1f77b4; fill-opacity: 0.5; stroke: #2ca02c; stroke-opacity: 0.5; stroke-width: 2"/>
    </g>
   </g>
   <g id="line2d_30">
    <g clip-path="url(#pc498b811d2)">
     <use xlink:href="#m3747d944d5" x="196.194454" y="445.715296" style="fill: #1f77b4; fill-opacity: 0.5; stroke: #2ca02c; stroke-opacity: 0.5; stroke-width: 2"/>
    </g>
   </g>
   <g id="line2d_31">
    <defs>
     <path id="mb2cd6e8448" d="M 5 0 
L -5 -0 
" style="stroke: #2ca02c; stroke-opacity: 0.5; stroke-width: 2"/>
    </defs>
    <g clip-path="url(#pc498b811d2)">
     <use xlink:href="#mb2cd6e8448" x="190.100241" y="383.630648" style="fill: #1f77b4; fill-opacity: 0.5; stroke: #2ca02c; stroke-opacity: 0.5; stroke-width: 2"/>
    </g>
   </g>
   <g id="line2d_32">
    <g clip-path="url(#pc498b811d2)">
     <use xlink:href="#mb2cd6e8448" x="190.100241" y="507.799943" style="fill: #1f77b4; fill-opacity: 0.5; stroke: #2ca02c; stroke-opacity: 0.5; stroke-width: 2"/>
    </g>
   </g>
   <g id="LineCollection_7">
    <path d="M 76.627384 68.478054 
L 91.384434 68.478054 
" clip-path="url(#pc498b811d2)" style="fill: none; stroke: #d62728; stroke-opacity: 0.5; stroke-width: 2"/>
   </g>
   <g id="LineCollection_8">
    <path d="M 84.005909 45.436307 
L 84.005909 91.519801 
" clip-path="url(#pc498b811d2)" style="fill: none; stroke: #d62728; stroke-opacity: 0.5; stroke-width: 2"/>
   </g>
   <g id="line2d_33">
    <defs>
     <path id="m5e0477d49c" d="M 0 5 
L 0 -5 
" style="stroke: #d62728; stroke-opacity: 0.5; stroke-width: 2"/>
    </defs>
    <g clip-path="url(#pc498b811d2)">
     <use xlink:href="#m5e0477d49c" x="76.627384" y="68.478054" style="fill: #1f77b4; fill-opacity: 0.5; stroke: #d62728; stroke-opacity: 0.5; stroke-width: 2"/>
    </g>
   </g>
   <g id="line2d_34">
    <g clip-path="url(#pc498b811d2)">
     <use xlink:href="#m5e0477d49c" x="91.384434" y="68.478054" style="fill: #1f77b4; fill-opacity: 0.5; stroke: #d62728; stroke-opacity: 0.5; stroke-width: 2"/>
    </g>
   </g>
   <g id="line2d_35">
    <defs>
     <path id="m734028159f" d="M 5 0 
L -5 -0 
" style="stroke: #d62728; stroke-opacity: 0.5; stroke-width: 2"/>
    </defs>
    <g clip-path="url(#pc498b811d2)">
     <use xlink:href="#m734028159f" x="84.005909" y="45.436307" style="fill: #1f77b4; fill-opacity: 0.5; stroke: #d62728; stroke-opacity: 0.5; stroke-width: 2"/>
    </g>
   </g>
   <g id="line2d_36">
    <g clip-path="url(#pc498b811d2)">
     <use xlink:href="#m734028159f" x="84.005909" y="91.519801" style="fill: #1f77b4; fill-opacity: 0.5; stroke: #d62728; stroke-opacity: 0.5; stroke-width: 2"/>
    </g>
   </g>
   <g id="LineCollection_9">
    <path d="M 514.053229 289.589491 
L 538.043665 289.589491 
" clip-path="url(#pc498b811d2)" style="fill: none; stroke: #9467bd; stroke-opacity: 0.5; stroke-width: 2"/>
   </g>
   <g id="LineCollection_10">
    <path d="M 526.048447 234.655781 
L 526.048447 344.523202 
" clip-path="url(#pc498b811d2)" style="fill: none; stroke: #9467bd; stroke-opacity: 0.5; stroke-width: 2"/>
   </g>
   <g id="line2d_37">
    <defs>
     <path id="mab47c7ce1f" d="M 0 5 
L 0 -5 
" style="stroke: #9467bd; stroke-opacity: 0.5; stroke-width: 2"/>
    </defs>
    <g clip-path="url(#pc498b811d2)">
     <use xlink:href="#mab47c7ce1f" x="514.053229" y="289.589491" style="fill: #1f77b4; fill-opacity: 0.5; stroke: #9467bd; stroke-opacity: 0.5; stroke-width: 2"/>
    </g>
   </g>
   <g id="line2d_38">
    <g clip-path="url(#pc498b811d2)">
     <use xlink:href="#mab47c7ce1f" x="538.043665" y="289.589491" style="fill: #1f77b4; fill-opacity: 0.5; stroke: #9467bd; stroke-opacity: 0.5; stroke-width: 2"/>
    </g>
   </g>
   <g id="line2d_39">
    <defs>
     <path id="m76724792d2" d="M 5 0 
L -5 -0 
" style="stroke: #9467bd; stroke-opacity: 0.5; stroke-width: 2"/>
    </defs>
    <g clip-path="url(#pc498b811d2)">
     <use xlink:href="#m76724792d2" x="526.048447" y="234.655781" style="fill: #1f77b4; fill-opacity: 0.5; stroke: #9467bd; stroke-opacity: 0.5; stroke-width: 2"/>
    </g>
   </g>
   <g id="line2d_40">
    <g clip-path="url(#pc498b811d2)">
     <use xlink:href="#m76724792d2" x="526.048447" y="344.523202" style="fill: #1f77b4; fill-opacity: 0.5; stroke: #9467bd; stroke-opacity: 0.5; stroke-width: 2"/>
    </g>
   </g>
   <g id="LineCollection_11">
    <path d="M 116.140028 107.353137 
L 130.403713 107.353137 
" clip-path="url(#pc498b811d2)" style="fill: none; stroke: #8c564b; stroke-opacity: 0.5; stroke-width: 2"/>
   </g>
   <g id="LineCollection_12">
    <path d="M 123.271871 75.524457 
L 123.271871 139.181817 
" clip-path="url(#pc498b811d2)" style="fill: none; stroke: #8c564b; stroke-opacity: 0.5; stroke-width: 2"/>
   </g>
   <g id="line2d_41">
    <defs>
     <path id="mcb48f58879" d="M 0 5 
L 0 -5 
" style="stroke: #8c564b; stroke-opacity: 0.5; stroke-width: 2"/>
    </defs>
    <g clip-path="url(#pc498b811d2)">
     <use xlink:href="#mcb48f58879" x="116.140028" y="107.353137" style="fill: #1f77b4; fill-opacity: 0.5; stroke: #8c564b; stroke-opacity: 0.5; stroke-width: 2"/>
    </g>
   </g>
   <g id="line2d_42">
    <g clip-path="url(#pc498b811d2)">
     <use xlink:href="#mcb48f58879" x="130.403713" y="107.353137" style="fill: #1f77b4; fill-opacity: 0.5; stroke: #8c564b; stroke-opacity: 0.5; stroke-width: 2"/>
    </g>
   </g>
   <g id="line2d_43">
    <defs>
     <path id="m81cd9504d2" d="M 5 0 
L -5 -0 
" style="stroke: #8c564b; stroke-opacity: 0.5; stroke-width: 2"/>
    </defs>
    <g clip-path="url(#pc498b811d2)">
     <use xlink:href="#m81cd9504d2" x="123.271871" y="75.524457" style="fill: #1f77b4; fill-opacity: 0.5; stroke: #8c564b; stroke-opacity: 0.5; stroke-width: 2"/>
    </g>
   </g>
   <g id="line2d_44">
    <g clip-path="url(#pc498b811d2)">
     <use xlink:href="#m81cd9504d2" x="123.271871" y="139.181817" style="fill: #1f77b4; fill-opacity: 0.5; stroke: #8c564b; stroke-opacity: 0.5; stroke-width: 2"/>
    </g>
   </g>
   <g id="LineCollection_13">
    <path d="M 198.804724 439.478163 
L 212.486557 439.478163 
" clip-path="url(#pc498b811d2)" style="fill: none; stroke: #e377c2; stroke-opacity: 0.5; stroke-width: 2"/>
   </g>
   <g id="LineCollection_14">
    <path d="M 205.64564 371.253252 
L 205.64564 507.703073 
" clip-path="url(#pc498b811d2)" style="fill: none; stroke: #e377c2; stroke-opacity: 0.5; stroke-width: 2"/>
   </g>
   <g id="line2d_45">
    <defs>
     <path id="m12cc21a415" d="M 0 5 
L 0 -5 
" style="stroke: #e377c2; stroke-opacity: 0.5; stroke-width: 2"/>
    </defs>
    <g clip-path="url(#pc498b811d2)">
     <use xlink:href="#m12cc21a415" x="198.804724" y="439.478163" style="fill: #1f77b4; fill-opacity: 0.5; stroke: #e377c2; stroke-opacity: 0.5; stroke-width: 2"/>
    </g>
   </g>
   <g id="line2d_46">
    <g clip-path="url(#pc498b811d2)">
     <use xlink:href="#m12cc21a415" x="212.486557" y="439.478163" style="fill: #1f77b4; fill-opacity: 0.5; stroke: #e377c2; stroke-opacity: 0.5; stroke-width: 2"/>
    </g>
   </g>
   <g id="line2d_47">
    <defs>
     <path id="mee1fd8fc05" d="M 5 0 
L -5 -0 
" style="stroke: #e377c2; stroke-opacity: 0.5; stroke-width: 2"/>
    </defs>
    <g clip-path="url(#pc498b811d2)">
     <use xlink:href="#mee1fd8fc05" x="205.64564" y="371.253252" style="fill: #1f77b4; fill-opacity: 0.5; stroke: #e377c2; stroke-opacity: 0.5; stroke-width: 2"/>
    </g>
   </g>
   <g id="line2d_48">
    <g clip-path="url(#pc498b811d2)">
     <use xlink:href="#mee1fd8fc05" x="205.64564" y="507.703073" style="fill: #1f77b4; fill-opacity: 0.5; stroke: #e377c2; stroke-opacity: 0.5; stroke-width: 2"/>
    </g>
   </g>
   <g id="patch_3">
    <path d="M 52.160938 530.918125 
L 52.160938 22.318125 
" style="fill: none; stroke: #000000; stroke-width: 0.8; stroke-linejoin: miter; stroke-linecap: square"/>
   </g>
   <g id="patch_4">
    <path d="M 561.180937 530.918125 
L 561.180937 22.318125 
" style="fill: none; stroke: #000000; stroke-width: 0.8; stroke-linejoin: miter; stroke-linecap: square"/>
   </g>
   <g id="patch_5">
    <path d="M 52.160937 530.918125 
L 561.180937 530.918125 
" style="fill: none; stroke: #000000; stroke-width: 0.8; stroke-linejoin: miter; stroke-linecap: square"/>
   </g>
   <g id="patch_6">
    <path d="M 52.160937 22.318125 
L 561.180937 22.318125 
" style="fill: none; stroke: #000000; stroke-width: 0.8; stroke-linejoin: miter; stroke-linecap: square"/>
   </g>
   <g id="text_16">
    <!-- Model Performance: Scoring Time vs Correlation -->
    <g transform="translate(162.116875 16.318125) scale(0.12 -0.12)">
     <defs>
      <path id="DejaVuSans-64" d="M 2906 2969 
L 2906 4863 
L 3481 4863 
L 3481 0 
L 2906 0 
L 2906 525 
Q 2725 213 2448 61 
Q 2172 -91 1784 -91 
Q 1150 -91 751 415 
Q 353 922 353 1747 
Q 353 2572 751 3078 
Q 1150 3584 1784 3584 
Q 2172 3584 2448 3432 
Q 2725 3281 2906 2969 
z
M 947 1747 
Q 947 1113 1208 752 
Q 1469 391 1925 391 
Q 2381 391 2643 752 
Q 2906 1113 2906 1747 
Q 2906 2381 2643 2742 
Q 2381 3103 1925 3103 
Q 1469 3103 1208 2742 
Q 947 2381 947 1747 
z
" transform="scale(0.015625)"/>
      <path id="DejaVuSans-66" d="M 2375 4863 
L 2375 4384 
L 1825 4384 
Q 1516 4384 1395 4259 
Q 1275 4134 1275 3809 
L 1275 3500 
L 2222 3500 
L 2222 3053 
L 1275 3053 
L 1275 0 
L 697 0 
L 697 3053 
L 147 3053 
L 147 3500 
L 697 3500 
L 697 3744 
Q 697 4328 969 4595 
Q 1241 4863 1831 4863 
L 2375 4863 
z
" transform="scale(0.015625)"/>
      <path id="DejaVuSans-6d" d="M 3328 2828 
Q 3544 3216 3844 3400 
Q 4144 3584 4550 3584 
Q 5097 3584 5394 3201 
Q 5691 2819 5691 2113 
L 5691 0 
L 5113 0 
L 5113 2094 
Q 5113 2597 4934 2840 
Q 4756 3084 4391 3084 
Q 3944 3084 3684 2787 
Q 3425 2491 3425 1978 
L 3425 0 
L 2847 0 
L 2847 2094 
Q 2847 2600 2669 2842 
Q 2491 3084 2119 3084 
Q 1678 3084 1418 2786 
Q 1159 2488 1159 1978 
L 1159 0 
L 581 0 
L 581 3500 
L 1159 3500 
L 1159 2956 
Q 1356 3278 1631 3431 
Q 1906 3584 2284 3584 
Q 2666 3584 2933 3390 
Q 3200 3197 3328 2828 
z
" transform="scale(0.015625)"/>
      <path id="DejaVuSans-63" d="M 3122 3366 
L 3122 2828 
Q 2878 2963 2633 3030 
Q 2388 3097 2138 3097 
Q 1578 3097 1268 2742 
Q 959 2388 959 1747 
Q 959 1106 1268 751 
Q 1578 397 2138 397 
Q 2388 397 2633 464 
Q 2878 531 3122 666 
L 3122 134 
Q 2881 22 2623 -34 
Q 2366 -91 2075 -91 
Q 1284 -91 818 406 
Q 353 903 353 1747 
Q 353 2603 823 3093 
Q 1294 3584 2113 3584 
Q 2378 3584 2631 3529 
Q 2884 3475 3122 3366 
z
" transform="scale(0.015625)"/>
      <path id="DejaVuSans-3a" d="M 750 794 
L 1409 794 
L 1409 0 
L 750 0 
L 750 794 
z
M 750 3309 
L 1409 3309 
L 1409 2516 
L 750 2516 
L 750 3309 
z
" transform="scale(0.015625)"/>
      <path id="DejaVuSans-67" d="M 2906 1791 
Q 2906 2416 2648 2759 
Q 2391 3103 1925 3103 
Q 1463 3103 1205 2759 
Q 947 2416 947 1791 
Q 947 1169 1205 825 
Q 1463 481 1925 481 
Q 2391 481 2648 825 
Q 2906 1169 2906 1791 
z
M 3481 434 
Q 3481 -459 3084 -895 
Q 2688 -1331 1869 -1331 
Q 1566 -1331 1297 -1286 
Q 1028 -1241 775 -1147 
L 775 -588 
Q 1028 -725 1275 -790 
Q 1522 -856 1778 -856 
Q 2344 -856 2625 -561 
Q 2906 -266 2906 331 
L 2906 616 
Q 2728 306 2450 153 
Q 2172 0 1784 0 
Q 1141 0 747 490 
Q 353 981 353 1791 
Q 353 2603 747 3093 
Q 1141 3584 1784 3584 
Q 2172 3584 2450 3431 
Q 2728 3278 2906 2969 
L 2906 3500 
L 3481 3500 
L 3481 434 
z
" transform="scale(0.015625)"/>
      <path id="DejaVuSans-54" d="M -19 4666 
L 3928 4666 
L 3928 4134 
L 2272 4134 
L 2272 0 
L 1638 0 
L 1638 4134 
L -19 4134 
L -19 4666 
z
" transform="scale(0.015625)"/>
      <path id="DejaVuSans-76" d="M 191 3500 
L 800 3500 
L 1894 563 
L 2988 3500 
L 3597 3500 
L 2284 0 
L 1503 0 
L 191 3500 
z
" transform="scale(0.015625)"/>
     </defs>
     <use xlink:href="#DejaVuSans-4d"/>
     <use xlink:href="#DejaVuSans-6f" transform="translate(86.279297 0)"/>
     <use xlink:href="#DejaVuSans-64" transform="translate(147.460938 0)"/>
     <use xlink:href="#DejaVuSans-65" transform="translate(210.9375 0)"/>
     <use xlink:href="#DejaVuSans-6c" transform="translate(272.460938 0)"/>
     <use xlink:href="#DejaVuSans-20" transform="translate(300.244141 0)"/>
     <use xlink:href="#DejaVuSans-50" transform="translate(332.03125 0)"/>
     <use xlink:href="#DejaVuSans-65" transform="translate(388.708984 0)"/>
     <use xlink:href="#DejaVuSans-72" transform="translate(450.232422 0)"/>
     <use xlink:href="#DejaVuSans-66" transform="translate(491.345703 0)"/>
     <use xlink:href="#DejaVuSans-6f" transform="translate(526.550781 0)"/>
     <use xlink:href="#DejaVuSans-72" transform="translate(587.732422 0)"/>
     <use xlink:href="#DejaVuSans-6d" transform="translate(627.095703 0)"/>
     <use xlink:href="#DejaVuSans-61" transform="translate(724.507812 0)"/>
     <use xlink:href="#DejaVuSans-6e" transform="translate(785.787109 0)"/>
     <use xlink:href="#DejaVuSans-63" transform="translate(849.166016 0)"/>
     <use xlink:href="#DejaVuSans-65" transform="translate(904.146484 0)"/>
     <use xlink:href="#DejaVuSans-3a" transform="translate(965.669922 0)"/>
     <use xlink:href="#DejaVuSans-20" transform="translate(999.361328 0)"/>
     <use xlink:href="#DejaVuSans-53" transform="translate(1031.148438 0)"/>
     <use xlink:href="#DejaVuSans-63" transform="translate(1094.625 0)"/>
     <use xlink:href="#DejaVuSans-6f" transform="translate(1149.605469 0)"/>
     <use xlink:href="#DejaVuSans-72" transform="translate(1210.787109 0)"/>
     <use xlink:href="#DejaVuSans-69" transform="translate(1251.900391 0)"/>
     <use xlink:href="#DejaVuSans-6e" transform="translate(1279.683594 0)"/>
     <use xlink:href="#DejaVuSans-67" transform="translate(1343.0625 0)"/>
     <use xlink:href="#DejaVuSans-20" transform="translate(1406.539062 0)"/>
     <use xlink:href="#DejaVuSans-54" transform="translate(1438.326172 0)"/>
     <use xlink:href="#DejaVuSans-69" transform="translate(1496.285156 0)"/>
     <use xlink:href="#DejaVuSans-6d" transform="translate(1524.068359 0)"/>
     <use xlink:href="#DejaVuSans-65" transform="translate(1621.480469 0)"/>
     <use xlink:href="#DejaVuSans-20" transform="translate(1683.003906 0)"/>
     <use xlink:href="#DejaVuSans-76" transform="translate(1714.791016 0)"/>
     <use xlink:href="#DejaVuSans-73" transform="translate(1773.970703 0)"/>
     <use xlink:href="#DejaVuSans-20" transform="translate(1826.070312 0)"/>
     <use xlink:href="#DejaVuSans-43" transform="translate(1857.857422 0)"/>
     <use xlink:href="#DejaVuSans-6f" transform="translate(1927.681641 0)"/>
     <use xlink:href="#DejaVuSans-72" transform="translate(1988.863281 0)"/>
     <use xlink:href="#DejaVuSans-72" transform="translate(2028.226562 0)"/>
     <use xlink:href="#DejaVuSans-65" transform="translate(2067.089844 0)"/>
     <use xlink:href="#DejaVuSans-6c" transform="translate(2128.613281 0)"/>
     <use xlink:href="#DejaVuSans-61" transform="translate(2156.396484 0)"/>
     <use xlink:href="#DejaVuSans-74" transform="translate(2217.675781 0)"/>
     <use xlink:href="#DejaVuSans-69" transform="translate(2256.884766 0)"/>
     <use xlink:href="#DejaVuSans-6f" transform="translate(2284.667969 0)"/>
     <use xlink:href="#DejaVuSans-6e" transform="translate(2345.849609 0)"/>
    </g>
   </g>
   <g id="legend_1">
    <g id="patch_7">
     <path d="M 396.41375 148.5775 
L 554.180937 148.5775 
Q 556.180937 148.5775 556.180937 146.5775 
L 556.180937 29.318125 
Q 556.180937 27.318125 554.180937 27.318125 
L 396.41375 27.318125 
Q 394.41375 27.318125 394.41375 29.318125 
L 394.41375 146.5775 
Q 394.41375 148.5775 396.41375 148.5775 
z
" style="fill: #ffffff; opacity: 0.8; stroke: #cccccc; stroke-linejoin: miter"/>
    </g>
    <g id="text_17">
     <!-- method_name -->
     <g transform="translate(439.308281 38.916562) scale(0.1 -0.1)">
      <defs>
       <path id="DejaVuSans-68" d="M 3513 2113 
L 3513 0 
L 2938 0 
L 2938 2094 
Q 2938 2591 2744 2837 
Q 2550 3084 2163 3084 
Q 1697 3084 1428 2787 
Q 1159 2491 1159 1978 
L 1159 0 
L 581 0 
L 581 4863 
L 1159 4863 
L 1159 2956 
Q 1366 3272 1645 3428 
Q 1925 3584 2291 3584 
Q 2894 3584 3203 3211 
Q 3513 2838 3513 2113 
z
" transform="scale(0.015625)"/>
       <path id="DejaVuSans-5f" d="M 3263 -1063 
L 3263 -1509 
L -63 -1509 
L -63 -1063 
L 3263 -1063 
z
" transform="scale(0.015625)"/>
      </defs>
      <use xlink:href="#DejaVuSans-6d"/>
      <use xlink:href="#DejaVuSans-65" transform="translate(97.412109 0)"/>
      <use xlink:href="#DejaVuSans-74" transform="translate(158.935547 0)"/>
      <use xlink:href="#DejaVuSans-68" transform="translate(198.144531 0)"/>
      <use xlink:href="#DejaVuSans-6f" transform="translate(261.523438 0)"/>
      <use xlink:href="#DejaVuSans-64" transform="translate(322.705078 0)"/>
      <use xlink:href="#DejaVuSans-5f" transform="translate(386.181641 0)"/>
      <use xlink:href="#DejaVuSans-6e" transform="translate(436.181641 0)"/>
      <use xlink:href="#DejaVuSans-61" transform="translate(499.560547 0)"/>
      <use xlink:href="#DejaVuSans-6d" transform="translate(560.839844 0)"/>
      <use xlink:href="#DejaVuSans-65" transform="translate(658.251953 0)"/>
     </g>
    </g>
    <g id="line2d_49">
     <defs>
      <path id="m3715f9fe08" d="M 0 3.535534 
C 0.937635 3.535534 1.836992 3.163008 2.5 2.5 
C 3.163008 1.836992 3.535534 0.937635 3.535534 0 
C 3.535534 -0.937635 3.163008 -1.836992 2.5 -2.5 
C 1.836992 -3.163008 0.937635 -3.535534 0 -3.535534 
C -0.937635 -3.535534 -1.836992 -3.163008 -2.5 -2.5 
C -3.163008 -1.836992 -3.535534 -0.937635 -3.535534 0 
C -3.535534 0.937635 -3.163008 1.836992 -2.5 2.5 
C -1.836992 3.163008 -0.937635 3.535534 0 3.535534 
z
" style="stroke: #ffffff; stroke-width: 0.565685"/>
     </defs>
     <g>
      <use xlink:href="#m3715f9fe08" x="408.41375" y="50.372812" style="fill: #1f77b4; stroke: #ffffff; stroke-width: 0.565685"/>
     </g>
    </g>
    <g id="text_18">
     <!-- BestMLP -->
     <g transform="translate(426.41375 53.872812) scale(0.1 -0.1)">
      <defs>
       <path id="DejaVuSans-42" d="M 1259 2228 
L 1259 519 
L 2272 519 
Q 2781 519 3026 730 
Q 3272 941 3272 1375 
Q 3272 1813 3026 2020 
Q 2781 2228 2272 2228 
L 1259 2228 
z
M 1259 4147 
L 1259 2741 
L 2194 2741 
Q 2656 2741 2882 2914 
Q 3109 3088 3109 3444 
Q 3109 3797 2882 3972 
Q 2656 4147 2194 4147 
L 1259 4147 
z
M 628 4666 
L 2241 4666 
Q 2963 4666 3353 4366 
Q 3744 4066 3744 3513 
Q 3744 3084 3544 2831 
Q 3344 2578 2956 2516 
Q 3422 2416 3680 2098 
Q 3938 1781 3938 1306 
Q 3938 681 3513 340 
Q 3088 0 2303 0 
L 628 0 
L 628 4666 
z
" transform="scale(0.015625)"/>
       <path id="DejaVuSans-4c" d="M 628 4666 
L 1259 4666 
L 1259 531 
L 3531 531 
L 3531 0 
L 628 0 
L 628 4666 
z
" transform="scale(0.015625)"/>
      </defs>
      <use xlink:href="#DejaVuSans-42"/>
      <use xlink:href="#DejaVuSans-65" transform="translate(68.603516 0)"/>
      <use xlink:href="#DejaVuSans-73" transform="translate(130.126953 0)"/>
      <use xlink:href="#DejaVuSans-74" transform="translate(182.226562 0)"/>
      <use xlink:href="#DejaVuSans-4d" transform="translate(221.435547 0)"/>
      <use xlink:href="#DejaVuSans-4c" transform="translate(307.714844 0)"/>
      <use xlink:href="#DejaVuSans-50" transform="translate(363.427734 0)"/>
     </g>
    </g>
    <g id="line2d_50">
     <defs>
      <path id="m6c7bfcac01" d="M 0 3.535534 
C 0.937635 3.535534 1.836992 3.163008 2.5 2.5 
C 3.163008 1.836992 3.535534 0.937635 3.535534 0 
C 3.535534 -0.937635 3.163008 -1.836992 2.5 -2.5 
C 1.836992 -3.163008 0.937635 -3.535534 0 -3.535534 
C -0.937635 -3.535534 -1.836992 -3.163008 -2.5 -2.5 
C -3.163008 -1.836992 -3.535534 -0.937635 -3.535534 0 
C -3.535534 0.937635 -3.163008 1.836992 -2.5 2.5 
C -1.836992 3.163008 -0.937635 3.535534 0 3.535534 
z
" style="stroke: #ffffff; stroke-width: 0.565685"/>
     </defs>
     <g>
      <use xlink:href="#m6c7bfcac01" x="408.41375" y="65.050937" style="fill: #ff7f0e; stroke: #ffffff; stroke-width: 0.565685"/>
     </g>
    </g>
    <g id="text_19">
     <!-- BestSVR -->
     <g transform="translate(426.41375 68.550937) scale(0.1 -0.1)">
      <defs>
       <path id="DejaVuSans-56" d="M 1831 0 
L 50 4666 
L 709 4666 
L 2188 738 
L 3669 4666 
L 4325 4666 
L 2547 0 
L 1831 0 
z
" transform="scale(0.015625)"/>
      </defs>
      <use xlink:href="#DejaVuSans-42"/>
      <use xlink:href="#DejaVuSans-65" transform="translate(68.603516 0)"/>
      <use xlink:href="#DejaVuSans-73" transform="translate(130.126953 0)"/>
      <use xlink:href="#DejaVuSans-74" transform="translate(182.226562 0)"/>
      <use xlink:href="#DejaVuSans-53" transform="translate(221.435547 0)"/>
      <use xlink:href="#DejaVuSans-56" transform="translate(284.912109 0)"/>
      <use xlink:href="#DejaVuSans-52" transform="translate(353.320312 0)"/>
     </g>
    </g>
    <g id="line2d_51">
     <defs>
      <path id="m3cc290727c" d="M 0 3.535534 
C 0.937635 3.535534 1.836992 3.163008 2.5 2.5 
C 3.163008 1.836992 3.535534 0.937635 3.535534 0 
C 3.535534 -0.937635 3.163008 -1.836992 2.5 -2.5 
C 1.836992 -3.163008 0.937635 -3.535534 0 -3.535534 
C -0.937635 -3.535534 -1.836992 -3.163008 -2.5 -2.5 
C -3.163008 -1.836992 -3.535534 -0.937635 -3.535534 0 
C -3.535534 0.937635 -3.163008 1.836992 -2.5 2.5 
C -1.836992 3.163008 -0.937635 3.535534 0 3.535534 
z
" style="stroke: #ffffff; stroke-width: 0.565685"/>
     </defs>
     <g>
      <use xlink:href="#m3cc290727c" x="408.41375" y="79.729062" style="fill: #2ca02c; stroke: #ffffff; stroke-width: 0.565685"/>
     </g>
    </g>
    <g id="text_20">
     <!-- DummyScoring_Mean -->
     <g transform="translate(426.41375 83.229062) scale(0.1 -0.1)">
      <defs>
       <path id="DejaVuSans-44" d="M 1259 4147 
L 1259 519 
L 2022 519 
Q 2988 519 3436 956 
Q 3884 1394 3884 2338 
Q 3884 3275 3436 3711 
Q 2988 4147 2022 4147 
L 1259 4147 
z
M 628 4666 
L 1925 4666 
Q 3281 4666 3915 4102 
Q 4550 3538 4550 2338 
Q 4550 1131 3912 565 
Q 3275 0 1925 0 
L 628 0 
L 628 4666 
z
" transform="scale(0.015625)"/>
       <path id="DejaVuSans-75" d="M 544 1381 
L 544 3500 
L 1119 3500 
L 1119 1403 
Q 1119 906 1312 657 
Q 1506 409 1894 409 
Q 2359 409 2629 706 
Q 2900 1003 2900 1516 
L 2900 3500 
L 3475 3500 
L 3475 0 
L 2900 0 
L 2900 538 
Q 2691 219 2414 64 
Q 2138 -91 1772 -91 
Q 1169 -91 856 284 
Q 544 659 544 1381 
z
M 1991 3584 
L 1991 3584 
z
" transform="scale(0.015625)"/>
       <path id="DejaVuSans-79" d="M 2059 -325 
Q 1816 -950 1584 -1140 
Q 1353 -1331 966 -1331 
L 506 -1331 
L 506 -850 
L 844 -850 
Q 1081 -850 1212 -737 
Q 1344 -625 1503 -206 
L 1606 56 
L 191 3500 
L 800 3500 
L 1894 763 
L 2988 3500 
L 3597 3500 
L 2059 -325 
z
" transform="scale(0.015625)"/>
      </defs>
      <use xlink:href="#DejaVuSans-44"/>
      <use xlink:href="#DejaVuSans-75" transform="translate(77.001953 0)"/>
      <use xlink:href="#DejaVuSans-6d" transform="translate(140.380859 0)"/>
      <use xlink:href="#DejaVuSans-6d" transform="translate(237.792969 0)"/>
      <use xlink:href="#DejaVuSans-79" transform="translate(335.205078 0)"/>
      <use xlink:href="#DejaVuSans-53" transform="translate(394.384766 0)"/>
      <use xlink:href="#DejaVuSans-63" transform="translate(457.861328 0)"/>
      <use xlink:href="#DejaVuSans-6f" transform="translate(512.841797 0)"/>
      <use xlink:href="#DejaVuSans-72" transform="translate(574.023438 0)"/>
      <use xlink:href="#DejaVuSans-69" transform="translate(615.136719 0)"/>
      <use xlink:href="#DejaVuSans-6e" transform="translate(642.919922 0)"/>
      <use xlink:href="#DejaVuSans-67" transform="translate(706.298828 0)"/>
      <use xlink:href="#DejaVuSans-5f" transform="translate(769.775391 0)"/>
      <use xlink:href="#DejaVuSans-4d" transform="translate(819.775391 0)"/>
      <use xlink:href="#DejaVuSans-65" transform="translate(906.054688 0)"/>
      <use xlink:href="#DejaVuSans-61" transform="translate(967.578125 0)"/>
      <use xlink:href="#DejaVuSans-6e" transform="translate(1028.857422 0)"/>
     </g>
    </g>
    <g id="line2d_52">
     <defs>
      <path id="m1dc50072d8" d="M 0 3.535534 
C 0.937635 3.535534 1.836992 3.163008 2.5 2.5 
C 3.163008 1.836992 3.535534 0.937635 3.535534 0 
C 3.535534 -0.937635 3.163008 -1.836992 2.5 -2.5 
C 1.836992 -3.163008 0.937635 -3.535534 0 -3.535534 
C -0.937635 -3.535534 -1.836992 -3.163008 -2.5 -2.5 
C -3.163008 -1.836992 -3.535534 -0.937635 -3.535534 0 
C -3.535534 0.937635 -3.163008 1.836992 -2.5 2.5 
C -1.836992 3.163008 -0.937635 3.535534 0 3.535534 
z
" style="stroke: #ffffff; stroke-width: 0.565685"/>
     </defs>
     <g>
      <use xlink:href="#m1dc50072d8" x="408.41375" y="94.685312" style="fill: #d62728; stroke: #ffffff; stroke-width: 0.565685"/>
     </g>
    </g>
    <g id="text_21">
     <!-- LinearRegression -->
     <g transform="translate(426.41375 98.185312) scale(0.1 -0.1)">
      <use xlink:href="#DejaVuSans-4c"/>
      <use xlink:href="#DejaVuSans-69" transform="translate(55.712891 0)"/>
      <use xlink:href="#DejaVuSans-6e" transform="translate(83.496094 0)"/>
      <use xlink:href="#DejaVuSans-65" transform="translate(146.875 0)"/>
      <use xlink:href="#DejaVuSans-61" transform="translate(208.398438 0)"/>
      <use xlink:href="#DejaVuSans-72" transform="translate(269.677734 0)"/>
      <use xlink:href="#DejaVuSans-52" transform="translate(310.791016 0)"/>
      <use xlink:href="#DejaVuSans-65" transform="translate(375.773438 0)"/>
      <use xlink:href="#DejaVuSans-67" transform="translate(437.296875 0)"/>
      <use xlink:href="#DejaVuSans-72" transform="translate(500.773438 0)"/>
      <use xlink:href="#DejaVuSans-65" transform="translate(539.636719 0)"/>
      <use xlink:href="#DejaVuSans-73" transform="translate(601.160156 0)"/>
      <use xlink:href="#DejaVuSans-73" transform="translate(653.259766 0)"/>
      <use xlink:href="#DejaVuSans-69" transform="translate(705.359375 0)"/>
      <use xlink:href="#DejaVuSans-6f" transform="translate(733.142578 0)"/>
      <use xlink:href="#DejaVuSans-6e" transform="translate(794.324219 0)"/>
     </g>
    </g>
    <g id="line2d_53">
     <defs>
      <path id="m74fc506781" d="M 0 3.535534 
C 0.937635 3.535534 1.836992 3.163008 2.5 2.5 
C 3.163008 1.836992 3.535534 0.937635 3.535534 0 
C 3.535534 -0.937635 3.163008 -1.836992 2.5 -2.5 
C 1.836992 -3.163008 0.937635 -3.535534 0 -3.535534 
C -0.937635 -3.535534 -1.836992 -3.163008 -2.5 -2.5 
C -3.163008 -1.836992 -3.535534 -0.937635 -3.535534 0 
C -3.535534 0.937635 -3.163008 1.836992 -2.5 2.5 
C -1.836992 3.163008 -0.937635 3.535534 0 3.535534 
z
" style="stroke: #ffffff; stroke-width: 0.565685"/>
     </defs>
     <g>
      <use xlink:href="#m74fc506781" x="408.41375" y="109.363437" style="fill: #9467bd; stroke: #ffffff; stroke-width: 0.565685"/>
     </g>
    </g>
    <g id="text_22">
     <!-- MLP -->
     <g transform="translate(426.41375 112.863437) scale(0.1 -0.1)">
      <use xlink:href="#DejaVuSans-4d"/>
      <use xlink:href="#DejaVuSans-4c" transform="translate(86.279297 0)"/>
      <use xlink:href="#DejaVuSans-50" transform="translate(141.992188 0)"/>
     </g>
    </g>
    <g id="line2d_54">
     <defs>
      <path id="mfb84b3bdde" d="M 0 3.535534 
C 0.937635 3.535534 1.836992 3.163008 2.5 2.5 
C 3.163008 1.836992 3.535534 0.937635 3.535534 0 
C 3.535534 -0.937635 3.163008 -1.836992 2.5 -2.5 
C 1.836992 -3.163008 0.937635 -3.535534 0 -3.535534 
C -0.937635 -3.535534 -1.836992 -3.163008 -2.5 -2.5 
C -3.163008 -1.836992 -3.535534 -0.937635 -3.535534 0 
C -3.535534 0.937635 -3.163008 1.836992 -2.5 2.5 
C -1.836992 3.163008 -0.937635 3.535534 0 3.535534 
z
" style="stroke: #ffffff; stroke-width: 0.565685"/>
     </defs>
     <g>
      <use xlink:href="#mfb84b3bdde" x="408.41375" y="124.041562" style="fill: #8c564b; stroke: #ffffff; stroke-width: 0.565685"/>
     </g>
    </g>
    <g id="text_23">
     <!-- SVR -->
     <g transform="translate(426.41375 127.541562) scale(0.1 -0.1)">
      <use xlink:href="#DejaVuSans-53"/>
      <use xlink:href="#DejaVuSans-56" transform="translate(63.476562 0)"/>
      <use xlink:href="#DejaVuSans-52" transform="translate(131.884766 0)"/>
     </g>
    </g>
    <g id="line2d_55">
     <defs>
      <path id="m7e0b09c95e" d="M 0 3.535534 
C 0.937635 3.535534 1.836992 3.163008 2.5 2.5 
C 3.163008 1.836992 3.535534 0.937635 3.535534 0 
C 3.535534 -0.937635 3.163008 -1.836992 2.5 -2.5 
C 1.836992 -3.163008 0.937635 -3.535534 0 -3.535534 
C -0.937635 -3.535534 -1.836992 -3.163008 -2.5 -2.5 
C -3.163008 -1.836992 -3.535534 -0.937635 -3.535534 0 
C -3.535534 0.937635 -3.163008 1.836992 -2.5 2.5 
C -1.836992 3.163008 -0.937635 3.535534 0 3.535534 
z
" style="stroke: #ffffff; stroke-width: 0.565685"/>
     </defs>
     <g>
      <use xlink:href="#m7e0b09c95e" x="408.41375" y="138.719687" style="fill: #e377c2; stroke: #ffffff; stroke-width: 0.565685"/>
     </g>
    </g>
    <g id="text_24">
     <!-- Shuffle_LinearRegression -->
     <g transform="translate(426.41375 142.219687) scale(0.1 -0.1)">
      <use xlink:href="#DejaVuSans-53"/>
      <use xlink:href="#DejaVuSans-68" transform="translate(63.476562 0)"/>
      <use xlink:href="#DejaVuSans-75" transform="translate(126.855469 0)"/>
      <use xlink:href="#DejaVuSans-66" transform="translate(190.234375 0)"/>
      <use xlink:href="#DejaVuSans-66" transform="translate(225.439453 0)"/>
      <use xlink:href="#DejaVuSans-6c" transform="translate(260.644531 0)"/>
      <use xlink:href="#DejaVuSans-65" transform="translate(288.427734 0)"/>
      <use xlink:href="#DejaVuSans-5f" transform="translate(349.951172 0)"/>
      <use xlink:href="#DejaVuSans-4c" transform="translate(399.951172 0)"/>
      <use xlink:href="#DejaVuSans-69" transform="translate(455.664062 0)"/>
      <use xlink:href="#DejaVuSans-6e" transform="translate(483.447266 0)"/>
      <use xlink:href="#DejaVuSans-65" transform="translate(546.826172 0)"/>
      <use xlink:href="#DejaVuSans-61" transform="translate(608.349609 0)"/>
      <use xlink:href="#DejaVuSans-72" transform="translate(669.628906 0)"/>
      <use xlink:href="#DejaVuSans-52" transform="translate(710.742188 0)"/>
      <use xlink:href="#DejaVuSans-65" transform="translate(775.724609 0)"/>
      <use xlink:href="#DejaVuSans-67" transform="translate(837.248047 0)"/>
      <use xlink:href="#DejaVuSans-72" transform="translate(900.724609 0)"/>
      <use xlink:href="#DejaVuSans-65" transform="translate(939.587891 0)"/>
      <use xlink:href="#DejaVuSans-73" transform="translate(1001.111328 0)"/>
      <use xlink:href="#DejaVuSans-73" transform="translate(1053.210938 0)"/>
      <use xlink:href="#DejaVuSans-69" transform="translate(1105.310547 0)"/>
      <use xlink:href="#DejaVuSans-6f" transform="translate(1133.09375 0)"/>
      <use xlink:href="#DejaVuSans-6e" transform="translate(1194.275391 0)"/>
     </g>
    </g>
   </g>
  </g>
 </g>
 <defs>
  <clipPath id="pc498b811d2">
   <rect x="52.160938" y="22.318125" width="509.02" height="508.6"/>
  </clipPath>
 </defs>
</svg>
