<?xml version="1.0" encoding="utf-8" standalone="no"?>
<!DOCTYPE svg PUBLIC "-//W3C//DTD SVG 1.1//EN"
  "http://www.w3.org/Graphics/SVG/1.1/DTD/svg11.dtd">
<svg xmlns:xlink="http://www.w3.org/1999/xlink" width="725.61625pt" height="579.878125pt" viewBox="0 0 725.61625 579.878125" xmlns="http://www.w3.org/2000/svg" version="1.1">
 <metadata>
  <rdf:RDF xmlns:dc="http://purl.org/dc/elements/1.1/" xmlns:cc="http://creativecommons.org/ns#" xmlns:rdf="http://www.w3.org/1999/02/22-rdf-syntax-ns#">
   <cc:Work>
    <dc:type rdf:resource="http://purl.org/dc/dcmitype/StillImage"/>
    <dc:date>2025-07-29T15:35:21.476925</dc:date>
    <dc:format>image/svg+xml</dc:format>
    <dc:creator>
     <cc:Agent>
      <dc:title>Matplotlib v3.8.4, https://matplotlib.org/</dc:title>
     </cc:Agent>
    </dc:creator>
   </cc:Work>
  </rdf:RDF>
 </metadata>
 <defs>
  <style type="text/css">*{stroke-linejoin: round; stroke-linecap: butt}</style>
 </defs>
 <g id="figure_1">
  <g id="patch_1">
   <path d="M 0 579.878125 
L 725.61625 579.878125 
L 725.61625 0 
L 0 0 
z
" style="fill: #ffffff"/>
  </g>
  <g id="axes_1">
   <g id="patch_2">
    <path d="M 68.08625 526.836875 
L 570.357739 526.836875 
L 570.357739 28.396875 
L 68.08625 28.396875 
z
" style="fill: #ffffff"/>
   </g>
   <g id="PolyCollection_1">
    <defs>
     <path id="mc0e0976b84" d="M 78.772877 -582.316455 
L 78.772877 -569.647327 
L 100.146132 -372.84874 
L 126.862701 -365.049488 
L 180.295838 -378.471162 
L 233.728975 -396.772997 
L 287.162112 -401.007462 
L 340.59525 -419.638113 
L 394.028387 -428.184801 
L 447.461524 -450.206872 
L 500.894661 -460.132199 
L 554.327798 -473.319419 
L 566.831152 -482.736761 
L 566.831152 -489.169812 
L 566.831152 -489.169812 
L 554.327798 -480.559786 
L 500.894661 -466.894338 
L 447.461524 -457.424939 
L 394.028387 -434.947231 
L 340.59525 -426.658366 
L 287.162112 -408.18214 
L 233.728975 -404.120041 
L 180.295838 -384.936158 
L 126.862701 -371.086907 
L 100.146132 -379.970444 
L 78.772877 -582.316455 
z
" style="stroke: #1f77b4; stroke-opacity: 0.2"/>
    </defs>
    <g clip-path="url(#p16a65b2ad4)">
     <use xlink:href="#mc0e0976b84" x="0" y="579.878125" style="fill: #1f77b4; fill-opacity: 0.2; stroke: #1f77b4; stroke-opacity: 0.2"/>
    </g>
   </g>
   <g id="PolyCollection_2">
    <defs>
     <path id="m937d01d721" d="M 78.772877 -566.802707 
L 78.772877 -554.652026 
L 100.146132 -378.073924 
L 126.862701 -360.214333 
L 180.295838 -357.326393 
L 233.728975 -357.601969 
L 287.162112 -349.453872 
L 340.59525 -352.012601 
L 394.028387 -344.462176 
L 447.461524 -352.95281 
L 500.894661 -344.132804 
L 554.327798 -347.1448 
L 566.831152 -353.286888 
L 566.831152 -360.292676 
L 566.831152 -360.292676 
L 554.327798 -353.142897 
L 500.894661 -348.814768 
L 447.461524 -359.798985 
L 394.028387 -350.440247 
L 340.59525 -358.738993 
L 287.162112 -355.478316 
L 233.728975 -364.324838 
L 180.295838 -362.873035 
L 126.862701 -365.955374 
L 100.146132 -384.398264 
L 78.772877 -566.802707 
z
" style="stroke: #ff7f0e; stroke-opacity: 0.2"/>
    </defs>
    <g clip-path="url(#p16a65b2ad4)">
     <use xlink:href="#m937d01d721" x="0" y="579.878125" style="fill: #ff7f0e; fill-opacity: 0.2; stroke: #ff7f0e; stroke-opacity: 0.2"/>
    </g>
   </g>
   <g id="PolyCollection_3">
    <defs>
     <path id="m1316d61980" d="M 78.772877 -69.11996 
L 78.772877 -69.11996 
L 100.146132 -69.11996 
L 126.862701 -69.11996 
L 180.295838 -69.11996 
L 233.728975 -69.11996 
L 287.162112 -69.11996 
L 340.59525 -69.11996 
L 394.028387 -69.11996 
L 447.461524 -69.11996 
L 500.894661 -69.11996 
L 554.327798 -69.11996 
L 566.831152 -69.11996 
L 566.831152 -69.11996 
L 566.831152 -69.11996 
L 554.327798 -69.11996 
L 500.894661 -69.11996 
L 447.461524 -69.11996 
L 394.028387 -69.11996 
L 340.59525 -69.11996 
L 287.162112 -69.11996 
L 233.728975 -69.11996 
L 180.295838 -69.11996 
L 126.862701 -69.11996 
L 100.146132 -69.11996 
L 78.772877 -69.11996 
z
" style="stroke: #2ca02c; stroke-opacity: 0.2"/>
    </defs>
    <g clip-path="url(#p16a65b2ad4)">
     <use xlink:href="#m1316d61980" x="0" y="579.878125" style="fill: #2ca02c; fill-opacity: 0.2; stroke: #2ca02c; stroke-opacity: 0.2"/>
    </g>
   </g>
   <g id="PolyCollection_4">
    <defs>
     <path id="maa44537e80" d="M 78.772877 -402.691794 
L 78.772877 -395.086614 
L 100.146132 -396.592285 
L 126.862701 -393.860216 
L 180.295838 -412.709689 
L 233.728975 -418.269453 
L 287.162112 -425.595821 
L 340.59525 -435.853415 
L 394.028387 -431.17765 
L 447.461524 -450.341139 
L 500.894661 -455.310476 
L 554.327798 -457.112996 
L 566.831152 -445.680433 
L 566.831152 -453.134473 
L 566.831152 -453.134473 
L 554.327798 -465.290894 
L 500.894661 -464.3708 
L 447.461524 -457.46063 
L 394.028387 -439.372169 
L 340.59525 -443.873208 
L 287.162112 -432.868831 
L 233.728975 -426.383551 
L 180.295838 -419.813111 
L 126.862701 -401.861551 
L 100.146132 -404.068326 
L 78.772877 -402.691794 
z
" style="stroke: #d62728; stroke-opacity: 0.2"/>
    </defs>
    <g clip-path="url(#p16a65b2ad4)">
     <use xlink:href="#maa44537e80" x="0" y="579.878125" style="fill: #d62728; fill-opacity: 0.2; stroke: #d62728; stroke-opacity: 0.2"/>
    </g>
   </g>
   <g id="PolyCollection_5">
    <defs>
     <path id="ma79269209b" d="M 78.772877 -370.888572 
L 78.772877 -364.032965 
L 100.146132 -348.38616 
L 126.862701 -347.252174 
L 180.295838 -350.454946 
L 233.728975 -340.513628 
L 287.162112 -347.095675 
L 340.59525 -347.67006 
L 394.028387 -350.276339 
L 447.461524 -347.023877 
L 500.894661 -352.139228 
L 554.327798 -347.031604 
L 566.831152 -347.603141 
L 566.831152 -353.695655 
L 566.831152 -353.695655 
L 554.327798 -352.874211 
L 500.894661 -357.954985 
L 447.461524 -352.665226 
L 394.028387 -356.196456 
L 340.59525 -353.076466 
L 287.162112 -352.921557 
L 233.728975 -346.678676 
L 180.295838 -356.354439 
L 126.862701 -353.498515 
L 100.146132 -354.98397 
L 78.772877 -370.888572 
z
" style="stroke: #9467bd; stroke-opacity: 0.2"/>
    </defs>
    <g clip-path="url(#p16a65b2ad4)">
     <use xlink:href="#ma79269209b" x="0" y="579.878125" style="fill: #9467bd; fill-opacity: 0.2; stroke: #9467bd; stroke-opacity: 0.2"/>
    </g>
   </g>
   <g id="matplotlib.axis_1">
    <g id="xtick_1">
     <g id="line2d_1">
      <defs>
       <path id="md6fdcf767f" d="M 0 0 
L 0 3.5 
" style="stroke: #000000; stroke-width: 0.8"/>
      </defs>
      <g>
       <use xlink:href="#md6fdcf767f" x="73.429564" y="526.836875" style="stroke: #000000; stroke-width: 0.8"/>
      </g>
     </g>
     <g id="text_1">
      <!-- 0 -->
      <g transform="translate(68.339564 545.994375) scale(0.16 -0.16)">
       <defs>
        <path id="DejaVuSans-30" d="M 2034 4250 
Q 1547 4250 1301 3770 
Q 1056 3291 1056 2328 
Q 1056 1369 1301 889 
Q 1547 409 2034 409 
Q 2525 409 2770 889 
Q 3016 1369 3016 2328 
Q 3016 3291 2770 3770 
Q 2525 4250 2034 4250 
z
M 2034 4750 
Q 2819 4750 3233 4129 
Q 3647 3509 3647 2328 
Q 3647 1150 3233 529 
Q 2819 -91 2034 -91 
Q 1250 -91 836 529 
Q 422 1150 422 2328 
Q 422 3509 836 4129 
Q 1250 4750 2034 4750 
z
" transform="scale(0.015625)"/>
       </defs>
       <use xlink:href="#DejaVuSans-30"/>
      </g>
     </g>
    </g>
    <g id="xtick_2">
     <g id="line2d_2">
      <g>
       <use xlink:href="#md6fdcf767f" x="180.295838" y="526.836875" style="stroke: #000000; stroke-width: 0.8"/>
      </g>
     </g>
     <g id="text_2">
      <!-- 2000 -->
      <g transform="translate(159.935838 545.994375) scale(0.16 -0.16)">
       <defs>
        <path id="DejaVuSans-32" d="M 1228 531 
L 3431 531 
L 3431 0 
L 469 0 
L 469 531 
Q 828 903 1448 1529 
Q 2069 2156 2228 2338 
Q 2531 2678 2651 2914 
Q 2772 3150 2772 3378 
Q 2772 3750 2511 3984 
Q 2250 4219 1831 4219 
Q 1534 4219 1204 4116 
Q 875 4013 500 3803 
L 500 4441 
Q 881 4594 1212 4672 
Q 1544 4750 1819 4750 
Q 2544 4750 2975 4387 
Q 3406 4025 3406 3419 
Q 3406 3131 3298 2873 
Q 3191 2616 2906 2266 
Q 2828 2175 2409 1742 
Q 1991 1309 1228 531 
z
" transform="scale(0.015625)"/>
       </defs>
       <use xlink:href="#DejaVuSans-32"/>
       <use xlink:href="#DejaVuSans-30" x="63.623047"/>
       <use xlink:href="#DejaVuSans-30" x="127.246094"/>
       <use xlink:href="#DejaVuSans-30" x="190.869141"/>
      </g>
     </g>
    </g>
    <g id="xtick_3">
     <g id="line2d_3">
      <g>
       <use xlink:href="#md6fdcf767f" x="287.162112" y="526.836875" style="stroke: #000000; stroke-width: 0.8"/>
      </g>
     </g>
     <g id="text_3">
      <!-- 4000 -->
      <g transform="translate(266.802112 545.994375) scale(0.16 -0.16)">
       <defs>
        <path id="DejaVuSans-34" d="M 2419 4116 
L 825 1625 
L 2419 1625 
L 2419 4116 
z
M 2253 4666 
L 3047 4666 
L 3047 1625 
L 3713 1625 
L 3713 1100 
L 3047 1100 
L 3047 0 
L 2419 0 
L 2419 1100 
L 313 1100 
L 313 1709 
L 2253 4666 
z
" transform="scale(0.015625)"/>
       </defs>
       <use xlink:href="#DejaVuSans-34"/>
       <use xlink:href="#DejaVuSans-30" x="63.623047"/>
       <use xlink:href="#DejaVuSans-30" x="127.246094"/>
       <use xlink:href="#DejaVuSans-30" x="190.869141"/>
      </g>
     </g>
    </g>
    <g id="xtick_4">
     <g id="line2d_4">
      <g>
       <use xlink:href="#md6fdcf767f" x="394.028387" y="526.836875" style="stroke: #000000; stroke-width: 0.8"/>
      </g>
     </g>
     <g id="text_4">
      <!-- 6000 -->
      <g transform="translate(373.668387 545.994375) scale(0.16 -0.16)">
       <defs>
        <path id="DejaVuSans-36" d="M 2113 2584 
Q 1688 2584 1439 2293 
Q 1191 2003 1191 1497 
Q 1191 994 1439 701 
Q 1688 409 2113 409 
Q 2538 409 2786 701 
Q 3034 994 3034 1497 
Q 3034 2003 2786 2293 
Q 2538 2584 2113 2584 
z
M 3366 4563 
L 3366 3988 
Q 3128 4100 2886 4159 
Q 2644 4219 2406 4219 
Q 1781 4219 1451 3797 
Q 1122 3375 1075 2522 
Q 1259 2794 1537 2939 
Q 1816 3084 2150 3084 
Q 2853 3084 3261 2657 
Q 3669 2231 3669 1497 
Q 3669 778 3244 343 
Q 2819 -91 2113 -91 
Q 1303 -91 875 529 
Q 447 1150 447 2328 
Q 447 3434 972 4092 
Q 1497 4750 2381 4750 
Q 2619 4750 2861 4703 
Q 3103 4656 3366 4563 
z
" transform="scale(0.015625)"/>
       </defs>
       <use xlink:href="#DejaVuSans-36"/>
       <use xlink:href="#DejaVuSans-30" x="63.623047"/>
       <use xlink:href="#DejaVuSans-30" x="127.246094"/>
       <use xlink:href="#DejaVuSans-30" x="190.869141"/>
      </g>
     </g>
    </g>
    <g id="xtick_5">
     <g id="line2d_5">
      <g>
       <use xlink:href="#md6fdcf767f" x="500.894661" y="526.836875" style="stroke: #000000; stroke-width: 0.8"/>
      </g>
     </g>
     <g id="text_5">
      <!-- 8000 -->
      <g transform="translate(480.534661 545.994375) scale(0.16 -0.16)">
       <defs>
        <path id="DejaVuSans-38" d="M 2034 2216 
Q 1584 2216 1326 1975 
Q 1069 1734 1069 1313 
Q 1069 891 1326 650 
Q 1584 409 2034 409 
Q 2484 409 2743 651 
Q 3003 894 3003 1313 
Q 3003 1734 2745 1975 
Q 2488 2216 2034 2216 
z
M 1403 2484 
Q 997 2584 770 2862 
Q 544 3141 544 3541 
Q 544 4100 942 4425 
Q 1341 4750 2034 4750 
Q 2731 4750 3128 4425 
Q 3525 4100 3525 3541 
Q 3525 3141 3298 2862 
Q 3072 2584 2669 2484 
Q 3125 2378 3379 2068 
Q 3634 1759 3634 1313 
Q 3634 634 3220 271 
Q 2806 -91 2034 -91 
Q 1263 -91 848 271 
Q 434 634 434 1313 
Q 434 1759 690 2068 
Q 947 2378 1403 2484 
z
M 1172 3481 
Q 1172 3119 1398 2916 
Q 1625 2713 2034 2713 
Q 2441 2713 2670 2916 
Q 2900 3119 2900 3481 
Q 2900 3844 2670 4047 
Q 2441 4250 2034 4250 
Q 1625 4250 1398 4047 
Q 1172 3844 1172 3481 
z
" transform="scale(0.015625)"/>
       </defs>
       <use xlink:href="#DejaVuSans-38"/>
       <use xlink:href="#DejaVuSans-30" x="63.623047"/>
       <use xlink:href="#DejaVuSans-30" x="127.246094"/>
       <use xlink:href="#DejaVuSans-30" x="190.869141"/>
      </g>
     </g>
    </g>
    <g id="xtick_6">
     <g id="line2d_6">
      <g>
       <use xlink:href="#md6fdcf767f" x="566.831152" y="526.836875" style="stroke: #000000; stroke-width: 0.8"/>
      </g>
     </g>
     <g id="text_6">
      <!-- 9234 -->
      <g transform="translate(546.471152 545.994375) scale(0.16 -0.16)">
       <defs>
        <path id="DejaVuSans-39" d="M 703 97 
L 703 672 
Q 941 559 1184 500 
Q 1428 441 1663 441 
Q 2288 441 2617 861 
Q 2947 1281 2994 2138 
Q 2813 1869 2534 1725 
Q 2256 1581 1919 1581 
Q 1219 1581 811 2004 
Q 403 2428 403 3163 
Q 403 3881 828 4315 
Q 1253 4750 1959 4750 
Q 2769 4750 3195 4129 
Q 3622 3509 3622 2328 
Q 3622 1225 3098 567 
Q 2575 -91 1691 -91 
Q 1453 -91 1209 -44 
Q 966 3 703 97 
z
M 1959 2075 
Q 2384 2075 2632 2365 
Q 2881 2656 2881 3163 
Q 2881 3666 2632 3958 
Q 2384 4250 1959 4250 
Q 1534 4250 1286 3958 
Q 1038 3666 1038 3163 
Q 1038 2656 1286 2365 
Q 1534 2075 1959 2075 
z
" transform="scale(0.015625)"/>
        <path id="DejaVuSans-33" d="M 2597 2516 
Q 3050 2419 3304 2112 
Q 3559 1806 3559 1356 
Q 3559 666 3084 287 
Q 2609 -91 1734 -91 
Q 1441 -91 1130 -33 
Q 819 25 488 141 
L 488 750 
Q 750 597 1062 519 
Q 1375 441 1716 441 
Q 2309 441 2620 675 
Q 2931 909 2931 1356 
Q 2931 1769 2642 2001 
Q 2353 2234 1838 2234 
L 1294 2234 
L 1294 2753 
L 1863 2753 
Q 2328 2753 2575 2939 
Q 2822 3125 2822 3475 
Q 2822 3834 2567 4026 
Q 2313 4219 1838 4219 
Q 1578 4219 1281 4162 
Q 984 4106 628 3988 
L 628 4550 
Q 988 4650 1302 4700 
Q 1616 4750 1894 4750 
Q 2613 4750 3031 4423 
Q 3450 4097 3450 3541 
Q 3450 3153 3228 2886 
Q 3006 2619 2597 2516 
z
" transform="scale(0.015625)"/>
       </defs>
       <use xlink:href="#DejaVuSans-39"/>
       <use xlink:href="#DejaVuSans-32" x="63.623047"/>
       <use xlink:href="#DejaVuSans-33" x="127.246094"/>
       <use xlink:href="#DejaVuSans-34" x="190.869141"/>
      </g>
     </g>
    </g>
    <g id="text_7">
     <!-- Number of stimuli-response pairs observed (N) -->
     <g transform="translate(84.734495 568.51875) scale(0.2 -0.2)">
      <defs>
       <path id="DejaVuSans-4e" d="M 628 4666 
L 1478 4666 
L 3547 763 
L 3547 4666 
L 4159 4666 
L 4159 0 
L 3309 0 
L 1241 3903 
L 1241 0 
L 628 0 
L 628 4666 
z
" transform="scale(0.015625)"/>
       <path id="DejaVuSans-75" d="M 544 1381 
L 544 3500 
L 1119 3500 
L 1119 1403 
Q 1119 906 1312 657 
Q 1506 409 1894 409 
Q 2359 409 2629 706 
Q 2900 1003 2900 1516 
L 2900 3500 
L 3475 3500 
L 3475 0 
L 2900 0 
L 2900 538 
Q 2691 219 2414 64 
Q 2138 -91 1772 -91 
Q 1169 -91 856 284 
Q 544 659 544 1381 
z
M 1991 3584 
L 1991 3584 
z
" transform="scale(0.015625)"/>
       <path id="DejaVuSans-6d" d="M 3328 2828 
Q 3544 3216 3844 3400 
Q 4144 3584 4550 3584 
Q 5097 3584 5394 3201 
Q 5691 2819 5691 2113 
L 5691 0 
L 5113 0 
L 5113 2094 
Q 5113 2597 4934 2840 
Q 4756 3084 4391 3084 
Q 3944 3084 3684 2787 
Q 3425 2491 3425 1978 
L 3425 0 
L 2847 0 
L 2847 2094 
Q 2847 2600 2669 2842 
Q 2491 3084 2119 3084 
Q 1678 3084 1418 2786 
Q 1159 2488 1159 1978 
L 1159 0 
L 581 0 
L 581 3500 
L 1159 3500 
L 1159 2956 
Q 1356 3278 1631 3431 
Q 1906 3584 2284 3584 
Q 2666 3584 2933 3390 
Q 3200 3197 3328 2828 
z
" transform="scale(0.015625)"/>
       <path id="DejaVuSans-62" d="M 3116 1747 
Q 3116 2381 2855 2742 
Q 2594 3103 2138 3103 
Q 1681 3103 1420 2742 
Q 1159 2381 1159 1747 
Q 1159 1113 1420 752 
Q 1681 391 2138 391 
Q 2594 391 2855 752 
Q 3116 1113 3116 1747 
z
M 1159 2969 
Q 1341 3281 1617 3432 
Q 1894 3584 2278 3584 
Q 2916 3584 3314 3078 
Q 3713 2572 3713 1747 
Q 3713 922 3314 415 
Q 2916 -91 2278 -91 
Q 1894 -91 1617 61 
Q 1341 213 1159 525 
L 1159 0 
L 581 0 
L 581 4863 
L 1159 4863 
L 1159 2969 
z
" transform="scale(0.015625)"/>
       <path id="DejaVuSans-65" d="M 3597 1894 
L 3597 1613 
L 953 1613 
Q 991 1019 1311 708 
Q 1631 397 2203 397 
Q 2534 397 2845 478 
Q 3156 559 3463 722 
L 3463 178 
Q 3153 47 2828 -22 
Q 2503 -91 2169 -91 
Q 1331 -91 842 396 
Q 353 884 353 1716 
Q 353 2575 817 3079 
Q 1281 3584 2069 3584 
Q 2775 3584 3186 3129 
Q 3597 2675 3597 1894 
z
M 3022 2063 
Q 3016 2534 2758 2815 
Q 2500 3097 2075 3097 
Q 1594 3097 1305 2825 
Q 1016 2553 972 2059 
L 3022 2063 
z
" transform="scale(0.015625)"/>
       <path id="DejaVuSans-72" d="M 2631 2963 
Q 2534 3019 2420 3045 
Q 2306 3072 2169 3072 
Q 1681 3072 1420 2755 
Q 1159 2438 1159 1844 
L 1159 0 
L 581 0 
L 581 3500 
L 1159 3500 
L 1159 2956 
Q 1341 3275 1631 3429 
Q 1922 3584 2338 3584 
Q 2397 3584 2469 3576 
Q 2541 3569 2628 3553 
L 2631 2963 
z
" transform="scale(0.015625)"/>
       <path id="DejaVuSans-20" transform="scale(0.015625)"/>
       <path id="DejaVuSans-6f" d="M 1959 3097 
Q 1497 3097 1228 2736 
Q 959 2375 959 1747 
Q 959 1119 1226 758 
Q 1494 397 1959 397 
Q 2419 397 2687 759 
Q 2956 1122 2956 1747 
Q 2956 2369 2687 2733 
Q 2419 3097 1959 3097 
z
M 1959 3584 
Q 2709 3584 3137 3096 
Q 3566 2609 3566 1747 
Q 3566 888 3137 398 
Q 2709 -91 1959 -91 
Q 1206 -91 779 398 
Q 353 888 353 1747 
Q 353 2609 779 3096 
Q 1206 3584 1959 3584 
z
" transform="scale(0.015625)"/>
       <path id="DejaVuSans-66" d="M 2375 4863 
L 2375 4384 
L 1825 4384 
Q 1516 4384 1395 4259 
Q 1275 4134 1275 3809 
L 1275 3500 
L 2222 3500 
L 2222 3053 
L 1275 3053 
L 1275 0 
L 697 0 
L 697 3053 
L 147 3053 
L 147 3500 
L 697 3500 
L 697 3744 
Q 697 4328 969 4595 
Q 1241 4863 1831 4863 
L 2375 4863 
z
" transform="scale(0.015625)"/>
       <path id="DejaVuSans-73" d="M 2834 3397 
L 2834 2853 
Q 2591 2978 2328 3040 
Q 2066 3103 1784 3103 
Q 1356 3103 1142 2972 
Q 928 2841 928 2578 
Q 928 2378 1081 2264 
Q 1234 2150 1697 2047 
L 1894 2003 
Q 2506 1872 2764 1633 
Q 3022 1394 3022 966 
Q 3022 478 2636 193 
Q 2250 -91 1575 -91 
Q 1294 -91 989 -36 
Q 684 19 347 128 
L 347 722 
Q 666 556 975 473 
Q 1284 391 1588 391 
Q 1994 391 2212 530 
Q 2431 669 2431 922 
Q 2431 1156 2273 1281 
Q 2116 1406 1581 1522 
L 1381 1569 
Q 847 1681 609 1914 
Q 372 2147 372 2553 
Q 372 3047 722 3315 
Q 1072 3584 1716 3584 
Q 2034 3584 2315 3537 
Q 2597 3491 2834 3397 
z
" transform="scale(0.015625)"/>
       <path id="DejaVuSans-74" d="M 1172 4494 
L 1172 3500 
L 2356 3500 
L 2356 3053 
L 1172 3053 
L 1172 1153 
Q 1172 725 1289 603 
Q 1406 481 1766 481 
L 2356 481 
L 2356 0 
L 1766 0 
Q 1100 0 847 248 
Q 594 497 594 1153 
L 594 3053 
L 172 3053 
L 172 3500 
L 594 3500 
L 594 4494 
L 1172 4494 
z
" transform="scale(0.015625)"/>
       <path id="DejaVuSans-69" d="M 603 3500 
L 1178 3500 
L 1178 0 
L 603 0 
L 603 3500 
z
M 603 4863 
L 1178 4863 
L 1178 4134 
L 603 4134 
L 603 4863 
z
" transform="scale(0.015625)"/>
       <path id="DejaVuSans-6c" d="M 603 4863 
L 1178 4863 
L 1178 0 
L 603 0 
L 603 4863 
z
" transform="scale(0.015625)"/>
       <path id="DejaVuSans-2d" d="M 313 2009 
L 1997 2009 
L 1997 1497 
L 313 1497 
L 313 2009 
z
" transform="scale(0.015625)"/>
       <path id="DejaVuSans-70" d="M 1159 525 
L 1159 -1331 
L 581 -1331 
L 581 3500 
L 1159 3500 
L 1159 2969 
Q 1341 3281 1617 3432 
Q 1894 3584 2278 3584 
Q 2916 3584 3314 3078 
Q 3713 2572 3713 1747 
Q 3713 922 3314 415 
Q 2916 -91 2278 -91 
Q 1894 -91 1617 61 
Q 1341 213 1159 525 
z
M 3116 1747 
Q 3116 2381 2855 2742 
Q 2594 3103 2138 3103 
Q 1681 3103 1420 2742 
Q 1159 2381 1159 1747 
Q 1159 1113 1420 752 
Q 1681 391 2138 391 
Q 2594 391 2855 752 
Q 3116 1113 3116 1747 
z
" transform="scale(0.015625)"/>
       <path id="DejaVuSans-6e" d="M 3513 2113 
L 3513 0 
L 2938 0 
L 2938 2094 
Q 2938 2591 2744 2837 
Q 2550 3084 2163 3084 
Q 1697 3084 1428 2787 
Q 1159 2491 1159 1978 
L 1159 0 
L 581 0 
L 581 3500 
L 1159 3500 
L 1159 2956 
Q 1366 3272 1645 3428 
Q 1925 3584 2291 3584 
Q 2894 3584 3203 3211 
Q 3513 2838 3513 2113 
z
" transform="scale(0.015625)"/>
       <path id="DejaVuSans-61" d="M 2194 1759 
Q 1497 1759 1228 1600 
Q 959 1441 959 1056 
Q 959 750 1161 570 
Q 1363 391 1709 391 
Q 2188 391 2477 730 
Q 2766 1069 2766 1631 
L 2766 1759 
L 2194 1759 
z
M 3341 1997 
L 3341 0 
L 2766 0 
L 2766 531 
Q 2569 213 2275 61 
Q 1981 -91 1556 -91 
Q 1019 -91 701 211 
Q 384 513 384 1019 
Q 384 1609 779 1909 
Q 1175 2209 1959 2209 
L 2766 2209 
L 2766 2266 
Q 2766 2663 2505 2880 
Q 2244 3097 1772 3097 
Q 1472 3097 1187 3025 
Q 903 2953 641 2809 
L 641 3341 
Q 956 3463 1253 3523 
Q 1550 3584 1831 3584 
Q 2591 3584 2966 3190 
Q 3341 2797 3341 1997 
z
" transform="scale(0.015625)"/>
       <path id="DejaVuSans-76" d="M 191 3500 
L 800 3500 
L 1894 563 
L 2988 3500 
L 3597 3500 
L 2284 0 
L 1503 0 
L 191 3500 
z
" transform="scale(0.015625)"/>
       <path id="DejaVuSans-64" d="M 2906 2969 
L 2906 4863 
L 3481 4863 
L 3481 0 
L 2906 0 
L 2906 525 
Q 2725 213 2448 61 
Q 2172 -91 1784 -91 
Q 1150 -91 751 415 
Q 353 922 353 1747 
Q 353 2572 751 3078 
Q 1150 3584 1784 3584 
Q 2172 3584 2448 3432 
Q 2725 3281 2906 2969 
z
M 947 1747 
Q 947 1113 1208 752 
Q 1469 391 1925 391 
Q 2381 391 2643 752 
Q 2906 1113 2906 1747 
Q 2906 2381 2643 2742 
Q 2381 3103 1925 3103 
Q 1469 3103 1208 2742 
Q 947 2381 947 1747 
z
" transform="scale(0.015625)"/>
       <path id="DejaVuSans-28" d="M 1984 4856 
Q 1566 4138 1362 3434 
Q 1159 2731 1159 2009 
Q 1159 1288 1364 580 
Q 1569 -128 1984 -844 
L 1484 -844 
Q 1016 -109 783 600 
Q 550 1309 550 2009 
Q 550 2706 781 3412 
Q 1013 4119 1484 4856 
L 1984 4856 
z
" transform="scale(0.015625)"/>
       <path id="DejaVuSans-29" d="M 513 4856 
L 1013 4856 
Q 1481 4119 1714 3412 
Q 1947 2706 1947 2009 
Q 1947 1309 1714 600 
Q 1481 -109 1013 -844 
L 513 -844 
Q 928 -128 1133 580 
Q 1338 1288 1338 2009 
Q 1338 2731 1133 3434 
Q 928 4138 513 4856 
z
" transform="scale(0.015625)"/>
      </defs>
      <use xlink:href="#DejaVuSans-4e"/>
      <use xlink:href="#DejaVuSans-75" x="74.804688"/>
      <use xlink:href="#DejaVuSans-6d" x="138.183594"/>
      <use xlink:href="#DejaVuSans-62" x="235.595703"/>
      <use xlink:href="#DejaVuSans-65" x="299.072266"/>
      <use xlink:href="#DejaVuSans-72" x="360.595703"/>
      <use xlink:href="#DejaVuSans-20" x="401.708984"/>
      <use xlink:href="#DejaVuSans-6f" x="433.496094"/>
      <use xlink:href="#DejaVuSans-66" x="494.677734"/>
      <use xlink:href="#DejaVuSans-20" x="529.882812"/>
      <use xlink:href="#DejaVuSans-73" x="561.669922"/>
      <use xlink:href="#DejaVuSans-74" x="613.769531"/>
      <use xlink:href="#DejaVuSans-69" x="652.978516"/>
      <use xlink:href="#DejaVuSans-6d" x="680.761719"/>
      <use xlink:href="#DejaVuSans-75" x="778.173828"/>
      <use xlink:href="#DejaVuSans-6c" x="841.552734"/>
      <use xlink:href="#DejaVuSans-69" x="869.335938"/>
      <use xlink:href="#DejaVuSans-2d" x="897.119141"/>
      <use xlink:href="#DejaVuSans-72" x="933.203125"/>
      <use xlink:href="#DejaVuSans-65" x="972.066406"/>
      <use xlink:href="#DejaVuSans-73" x="1033.589844"/>
      <use xlink:href="#DejaVuSans-70" x="1085.689453"/>
      <use xlink:href="#DejaVuSans-6f" x="1149.166016"/>
      <use xlink:href="#DejaVuSans-6e" x="1210.347656"/>
      <use xlink:href="#DejaVuSans-73" x="1273.726562"/>
      <use xlink:href="#DejaVuSans-65" x="1325.826172"/>
      <use xlink:href="#DejaVuSans-20" x="1387.349609"/>
      <use xlink:href="#DejaVuSans-70" x="1419.136719"/>
      <use xlink:href="#DejaVuSans-61" x="1482.613281"/>
      <use xlink:href="#DejaVuSans-69" x="1543.892578"/>
      <use xlink:href="#DejaVuSans-72" x="1571.675781"/>
      <use xlink:href="#DejaVuSans-73" x="1612.789062"/>
      <use xlink:href="#DejaVuSans-20" x="1664.888672"/>
      <use xlink:href="#DejaVuSans-6f" x="1696.675781"/>
      <use xlink:href="#DejaVuSans-62" x="1757.857422"/>
      <use xlink:href="#DejaVuSans-73" x="1821.333984"/>
      <use xlink:href="#DejaVuSans-65" x="1873.433594"/>
      <use xlink:href="#DejaVuSans-72" x="1934.957031"/>
      <use xlink:href="#DejaVuSans-76" x="1976.070312"/>
      <use xlink:href="#DejaVuSans-65" x="2035.25"/>
      <use xlink:href="#DejaVuSans-64" x="2096.773438"/>
      <use xlink:href="#DejaVuSans-20" x="2160.25"/>
      <use xlink:href="#DejaVuSans-28" x="2192.037109"/>
      <use xlink:href="#DejaVuSans-4e" x="2231.050781"/>
      <use xlink:href="#DejaVuSans-29" x="2305.855469"/>
     </g>
    </g>
   </g>
   <g id="matplotlib.axis_2">
    <g id="ytick_1">
     <g id="line2d_7">
      <defs>
       <path id="m82deae5c9b" d="M 0 0 
L -3.5 0 
" style="stroke: #000000; stroke-width: 0.8"/>
      </defs>
      <g>
       <use xlink:href="#m82deae5c9b" x="68.08625" y="510.758165" style="stroke: #000000; stroke-width: 0.8"/>
      </g>
     </g>
     <g id="text_8">
      <!-- 0.0  -->
      <g transform="translate(30.55625 516.836915) scale(0.16 -0.16)">
       <defs>
        <path id="DejaVuSans-2e" d="M 684 794 
L 1344 794 
L 1344 0 
L 684 0 
L 684 794 
z
" transform="scale(0.015625)"/>
       </defs>
       <use xlink:href="#DejaVuSans-30"/>
       <use xlink:href="#DejaVuSans-2e" x="63.623047"/>
       <use xlink:href="#DejaVuSans-30" x="95.410156"/>
       <use xlink:href="#DejaVuSans-20" x="159.033203"/>
      </g>
     </g>
    </g>
    <g id="ytick_2">
     <g id="line2d_8">
      <g>
       <use xlink:href="#m82deae5c9b" x="68.08625" y="430.364617" style="stroke: #000000; stroke-width: 0.8"/>
      </g>
     </g>
     <g id="text_9">
      <!-- 0.5  -->
      <g transform="translate(30.55625 436.443367) scale(0.16 -0.16)">
       <defs>
        <path id="DejaVuSans-35" d="M 691 4666 
L 3169 4666 
L 3169 4134 
L 1269 4134 
L 1269 2991 
Q 1406 3038 1543 3061 
Q 1681 3084 1819 3084 
Q 2600 3084 3056 2656 
Q 3513 2228 3513 1497 
Q 3513 744 3044 326 
Q 2575 -91 1722 -91 
Q 1428 -91 1123 -41 
Q 819 9 494 109 
L 494 744 
Q 775 591 1075 516 
Q 1375 441 1709 441 
Q 2250 441 2565 725 
Q 2881 1009 2881 1497 
Q 2881 1984 2565 2268 
Q 2250 2553 1709 2553 
Q 1456 2553 1204 2497 
Q 953 2441 691 2322 
L 691 4666 
z
" transform="scale(0.015625)"/>
       </defs>
       <use xlink:href="#DejaVuSans-30"/>
       <use xlink:href="#DejaVuSans-2e" x="63.623047"/>
       <use xlink:href="#DejaVuSans-35" x="95.410156"/>
       <use xlink:href="#DejaVuSans-20" x="159.033203"/>
      </g>
     </g>
    </g>
    <g id="ytick_3">
     <g id="line2d_9">
      <g>
       <use xlink:href="#m82deae5c9b" x="68.08625" y="349.971069" style="stroke: #000000; stroke-width: 0.8"/>
      </g>
     </g>
     <g id="text_10">
      <!-- 1.0  -->
      <g transform="translate(30.55625 356.049819) scale(0.16 -0.16)">
       <defs>
        <path id="DejaVuSans-31" d="M 794 531 
L 1825 531 
L 1825 4091 
L 703 3866 
L 703 4441 
L 1819 4666 
L 2450 4666 
L 2450 531 
L 3481 531 
L 3481 0 
L 794 0 
L 794 531 
z
" transform="scale(0.015625)"/>
       </defs>
       <use xlink:href="#DejaVuSans-31"/>
       <use xlink:href="#DejaVuSans-2e" x="63.623047"/>
       <use xlink:href="#DejaVuSans-30" x="95.410156"/>
       <use xlink:href="#DejaVuSans-20" x="159.033203"/>
      </g>
     </g>
    </g>
    <g id="ytick_4">
     <g id="line2d_10">
      <g>
       <use xlink:href="#m82deae5c9b" x="68.08625" y="269.57752" style="stroke: #000000; stroke-width: 0.8"/>
      </g>
     </g>
     <g id="text_11">
      <!-- 1.5  -->
      <g transform="translate(30.55625 275.65627) scale(0.16 -0.16)">
       <use xlink:href="#DejaVuSans-31"/>
       <use xlink:href="#DejaVuSans-2e" x="63.623047"/>
       <use xlink:href="#DejaVuSans-35" x="95.410156"/>
       <use xlink:href="#DejaVuSans-20" x="159.033203"/>
      </g>
     </g>
    </g>
    <g id="ytick_5">
     <g id="line2d_11">
      <g>
       <use xlink:href="#m82deae5c9b" x="68.08625" y="189.183972" style="stroke: #000000; stroke-width: 0.8"/>
      </g>
     </g>
     <g id="text_12">
      <!-- 2.0  -->
      <g transform="translate(30.55625 195.262722) scale(0.16 -0.16)">
       <use xlink:href="#DejaVuSans-32"/>
       <use xlink:href="#DejaVuSans-2e" x="63.623047"/>
       <use xlink:href="#DejaVuSans-30" x="95.410156"/>
       <use xlink:href="#DejaVuSans-20" x="159.033203"/>
      </g>
     </g>
    </g>
    <g id="ytick_6">
     <g id="line2d_12">
      <g>
       <use xlink:href="#m82deae5c9b" x="68.08625" y="108.790423" style="stroke: #000000; stroke-width: 0.8"/>
      </g>
     </g>
     <g id="text_13">
      <!-- 2.5  -->
      <g transform="translate(30.55625 114.869173) scale(0.16 -0.16)">
       <use xlink:href="#DejaVuSans-32"/>
       <use xlink:href="#DejaVuSans-2e" x="63.623047"/>
       <use xlink:href="#DejaVuSans-35" x="95.410156"/>
       <use xlink:href="#DejaVuSans-20" x="159.033203"/>
      </g>
     </g>
    </g>
    <g id="ytick_7">
     <g id="line2d_13">
      <g>
       <use xlink:href="#m82deae5c9b" x="68.08625" y="28.396875" style="stroke: #000000; stroke-width: 0.8"/>
      </g>
     </g>
     <g id="text_14">
      <!-- 3.0  -->
      <g transform="translate(30.55625 34.475625) scale(0.16 -0.16)">
       <use xlink:href="#DejaVuSans-33"/>
       <use xlink:href="#DejaVuSans-2e" x="63.623047"/>
       <use xlink:href="#DejaVuSans-30" x="95.410156"/>
       <use xlink:href="#DejaVuSans-20" x="159.033203"/>
      </g>
     </g>
    </g>
    <g id="text_15">
     <!-- Range to Noise Ratio -->
     <g transform="translate(22.396875 382.290313) rotate(-90) scale(0.2 -0.2)">
      <defs>
       <path id="DejaVuSans-52" d="M 2841 2188 
Q 3044 2119 3236 1894 
Q 3428 1669 3622 1275 
L 4263 0 
L 3584 0 
L 2988 1197 
Q 2756 1666 2539 1819 
Q 2322 1972 1947 1972 
L 1259 1972 
L 1259 0 
L 628 0 
L 628 4666 
L 2053 4666 
Q 2853 4666 3247 4331 
Q 3641 3997 3641 3322 
Q 3641 2881 3436 2590 
Q 3231 2300 2841 2188 
z
M 1259 4147 
L 1259 2491 
L 2053 2491 
Q 2509 2491 2742 2702 
Q 2975 2913 2975 3322 
Q 2975 3731 2742 3939 
Q 2509 4147 2053 4147 
L 1259 4147 
z
" transform="scale(0.015625)"/>
       <path id="DejaVuSans-67" d="M 2906 1791 
Q 2906 2416 2648 2759 
Q 2391 3103 1925 3103 
Q 1463 3103 1205 2759 
Q 947 2416 947 1791 
Q 947 1169 1205 825 
Q 1463 481 1925 481 
Q 2391 481 2648 825 
Q 2906 1169 2906 1791 
z
M 3481 434 
Q 3481 -459 3084 -895 
Q 2688 -1331 1869 -1331 
Q 1566 -1331 1297 -1286 
Q 1028 -1241 775 -1147 
L 775 -588 
Q 1028 -725 1275 -790 
Q 1522 -856 1778 -856 
Q 2344 -856 2625 -561 
Q 2906 -266 2906 331 
L 2906 616 
Q 2728 306 2450 153 
Q 2172 0 1784 0 
Q 1141 0 747 490 
Q 353 981 353 1791 
Q 353 2603 747 3093 
Q 1141 3584 1784 3584 
Q 2172 3584 2450 3431 
Q 2728 3278 2906 2969 
L 2906 3500 
L 3481 3500 
L 3481 434 
z
" transform="scale(0.015625)"/>
      </defs>
      <use xlink:href="#DejaVuSans-52"/>
      <use xlink:href="#DejaVuSans-61" x="67.232422"/>
      <use xlink:href="#DejaVuSans-6e" x="128.511719"/>
      <use xlink:href="#DejaVuSans-67" x="191.890625"/>
      <use xlink:href="#DejaVuSans-65" x="255.367188"/>
      <use xlink:href="#DejaVuSans-20" x="316.890625"/>
      <use xlink:href="#DejaVuSans-74" x="348.677734"/>
      <use xlink:href="#DejaVuSans-6f" x="387.886719"/>
      <use xlink:href="#DejaVuSans-20" x="449.068359"/>
      <use xlink:href="#DejaVuSans-4e" x="480.855469"/>
      <use xlink:href="#DejaVuSans-6f" x="555.660156"/>
      <use xlink:href="#DejaVuSans-69" x="616.841797"/>
      <use xlink:href="#DejaVuSans-73" x="644.625"/>
      <use xlink:href="#DejaVuSans-65" x="696.724609"/>
      <use xlink:href="#DejaVuSans-20" x="758.248047"/>
      <use xlink:href="#DejaVuSans-52" x="790.035156"/>
      <use xlink:href="#DejaVuSans-61" x="857.267578"/>
      <use xlink:href="#DejaVuSans-74" x="918.546875"/>
      <use xlink:href="#DejaVuSans-69" x="957.755859"/>
      <use xlink:href="#DejaVuSans-6f" x="985.539062"/>
     </g>
    </g>
   </g>
   <g id="line2d_14">
    <path d="M 78.772877 3.896234 
L 100.146132 203.468533 
L 126.862701 211.809927 
L 180.295838 198.174465 
L 233.728975 179.431606 
L 287.162112 175.283324 
L 340.59525 156.729886 
L 394.028387 148.312109 
L 447.461524 126.06222 
L 500.894661 116.364857 
L 554.327798 102.938522 
L 566.831152 93.924838 
" clip-path="url(#p16a65b2ad4)" style="fill: none; stroke: #1f77b4; stroke-width: 1.5; stroke-linecap: square"/>
   </g>
   <g id="line2d_15">
    <path d="M 78.772877 19.150758 
L 100.146132 198.642031 
L 126.862701 216.793271 
L 180.295838 219.778411 
L 233.728975 218.914722 
L 287.162112 227.412031 
L 340.59525 224.502328 
L 394.028387 232.426913 
L 447.461524 223.502227 
L 500.894661 233.404339 
L 554.327798 229.734276 
L 566.831152 223.088343 
" clip-path="url(#p16a65b2ad4)" style="fill: none; stroke: #ff7f0e; stroke-width: 1.5; stroke-linecap: square"/>
   </g>
   <g id="line2d_16">
    <path d="M 78.772877 510.758165 
L 100.146132 510.758165 
L 126.862701 510.758165 
L 180.295838 510.758165 
L 233.728975 510.758165 
L 287.162112 510.758165 
L 340.59525 510.758165 
L 394.028387 510.758165 
L 447.461524 510.758165 
L 500.894661 510.758165 
L 554.327798 510.758165 
L 566.831152 510.758165 
" clip-path="url(#p16a65b2ad4)" style="fill: none; stroke: #2ca02c; stroke-width: 1.5; stroke-linecap: square"/>
   </g>
   <g id="line2d_17">
    <path d="M 78.772877 180.988921 
L 100.146132 179.547819 
L 126.862701 182.017241 
L 180.295838 163.616725 
L 233.728975 157.551623 
L 287.162112 150.645799 
L 340.59525 140.014814 
L 394.028387 144.603215 
L 447.461524 125.97724 
L 500.894661 120.037487 
L 554.327798 118.67618 
L 566.831152 130.470672 
" clip-path="url(#p16a65b2ad4)" style="fill: none; stroke: #d62728; stroke-width: 1.5; stroke-linecap: square"/>
   </g>
   <g id="line2d_18">
    <path d="M 78.772877 212.417357 
L 100.146132 228.19306 
L 126.862701 229.502781 
L 180.295838 226.473433 
L 233.728975 236.281973 
L 287.162112 229.869509 
L 340.59525 229.504862 
L 394.028387 226.641727 
L 447.461524 230.033574 
L 500.894661 224.831019 
L 554.327798 229.925218 
L 566.831152 229.228727 
" clip-path="url(#p16a65b2ad4)" style="fill: none; stroke: #9467bd; stroke-width: 1.5; stroke-linecap: square"/>
   </g>
   <g id="line2d_19"/>
   <g id="line2d_20"/>
   <g id="line2d_21"/>
   <g id="line2d_22"/>
   <g id="line2d_23"/>
   <g id="patch_3">
    <path d="M 68.08625 526.836875 
L 68.08625 28.396875 
" style="fill: none; stroke: #000000; stroke-width: 0.8; stroke-linejoin: miter; stroke-linecap: square"/>
   </g>
   <g id="patch_4">
    <path d="M 570.357739 526.836875 
L 570.357739 28.396875 
" style="fill: none; stroke: #000000; stroke-width: 0.8; stroke-linejoin: miter; stroke-linecap: square"/>
   </g>
   <g id="patch_5">
    <path d="M 68.08625 526.836875 
L 570.357739 526.836875 
" style="fill: none; stroke: #000000; stroke-width: 0.8; stroke-linejoin: miter; stroke-linecap: square"/>
   </g>
   <g id="patch_6">
    <path d="M 68.08625 28.396875 
L 570.357739 28.396875 
" style="fill: none; stroke: #000000; stroke-width: 0.8; stroke-linejoin: miter; stroke-linecap: square"/>
   </g>
   <g id="text_16">
    <!-- N vs Range to Noise Ratio (± ste) -->
    <g transform="translate(151.761057 22.396875) scale(0.2 -0.2)">
     <defs>
      <path id="DejaVuSans-b1" d="M 2944 4013 
L 2944 2803 
L 4684 2803 
L 4684 2272 
L 2944 2272 
L 2944 1063 
L 2419 1063 
L 2419 2272 
L 678 2272 
L 678 2803 
L 2419 2803 
L 2419 4013 
L 2944 4013 
z
M 678 531 
L 4684 531 
L 4684 0 
L 678 0 
L 678 531 
z
" transform="scale(0.015625)"/>
     </defs>
     <use xlink:href="#DejaVuSans-4e"/>
     <use xlink:href="#DejaVuSans-20" x="74.804688"/>
     <use xlink:href="#DejaVuSans-76" x="106.591797"/>
     <use xlink:href="#DejaVuSans-73" x="165.771484"/>
     <use xlink:href="#DejaVuSans-20" x="217.871094"/>
     <use xlink:href="#DejaVuSans-52" x="249.658203"/>
     <use xlink:href="#DejaVuSans-61" x="316.890625"/>
     <use xlink:href="#DejaVuSans-6e" x="378.169922"/>
     <use xlink:href="#DejaVuSans-67" x="441.548828"/>
     <use xlink:href="#DejaVuSans-65" x="505.025391"/>
     <use xlink:href="#DejaVuSans-20" x="566.548828"/>
     <use xlink:href="#DejaVuSans-74" x="598.335938"/>
     <use xlink:href="#DejaVuSans-6f" x="637.544922"/>
     <use xlink:href="#DejaVuSans-20" x="698.726562"/>
     <use xlink:href="#DejaVuSans-4e" x="730.513672"/>
     <use xlink:href="#DejaVuSans-6f" x="805.318359"/>
     <use xlink:href="#DejaVuSans-69" x="866.5"/>
     <use xlink:href="#DejaVuSans-73" x="894.283203"/>
     <use xlink:href="#DejaVuSans-65" x="946.382812"/>
     <use xlink:href="#DejaVuSans-20" x="1007.90625"/>
     <use xlink:href="#DejaVuSans-52" x="1039.693359"/>
     <use xlink:href="#DejaVuSans-61" x="1106.925781"/>
     <use xlink:href="#DejaVuSans-74" x="1168.205078"/>
     <use xlink:href="#DejaVuSans-69" x="1207.414062"/>
     <use xlink:href="#DejaVuSans-6f" x="1235.197266"/>
     <use xlink:href="#DejaVuSans-20" x="1296.378906"/>
     <use xlink:href="#DejaVuSans-28" x="1328.166016"/>
     <use xlink:href="#DejaVuSans-b1" x="1367.179688"/>
     <use xlink:href="#DejaVuSans-20" x="1450.96875"/>
     <use xlink:href="#DejaVuSans-73" x="1482.755859"/>
     <use xlink:href="#DejaVuSans-74" x="1534.855469"/>
     <use xlink:href="#DejaVuSans-65" x="1574.064453"/>
     <use xlink:href="#DejaVuSans-29" x="1635.587891"/>
    </g>
   </g>
   <g id="legend_1">
    <g id="patch_7">
     <path d="M 82.267716 455.700313 
L 305.040529 455.700313 
Q 307.840529 455.700313 307.840529 452.900313 
L 307.840529 351.553438 
Q 307.840529 348.753438 305.040529 348.753438 
L 82.267716 348.753438 
Q 79.467716 348.753438 79.467716 351.553438 
L 79.467716 452.900313 
Q 79.467716 455.700313 82.267716 455.700313 
z
" style="fill: #ffffff; opacity: 0.8; stroke: #cccccc; stroke-linejoin: miter"/>
    </g>
    <g id="line2d_24">
     <path d="M 85.067716 360.09125 
L 99.067716 360.09125 
L 113.067716 360.09125 
" style="fill: none; stroke: #1f77b4; stroke-width: 1.5; stroke-linecap: square"/>
    </g>
    <g id="text_17">
     <!-- Linear Regression -->
     <g transform="translate(124.267716 364.99125) scale(0.14 -0.14)">
      <defs>
       <path id="DejaVuSans-4c" d="M 628 4666 
L 1259 4666 
L 1259 531 
L 3531 531 
L 3531 0 
L 628 0 
L 628 4666 
z
" transform="scale(0.015625)"/>
      </defs>
      <use xlink:href="#DejaVuSans-4c"/>
      <use xlink:href="#DejaVuSans-69" x="55.712891"/>
      <use xlink:href="#DejaVuSans-6e" x="83.496094"/>
      <use xlink:href="#DejaVuSans-65" x="146.875"/>
      <use xlink:href="#DejaVuSans-61" x="208.398438"/>
      <use xlink:href="#DejaVuSans-72" x="269.677734"/>
      <use xlink:href="#DejaVuSans-20" x="310.791016"/>
      <use xlink:href="#DejaVuSans-52" x="342.578125"/>
      <use xlink:href="#DejaVuSans-65" x="407.560547"/>
      <use xlink:href="#DejaVuSans-67" x="469.083984"/>
      <use xlink:href="#DejaVuSans-72" x="532.560547"/>
      <use xlink:href="#DejaVuSans-65" x="571.423828"/>
      <use xlink:href="#DejaVuSans-73" x="632.947266"/>
      <use xlink:href="#DejaVuSans-73" x="685.046875"/>
      <use xlink:href="#DejaVuSans-69" x="737.146484"/>
      <use xlink:href="#DejaVuSans-6f" x="764.929688"/>
      <use xlink:href="#DejaVuSans-6e" x="826.111328"/>
     </g>
    </g>
    <g id="line2d_25">
     <path d="M 85.067716 380.640625 
L 99.067716 380.640625 
L 113.067716 380.640625 
" style="fill: none; stroke: #ff7f0e; stroke-width: 1.5; stroke-linecap: square"/>
    </g>
    <g id="text_18">
     <!-- Shuffle Linear Regression -->
     <g transform="translate(124.267716 385.540625) scale(0.14 -0.14)">
      <defs>
       <path id="DejaVuSans-53" d="M 3425 4513 
L 3425 3897 
Q 3066 4069 2747 4153 
Q 2428 4238 2131 4238 
Q 1616 4238 1336 4038 
Q 1056 3838 1056 3469 
Q 1056 3159 1242 3001 
Q 1428 2844 1947 2747 
L 2328 2669 
Q 3034 2534 3370 2195 
Q 3706 1856 3706 1288 
Q 3706 609 3251 259 
Q 2797 -91 1919 -91 
Q 1588 -91 1214 -16 
Q 841 59 441 206 
L 441 856 
Q 825 641 1194 531 
Q 1563 422 1919 422 
Q 2459 422 2753 634 
Q 3047 847 3047 1241 
Q 3047 1584 2836 1778 
Q 2625 1972 2144 2069 
L 1759 2144 
Q 1053 2284 737 2584 
Q 422 2884 422 3419 
Q 422 4038 858 4394 
Q 1294 4750 2059 4750 
Q 2388 4750 2728 4690 
Q 3069 4631 3425 4513 
z
" transform="scale(0.015625)"/>
       <path id="DejaVuSans-68" d="M 3513 2113 
L 3513 0 
L 2938 0 
L 2938 2094 
Q 2938 2591 2744 2837 
Q 2550 3084 2163 3084 
Q 1697 3084 1428 2787 
Q 1159 2491 1159 1978 
L 1159 0 
L 581 0 
L 581 4863 
L 1159 4863 
L 1159 2956 
Q 1366 3272 1645 3428 
Q 1925 3584 2291 3584 
Q 2894 3584 3203 3211 
Q 3513 2838 3513 2113 
z
" transform="scale(0.015625)"/>
      </defs>
      <use xlink:href="#DejaVuSans-53"/>
      <use xlink:href="#DejaVuSans-68" x="63.476562"/>
      <use xlink:href="#DejaVuSans-75" x="126.855469"/>
      <use xlink:href="#DejaVuSans-66" x="190.234375"/>
      <use xlink:href="#DejaVuSans-66" x="225.439453"/>
      <use xlink:href="#DejaVuSans-6c" x="260.644531"/>
      <use xlink:href="#DejaVuSans-65" x="288.427734"/>
      <use xlink:href="#DejaVuSans-20" x="349.951172"/>
      <use xlink:href="#DejaVuSans-4c" x="381.738281"/>
      <use xlink:href="#DejaVuSans-69" x="437.451172"/>
      <use xlink:href="#DejaVuSans-6e" x="465.234375"/>
      <use xlink:href="#DejaVuSans-65" x="528.613281"/>
      <use xlink:href="#DejaVuSans-61" x="590.136719"/>
      <use xlink:href="#DejaVuSans-72" x="651.416016"/>
      <use xlink:href="#DejaVuSans-20" x="692.529297"/>
      <use xlink:href="#DejaVuSans-52" x="724.316406"/>
      <use xlink:href="#DejaVuSans-65" x="789.298828"/>
      <use xlink:href="#DejaVuSans-67" x="850.822266"/>
      <use xlink:href="#DejaVuSans-72" x="914.298828"/>
      <use xlink:href="#DejaVuSans-65" x="953.162109"/>
      <use xlink:href="#DejaVuSans-73" x="1014.685547"/>
      <use xlink:href="#DejaVuSans-73" x="1066.785156"/>
      <use xlink:href="#DejaVuSans-69" x="1118.884766"/>
      <use xlink:href="#DejaVuSans-6f" x="1146.667969"/>
      <use xlink:href="#DejaVuSans-6e" x="1207.849609"/>
     </g>
    </g>
    <g id="line2d_26">
     <path d="M 85.067716 401.19 
L 99.067716 401.19 
L 113.067716 401.19 
" style="fill: none; stroke: #2ca02c; stroke-width: 1.5; stroke-linecap: square"/>
    </g>
    <g id="text_19">
     <!-- Mean Dummy Regressor -->
     <g transform="translate(124.267716 406.09) scale(0.14 -0.14)">
      <defs>
       <path id="DejaVuSans-4d" d="M 628 4666 
L 1569 4666 
L 2759 1491 
L 3956 4666 
L 4897 4666 
L 4897 0 
L 4281 0 
L 4281 4097 
L 3078 897 
L 2444 897 
L 1241 4097 
L 1241 0 
L 628 0 
L 628 4666 
z
" transform="scale(0.015625)"/>
       <path id="DejaVuSans-44" d="M 1259 4147 
L 1259 519 
L 2022 519 
Q 2988 519 3436 956 
Q 3884 1394 3884 2338 
Q 3884 3275 3436 3711 
Q 2988 4147 2022 4147 
L 1259 4147 
z
M 628 4666 
L 1925 4666 
Q 3281 4666 3915 4102 
Q 4550 3538 4550 2338 
Q 4550 1131 3912 565 
Q 3275 0 1925 0 
L 628 0 
L 628 4666 
z
" transform="scale(0.015625)"/>
       <path id="DejaVuSans-79" d="M 2059 -325 
Q 1816 -950 1584 -1140 
Q 1353 -1331 966 -1331 
L 506 -1331 
L 506 -850 
L 844 -850 
Q 1081 -850 1212 -737 
Q 1344 -625 1503 -206 
L 1606 56 
L 191 3500 
L 800 3500 
L 1894 763 
L 2988 3500 
L 3597 3500 
L 2059 -325 
z
" transform="scale(0.015625)"/>
      </defs>
      <use xlink:href="#DejaVuSans-4d"/>
      <use xlink:href="#DejaVuSans-65" x="86.279297"/>
      <use xlink:href="#DejaVuSans-61" x="147.802734"/>
      <use xlink:href="#DejaVuSans-6e" x="209.082031"/>
      <use xlink:href="#DejaVuSans-20" x="272.460938"/>
      <use xlink:href="#DejaVuSans-44" x="304.248047"/>
      <use xlink:href="#DejaVuSans-75" x="381.25"/>
      <use xlink:href="#DejaVuSans-6d" x="444.628906"/>
      <use xlink:href="#DejaVuSans-6d" x="542.041016"/>
      <use xlink:href="#DejaVuSans-79" x="639.453125"/>
      <use xlink:href="#DejaVuSans-20" x="698.632812"/>
      <use xlink:href="#DejaVuSans-52" x="730.419922"/>
      <use xlink:href="#DejaVuSans-65" x="795.402344"/>
      <use xlink:href="#DejaVuSans-67" x="856.925781"/>
      <use xlink:href="#DejaVuSans-72" x="920.402344"/>
      <use xlink:href="#DejaVuSans-65" x="959.265625"/>
      <use xlink:href="#DejaVuSans-73" x="1020.789062"/>
      <use xlink:href="#DejaVuSans-73" x="1072.888672"/>
      <use xlink:href="#DejaVuSans-6f" x="1124.988281"/>
      <use xlink:href="#DejaVuSans-72" x="1186.169922"/>
     </g>
    </g>
    <g id="line2d_27">
     <path d="M 85.067716 421.739375 
L 99.067716 421.739375 
L 113.067716 421.739375 
" style="fill: none; stroke: #d62728; stroke-width: 1.5; stroke-linecap: square"/>
    </g>
    <g id="text_20">
     <!-- SVR -->
     <g transform="translate(124.267716 426.639375) scale(0.14 -0.14)">
      <defs>
       <path id="DejaVuSans-56" d="M 1831 0 
L 50 4666 
L 709 4666 
L 2188 738 
L 3669 4666 
L 4325 4666 
L 2547 0 
L 1831 0 
z
" transform="scale(0.015625)"/>
      </defs>
      <use xlink:href="#DejaVuSans-53"/>
      <use xlink:href="#DejaVuSans-56" x="63.476562"/>
      <use xlink:href="#DejaVuSans-52" x="131.884766"/>
     </g>
    </g>
    <g id="line2d_28">
     <path d="M 85.067716 442.28875 
L 99.067716 442.28875 
L 113.067716 442.28875 
" style="fill: none; stroke: #9467bd; stroke-width: 1.5; stroke-linecap: square"/>
    </g>
    <g id="text_21">
     <!-- MLP -->
     <g transform="translate(124.267716 447.18875) scale(0.14 -0.14)">
      <defs>
       <path id="DejaVuSans-50" d="M 1259 4147 
L 1259 2394 
L 2053 2394 
Q 2494 2394 2734 2622 
Q 2975 2850 2975 3272 
Q 2975 3691 2734 3919 
Q 2494 4147 2053 4147 
L 1259 4147 
z
M 628 4666 
L 2053 4666 
Q 2838 4666 3239 4311 
Q 3641 3956 3641 3272 
Q 3641 2581 3239 2228 
Q 2838 1875 2053 1875 
L 1259 1875 
L 1259 0 
L 628 0 
L 628 4666 
z
" transform="scale(0.015625)"/>
      </defs>
      <use xlink:href="#DejaVuSans-4d"/>
      <use xlink:href="#DejaVuSans-4c" x="86.279297"/>
      <use xlink:href="#DejaVuSans-50" x="141.992188"/>
     </g>
    </g>
   </g>
  </g>
  <g id="axes_2">
   <g id="patch_8">
    <path d="M 592.848378 526.836875 
L 718.41625 526.836875 
L 718.41625 28.396875 
L 592.848378 28.396875 
z
" style="fill: #ffffff"/>
   </g>
   <g id="matplotlib.axis_3">
    <g id="xtick_7"/>
    <g id="xtick_8"/>
    <g id="xtick_9"/>
    <g id="xtick_10"/>
    <g id="xtick_11"/>
   </g>
   <g id="matplotlib.axis_4">
    <g id="ytick_8"/>
    <g id="ytick_9"/>
    <g id="ytick_10"/>
    <g id="ytick_11"/>
    <g id="ytick_12"/>
    <g id="ytick_13"/>
    <g id="ytick_14"/>
   </g>
   <g id="line2d_29">
    <defs>
     <path id="m424b1b157e" d="M 0 3.383948 
C 0.897434 3.383948 1.758231 3.027394 2.392813 2.392813 
C 3.027394 1.758231 3.383948 0.897434 3.383948 0 
C 3.383948 -0.897434 3.027394 -1.758231 2.392813 -2.392813 
C 1.758231 -3.027394 0.897434 -3.383948 0 -3.383948 
C -0.897434 -3.383948 -1.758231 -3.027394 -2.392813 -2.392813 
C -3.027394 -1.758231 -3.383948 -0.897434 -3.383948 0 
C -3.383948 0.897434 -3.027394 1.758231 -2.392813 2.392813 
C -1.758231 3.027394 -0.897434 3.383948 0 3.383948 
z
" style="stroke: #1f77b4; stroke-width: 2.025"/>
    </defs>
    <g clip-path="url(#p6e3bad5ce0)">
     <use xlink:href="#m424b1b157e" x="605.405165" y="93.924838" style="fill: #1f77b4; stroke: #1f77b4; stroke-width: 2.025"/>
    </g>
   </g>
   <g id="line2d_30">
    <path d="M 599.126771 135.863197 
L 611.683559 135.863197 
M 605.405165 135.863197 
L 605.405165 51.98648 
M 599.126771 51.98648 
L 611.683559 51.98648 
" clip-path="url(#p6e3bad5ce0)" style="fill: none; stroke: #1f77b4; stroke-width: 2.7; stroke-linecap: square"/>
   </g>
   <g id="line2d_31">
    <path clip-path="url(#p6e3bad5ce0)" style="fill: none; stroke: #1f77b4; stroke-width: 2.7; stroke-linecap: square"/>
   </g>
   <g id="line2d_32">
    <path clip-path="url(#p6e3bad5ce0)" style="fill: none; stroke: #1f77b4; stroke-width: 2.7; stroke-linecap: square"/>
   </g>
   <g id="line2d_33">
    <path clip-path="url(#p6e3bad5ce0)" style="fill: none; stroke: #1f77b4; stroke-width: 2.7; stroke-linecap: square"/>
   </g>
   <g id="line2d_34">
    <path clip-path="url(#p6e3bad5ce0)" style="fill: none; stroke: #1f77b4; stroke-width: 2.7; stroke-linecap: square"/>
   </g>
   <g id="line2d_35">
    <defs>
     <path id="meda4d3462a" d="M 0 3.383948 
C 0.897434 3.383948 1.758231 3.027394 2.392813 2.392813 
C 3.027394 1.758231 3.383948 0.897434 3.383948 0 
C 3.383948 -0.897434 3.027394 -1.758231 2.392813 -2.392813 
C 1.758231 -3.027394 0.897434 -3.383948 0 -3.383948 
C -0.897434 -3.383948 -1.758231 -3.027394 -2.392813 -2.392813 
C -3.027394 -1.758231 -3.383948 -0.897434 -3.383948 0 
C -3.383948 0.897434 -3.027394 1.758231 -2.392813 2.392813 
C -1.758231 3.027394 -0.897434 3.383948 0 3.383948 
z
" style="stroke: #ff7f0e; stroke-width: 2.025"/>
    </defs>
    <g clip-path="url(#p6e3bad5ce0)">
     <use xlink:href="#meda4d3462a" x="630.518739" y="223.088343" style="fill: #ff7f0e; stroke: #ff7f0e; stroke-width: 2.025"/>
    </g>
   </g>
   <g id="line2d_36">
    <path clip-path="url(#p6e3bad5ce0)" style="fill: none; stroke: #ff7f0e; stroke-width: 2.7; stroke-linecap: square"/>
   </g>
   <g id="line2d_37">
    <path d="M 624.240346 268.760492 
L 636.797133 268.760492 
M 630.518739 268.760492 
L 630.518739 177.416195 
M 624.240346 177.416195 
L 636.797133 177.416195 
" clip-path="url(#p6e3bad5ce0)" style="fill: none; stroke: #ff7f0e; stroke-width: 2.7; stroke-linecap: square"/>
   </g>
   <g id="line2d_38">
    <path clip-path="url(#p6e3bad5ce0)" style="fill: none; stroke: #ff7f0e; stroke-width: 2.7; stroke-linecap: square"/>
   </g>
   <g id="line2d_39">
    <path clip-path="url(#p6e3bad5ce0)" style="fill: none; stroke: #ff7f0e; stroke-width: 2.7; stroke-linecap: square"/>
   </g>
   <g id="line2d_40">
    <path clip-path="url(#p6e3bad5ce0)" style="fill: none; stroke: #ff7f0e; stroke-width: 2.7; stroke-linecap: square"/>
   </g>
   <g id="line2d_41">
    <defs>
     <path id="m1ea9bba2f8" d="M 0 3.383948 
C 0.897434 3.383948 1.758231 3.027394 2.392813 2.392813 
C 3.027394 1.758231 3.383948 0.897434 3.383948 0 
C 3.383948 -0.897434 3.027394 -1.758231 2.392813 -2.392813 
C 1.758231 -3.027394 0.897434 -3.383948 0 -3.383948 
C -0.897434 -3.383948 -1.758231 -3.027394 -2.392813 -2.392813 
C -3.027394 -1.758231 -3.383948 -0.897434 -3.383948 0 
C -3.383948 0.897434 -3.027394 1.758231 -2.392813 2.392813 
C -1.758231 3.027394 -0.897434 3.383948 0 3.383948 
z
" style="stroke: #2ca02c; stroke-width: 2.025"/>
    </defs>
    <g clip-path="url(#p6e3bad5ce0)">
     <use xlink:href="#m1ea9bba2f8" x="655.632314" y="510.758165" style="fill: #2ca02c; stroke: #2ca02c; stroke-width: 2.025"/>
    </g>
   </g>
   <g id="line2d_42">
    <path clip-path="url(#p6e3bad5ce0)" style="fill: none; stroke: #2ca02c; stroke-width: 2.7; stroke-linecap: square"/>
   </g>
   <g id="line2d_43">
    <path clip-path="url(#p6e3bad5ce0)" style="fill: none; stroke: #2ca02c; stroke-width: 2.7; stroke-linecap: square"/>
   </g>
   <g id="line2d_44">
    <path d="M 649.35392 510.758165 
L 661.910707 510.758165 
M 655.632314 510.758165 
L 655.632314 510.758165 
M 649.35392 510.758165 
L 661.910707 510.758165 
" clip-path="url(#p6e3bad5ce0)" style="fill: none; stroke: #2ca02c; stroke-width: 2.7; stroke-linecap: square"/>
   </g>
   <g id="line2d_45">
    <path clip-path="url(#p6e3bad5ce0)" style="fill: none; stroke: #2ca02c; stroke-width: 2.7; stroke-linecap: square"/>
   </g>
   <g id="line2d_46">
    <path clip-path="url(#p6e3bad5ce0)" style="fill: none; stroke: #2ca02c; stroke-width: 2.7; stroke-linecap: square"/>
   </g>
   <g id="line2d_47">
    <defs>
     <path id="m3186e761d8" d="M 0 3.383948 
C 0.897434 3.383948 1.758231 3.027394 2.392813 2.392813 
C 3.027394 1.758231 3.383948 0.897434 3.383948 0 
C 3.383948 -0.897434 3.027394 -1.758231 2.392813 -2.392813 
C 1.758231 -3.027394 0.897434 -3.383948 0 -3.383948 
C -0.897434 -3.383948 -1.758231 -3.027394 -2.392813 -2.392813 
C -3.027394 -1.758231 -3.383948 -0.897434 -3.383948 0 
C -3.383948 0.897434 -3.027394 1.758231 -2.392813 2.392813 
C -1.758231 3.027394 -0.897434 3.383948 0 3.383948 
z
" style="stroke: #d62728; stroke-width: 2.025"/>
    </defs>
    <g clip-path="url(#p6e3bad5ce0)">
     <use xlink:href="#m3186e761d8" x="680.745888" y="130.470672" style="fill: #d62728; stroke: #d62728; stroke-width: 2.025"/>
    </g>
   </g>
   <g id="line2d_48">
    <path clip-path="url(#p6e3bad5ce0)" style="fill: none; stroke: #d62728; stroke-width: 2.7; stroke-linecap: square"/>
   </g>
   <g id="line2d_49">
    <path clip-path="url(#p6e3bad5ce0)" style="fill: none; stroke: #d62728; stroke-width: 2.7; stroke-linecap: square"/>
   </g>
   <g id="line2d_50">
    <path clip-path="url(#p6e3bad5ce0)" style="fill: none; stroke: #d62728; stroke-width: 2.7; stroke-linecap: square"/>
   </g>
   <g id="line2d_51">
    <path d="M 674.467495 179.065063 
L 687.024282 179.065063 
M 680.745888 179.065063 
L 680.745888 81.876281 
M 674.467495 81.876281 
L 687.024282 81.876281 
" clip-path="url(#p6e3bad5ce0)" style="fill: none; stroke: #d62728; stroke-width: 2.7; stroke-linecap: square"/>
   </g>
   <g id="line2d_52">
    <path clip-path="url(#p6e3bad5ce0)" style="fill: none; stroke: #d62728; stroke-width: 2.7; stroke-linecap: square"/>
   </g>
   <g id="line2d_53">
    <defs>
     <path id="m8cf9b32664" d="M 0 3.383948 
C 0.897434 3.383948 1.758231 3.027394 2.392813 2.392813 
C 3.027394 1.758231 3.383948 0.897434 3.383948 0 
C 3.383948 -0.897434 3.027394 -1.758231 2.392813 -2.392813 
C 1.758231 -3.027394 0.897434 -3.383948 0 -3.383948 
C -0.897434 -3.383948 -1.758231 -3.027394 -2.392813 -2.392813 
C -3.027394 -1.758231 -3.383948 -0.897434 -3.383948 0 
C -3.383948 0.897434 -3.027394 1.758231 -2.392813 2.392813 
C -1.758231 3.027394 -0.897434 3.383948 0 3.383948 
z
" style="stroke: #9467bd; stroke-width: 2.025"/>
    </defs>
    <g clip-path="url(#p6e3bad5ce0)">
     <use xlink:href="#m8cf9b32664" x="705.859463" y="229.228727" style="fill: #9467bd; stroke: #9467bd; stroke-width: 2.025"/>
    </g>
   </g>
   <g id="line2d_54">
    <path clip-path="url(#p6e3bad5ce0)" style="fill: none; stroke: #9467bd; stroke-width: 2.7; stroke-linecap: square"/>
   </g>
   <g id="line2d_55">
    <path clip-path="url(#p6e3bad5ce0)" style="fill: none; stroke: #9467bd; stroke-width: 2.7; stroke-linecap: square"/>
   </g>
   <g id="line2d_56">
    <path clip-path="url(#p6e3bad5ce0)" style="fill: none; stroke: #9467bd; stroke-width: 2.7; stroke-linecap: square"/>
   </g>
   <g id="line2d_57">
    <path clip-path="url(#p6e3bad5ce0)" style="fill: none; stroke: #9467bd; stroke-width: 2.7; stroke-linecap: square"/>
   </g>
   <g id="line2d_58">
    <path d="M 699.581069 268.947058 
L 712.137856 268.947058 
M 705.859463 268.947058 
L 705.859463 189.510396 
M 699.581069 189.510396 
L 712.137856 189.510396 
" clip-path="url(#p6e3bad5ce0)" style="fill: none; stroke: #9467bd; stroke-width: 2.7; stroke-linecap: square"/>
   </g>
   <g id="patch_9">
    <path d="M 592.848378 526.836875 
L 592.848378 28.396875 
" style="fill: none; stroke: #000000; stroke-width: 0.8; stroke-linejoin: miter; stroke-linecap: square"/>
   </g>
   <g id="patch_10">
    <path d="M 718.41625 526.836875 
L 718.41625 28.396875 
" style="fill: none; stroke: #000000; stroke-width: 0.8; stroke-linejoin: miter; stroke-linecap: square"/>
   </g>
   <g id="patch_11">
    <path d="M 592.848378 526.836875 
L 718.41625 526.836875 
" style="fill: none; stroke: #000000; stroke-width: 0.8; stroke-linejoin: miter; stroke-linecap: square"/>
   </g>
   <g id="patch_12">
    <path d="M 592.848378 28.396875 
L 718.41625 28.396875 
" style="fill: none; stroke: #000000; stroke-width: 0.8; stroke-linejoin: miter; stroke-linecap: square"/>
   </g>
   <g id="text_22">
    <!-- (±std) -->
    <g transform="translate(623.971376 22.396875) scale(0.2 -0.2)">
     <use xlink:href="#DejaVuSans-28"/>
     <use xlink:href="#DejaVuSans-b1" x="39.013672"/>
     <use xlink:href="#DejaVuSans-73" x="122.802734"/>
     <use xlink:href="#DejaVuSans-74" x="174.902344"/>
     <use xlink:href="#DejaVuSans-64" x="214.111328"/>
     <use xlink:href="#DejaVuSans-29" x="277.587891"/>
    </g>
   </g>
  </g>
 </g>
 <defs>
  <clipPath id="p16a65b2ad4">
   <rect x="68.08625" y="28.396875" width="502.271489" height="498.44"/>
  </clipPath>
  <clipPath id="p6e3bad5ce0">
   <rect x="592.848378" y="28.396875" width="125.567872" height="498.44"/>
  </clipPath>
 </defs>
</svg>
