<?xml version="1.0" encoding="utf-8" standalone="no"?>
<!DOCTYPE svg PUBLIC "-//W3C//DTD SVG 1.1//EN"
  "http://www.w3.org/Graphics/SVG/1.1/DTD/svg11.dtd">
<svg xmlns:xlink="http://www.w3.org/1999/xlink" width="414.836156pt" height="325.986375pt" viewBox="0 0 414.836156 325.986375" xmlns="http://www.w3.org/2000/svg" version="1.1">
 <metadata>
  <rdf:RDF xmlns:dc="http://purl.org/dc/elements/1.1/" xmlns:cc="http://creativecommons.org/ns#" xmlns:rdf="http://www.w3.org/1999/02/22-rdf-syntax-ns#">
   <cc:Work>
    <dc:type rdf:resource="http://purl.org/dc/dcmitype/StillImage"/>
    <dc:date>2025-10-16T15:14:26.326788</dc:date>
    <dc:format>image/svg+xml</dc:format>
    <dc:creator>
     <cc:Agent>
      <dc:title>Matplotlib v3.10.7, https://matplotlib.org/</dc:title>
     </cc:Agent>
    </dc:creator>
   </cc:Work>
  </rdf:RDF>
 </metadata>
 <defs>
  <style type="text/css">*{stroke-linejoin: round; stroke-linecap: butt}</style>
 </defs>
 <g id="figure_1">
  <g id="patch_1">
   <path d="M 0 325.986375 
L 414.836156 325.986375 
L 414.836156 0 
L 0 0 
z
" style="fill: #ffffff"/>
  </g>
  <g id="axes_1">
   <g id="patch_2">
    <path d="M 40.603125 288.430125 
L 397.723125 288.430125 
L 397.723125 22.318125 
L 40.603125 22.318125 
z
" style="fill: #ffffff"/>
   </g>
   <g id="FillBetweenPolyCollection_1">
    <defs>
     <path id="md93210af31" d="M 43.415094 -291.57225 
L 43.415094 -229.846815 
L 44.821078 -135.983055 
L 46.227062 -142.705884 
L 47.633046 -128.239059 
L 49.039031 -125.297897 
L 50.445015 -118.948445 
L 51.850999 -109.789084 
L 53.256983 -106.234884 
L 54.662968 -101.676243 
L 56.068952 -97.923964 
L 57.474936 -96.333046 
L 58.88092 -91.868008 
L 60.286905 -88.39794 
L 61.692889 -84.744966 
L 63.098873 -81.676848 
L 64.504857 -81.144555 
L 65.910842 -77.99954 
L 67.316826 -75.508055 
L 68.72281 -73.409097 
L 70.128794 -70.988629 
L 71.534779 -71.015033 
L 72.940763 -67.776142 
L 74.346747 -67.166543 
L 75.752731 -65.504332 
L 77.158716 -64.300181 
L 78.5647 -64.595427 
L 79.970684 -61.948314 
L 81.376668 -62.041065 
L 82.782653 -61.048049 
L 84.188637 -60.337128 
L 85.594621 -58.392365 
L 87.000605 -58.670679 
L 88.40659 -57.893673 
L 89.812574 -58.372354 
L 91.218558 -56.819782 
L 92.624542 -56.843654 
L 94.030527 -56.53255 
L 95.436511 -56.000171 
L 96.842495 -55.368136 
L 98.248479 -54.816593 
L 99.654464 -55.18024 
L 101.060448 -54.882181 
L 102.466432 -54.571132 
L 103.872416 -53.713119 
L 105.278401 -54.023744 
L 106.684385 -53.282244 
L 108.090369 -53.527302 
L 109.496353 -53.140512 
L 110.902338 -52.903463 
L 112.308322 -53.568721 
L 113.714306 -52.539734 
L 115.12029 -52.682762 
L 116.526275 -52.694537 
L 117.932259 -51.820186 
L 119.338243 -52.481479 
L 120.744227 -52.325861 
L 122.150212 -52.224735 
L 123.556196 -52.035718 
L 124.96218 -51.756287 
L 126.368164 -51.659137 
L 127.774149 -51.414551 
L 129.180133 -51.42445 
L 130.586117 -51.241691 
L 131.992101 -51.062646 
L 133.398086 -51.260883 
L 134.80407 -51.177925 
L 136.210054 -51.098688 
L 137.616038 -51.224498 
L 139.022023 -51.075059 
L 140.428007 -50.925214 
L 141.833991 -50.746289 
L 143.239975 -50.82085 
L 144.64596 -50.832025 
L 146.051944 -50.842843 
L 147.457928 -50.534002 
L 148.863912 -50.619085 
L 150.269897 -50.5387 
L 151.675881 -50.472188 
L 153.081865 -50.501206 
L 154.487849 -50.220156 
L 155.893834 -50.348876 
L 157.299818 -50.2506 
L 158.705802 -50.100421 
L 160.111786 -50.093695 
L 161.517771 -50.094974 
L 162.923755 -49.857227 
L 164.329739 -50.227403 
L 165.735723 -49.942186 
L 167.141708 -49.980693 
L 168.547692 -49.992467 
L 169.953676 -49.799221 
L 171.35966 -49.72496 
L 172.765645 -49.852525 
L 174.171629 -49.713732 
L 175.577613 -49.743755 
L 176.983597 -49.676612 
L 178.389582 -49.781247 
L 179.795566 -49.69374 
L 181.20155 -49.65225 
L 182.607534 -49.733041 
L 182.607534 -54.821135 
L 182.607534 -54.821135 
L 181.20155 -55.103603 
L 179.795566 -54.862639 
L 178.389582 -54.719069 
L 176.983597 -55.11272 
L 175.577613 -55.150968 
L 174.171629 -55.291579 
L 172.765645 -55.198255 
L 171.35966 -55.259129 
L 169.953676 -55.572119 
L 168.547692 -55.345673 
L 167.141708 -55.550276 
L 165.735723 -55.49342 
L 164.329739 -55.552882 
L 162.923755 -55.570101 
L 161.517771 -55.92194 
L 160.111786 -55.743121 
L 158.705802 -55.60388 
L 157.299818 -55.983001 
L 155.893834 -56.07987 
L 154.487849 -56.158984 
L 153.081865 -55.494737 
L 151.675881 -55.889887 
L 150.269897 -56.022678 
L 148.863912 -56.108017 
L 147.457928 -56.027155 
L 146.051944 -56.59999 
L 144.64596 -56.821909 
L 143.239975 -57.066973 
L 141.833991 -57.35426 
L 140.428007 -56.75411 
L 139.022023 -57.185937 
L 137.616038 -57.148138 
L 136.210054 -57.567978 
L 134.80407 -57.609271 
L 133.398086 -57.316275 
L 131.992101 -57.729259 
L 130.586117 -58.024518 
L 129.180133 -58.486601 
L 127.774149 -58.512616 
L 126.368164 -58.126607 
L 124.96218 -58.226117 
L 123.556196 -58.837512 
L 122.150212 -58.798477 
L 120.744227 -58.911045 
L 119.338243 -59.750345 
L 117.932259 -59.940286 
L 116.526275 -60.013836 
L 115.12029 -59.838542 
L 113.714306 -60.11306 
L 112.308322 -60.6619 
L 110.902338 -60.699915 
L 109.496353 -61.292288 
L 108.090369 -61.891197 
L 106.684385 -61.425774 
L 105.278401 -63.349268 
L 103.872416 -63.135975 
L 102.466432 -63.805198 
L 101.060448 -64.332137 
L 99.654464 -64.498589 
L 98.248479 -65.931325 
L 96.842495 -66.621357 
L 95.436511 -66.911435 
L 94.030527 -67.296921 
L 92.624542 -68.371852 
L 91.218558 -69.438981 
L 89.812574 -70.801038 
L 88.40659 -72.533212 
L 87.000605 -73.184056 
L 85.594621 -73.306468 
L 84.188637 -74.839842 
L 82.782653 -75.645001 
L 81.376668 -78.555583 
L 79.970684 -80.444144 
L 78.5647 -82.265798 
L 77.158716 -83.478854 
L 75.752731 -85.768178 
L 74.346747 -87.255158 
L 72.940763 -87.680297 
L 71.534779 -91.153991 
L 70.128794 -93.558143 
L 68.72281 -96.708377 
L 67.316826 -100.205048 
L 65.910842 -104.332616 
L 64.504857 -109.039671 
L 63.098873 -110.777414 
L 61.692889 -116.454934 
L 60.286905 -120.181704 
L 58.88092 -122.851417 
L 57.474936 -133.572611 
L 56.068952 -138.490611 
L 54.662968 -144.100639 
L 53.256983 -150.368219 
L 51.850999 -159.885877 
L 50.445015 -168.812318 
L 49.039031 -176.950869 
L 47.633046 -185.526007 
L 46.227062 -198.601764 
L 44.821078 -191.505841 
L 43.415094 -291.57225 
z
" style="stroke: #1f77b4; stroke-opacity: 0.2"/>
    </defs>
    <g clip-path="url(#pae9ea26bcd)">
     <use xlink:href="#md93210af31" x="0" y="325.986375" style="fill: #1f77b4; fill-opacity: 0.2; stroke: #1f77b4; stroke-opacity: 0.2"/>
    </g>
   </g>
   <g id="FillBetweenPolyCollection_2">
    <defs>
     <path id="mab39e190ea" d="M 43.415094 -287.191775 
L 43.415094 -232.598308 
L 44.821078 -140.737282 
L 46.227062 -138.881899 
L 47.633046 -151.817435 
L 49.039031 -161.950007 
L 50.445015 -158.096631 
L 51.850999 -166.181311 
L 53.256983 -165.890506 
L 54.662968 -168.848355 
L 56.068952 -167.346208 
L 57.474936 -168.794072 
L 58.88092 -173.167132 
L 60.286905 -168.331261 
L 61.692889 -178.977447 
L 63.098873 -174.921898 
L 64.504857 -176.023971 
L 65.910842 -173.538981 
L 67.316826 -179.744648 
L 68.72281 -179.704791 
L 70.128794 -179.599998 
L 71.534779 -178.283788 
L 72.940763 -182.987777 
L 74.346747 -180.986392 
L 75.752731 -183.613865 
L 77.158716 -181.285558 
L 78.5647 -186.831336 
L 79.970684 -184.691821 
L 81.376668 -184.434676 
L 82.782653 -183.361601 
L 84.188637 -182.251366 
L 85.594621 -186.329326 
L 87.000605 -186.873135 
L 88.40659 -188.204461 
L 89.812574 -189.035312 
L 91.218558 -184.900748 
L 92.624542 -187.980849 
L 94.030527 -183.447126 
L 95.436511 -187.57638 
L 96.842495 -187.705153 
L 98.248479 -189.378156 
L 99.654464 -184.972731 
L 101.060448 -186.108681 
L 102.466432 -188.658312 
L 103.872416 -190.023437 
L 105.278401 -191.82801 
L 106.684385 -187.781117 
L 108.090369 -188.82907 
L 109.496353 -191.577832 
L 110.902338 -190.508825 
L 112.308322 -191.182498 
L 113.714306 -191.16434 
L 115.12029 -193.493561 
L 116.526275 -189.202679 
L 117.932259 -189.180214 
L 119.338243 -190.859094 
L 120.744227 -190.465438 
L 122.150212 -191.064052 
L 123.556196 -191.409465 
L 124.96218 -193.237013 
L 126.368164 -191.703424 
L 127.774149 -190.358003 
L 129.180133 -191.902168 
L 130.586117 -192.911822 
L 131.992101 -192.871825 
L 133.398086 -192.162699 
L 134.80407 -194.436915 
L 136.210054 -194.046512 
L 137.616038 -192.688557 
L 139.022023 -194.561882 
L 140.428007 -192.218573 
L 141.833991 -193.262602 
L 143.239975 -193.93847 
L 144.64596 -192.871197 
L 146.051944 -196.893565 
L 147.457928 -194.964331 
L 148.863912 -191.714464 
L 150.269897 -194.992815 
L 151.675881 -193.95809 
L 153.081865 -194.830643 
L 154.487849 -196.213737 
L 155.893834 -198.720823 
L 157.299818 -194.739153 
L 158.705802 -197.679011 
L 160.111786 -198.522979 
L 161.517771 -198.633591 
L 162.923755 -198.70979 
L 164.329739 -196.418895 
L 165.735723 -196.40633 
L 167.141708 -197.272854 
L 168.547692 -198.652222 
L 169.953676 -200.125281 
L 171.35966 -199.231205 
L 172.765645 -197.763888 
L 174.171629 -198.722294 
L 175.577613 -198.17568 
L 176.983597 -201.160688 
L 178.389582 -200.763705 
L 179.795566 -199.471778 
L 181.20155 -200.135229 
L 182.607534 -198.544046 
L 182.607534 -255.42441 
L 182.607534 -255.42441 
L 181.20155 -256.817524 
L 179.795566 -258.455691 
L 178.389582 -256.87917 
L 176.983597 -255.522653 
L 175.577613 -257.69426 
L 174.171629 -255.252654 
L 172.765645 -256.65665 
L 171.35966 -258.397769 
L 169.953676 -256.49023 
L 168.547692 -255.775175 
L 167.141708 -257.833007 
L 165.735723 -254.13177 
L 164.329739 -255.790044 
L 162.923755 -257.926683 
L 161.517771 -255.954526 
L 160.111786 -256.760617 
L 158.705802 -255.748107 
L 157.299818 -254.070711 
L 155.893834 -255.809747 
L 154.487849 -255.036583 
L 153.081865 -255.899557 
L 151.675881 -254.799877 
L 150.269897 -254.637552 
L 148.863912 -256.161351 
L 147.457928 -255.41496 
L 146.051944 -254.114489 
L 144.64596 -253.804267 
L 143.239975 -255.006305 
L 141.833991 -259.387029 
L 140.428007 -257.779534 
L 139.022023 -254.947191 
L 137.616038 -257.158464 
L 136.210054 -255.02296 
L 134.80407 -253.243766 
L 133.398086 -253.581906 
L 131.992101 -252.010276 
L 130.586117 -254.069828 
L 129.180133 -254.331073 
L 127.774149 -256.019076 
L 126.368164 -252.03172 
L 124.96218 -252.507002 
L 123.556196 -251.825151 
L 122.150212 -252.875576 
L 120.744227 -252.685325 
L 119.338243 -251.495191 
L 117.932259 -248.127028 
L 116.526275 -254.750861 
L 115.12029 -254.414917 
L 113.714306 -253.088624 
L 112.308322 -251.255663 
L 110.902338 -253.775771 
L 109.496353 -248.697909 
L 108.090369 -251.474294 
L 106.684385 -251.910959 
L 105.278401 -252.632087 
L 103.872416 -250.884676 
L 102.466432 -250.510225 
L 101.060448 -247.084654 
L 99.654464 -249.857786 
L 98.248479 -250.746849 
L 96.842495 -245.626171 
L 95.436511 -248.969105 
L 94.030527 -250.442975 
L 92.624542 -250.678758 
L 91.218558 -249.960296 
L 89.812574 -249.635384 
L 88.40659 -247.37664 
L 87.000605 -251.033324 
L 85.594621 -250.645902 
L 84.188637 -247.040277 
L 82.782653 -249.088814 
L 81.376668 -243.685024 
L 79.970684 -248.366989 
L 78.5647 -244.835188 
L 77.158716 -241.58514 
L 75.752731 -242.943659 
L 74.346747 -243.392779 
L 72.940763 -241.044289 
L 71.534779 -241.712565 
L 70.128794 -243.328103 
L 68.72281 -243.657153 
L 67.316826 -243.826601 
L 65.910842 -240.345853 
L 64.504857 -238.940632 
L 63.098873 -246.260067 
L 61.692889 -240.642327 
L 60.286905 -233.692985 
L 58.88092 -238.729841 
L 57.474936 -235.23068 
L 56.068952 -239.187963 
L 54.662968 -235.408955 
L 53.256983 -228.374635 
L 51.850999 -229.311244 
L 50.445015 -223.928808 
L 49.039031 -223.907181 
L 47.633046 -211.170794 
L 46.227062 -201.782005 
L 44.821078 -190.942747 
L 43.415094 -287.191775 
z
" style="stroke: #ff7f0e; stroke-opacity: 0.2"/>
    </defs>
    <g clip-path="url(#pae9ea26bcd)">
     <use xlink:href="#mab39e190ea" x="0" y="325.986375" style="fill: #ff7f0e; fill-opacity: 0.2; stroke: #ff7f0e; stroke-opacity: 0.2"/>
    </g>
   </g>
   <g id="FillBetweenPolyCollection_3">
    <defs>
     <path id="m05555b7fd3" d="M 43.415094 -289.397635 
L 43.415094 -232.09165 
L 44.821078 -138.796722 
L 46.227062 -143.527699 
L 47.633046 -153.109793 
L 49.039031 -151.496943 
L 50.445015 -153.473929 
L 51.850999 -159.810162 
L 53.256983 -161.859401 
L 54.662968 -158.469013 
L 56.068952 -161.514394 
L 57.474936 -164.247903 
L 58.88092 -168.626407 
L 60.286905 -171.539185 
L 61.692889 -163.819521 
L 63.098873 -169.48622 
L 64.504857 -167.334308 
L 65.910842 -166.881441 
L 67.316826 -165.526591 
L 68.72281 -173.851692 
L 70.128794 -167.138738 
L 71.534779 -171.920638 
L 72.940763 -171.041331 
L 74.346747 -170.122877 
L 75.752731 -171.106122 
L 77.158716 -174.354312 
L 78.5647 -172.891309 
L 79.970684 -172.560826 
L 81.376668 -176.024636 
L 82.782653 -172.025309 
L 84.188637 -173.96188 
L 85.594621 -172.897075 
L 87.000605 -172.718642 
L 88.40659 -171.566963 
L 89.812574 -176.763778 
L 91.218558 -174.205169 
L 92.624542 -175.603393 
L 94.030527 -178.090456 
L 95.436511 -178.488931 
L 96.842495 -175.766475 
L 98.248479 -180.669845 
L 99.654464 -179.143463 
L 101.060448 -178.696089 
L 102.466432 -180.424241 
L 103.872416 -177.213839 
L 105.278401 -176.247121 
L 106.684385 -178.51818 
L 108.090369 -177.56192 
L 109.496353 -180.637488 
L 110.902338 -179.005292 
L 112.308322 -180.07151 
L 113.714306 -179.689953 
L 115.12029 -179.344518 
L 116.526275 -179.615315 
L 117.932259 -179.524984 
L 119.338243 -182.249922 
L 120.744227 -181.558388 
L 122.150212 -181.401824 
L 123.556196 -181.481271 
L 124.96218 -178.614341 
L 126.368164 -181.135031 
L 127.774149 -183.481229 
L 129.180133 -183.678145 
L 130.586117 -183.277109 
L 131.992101 -183.718323 
L 133.398086 -182.596691 
L 134.80407 -180.48855 
L 136.210054 -181.912166 
L 137.616038 -184.415904 
L 139.022023 -181.276236 
L 140.428007 -179.457679 
L 141.833991 -184.901998 
L 143.239975 -183.511315 
L 144.64596 -183.950054 
L 146.051944 -184.179548 
L 147.457928 -184.177268 
L 148.863912 -185.111632 
L 150.269897 -186.459635 
L 151.675881 -185.303089 
L 153.081865 -184.900697 
L 154.487849 -182.9686 
L 155.893834 -184.063282 
L 157.299818 -183.571782 
L 158.705802 -184.679765 
L 160.111786 -184.39994 
L 161.517771 -186.429587 
L 162.923755 -188.731474 
L 164.329739 -188.371496 
L 165.735723 -188.907395 
L 167.141708 -186.508916 
L 168.547692 -187.948716 
L 169.953676 -187.270504 
L 171.35966 -189.882837 
L 172.765645 -186.165721 
L 174.171629 -186.834531 
L 175.577613 -185.462498 
L 176.983597 -186.401239 
L 178.389582 -185.935144 
L 179.795566 -187.708893 
L 181.20155 -187.304469 
L 182.607534 -184.437743 
L 182.607534 -248.750233 
L 182.607534 -248.750233 
L 181.20155 -251.406079 
L 179.795566 -247.95019 
L 178.389582 -247.442832 
L 176.983597 -247.124028 
L 175.577613 -248.589995 
L 174.171629 -250.757778 
L 172.765645 -245.226631 
L 171.35966 -247.337055 
L 169.953676 -247.046561 
L 168.547692 -246.164227 
L 167.141708 -246.995616 
L 165.735723 -248.400379 
L 164.329739 -247.594093 
L 162.923755 -247.218173 
L 161.517771 -246.50066 
L 160.111786 -245.563062 
L 158.705802 -243.928437 
L 157.299818 -247.235799 
L 155.893834 -244.488893 
L 154.487849 -244.423233 
L 153.081865 -243.22566 
L 151.675881 -245.895147 
L 150.269897 -242.533942 
L 148.863912 -245.775079 
L 147.457928 -244.819046 
L 146.051944 -244.048361 
L 144.64596 -242.869512 
L 143.239975 -243.891049 
L 141.833991 -242.324217 
L 140.428007 -245.357426 
L 139.022023 -240.291409 
L 137.616038 -241.90799 
L 136.210054 -242.020586 
L 134.80407 -241.702939 
L 133.398086 -241.798126 
L 131.992101 -242.272281 
L 130.586117 -243.785743 
L 129.180133 -244.365851 
L 127.774149 -244.415189 
L 126.368164 -243.261511 
L 124.96218 -241.137615 
L 123.556196 -244.144949 
L 122.150212 -245.520226 
L 120.744227 -247.298742 
L 119.338243 -248.190134 
L 117.932259 -245.327821 
L 116.526275 -244.710533 
L 115.12029 -243.213855 
L 113.714306 -240.308305 
L 112.308322 -241.026529 
L 110.902338 -238.905704 
L 109.496353 -241.243584 
L 108.090369 -237.315791 
L 106.684385 -238.781643 
L 105.278401 -238.22899 
L 103.872416 -240.162396 
L 102.466432 -246.31447 
L 101.060448 -239.232074 
L 99.654464 -242.507381 
L 98.248479 -239.707413 
L 96.842495 -240.048873 
L 95.436511 -239.412815 
L 94.030527 -243.477817 
L 92.624542 -243.961227 
L 91.218558 -235.032888 
L 89.812574 -241.493815 
L 88.40659 -240.060069 
L 87.000605 -236.760886 
L 85.594621 -238.304378 
L 84.188637 -238.585741 
L 82.782653 -238.134879 
L 81.376668 -239.470561 
L 79.970684 -237.059262 
L 78.5647 -242.227921 
L 77.158716 -235.652133 
L 75.752731 -239.096862 
L 74.346747 -236.650017 
L 72.940763 -237.141885 
L 71.534779 -240.396452 
L 70.128794 -229.695017 
L 68.72281 -235.784163 
L 67.316826 -232.817955 
L 65.910842 -232.726981 
L 64.504857 -237.532667 
L 63.098873 -235.749765 
L 61.692889 -229.642728 
L 60.286905 -235.225916 
L 58.88092 -232.538795 
L 57.474936 -229.299236 
L 56.068952 -227.395376 
L 54.662968 -227.224106 
L 53.256983 -225.322247 
L 51.850999 -220.354109 
L 50.445015 -226.582924 
L 49.039031 -215.103404 
L 47.633046 -213.181532 
L 46.227062 -207.200854 
L 44.821078 -191.963914 
L 43.415094 -289.397635 
z
" style="stroke: #2ca02c; stroke-opacity: 0.2"/>
    </defs>
    <g clip-path="url(#pae9ea26bcd)">
     <use xlink:href="#m05555b7fd3" x="0" y="325.986375" style="fill: #2ca02c; fill-opacity: 0.2; stroke: #2ca02c; stroke-opacity: 0.2"/>
    </g>
   </g>
   <g id="matplotlib.axis_1">
    <g id="xtick_1">
     <g id="line2d_1">
      <defs>
       <path id="m4e4d065f4d" d="M 0 0 
L 0 3.5 
" style="stroke: #000000; stroke-width: 0.8"/>
      </defs>
      <g>
       <use xlink:href="#m4e4d065f4d" x="43.415094" y="288.430125" style="stroke: #000000; stroke-width: 0.8"/>
      </g>
     </g>
     <g id="text_1">
      <!-- 0 -->
      <g transform="translate(40.233844 303.028562) scale(0.1 -0.1)">
       <defs>
        <path id="DejaVuSans-30" d="M 2034 4250 
Q 1547 4250 1301 3770 
Q 1056 3291 1056 2328 
Q 1056 1369 1301 889 
Q 1547 409 2034 409 
Q 2525 409 2770 889 
Q 3016 1369 3016 2328 
Q 3016 3291 2770 3770 
Q 2525 4250 2034 4250 
z
M 2034 4750 
Q 2819 4750 3233 4129 
Q 3647 3509 3647 2328 
Q 3647 1150 3233 529 
Q 2819 -91 2034 -91 
Q 1250 -91 836 529 
Q 422 1150 422 2328 
Q 422 3509 836 4129 
Q 1250 4750 2034 4750 
z
" transform="scale(0.015625)"/>
       </defs>
       <use xlink:href="#DejaVuSans-30"/>
      </g>
     </g>
    </g>
    <g id="xtick_2">
     <g id="line2d_2">
      <g>
       <use xlink:href="#m4e4d065f4d" x="113.714306" y="288.430125" style="stroke: #000000; stroke-width: 0.8"/>
      </g>
     </g>
     <g id="text_2">
      <!-- 500 -->
      <g transform="translate(104.170556 303.028562) scale(0.1 -0.1)">
       <defs>
        <path id="DejaVuSans-35" d="M 691 4666 
L 3169 4666 
L 3169 4134 
L 1269 4134 
L 1269 2991 
Q 1406 3038 1543 3061 
Q 1681 3084 1819 3084 
Q 2600 3084 3056 2656 
Q 3513 2228 3513 1497 
Q 3513 744 3044 326 
Q 2575 -91 1722 -91 
Q 1428 -91 1123 -41 
Q 819 9 494 109 
L 494 744 
Q 775 591 1075 516 
Q 1375 441 1709 441 
Q 2250 441 2565 725 
Q 2881 1009 2881 1497 
Q 2881 1984 2565 2268 
Q 2250 2553 1709 2553 
Q 1456 2553 1204 2497 
Q 953 2441 691 2322 
L 691 4666 
z
" transform="scale(0.015625)"/>
       </defs>
       <use xlink:href="#DejaVuSans-35"/>
       <use xlink:href="#DejaVuSans-30" transform="translate(63.623047 0)"/>
       <use xlink:href="#DejaVuSans-30" transform="translate(127.246094 0)"/>
      </g>
     </g>
    </g>
    <g id="xtick_3">
     <g id="line2d_3">
      <g>
       <use xlink:href="#m4e4d065f4d" x="184.013519" y="288.430125" style="stroke: #000000; stroke-width: 0.8"/>
      </g>
     </g>
     <g id="text_3">
      <!-- 1000 -->
      <g transform="translate(171.288519 303.028562) scale(0.1 -0.1)">
       <defs>
        <path id="DejaVuSans-31" d="M 794 531 
L 1825 531 
L 1825 4091 
L 703 3866 
L 703 4441 
L 1819 4666 
L 2450 4666 
L 2450 531 
L 3481 531 
L 3481 0 
L 794 0 
L 794 531 
z
" transform="scale(0.015625)"/>
       </defs>
       <use xlink:href="#DejaVuSans-31"/>
       <use xlink:href="#DejaVuSans-30" transform="translate(63.623047 0)"/>
       <use xlink:href="#DejaVuSans-30" transform="translate(127.246094 0)"/>
       <use xlink:href="#DejaVuSans-30" transform="translate(190.869141 0)"/>
      </g>
     </g>
    </g>
    <g id="xtick_4">
     <g id="line2d_4">
      <g>
       <use xlink:href="#m4e4d065f4d" x="254.312731" y="288.430125" style="stroke: #000000; stroke-width: 0.8"/>
      </g>
     </g>
     <g id="text_4">
      <!-- 1500 -->
      <g transform="translate(241.587731 303.028562) scale(0.1 -0.1)">
       <use xlink:href="#DejaVuSans-31"/>
       <use xlink:href="#DejaVuSans-35" transform="translate(63.623047 0)"/>
       <use xlink:href="#DejaVuSans-30" transform="translate(127.246094 0)"/>
       <use xlink:href="#DejaVuSans-30" transform="translate(190.869141 0)"/>
      </g>
     </g>
    </g>
    <g id="xtick_5">
     <g id="line2d_5">
      <g>
       <use xlink:href="#m4e4d065f4d" x="324.611944" y="288.430125" style="stroke: #000000; stroke-width: 0.8"/>
      </g>
     </g>
     <g id="text_5">
      <!-- 2000 -->
      <g transform="translate(311.886944 303.028562) scale(0.1 -0.1)">
       <defs>
        <path id="DejaVuSans-32" d="M 1228 531 
L 3431 531 
L 3431 0 
L 469 0 
L 469 531 
Q 828 903 1448 1529 
Q 2069 2156 2228 2338 
Q 2531 2678 2651 2914 
Q 2772 3150 2772 3378 
Q 2772 3750 2511 3984 
Q 2250 4219 1831 4219 
Q 1534 4219 1204 4116 
Q 875 4013 500 3803 
L 500 4441 
Q 881 4594 1212 4672 
Q 1544 4750 1819 4750 
Q 2544 4750 2975 4387 
Q 3406 4025 3406 3419 
Q 3406 3131 3298 2873 
Q 3191 2616 2906 2266 
Q 2828 2175 2409 1742 
Q 1991 1309 1228 531 
z
" transform="scale(0.015625)"/>
       </defs>
       <use xlink:href="#DejaVuSans-32"/>
       <use xlink:href="#DejaVuSans-30" transform="translate(63.623047 0)"/>
       <use xlink:href="#DejaVuSans-30" transform="translate(127.246094 0)"/>
       <use xlink:href="#DejaVuSans-30" transform="translate(190.869141 0)"/>
      </g>
     </g>
    </g>
    <g id="xtick_6">
     <g id="line2d_6">
      <g>
       <use xlink:href="#m4e4d065f4d" x="394.911156" y="288.430125" style="stroke: #000000; stroke-width: 0.8"/>
      </g>
     </g>
     <g id="text_6">
      <!-- 2500 -->
      <g transform="translate(382.186156 303.028562) scale(0.1 -0.1)">
       <use xlink:href="#DejaVuSans-32"/>
       <use xlink:href="#DejaVuSans-35" transform="translate(63.623047 0)"/>
       <use xlink:href="#DejaVuSans-30" transform="translate(127.246094 0)"/>
       <use xlink:href="#DejaVuSans-30" transform="translate(190.869141 0)"/>
      </g>
     </g>
    </g>
    <g id="text_7">
     <!-- Optimisation iterations -->
     <g transform="translate(161.881875 316.706687) scale(0.1 -0.1)">
      <defs>
       <path id="DejaVuSans-4f" d="M 2522 4238 
Q 1834 4238 1429 3725 
Q 1025 3213 1025 2328 
Q 1025 1447 1429 934 
Q 1834 422 2522 422 
Q 3209 422 3611 934 
Q 4013 1447 4013 2328 
Q 4013 3213 3611 3725 
Q 3209 4238 2522 4238 
z
M 2522 4750 
Q 3503 4750 4090 4092 
Q 4678 3434 4678 2328 
Q 4678 1225 4090 567 
Q 3503 -91 2522 -91 
Q 1538 -91 948 565 
Q 359 1222 359 2328 
Q 359 3434 948 4092 
Q 1538 4750 2522 4750 
z
" transform="scale(0.015625)"/>
       <path id="DejaVuSans-70" d="M 1159 525 
L 1159 -1331 
L 581 -1331 
L 581 3500 
L 1159 3500 
L 1159 2969 
Q 1341 3281 1617 3432 
Q 1894 3584 2278 3584 
Q 2916 3584 3314 3078 
Q 3713 2572 3713 1747 
Q 3713 922 3314 415 
Q 2916 -91 2278 -91 
Q 1894 -91 1617 61 
Q 1341 213 1159 525 
z
M 3116 1747 
Q 3116 2381 2855 2742 
Q 2594 3103 2138 3103 
Q 1681 3103 1420 2742 
Q 1159 2381 1159 1747 
Q 1159 1113 1420 752 
Q 1681 391 2138 391 
Q 2594 391 2855 752 
Q 3116 1113 3116 1747 
z
" transform="scale(0.015625)"/>
       <path id="DejaVuSans-74" d="M 1172 4494 
L 1172 3500 
L 2356 3500 
L 2356 3053 
L 1172 3053 
L 1172 1153 
Q 1172 725 1289 603 
Q 1406 481 1766 481 
L 2356 481 
L 2356 0 
L 1766 0 
Q 1100 0 847 248 
Q 594 497 594 1153 
L 594 3053 
L 172 3053 
L 172 3500 
L 594 3500 
L 594 4494 
L 1172 4494 
z
" transform="scale(0.015625)"/>
       <path id="DejaVuSans-69" d="M 603 3500 
L 1178 3500 
L 1178 0 
L 603 0 
L 603 3500 
z
M 603 4863 
L 1178 4863 
L 1178 4134 
L 603 4134 
L 603 4863 
z
" transform="scale(0.015625)"/>
       <path id="DejaVuSans-6d" d="M 3328 2828 
Q 3544 3216 3844 3400 
Q 4144 3584 4550 3584 
Q 5097 3584 5394 3201 
Q 5691 2819 5691 2113 
L 5691 0 
L 5113 0 
L 5113 2094 
Q 5113 2597 4934 2840 
Q 4756 3084 4391 3084 
Q 3944 3084 3684 2787 
Q 3425 2491 3425 1978 
L 3425 0 
L 2847 0 
L 2847 2094 
Q 2847 2600 2669 2842 
Q 2491 3084 2119 3084 
Q 1678 3084 1418 2786 
Q 1159 2488 1159 1978 
L 1159 0 
L 581 0 
L 581 3500 
L 1159 3500 
L 1159 2956 
Q 1356 3278 1631 3431 
Q 1906 3584 2284 3584 
Q 2666 3584 2933 3390 
Q 3200 3197 3328 2828 
z
" transform="scale(0.015625)"/>
       <path id="DejaVuSans-73" d="M 2834 3397 
L 2834 2853 
Q 2591 2978 2328 3040 
Q 2066 3103 1784 3103 
Q 1356 3103 1142 2972 
Q 928 2841 928 2578 
Q 928 2378 1081 2264 
Q 1234 2150 1697 2047 
L 1894 2003 
Q 2506 1872 2764 1633 
Q 3022 1394 3022 966 
Q 3022 478 2636 193 
Q 2250 -91 1575 -91 
Q 1294 -91 989 -36 
Q 684 19 347 128 
L 347 722 
Q 666 556 975 473 
Q 1284 391 1588 391 
Q 1994 391 2212 530 
Q 2431 669 2431 922 
Q 2431 1156 2273 1281 
Q 2116 1406 1581 1522 
L 1381 1569 
Q 847 1681 609 1914 
Q 372 2147 372 2553 
Q 372 3047 722 3315 
Q 1072 3584 1716 3584 
Q 2034 3584 2315 3537 
Q 2597 3491 2834 3397 
z
" transform="scale(0.015625)"/>
       <path id="DejaVuSans-61" d="M 2194 1759 
Q 1497 1759 1228 1600 
Q 959 1441 959 1056 
Q 959 750 1161 570 
Q 1363 391 1709 391 
Q 2188 391 2477 730 
Q 2766 1069 2766 1631 
L 2766 1759 
L 2194 1759 
z
M 3341 1997 
L 3341 0 
L 2766 0 
L 2766 531 
Q 2569 213 2275 61 
Q 1981 -91 1556 -91 
Q 1019 -91 701 211 
Q 384 513 384 1019 
Q 384 1609 779 1909 
Q 1175 2209 1959 2209 
L 2766 2209 
L 2766 2266 
Q 2766 2663 2505 2880 
Q 2244 3097 1772 3097 
Q 1472 3097 1187 3025 
Q 903 2953 641 2809 
L 641 3341 
Q 956 3463 1253 3523 
Q 1550 3584 1831 3584 
Q 2591 3584 2966 3190 
Q 3341 2797 3341 1997 
z
" transform="scale(0.015625)"/>
       <path id="DejaVuSans-6f" d="M 1959 3097 
Q 1497 3097 1228 2736 
Q 959 2375 959 1747 
Q 959 1119 1226 758 
Q 1494 397 1959 397 
Q 2419 397 2687 759 
Q 2956 1122 2956 1747 
Q 2956 2369 2687 2733 
Q 2419 3097 1959 3097 
z
M 1959 3584 
Q 2709 3584 3137 3096 
Q 3566 2609 3566 1747 
Q 3566 888 3137 398 
Q 2709 -91 1959 -91 
Q 1206 -91 779 398 
Q 353 888 353 1747 
Q 353 2609 779 3096 
Q 1206 3584 1959 3584 
z
" transform="scale(0.015625)"/>
       <path id="DejaVuSans-6e" d="M 3513 2113 
L 3513 0 
L 2938 0 
L 2938 2094 
Q 2938 2591 2744 2837 
Q 2550 3084 2163 3084 
Q 1697 3084 1428 2787 
Q 1159 2491 1159 1978 
L 1159 0 
L 581 0 
L 581 3500 
L 1159 3500 
L 1159 2956 
Q 1366 3272 1645 3428 
Q 1925 3584 2291 3584 
Q 2894 3584 3203 3211 
Q 3513 2838 3513 2113 
z
" transform="scale(0.015625)"/>
       <path id="DejaVuSans-20" transform="scale(0.015625)"/>
       <path id="DejaVuSans-65" d="M 3597 1894 
L 3597 1613 
L 953 1613 
Q 991 1019 1311 708 
Q 1631 397 2203 397 
Q 2534 397 2845 478 
Q 3156 559 3463 722 
L 3463 178 
Q 3153 47 2828 -22 
Q 2503 -91 2169 -91 
Q 1331 -91 842 396 
Q 353 884 353 1716 
Q 353 2575 817 3079 
Q 1281 3584 2069 3584 
Q 2775 3584 3186 3129 
Q 3597 2675 3597 1894 
z
M 3022 2063 
Q 3016 2534 2758 2815 
Q 2500 3097 2075 3097 
Q 1594 3097 1305 2825 
Q 1016 2553 972 2059 
L 3022 2063 
z
" transform="scale(0.015625)"/>
       <path id="DejaVuSans-72" d="M 2631 2963 
Q 2534 3019 2420 3045 
Q 2306 3072 2169 3072 
Q 1681 3072 1420 2755 
Q 1159 2438 1159 1844 
L 1159 0 
L 581 0 
L 581 3500 
L 1159 3500 
L 1159 2956 
Q 1341 3275 1631 3429 
Q 1922 3584 2338 3584 
Q 2397 3584 2469 3576 
Q 2541 3569 2628 3553 
L 2631 2963 
z
" transform="scale(0.015625)"/>
      </defs>
      <use xlink:href="#DejaVuSans-4f"/>
      <use xlink:href="#DejaVuSans-70" transform="translate(78.710938 0)"/>
      <use xlink:href="#DejaVuSans-74" transform="translate(142.1875 0)"/>
      <use xlink:href="#DejaVuSans-69" transform="translate(181.396484 0)"/>
      <use xlink:href="#DejaVuSans-6d" transform="translate(209.179688 0)"/>
      <use xlink:href="#DejaVuSans-69" transform="translate(306.591797 0)"/>
      <use xlink:href="#DejaVuSans-73" transform="translate(334.375 0)"/>
      <use xlink:href="#DejaVuSans-61" transform="translate(386.474609 0)"/>
      <use xlink:href="#DejaVuSans-74" transform="translate(447.753906 0)"/>
      <use xlink:href="#DejaVuSans-69" transform="translate(486.962891 0)"/>
      <use xlink:href="#DejaVuSans-6f" transform="translate(514.746094 0)"/>
      <use xlink:href="#DejaVuSans-6e" transform="translate(575.927734 0)"/>
      <use xlink:href="#DejaVuSans-20" transform="translate(639.306641 0)"/>
      <use xlink:href="#DejaVuSans-69" transform="translate(671.09375 0)"/>
      <use xlink:href="#DejaVuSans-74" transform="translate(698.876953 0)"/>
      <use xlink:href="#DejaVuSans-65" transform="translate(738.085938 0)"/>
      <use xlink:href="#DejaVuSans-72" transform="translate(799.609375 0)"/>
      <use xlink:href="#DejaVuSans-61" transform="translate(840.722656 0)"/>
      <use xlink:href="#DejaVuSans-74" transform="translate(902.001953 0)"/>
      <use xlink:href="#DejaVuSans-69" transform="translate(941.210938 0)"/>
      <use xlink:href="#DejaVuSans-6f" transform="translate(968.994141 0)"/>
      <use xlink:href="#DejaVuSans-6e" transform="translate(1030.175781 0)"/>
      <use xlink:href="#DejaVuSans-73" transform="translate(1093.554688 0)"/>
     </g>
    </g>
   </g>
   <g id="matplotlib.axis_2">
    <g id="ytick_1">
     <g id="line2d_7">
      <defs>
       <path id="mede757ac04" d="M 0 0 
L -3.5 0 
" style="stroke: #000000; stroke-width: 0.8"/>
      </defs>
      <g>
       <use xlink:href="#mede757ac04" x="40.603125" y="281.935567" style="stroke: #000000; stroke-width: 0.8"/>
      </g>
     </g>
     <g id="text_8">
      <!-- 0 -->
      <g transform="translate(27.240625 285.734786) scale(0.1 -0.1)">
       <use xlink:href="#DejaVuSans-30"/>
      </g>
     </g>
    </g>
    <g id="ytick_2">
     <g id="line2d_8">
      <g>
       <use xlink:href="#mede757ac04" x="40.603125" y="241.914245" style="stroke: #000000; stroke-width: 0.8"/>
      </g>
     </g>
     <g id="text_9">
      <!-- 5 -->
      <g transform="translate(27.240625 245.713464) scale(0.1 -0.1)">
       <use xlink:href="#DejaVuSans-35"/>
      </g>
     </g>
    </g>
    <g id="ytick_3">
     <g id="line2d_9">
      <g>
       <use xlink:href="#mede757ac04" x="40.603125" y="201.892923" style="stroke: #000000; stroke-width: 0.8"/>
      </g>
     </g>
     <g id="text_10">
      <!-- 10 -->
      <g transform="translate(20.878125 205.692142) scale(0.1 -0.1)">
       <use xlink:href="#DejaVuSans-31"/>
       <use xlink:href="#DejaVuSans-30" transform="translate(63.623047 0)"/>
      </g>
     </g>
    </g>
    <g id="ytick_4">
     <g id="line2d_10">
      <g>
       <use xlink:href="#mede757ac04" x="40.603125" y="161.871601" style="stroke: #000000; stroke-width: 0.8"/>
      </g>
     </g>
     <g id="text_11">
      <!-- 15 -->
      <g transform="translate(20.878125 165.67082) scale(0.1 -0.1)">
       <use xlink:href="#DejaVuSans-31"/>
       <use xlink:href="#DejaVuSans-35" transform="translate(63.623047 0)"/>
      </g>
     </g>
    </g>
    <g id="ytick_5">
     <g id="line2d_11">
      <g>
       <use xlink:href="#mede757ac04" x="40.603125" y="121.850279" style="stroke: #000000; stroke-width: 0.8"/>
      </g>
     </g>
     <g id="text_12">
      <!-- 20 -->
      <g transform="translate(20.878125 125.649497) scale(0.1 -0.1)">
       <use xlink:href="#DejaVuSans-32"/>
       <use xlink:href="#DejaVuSans-30" transform="translate(63.623047 0)"/>
      </g>
     </g>
    </g>
    <g id="ytick_6">
     <g id="line2d_12">
      <g>
       <use xlink:href="#mede757ac04" x="40.603125" y="81.828957" style="stroke: #000000; stroke-width: 0.8"/>
      </g>
     </g>
     <g id="text_13">
      <!-- 25 -->
      <g transform="translate(20.878125 85.628175) scale(0.1 -0.1)">
       <use xlink:href="#DejaVuSans-32"/>
       <use xlink:href="#DejaVuSans-35" transform="translate(63.623047 0)"/>
      </g>
     </g>
    </g>
    <g id="ytick_7">
     <g id="line2d_13">
      <g>
       <use xlink:href="#mede757ac04" x="40.603125" y="41.807634" style="stroke: #000000; stroke-width: 0.8"/>
      </g>
     </g>
     <g id="text_14">
      <!-- 30 -->
      <g transform="translate(20.878125 45.606853) scale(0.1 -0.1)">
       <defs>
        <path id="DejaVuSans-33" d="M 2597 2516 
Q 3050 2419 3304 2112 
Q 3559 1806 3559 1356 
Q 3559 666 3084 287 
Q 2609 -91 1734 -91 
Q 1441 -91 1130 -33 
Q 819 25 488 141 
L 488 750 
Q 750 597 1062 519 
Q 1375 441 1716 441 
Q 2309 441 2620 675 
Q 2931 909 2931 1356 
Q 2931 1769 2642 2001 
Q 2353 2234 1838 2234 
L 1294 2234 
L 1294 2753 
L 1863 2753 
Q 2328 2753 2575 2939 
Q 2822 3125 2822 3475 
Q 2822 3834 2567 4026 
Q 2313 4219 1838 4219 
Q 1578 4219 1281 4162 
Q 984 4106 628 3988 
L 628 4550 
Q 988 4650 1302 4700 
Q 1616 4750 1894 4750 
Q 2613 4750 3031 4423 
Q 3450 4097 3450 3541 
Q 3450 3153 3228 2886 
Q 3006 2619 2597 2516 
z
" transform="scale(0.015625)"/>
       </defs>
       <use xlink:href="#DejaVuSans-33"/>
       <use xlink:href="#DejaVuSans-30" transform="translate(63.623047 0)"/>
      </g>
     </g>
    </g>
    <g id="text_15">
     <!-- Distance to ground truth -->
     <g transform="translate(14.798438 217.024906) rotate(-90) scale(0.1 -0.1)">
      <defs>
       <path id="DejaVuSans-44" d="M 1259 4147 
L 1259 519 
L 2022 519 
Q 2988 519 3436 956 
Q 3884 1394 3884 2338 
Q 3884 3275 3436 3711 
Q 2988 4147 2022 4147 
L 1259 4147 
z
M 628 4666 
L 1925 4666 
Q 3281 4666 3915 4102 
Q 4550 3538 4550 2338 
Q 4550 1131 3912 565 
Q 3275 0 1925 0 
L 628 0 
L 628 4666 
z
" transform="scale(0.015625)"/>
       <path id="DejaVuSans-63" d="M 3122 3366 
L 3122 2828 
Q 2878 2963 2633 3030 
Q 2388 3097 2138 3097 
Q 1578 3097 1268 2742 
Q 959 2388 959 1747 
Q 959 1106 1268 751 
Q 1578 397 2138 397 
Q 2388 397 2633 464 
Q 2878 531 3122 666 
L 3122 134 
Q 2881 22 2623 -34 
Q 2366 -91 2075 -91 
Q 1284 -91 818 406 
Q 353 903 353 1747 
Q 353 2603 823 3093 
Q 1294 3584 2113 3584 
Q 2378 3584 2631 3529 
Q 2884 3475 3122 3366 
z
" transform="scale(0.015625)"/>
       <path id="DejaVuSans-67" d="M 2906 1791 
Q 2906 2416 2648 2759 
Q 2391 3103 1925 3103 
Q 1463 3103 1205 2759 
Q 947 2416 947 1791 
Q 947 1169 1205 825 
Q 1463 481 1925 481 
Q 2391 481 2648 825 
Q 2906 1169 2906 1791 
z
M 3481 434 
Q 3481 -459 3084 -895 
Q 2688 -1331 1869 -1331 
Q 1566 -1331 1297 -1286 
Q 1028 -1241 775 -1147 
L 775 -588 
Q 1028 -725 1275 -790 
Q 1522 -856 1778 -856 
Q 2344 -856 2625 -561 
Q 2906 -266 2906 331 
L 2906 616 
Q 2728 306 2450 153 
Q 2172 0 1784 0 
Q 1141 0 747 490 
Q 353 981 353 1791 
Q 353 2603 747 3093 
Q 1141 3584 1784 3584 
Q 2172 3584 2450 3431 
Q 2728 3278 2906 2969 
L 2906 3500 
L 3481 3500 
L 3481 434 
z
" transform="scale(0.015625)"/>
       <path id="DejaVuSans-75" d="M 544 1381 
L 544 3500 
L 1119 3500 
L 1119 1403 
Q 1119 906 1312 657 
Q 1506 409 1894 409 
Q 2359 409 2629 706 
Q 2900 1003 2900 1516 
L 2900 3500 
L 3475 3500 
L 3475 0 
L 2900 0 
L 2900 538 
Q 2691 219 2414 64 
Q 2138 -91 1772 -91 
Q 1169 -91 856 284 
Q 544 659 544 1381 
z
M 1991 3584 
L 1991 3584 
z
" transform="scale(0.015625)"/>
       <path id="DejaVuSans-64" d="M 2906 2969 
L 2906 4863 
L 3481 4863 
L 3481 0 
L 2906 0 
L 2906 525 
Q 2725 213 2448 61 
Q 2172 -91 1784 -91 
Q 1150 -91 751 415 
Q 353 922 353 1747 
Q 353 2572 751 3078 
Q 1150 3584 1784 3584 
Q 2172 3584 2448 3432 
Q 2725 3281 2906 2969 
z
M 947 1747 
Q 947 1113 1208 752 
Q 1469 391 1925 391 
Q 2381 391 2643 752 
Q 2906 1113 2906 1747 
Q 2906 2381 2643 2742 
Q 2381 3103 1925 3103 
Q 1469 3103 1208 2742 
Q 947 2381 947 1747 
z
" transform="scale(0.015625)"/>
       <path id="DejaVuSans-68" d="M 3513 2113 
L 3513 0 
L 2938 0 
L 2938 2094 
Q 2938 2591 2744 2837 
Q 2550 3084 2163 3084 
Q 1697 3084 1428 2787 
Q 1159 2491 1159 1978 
L 1159 0 
L 581 0 
L 581 4863 
L 1159 4863 
L 1159 2956 
Q 1366 3272 1645 3428 
Q 1925 3584 2291 3584 
Q 2894 3584 3203 3211 
Q 3513 2838 3513 2113 
z
" transform="scale(0.015625)"/>
      </defs>
      <use xlink:href="#DejaVuSans-44"/>
      <use xlink:href="#DejaVuSans-69" transform="translate(77.001953 0)"/>
      <use xlink:href="#DejaVuSans-73" transform="translate(104.785156 0)"/>
      <use xlink:href="#DejaVuSans-74" transform="translate(156.884766 0)"/>
      <use xlink:href="#DejaVuSans-61" transform="translate(196.09375 0)"/>
      <use xlink:href="#DejaVuSans-6e" transform="translate(257.373047 0)"/>
      <use xlink:href="#DejaVuSans-63" transform="translate(320.751953 0)"/>
      <use xlink:href="#DejaVuSans-65" transform="translate(375.732422 0)"/>
      <use xlink:href="#DejaVuSans-20" transform="translate(437.255859 0)"/>
      <use xlink:href="#DejaVuSans-74" transform="translate(469.042969 0)"/>
      <use xlink:href="#DejaVuSans-6f" transform="translate(508.251953 0)"/>
      <use xlink:href="#DejaVuSans-20" transform="translate(569.433594 0)"/>
      <use xlink:href="#DejaVuSans-67" transform="translate(601.220703 0)"/>
      <use xlink:href="#DejaVuSans-72" transform="translate(664.697266 0)"/>
      <use xlink:href="#DejaVuSans-6f" transform="translate(703.560547 0)"/>
      <use xlink:href="#DejaVuSans-75" transform="translate(764.742188 0)"/>
      <use xlink:href="#DejaVuSans-6e" transform="translate(828.121094 0)"/>
      <use xlink:href="#DejaVuSans-64" transform="translate(891.5 0)"/>
      <use xlink:href="#DejaVuSans-20" transform="translate(954.976562 0)"/>
      <use xlink:href="#DejaVuSans-74" transform="translate(986.763672 0)"/>
      <use xlink:href="#DejaVuSans-72" transform="translate(1025.972656 0)"/>
      <use xlink:href="#DejaVuSans-75" transform="translate(1067.085938 0)"/>
      <use xlink:href="#DejaVuSans-74" transform="translate(1130.464844 0)"/>
      <use xlink:href="#DejaVuSans-68" transform="translate(1169.673828 0)"/>
     </g>
    </g>
   </g>
   <g id="line2d_14">
    <path d="M 43.415094 65.276843 
L 44.821078 162.241927 
L 46.227062 155.332551 
L 47.633046 169.103842 
L 49.039031 174.861992 
L 50.445015 182.105993 
L 51.850999 191.148895 
L 53.256983 197.684823 
L 54.662968 203.097934 
L 56.068952 207.779087 
L 57.474936 211.033546 
L 58.88092 218.626663 
L 60.286905 221.696553 
L 61.692889 225.386425 
L 63.098873 229.759244 
L 64.504857 230.894262 
L 65.910842 234.820297 
L 67.316826 238.129823 
L 68.72281 240.927638 
L 70.128794 243.712989 
L 71.534779 244.901863 
L 72.940763 248.258156 
L 74.346747 248.775524 
L 75.752731 250.35012 
L 77.158716 252.096858 
L 78.5647 252.555763 
L 79.970684 254.790146 
L 81.376668 255.688051 
L 82.782653 257.63985 
L 84.188637 258.39789 
L 85.594621 260.136958 
L 87.000605 260.059008 
L 88.40659 260.772933 
L 89.812574 261.399679 
L 91.218558 262.856993 
L 92.624542 263.378622 
L 94.030527 264.071639 
L 95.436511 264.530572 
L 96.842495 264.991629 
L 98.248479 265.612416 
L 99.654464 266.14696 
L 101.060448 266.379216 
L 102.466432 266.79821 
L 103.872416 267.561828 
L 105.278401 267.299869 
L 106.684385 268.632366 
L 108.090369 268.277125 
L 109.496353 268.769975 
L 110.902338 269.184686 
L 112.308322 268.871065 
L 113.714306 269.659978 
L 115.12029 269.725723 
L 116.526275 269.632189 
L 117.932259 270.106139 
L 119.338243 269.870463 
L 120.744227 270.367922 
L 122.150212 270.474769 
L 123.556196 270.54976 
L 124.96218 270.995173 
L 126.368164 271.093503 
L 127.774149 271.022791 
L 129.180133 271.03085 
L 130.586117 271.353271 
L 131.992101 271.590422 
L 133.398086 271.697796 
L 134.80407 271.592777 
L 136.210054 271.653042 
L 137.616038 271.800057 
L 139.022023 271.855877 
L 140.428007 272.146713 
L 141.833991 271.936101 
L 143.239975 272.042464 
L 144.64596 272.159408 
L 146.051944 272.264958 
L 147.457928 272.705796 
L 148.863912 272.622824 
L 150.269897 272.705686 
L 151.675881 272.805338 
L 153.081865 272.988404 
L 154.487849 272.796805 
L 155.893834 272.772002 
L 157.299818 272.869574 
L 158.705802 273.134225 
L 160.111786 273.067967 
L 161.517771 272.977918 
L 162.923755 273.272711 
L 164.329739 273.096232 
L 165.735723 273.268572 
L 167.141708 273.22089 
L 168.547692 273.317305 
L 169.953676 273.300705 
L 171.35966 273.494331 
L 172.765645 273.460985 
L 174.171629 273.483719 
L 175.577613 273.539013 
L 176.983597 273.591709 
L 178.389582 273.736217 
L 179.795566 273.708186 
L 181.20155 273.608448 
L 182.607534 273.709287 
" clip-path="url(#pae9ea26bcd)" style="fill: none; stroke: #1f77b4; stroke-width: 1.5; stroke-linecap: square"/>
   </g>
   <g id="line2d_15">
    <path d="M 43.415094 66.091334 
L 44.821078 160.146361 
L 46.227062 155.654423 
L 47.633046 144.492261 
L 49.039031 133.057781 
L 50.445015 134.973655 
L 51.850999 128.240098 
L 53.256983 128.853804 
L 54.662968 123.85772 
L 56.068952 122.719289 
L 57.474936 123.973999 
L 58.88092 120.037889 
L 60.286905 124.974252 
L 61.692889 116.176488 
L 63.098873 115.395392 
L 64.504857 118.504074 
L 65.910842 119.043958 
L 67.316826 114.20075 
L 68.72281 114.305403 
L 70.128794 114.522325 
L 71.534779 115.988198 
L 72.940763 113.970342 
L 74.346747 113.796789 
L 75.752731 112.707613 
L 77.158716 114.551026 
L 78.5647 110.153113 
L 79.970684 109.45697 
L 81.376668 111.926525 
L 82.782653 109.761168 
L 84.188637 111.340553 
L 85.594621 107.498761 
L 87.000605 107.033146 
L 88.40659 108.195824 
L 89.812574 106.651027 
L 91.218558 108.555853 
L 92.624542 106.656571 
L 94.030527 109.041325 
L 95.436511 107.713633 
L 96.842495 109.320713 
L 98.248479 105.923873 
L 99.654464 108.571116 
L 101.060448 109.389707 
L 102.466432 106.402106 
L 103.872416 105.532319 
L 105.278401 103.756327 
L 106.684385 106.140337 
L 108.090369 105.834693 
L 109.496353 105.848505 
L 110.902338 103.844077 
L 112.308322 104.767294 
L 113.714306 103.859893 
L 115.12029 102.032136 
L 116.526275 104.009605 
L 117.932259 107.332754 
L 119.338243 104.809232 
L 120.744227 104.410994 
L 122.150212 104.016561 
L 123.556196 104.369067 
L 124.96218 103.114368 
L 126.368164 104.118803 
L 127.774149 102.797835 
L 129.180133 102.869755 
L 130.586117 102.49555 
L 131.992101 103.545324 
L 133.398086 103.114073 
L 134.80407 102.146035 
L 136.210054 101.451639 
L 137.616038 101.062865 
L 139.022023 101.231838 
L 140.428007 100.987321 
L 141.833991 99.661559 
L 143.239975 101.513987 
L 144.64596 102.648643 
L 146.051944 100.482348 
L 147.457928 100.796729 
L 148.863912 102.048468 
L 150.269897 101.171191 
L 151.675881 101.607392 
L 153.081865 100.621275 
L 154.487849 100.361215 
L 155.893834 98.72109 
L 157.299818 101.581443 
L 158.705802 99.272816 
L 160.111786 98.344577 
L 161.517771 98.692316 
L 162.923755 97.668138 
L 164.329739 99.881906 
L 165.735723 100.717325 
L 167.141708 98.433444 
L 168.547692 98.772676 
L 169.953676 97.67862 
L 171.35966 97.171888 
L 172.765645 98.776106 
L 174.171629 98.998901 
L 175.577613 98.051405 
L 176.983597 97.644704 
L 178.389582 97.164937 
L 179.795566 97.022641 
L 181.20155 97.509999 
L 182.607534 99.002147 
" clip-path="url(#pae9ea26bcd)" style="fill: none; stroke: #ff7f0e; stroke-width: 1.5; stroke-linecap: square"/>
   </g>
   <g id="line2d_16">
    <path d="M 43.415094 65.241733 
L 44.821078 160.606057 
L 46.227062 150.622098 
L 47.633046 142.840712 
L 49.039031 142.686201 
L 50.445015 135.957949 
L 51.850999 135.90424 
L 53.256983 132.395551 
L 54.662968 133.139815 
L 56.068952 131.53149 
L 57.474936 129.212805 
L 58.88092 125.403774 
L 60.286905 122.603824 
L 61.692889 129.25525 
L 63.098873 123.368383 
L 64.504857 123.552888 
L 65.910842 126.182164 
L 67.316826 126.814102 
L 68.72281 121.168447 
L 70.128794 127.569498 
L 71.534779 119.82783 
L 72.940763 121.894767 
L 74.346747 122.599928 
L 75.752731 120.884883 
L 77.158716 120.983153 
L 78.5647 118.42676 
L 79.970684 121.176331 
L 81.376668 118.238777 
L 82.782653 120.906281 
L 84.188637 119.712564 
L 85.594621 120.385649 
L 87.000605 121.246611 
L 88.40659 120.172859 
L 89.812574 116.857578 
L 91.218558 121.367346 
L 92.624542 116.204065 
L 94.030527 115.202239 
L 95.436511 117.035502 
L 96.842495 118.078701 
L 98.248479 115.797746 
L 99.654464 115.160953 
L 101.060448 117.022293 
L 102.466432 112.61702 
L 103.872416 117.298257 
L 105.278401 118.748319 
L 106.684385 117.336463 
L 108.090369 118.54752 
L 109.496353 115.045839 
L 110.902338 117.030877 
L 112.308322 115.437355 
L 113.714306 115.987246 
L 115.12029 114.707188 
L 116.526275 113.823451 
L 117.932259 113.559973 
L 119.338243 110.766347 
L 120.744227 111.55781 
L 122.150212 112.52535 
L 123.556196 113.173265 
L 124.96218 116.110397 
L 126.368164 113.788104 
L 127.774149 112.038166 
L 129.180133 111.964377 
L 130.586117 112.454949 
L 131.992101 112.991073 
L 133.398086 113.788967 
L 134.80407 114.89063 
L 136.210054 114.019999 
L 137.616038 112.824428 
L 139.022023 115.202552 
L 140.428007 113.578823 
L 141.833991 112.373268 
L 143.239975 112.285193 
L 144.64596 112.576592 
L 146.051944 111.87242 
L 147.457928 111.488218 
L 148.863912 110.543019 
L 150.269897 111.489587 
L 151.675881 110.387257 
L 153.081865 111.923197 
L 154.487849 112.290459 
L 155.893834 111.710288 
L 157.299818 110.582584 
L 158.705802 111.682274 
L 160.111786 111.004874 
L 161.517771 109.521251 
L 162.923755 108.011552 
L 164.329739 108.003581 
L 165.735723 107.332488 
L 167.141708 109.234109 
L 168.547692 108.929903 
L 169.953676 108.827842 
L 171.35966 107.376429 
L 172.765645 110.290199 
L 174.171629 107.190221 
L 175.577613 108.960128 
L 176.983597 109.223742 
L 178.389582 109.297387 
L 179.795566 108.156834 
L 181.20155 106.631101 
L 182.607534 109.392387 
" clip-path="url(#pae9ea26bcd)" style="fill: none; stroke: #2ca02c; stroke-width: 1.5; stroke-linecap: square"/>
   </g>
   <g id="line2d_17"/>
   <g id="line2d_18"/>
   <g id="line2d_19"/>
   <g id="line2d_20">
    <path clip-path="url(#pae9ea26bcd)" style="fill: none; stroke-dasharray: 5.55,2.4; stroke-dashoffset: 0; stroke: #ff0000; stroke-opacity: 0.5; stroke-width: 1.5"/>
   </g>
   <g id="patch_3">
    <path d="M 40.603125 288.430125 
L 40.603125 22.318125 
" style="fill: none; stroke: #000000; stroke-width: 0.8; stroke-linejoin: miter; stroke-linecap: square"/>
   </g>
   <g id="patch_4">
    <path d="M 397.723125 288.430125 
L 397.723125 22.318125 
" style="fill: none; stroke: #000000; stroke-width: 0.8; stroke-linejoin: miter; stroke-linecap: square"/>
   </g>
   <g id="patch_5">
    <path d="M 40.603125 288.430125 
L 397.723125 288.430125 
" style="fill: none; stroke: #000000; stroke-width: 0.8; stroke-linejoin: miter; stroke-linecap: square"/>
   </g>
   <g id="patch_6">
    <path d="M 40.603125 22.318125 
L 397.723125 22.318125 
" style="fill: none; stroke: #000000; stroke-width: 0.8; stroke-linejoin: miter; stroke-linecap: square"/>
   </g>
   <g id="text_16">
    <!-- Optimisation results -->
    <g transform="translate(158.802188 16.318125) scale(0.12 -0.12)">
     <defs>
      <path id="DejaVuSans-6c" d="M 603 4863 
L 1178 4863 
L 1178 0 
L 603 0 
L 603 4863 
z
" transform="scale(0.015625)"/>
     </defs>
     <use xlink:href="#DejaVuSans-4f"/>
     <use xlink:href="#DejaVuSans-70" transform="translate(78.710938 0)"/>
     <use xlink:href="#DejaVuSans-74" transform="translate(142.1875 0)"/>
     <use xlink:href="#DejaVuSans-69" transform="translate(181.396484 0)"/>
     <use xlink:href="#DejaVuSans-6d" transform="translate(209.179688 0)"/>
     <use xlink:href="#DejaVuSans-69" transform="translate(306.591797 0)"/>
     <use xlink:href="#DejaVuSans-73" transform="translate(334.375 0)"/>
     <use xlink:href="#DejaVuSans-61" transform="translate(386.474609 0)"/>
     <use xlink:href="#DejaVuSans-74" transform="translate(447.753906 0)"/>
     <use xlink:href="#DejaVuSans-69" transform="translate(486.962891 0)"/>
     <use xlink:href="#DejaVuSans-6f" transform="translate(514.746094 0)"/>
     <use xlink:href="#DejaVuSans-6e" transform="translate(575.927734 0)"/>
     <use xlink:href="#DejaVuSans-20" transform="translate(639.306641 0)"/>
     <use xlink:href="#DejaVuSans-72" transform="translate(671.09375 0)"/>
     <use xlink:href="#DejaVuSans-65" transform="translate(709.957031 0)"/>
     <use xlink:href="#DejaVuSans-73" transform="translate(771.480469 0)"/>
     <use xlink:href="#DejaVuSans-75" transform="translate(823.580078 0)"/>
     <use xlink:href="#DejaVuSans-6c" transform="translate(886.958984 0)"/>
     <use xlink:href="#DejaVuSans-74" transform="translate(914.742188 0)"/>
     <use xlink:href="#DejaVuSans-73" transform="translate(953.951172 0)"/>
    </g>
   </g>
   <g id="legend_1">
    <g id="patch_7">
     <path d="M 232.955938 89.865 
L 390.723125 89.865 
Q 392.723125 89.865 392.723125 87.865 
L 392.723125 29.318125 
Q 392.723125 27.318125 390.723125 27.318125 
L 232.955938 27.318125 
Q 230.955938 27.318125 230.955938 29.318125 
L 230.955938 87.865 
Q 230.955938 89.865 232.955938 89.865 
z
" style="fill: #ffffff; opacity: 0.8; stroke: #cccccc; stroke-linejoin: miter"/>
    </g>
    <g id="text_17">
     <!-- method_name -->
     <g transform="translate(275.850469 38.916562) scale(0.1 -0.1)">
      <defs>
       <path id="DejaVuSans-5f" d="M 3263 -1063 
L 3263 -1509 
L -63 -1509 
L -63 -1063 
L 3263 -1063 
z
" transform="scale(0.015625)"/>
      </defs>
      <use xlink:href="#DejaVuSans-6d"/>
      <use xlink:href="#DejaVuSans-65" transform="translate(97.412109 0)"/>
      <use xlink:href="#DejaVuSans-74" transform="translate(158.935547 0)"/>
      <use xlink:href="#DejaVuSans-68" transform="translate(198.144531 0)"/>
      <use xlink:href="#DejaVuSans-6f" transform="translate(261.523438 0)"/>
      <use xlink:href="#DejaVuSans-64" transform="translate(322.705078 0)"/>
      <use xlink:href="#DejaVuSans-5f" transform="translate(386.181641 0)"/>
      <use xlink:href="#DejaVuSans-6e" transform="translate(436.181641 0)"/>
      <use xlink:href="#DejaVuSans-61" transform="translate(499.560547 0)"/>
      <use xlink:href="#DejaVuSans-6d" transform="translate(560.839844 0)"/>
      <use xlink:href="#DejaVuSans-65" transform="translate(658.251953 0)"/>
     </g>
    </g>
    <g id="line2d_21">
     <path d="M 234.955938 50.372813 
L 244.955938 50.372813 
L 254.955938 50.372813 
" style="fill: none; stroke: #1f77b4; stroke-width: 1.5; stroke-linecap: square"/>
    </g>
    <g id="text_18">
     <!-- LinearRegression -->
     <g transform="translate(262.955938 53.872813) scale(0.1 -0.1)">
      <defs>
       <path id="DejaVuSans-4c" d="M 628 4666 
L 1259 4666 
L 1259 531 
L 3531 531 
L 3531 0 
L 628 0 
L 628 4666 
z
" transform="scale(0.015625)"/>
       <path id="DejaVuSans-52" d="M 2841 2188 
Q 3044 2119 3236 1894 
Q 3428 1669 3622 1275 
L 4263 0 
L 3584 0 
L 2988 1197 
Q 2756 1666 2539 1819 
Q 2322 1972 1947 1972 
L 1259 1972 
L 1259 0 
L 628 0 
L 628 4666 
L 2053 4666 
Q 2853 4666 3247 4331 
Q 3641 3997 3641 3322 
Q 3641 2881 3436 2590 
Q 3231 2300 2841 2188 
z
M 1259 4147 
L 1259 2491 
L 2053 2491 
Q 2509 2491 2742 2702 
Q 2975 2913 2975 3322 
Q 2975 3731 2742 3939 
Q 2509 4147 2053 4147 
L 1259 4147 
z
" transform="scale(0.015625)"/>
      </defs>
      <use xlink:href="#DejaVuSans-4c"/>
      <use xlink:href="#DejaVuSans-69" transform="translate(55.712891 0)"/>
      <use xlink:href="#DejaVuSans-6e" transform="translate(83.496094 0)"/>
      <use xlink:href="#DejaVuSans-65" transform="translate(146.875 0)"/>
      <use xlink:href="#DejaVuSans-61" transform="translate(208.398438 0)"/>
      <use xlink:href="#DejaVuSans-72" transform="translate(269.677734 0)"/>
      <use xlink:href="#DejaVuSans-52" transform="translate(310.791016 0)"/>
      <use xlink:href="#DejaVuSans-65" transform="translate(375.773438 0)"/>
      <use xlink:href="#DejaVuSans-67" transform="translate(437.296875 0)"/>
      <use xlink:href="#DejaVuSans-72" transform="translate(500.773438 0)"/>
      <use xlink:href="#DejaVuSans-65" transform="translate(539.636719 0)"/>
      <use xlink:href="#DejaVuSans-73" transform="translate(601.160156 0)"/>
      <use xlink:href="#DejaVuSans-73" transform="translate(653.259766 0)"/>
      <use xlink:href="#DejaVuSans-69" transform="translate(705.359375 0)"/>
      <use xlink:href="#DejaVuSans-6f" transform="translate(733.142578 0)"/>
      <use xlink:href="#DejaVuSans-6e" transform="translate(794.324219 0)"/>
     </g>
    </g>
    <g id="line2d_22">
     <path d="M 234.955938 65.050938 
L 244.955938 65.050938 
L 254.955938 65.050938 
" style="fill: none; stroke: #ff7f0e; stroke-width: 1.5; stroke-linecap: square"/>
    </g>
    <g id="text_19">
     <!-- Shuffle_LinearRegression -->
     <g transform="translate(262.955938 68.550938) scale(0.1 -0.1)">
      <defs>
       <path id="DejaVuSans-53" d="M 3425 4513 
L 3425 3897 
Q 3066 4069 2747 4153 
Q 2428 4238 2131 4238 
Q 1616 4238 1336 4038 
Q 1056 3838 1056 3469 
Q 1056 3159 1242 3001 
Q 1428 2844 1947 2747 
L 2328 2669 
Q 3034 2534 3370 2195 
Q 3706 1856 3706 1288 
Q 3706 609 3251 259 
Q 2797 -91 1919 -91 
Q 1588 -91 1214 -16 
Q 841 59 441 206 
L 441 856 
Q 825 641 1194 531 
Q 1563 422 1919 422 
Q 2459 422 2753 634 
Q 3047 847 3047 1241 
Q 3047 1584 2836 1778 
Q 2625 1972 2144 2069 
L 1759 2144 
Q 1053 2284 737 2584 
Q 422 2884 422 3419 
Q 422 4038 858 4394 
Q 1294 4750 2059 4750 
Q 2388 4750 2728 4690 
Q 3069 4631 3425 4513 
z
" transform="scale(0.015625)"/>
       <path id="DejaVuSans-66" d="M 2375 4863 
L 2375 4384 
L 1825 4384 
Q 1516 4384 1395 4259 
Q 1275 4134 1275 3809 
L 1275 3500 
L 2222 3500 
L 2222 3053 
L 1275 3053 
L 1275 0 
L 697 0 
L 697 3053 
L 147 3053 
L 147 3500 
L 697 3500 
L 697 3744 
Q 697 4328 969 4595 
Q 1241 4863 1831 4863 
L 2375 4863 
z
" transform="scale(0.015625)"/>
      </defs>
      <use xlink:href="#DejaVuSans-53"/>
      <use xlink:href="#DejaVuSans-68" transform="translate(63.476562 0)"/>
      <use xlink:href="#DejaVuSans-75" transform="translate(126.855469 0)"/>
      <use xlink:href="#DejaVuSans-66" transform="translate(190.234375 0)"/>
      <use xlink:href="#DejaVuSans-66" transform="translate(225.439453 0)"/>
      <use xlink:href="#DejaVuSans-6c" transform="translate(260.644531 0)"/>
      <use xlink:href="#DejaVuSans-65" transform="translate(288.427734 0)"/>
      <use xlink:href="#DejaVuSans-5f" transform="translate(349.951172 0)"/>
      <use xlink:href="#DejaVuSans-4c" transform="translate(399.951172 0)"/>
      <use xlink:href="#DejaVuSans-69" transform="translate(455.664062 0)"/>
      <use xlink:href="#DejaVuSans-6e" transform="translate(483.447266 0)"/>
      <use xlink:href="#DejaVuSans-65" transform="translate(546.826172 0)"/>
      <use xlink:href="#DejaVuSans-61" transform="translate(608.349609 0)"/>
      <use xlink:href="#DejaVuSans-72" transform="translate(669.628906 0)"/>
      <use xlink:href="#DejaVuSans-52" transform="translate(710.742188 0)"/>
      <use xlink:href="#DejaVuSans-65" transform="translate(775.724609 0)"/>
      <use xlink:href="#DejaVuSans-67" transform="translate(837.248047 0)"/>
      <use xlink:href="#DejaVuSans-72" transform="translate(900.724609 0)"/>
      <use xlink:href="#DejaVuSans-65" transform="translate(939.587891 0)"/>
      <use xlink:href="#DejaVuSans-73" transform="translate(1001.111328 0)"/>
      <use xlink:href="#DejaVuSans-73" transform="translate(1053.210938 0)"/>
      <use xlink:href="#DejaVuSans-69" transform="translate(1105.310547 0)"/>
      <use xlink:href="#DejaVuSans-6f" transform="translate(1133.09375 0)"/>
      <use xlink:href="#DejaVuSans-6e" transform="translate(1194.275391 0)"/>
     </g>
    </g>
    <g id="line2d_23">
     <path d="M 234.955938 80.007188 
L 244.955938 80.007188 
L 254.955938 80.007188 
" style="fill: none; stroke: #2ca02c; stroke-width: 1.5; stroke-linecap: square"/>
    </g>
    <g id="text_20">
     <!-- DummyScoring_Mean -->
     <g transform="translate(262.955938 83.507188) scale(0.1 -0.1)">
      <defs>
       <path id="DejaVuSans-79" d="M 2059 -325 
Q 1816 -950 1584 -1140 
Q 1353 -1331 966 -1331 
L 506 -1331 
L 506 -850 
L 844 -850 
Q 1081 -850 1212 -737 
Q 1344 -625 1503 -206 
L 1606 56 
L 191 3500 
L 800 3500 
L 1894 763 
L 2988 3500 
L 3597 3500 
L 2059 -325 
z
" transform="scale(0.015625)"/>
       <path id="DejaVuSans-4d" d="M 628 4666 
L 1569 4666 
L 2759 1491 
L 3956 4666 
L 4897 4666 
L 4897 0 
L 4281 0 
L 4281 4097 
L 3078 897 
L 2444 897 
L 1241 4097 
L 1241 0 
L 628 0 
L 628 4666 
z
" transform="scale(0.015625)"/>
      </defs>
      <use xlink:href="#DejaVuSans-44"/>
      <use xlink:href="#DejaVuSans-75" transform="translate(77.001953 0)"/>
      <use xlink:href="#DejaVuSans-6d" transform="translate(140.380859 0)"/>
      <use xlink:href="#DejaVuSans-6d" transform="translate(237.792969 0)"/>
      <use xlink:href="#DejaVuSans-79" transform="translate(335.205078 0)"/>
      <use xlink:href="#DejaVuSans-53" transform="translate(394.384766 0)"/>
      <use xlink:href="#DejaVuSans-63" transform="translate(457.861328 0)"/>
      <use xlink:href="#DejaVuSans-6f" transform="translate(512.841797 0)"/>
      <use xlink:href="#DejaVuSans-72" transform="translate(574.023438 0)"/>
      <use xlink:href="#DejaVuSans-69" transform="translate(615.136719 0)"/>
      <use xlink:href="#DejaVuSans-6e" transform="translate(642.919922 0)"/>
      <use xlink:href="#DejaVuSans-67" transform="translate(706.298828 0)"/>
      <use xlink:href="#DejaVuSans-5f" transform="translate(769.775391 0)"/>
      <use xlink:href="#DejaVuSans-4d" transform="translate(819.775391 0)"/>
      <use xlink:href="#DejaVuSans-65" transform="translate(906.054688 0)"/>
      <use xlink:href="#DejaVuSans-61" transform="translate(967.578125 0)"/>
      <use xlink:href="#DejaVuSans-6e" transform="translate(1028.857422 0)"/>
     </g>
    </g>
   </g>
  </g>
 </g>
 <defs>
  <clipPath id="pae9ea26bcd">
   <rect x="40.603125" y="22.318125" width="357.12" height="266.112"/>
  </clipPath>
 </defs>
</svg>
